<svg xmlns="http://www.w3.org/2000/svg" width="18px" height="18px">
	<path d="M 0,0 L 1,0 L 0.75,0.75 L 0,1" fill="#a6a6a6" fill-opacity="1" />
	<path d="M 1,0 L 2,0 L 2,1 L 1.25,1.25 L 0.75,0.75" fill="#a6a6a6" fill-opacity="1" />
	<path d="M 2,0 L 3,0 L 3.25,0.75 L 2.75,1.25 L 2,1" fill="#a6a6a6" fill-opacity="1" />
	<path d="M 3,0 L 4,0 L 3.75,0.75 L 3.25,0.75" fill="#a6a6a6" fill-opacity="1" />
	<path d="M 4,0 L 5,0 L 5.25,0.75 L 4.75,1.25 L 4.25,1.25 L 3.75,0.75" fill="#a6a6a6" fill-opacity="1" />
	<path d="M 5,0 L 6,0 L 5.75,0.75 L 5.25,0.75" fill="#a6a6a6" fill-opacity="1" />
	<path d="M 6,0 L 7,0 L 7,1 L 6.25,1.25 L 5.75,0.75" fill="#a6a6a6" fill-opacity="1" />
	<path d="M 7,0 L 8,0 L 8,1 L 7,1" fill="#a6a6a6" fill-opacity="1" />
	<path d="M 8,0 L 9,0 L 9,1 L 8,1" fill="#a6a6a6" fill-opacity="1" />
	<path d="M 9,0 L 10,0 L 10,1 L 9,1" fill="#a6a6a6" fill-opacity="1" />
	<path d="M 10,0 L 11,0 L 11.25,0.75 L 10.75,1.25 L 10,1" fill="#a6a6a6" fill-opacity="1" />
	<path d="M 11,0 L 12,0 L 11.75,0.75 L 11.25,0.75" fill="#a6a6a6" fill-opacity="1" />
	<path d="M 12,0 L 13,0 L 13.25,0.75 L 12.75,1.25 L 12.25,1.25 L 11.75,0.75" fill="#a6a6a6" fill-opacity="1" />
	<path d="M 13,0 L 14,0 L 13.75,0.75 L 13.25,0.75" fill="#a6a6a6" fill-opacity="1" />
	<path d="M 14,0 L 15,0 L 15,1 L 14.25,1.25 L 13.75,0.75" fill="#a6a6a6" fill-opacity="1" />
	<path d="M 15,0 L 16,0 L 16.25,0.75 L 15.75,1.25 L 15,1" fill="#a6a6a6" fill-opacity="1" />
	<path d="M 16,0 L 17,0 L 17,1 L 16.25,0.75" fill="#a6a6a6" fill-opacity="1" />
	<path d="M 17,0 L 18,0 L 18,1 L 17,1" fill="#a6a6a6" fill-opacity="1" />
	<path d="M 0,1 L 0.75,0.75 L 1.25,1.25 L 1.25,1.75 L 0.75,2.25 L 0,2" fill="#a6a6a6" fill-opacity="1" />
	<path d="M 1.25,1.25 L 2,1 L 2.25,1.75 L 1.75,2.25 L 1.25,1.75" fill="#000000" fill-opacity="1" />
	<path d="M 2,1 L 2.75,1.25 L 3,2 L 2.25,1.75" fill="#000000" fill-opacity="1" />
	<path d="M 2.75,1.25 L 3.25,0.75 L 3.75,0.75 L 4.25,1.25 L 4,2 L 3,2" fill="#a6a6a6" fill-opacity="1" />
	<path d="M 4.25,1.25 L 4.75,1.25 L 5.25,1.75 L 4.75,2.25 L 4,2" fill="#000000" fill-opacity="1" />
	<path d="M 4.75,1.25 L 5.25,0.75 L 5.75,0.75 L 6.25,1.25 L 5.75,1.75 L 5.25,1.75" fill="#a6a6a6" fill-opacity="1" />
	<path d="M 6.25,1.25 L 7,1 L 7,2 L 6.25,2.25 L 5.75,1.75" fill="#000000" fill-opacity="1" />
	<path d="M 7,1 L 8,1 L 8,2 L 7,2" fill="#000000" fill-opacity="1" />
	<path d="M 8,1 L 9,1 L 9,2 L 8,2" fill="#000000" fill-opacity="1" />
	<path d="M 9,1 L 10,1 L 10,2 L 9,2" fill="#000000" fill-opacity="1" />
	<path d="M 10,1 L 10.75,1.25 L 11.25,1.75 L 10.75,2.25 L 10,2" fill="#000000" fill-opacity="1" />
	<path d="M 10.75,1.25 L 11.25,0.75 L 11.75,0.75 L 12.25,1.25 L 11.75,1.75 L 11.25,1.75" fill="#a6a6a6" fill-opacity="1" />
	<path d="M 12.25,1.25 L 12.75,1.25 L 13,2 L 12.25,2.25 L 11.75,1.75" fill="#000000" fill-opacity="1" />
	<path d="M 12.75,1.25 L 13.25,0.75 L 13.75,0.75 L 14.25,1.25 L 14,2 L 13,2" fill="#a6a6a6" fill-opacity="1" />
	<path d="M 14.25,1.25 L 15,1 L 14.75,1.75 L 14,2" fill="#000000" fill-opacity="1" />
	<path d="M 15,1 L 15.75,1.25 L 15.75,1.75 L 15.25,2.25 L 14.75,1.75" fill="#000000" fill-opacity="1" />
	<path d="M 15.75,1.25 L 16.25,0.75 L 17,1 L 17,2 L 16.25,2.25 L 15.75,1.75" fill="#a6a6a6" fill-opacity="1" />
	<path d="M 17,1 L 18,1 L 18,2 L 17,2" fill="#a6a6a6" fill-opacity="1" />
	<path d="M 0,2 L 0.75,2.25 L 1,3 L 0,3" fill="#a6a6a6" fill-opacity="1" />
	<path d="M 0.75,2.25 L 1.25,1.75 L 1.75,2.25 L 2.25,2.75 L 1.75,3.25 L 1,3" fill="#a6a6a6" fill-opacity="1" />
	<path d="M 1.75,2.25 L 2.25,1.75 L 3,2 L 3.25,2.75 L 2.75,3.25 L 2.25,2.75" fill="#000000" fill-opacity="1" />
	<path d="M 3,2 L 4,2 L 3.75,2.75 L 3.25,2.75" fill="#a6a6a6" fill-opacity="1" />
	<path d="M 4,2 L 4.75,2.25 L 5,3 L 4.25,3.25 L 3.75,2.75" fill="#000000" fill-opacity="1" />
	<path d="M 4.75,2.25 L 5.25,1.75 L 5.75,1.75 L 6.25,2.25 L 5.75,2.75 L 5,3" fill="#000000" fill-opacity="1" />
	<path d="M 6.25,2.25 L 7,2 L 7,3 L 6.25,3.25 L 5.75,2.75" fill="#c0c0c0" fill-opacity="1" />
	<path d="M 7,2 L 8,2 L 8,3 L 7,3" fill="#c0c0c0" fill-opacity="1" />
	<path d="M 8,2 L 9,2 L 9,3 L 8,3" fill="#c0c0c0" fill-opacity="1" />
	<path d="M 9,2 L 10,2 L 10,3 L 9,3" fill="#c0c0c0" fill-opacity="1" />
	<path d="M 10,2 L 10.75,2.25 L 11.25,2.75 L 10.75,3.25 L 10,3" fill="#c0c0c0" fill-opacity="1" />
	<path d="M 10.75,2.25 L 11.25,1.75 L 11.75,1.75 L 12.25,2.25 L 12,3 L 11.25,2.75" fill="#000000" fill-opacity="1" />
	<path d="M 12.25,2.25 L 13,2 L 13.25,2.75 L 12.75,3.25 L 12,3" fill="#000000" fill-opacity="1" />
	<path d="M 13,2 L 14,2 L 13.75,2.75 L 13.25,2.75" fill="#a6a6a6" fill-opacity="1" />
	<path d="M 14,2 L 14.75,1.75 L 15.25,2.25 L 14.75,2.75 L 14.25,3.25 L 13.75,2.75" fill="#000000" fill-opacity="1" />
	<path d="M 15.25,2.25 L 15.75,1.75 L 16.25,2.25 L 16,3 L 15.25,3.25 L 14.75,2.75" fill="#a6a6a6" fill-opacity="1" />
	<path d="M 16.25,2.25 L 17,2 L 17,3 L 16,3" fill="#a6a6a6" fill-opacity="1" />
	<path d="M 17,2 L 18,2 L 18,3 L 17,3" fill="#a6a6a6" fill-opacity="1" />
	<path d="M 0,3 L 1,3 L 1,4 L 0,4" fill="#a6a6a6" fill-opacity="1" />
	<path d="M 1,3 L 1.75,3.25 L 1.75,3.75 L 1,4" fill="#a6a6a6" fill-opacity="1" />
	<path d="M 1.75,3.25 L 2.25,2.75 L 2.75,3.25 L 2.75,3.75 L 2.25,4.25 L 1.75,3.75" fill="#a6a6a6" fill-opacity="1" />
	<path d="M 2.75,3.25 L 3.25,2.75 L 3.75,2.75 L 4.25,3.25 L 3.75,3.75 L 3.25,4.25 L 2.75,3.75" fill="#000000" fill-opacity="1" />
	<path d="M 4.25,3.25 L 5,3 L 5,4 L 4.25,4.25 L 3.75,3.75" fill="#c0c0c0" fill-opacity="1" />
	<path d="M 5,3 L 5.75,2.75 L 6.25,3.25 L 5.75,3.75 L 5,4" fill="#c0c0c0" fill-opacity="1" />
	<path d="M 6.25,3.25 L 7,3 L 7,4 L 6.25,4.25 L 5.75,3.75" fill="#e0e0e0" fill-opacity="1" />
	<path d="M 7,3 L 8,3 L 8,4 L 7,4" fill="#e0e0e0" fill-opacity="1" />
	<path d="M 8,3 L 9,3 L 9,4 L 8,4" fill="#e0e0e0" fill-opacity="1" />
	<path d="M 9,3 L 10,3 L 10,4 L 9,4" fill="#e0e0e0" fill-opacity="1" />
	<path d="M 10,3 L 10.75,3.25 L 11,4 L 10,4" fill="#e0e0e0" fill-opacity="1" />
	<path d="M 10.75,3.25 L 11.25,2.75 L 12,3 L 12.25,3.75 L 11.75,4.25 L 11,4" fill="#e0e0e0" fill-opacity="1" />
	<path d="M 12,3 L 12.75,3.25 L 13.25,3.75 L 12.75,4.25 L 12.25,3.75" fill="#c0c0c0" fill-opacity="1" />
	<path d="M 12.75,3.25 L 13.25,2.75 L 13.75,2.75 L 14.25,3.25 L 14.25,3.75 L 13.75,4.25 L 13.25,3.75" fill="#000000" fill-opacity="1" />
	<path d="M 14.25,3.25 L 14.75,2.75 L 15.25,3.25 L 15.25,3.75 L 14.75,4.25 L 14.25,3.75" fill="#a6a6a6" fill-opacity="1" />
	<path d="M 15.25,3.25 L 16,3 L 16,4 L 15.25,3.75" fill="#a6a6a6" fill-opacity="1" />
	<path d="M 16,3 L 17,3 L 17,4 L 16,4" fill="#a6a6a6" fill-opacity="1" />
	<path d="M 17,3 L 18,3 L 18,4 L 17,4" fill="#a6a6a6" fill-opacity="1" />
	<path d="M 0,4 L 1,4 L 1,5 L 0,5" fill="#a6a6a6" fill-opacity="1" />
	<path d="M 1,4 L 1.75,3.75 L 2.25,4.25 L 2,5 L 1,5" fill="#a6a6a6" fill-opacity="1" />
	<path d="M 2.25,4.25 L 2.75,3.75 L 3.25,4.25 L 3,5 L 2,5" fill="#000000" fill-opacity="1" />
	<path d="M 3.25,4.25 L 3.75,3.75 L 4.25,4.25 L 3.75,4.75 L 3,5" fill="#a6a6a6" fill-opacity="1" />
	<path d="M 4.25,4.25 L 5,4 L 5,5 L 4.25,5.25 L 3.75,4.75" fill="#e0e0e0" fill-opacity="1" />
	<path d="M 5,4 L 5.75,3.75 L 6.25,4.25 L 6,5 L 5,5" fill="#e0e0e0" fill-opacity="1" />
	<path d="M 6.25,4.25 L 7,4 L 7.25,4.75 L 6.75,5.25 L 6,5" fill="#f8f8f8" fill-opacity="1" />
	<path d="M 7,4 L 8,4 L 8,5 L 7.25,4.75" fill="#f8f8f8" fill-opacity="1" />
	<path d="M 8,4 L 9,4 L 9,5 L 8,5" fill="#f8f8f8" fill-opacity="1" />
	<path d="M 9,4 L 10,4 L 10,5 L 9,5" fill="#f8f8f8" fill-opacity="1" />
	<path d="M 10,4 L 11,4 L 11,5 L 10,5" fill="#f8f8f8" fill-opacity="1" />
	<path d="M 11,4 L 11.75,4.25 L 12.25,4.75 L 11.75,5.25 L 11,5" fill="#f8f8f8" fill-opacity="1" />
	<path d="M 11.75,4.25 L 12.25,3.75 L 12.75,4.25 L 13.25,4.75 L 12.75,5.25 L 12.25,4.75" fill="#e0e0e0" fill-opacity="1" />
	<path d="M 12.75,4.25 L 13.25,3.75 L 13.75,4.25 L 14,5 L 13.25,4.75" fill="#e0e0e0" fill-opacity="1" />
	<path d="M 13.75,4.25 L 14.25,3.75 L 14.75,4.25 L 15,5 L 14,5" fill="#000000" fill-opacity="1" />
	<path d="M 14.75,4.25 L 15.25,3.75 L 16,4 L 16,5 L 15,5" fill="#a6a6a6" fill-opacity="1" />
	<path d="M 16,4 L 17,4 L 17,5 L 16,5" fill="#a6a6a6" fill-opacity="1" />
	<path d="M 17,4 L 18,4 L 18,5 L 17,5" fill="#a6a6a6" fill-opacity="1" />
	<path d="M 0,5 L 1,5 L 1,6 L 0,6" fill="#a6a6a6" fill-opacity="1" />
	<path d="M 1,5 L 2,5 L 2,6 L 1,6" fill="#a6a6a6" fill-opacity="1" />
	<path d="M 2,5 L 3,5 L 3,6 L 2,6" fill="#000000" fill-opacity="1" />
	<path d="M 3,5 L 3.75,4.75 L 4.25,5.25 L 3.75,5.75 L 3,6" fill="#c0c0c0" fill-opacity="1" />
	<path d="M 4.25,5.25 L 5,5 L 5.25,5.75 L 4.75,6.25 L 4.25,6.25 L 3.75,5.75" fill="#ffffff" fill-opacity="1" />
	<path d="M 5,5 L 6,5 L 5.75,5.75 L 5.25,5.75" fill="#ffffff" fill-opacity="1" />
	<path d="M 6,5 L 6.75,5.25 L 7.25,5.75 L 6.75,6.25 L 6.25,6.25 L 5.75,5.75" fill="#ffffff" fill-opacity="1" />
	<path d="M 6.75,5.25 L 7.25,4.75 L 8,5 L 8,6 L 7.25,5.75" fill="#f8f8f8" fill-opacity="1" />
	<path d="M 8,5 L 9,5 L 9,6 L 8,6" fill="#f8f8f8" fill-opacity="1" />
	<path d="M 9,5 L 10,5 L 9.75,5.75 L 9,6" fill="#f8f8f8" fill-opacity="1" />
	<path d="M 10,5 L 11,5 L 11,6 L 10.25,6.25 L 9.75,5.75" fill="#f8f8f8" fill-opacity="1" />
	<path d="M 11,5 L 11.75,5.25 L 12.25,5.75 L 11.75,6.25 L 11,6" fill="#f8f8f8" fill-opacity="1" />
	<path d="M 11.75,5.25 L 12.25,4.75 L 12.75,5.25 L 13,6 L 12.25,5.75" fill="#f8f8f8" fill-opacity="1" />
	<path d="M 12.75,5.25 L 13.25,4.75 L 14,5 L 14.25,5.75 L 13.75,6.25 L 13,6" fill="#e0e0e0" fill-opacity="1" />
	<path d="M 14,5 L 15,5 L 15.25,5.75 L 14.75,6.25 L 14.25,5.75" fill="#000000" fill-opacity="1" />
	<path d="M 15,5 L 16,5 L 16.25,5.75 L 15.75,6.25 L 15.25,5.75" fill="#a6a6a6" fill-opacity="1" />
	<path d="M 16,5 L 17,5 L 17,6 L 16.25,5.75" fill="#a6a6a6" fill-opacity="1" />
	<path d="M 17,5 L 18,5 L 18,6 L 17,6" fill="#a6a6a6" fill-opacity="1" />
	<path d="M 0,6 L 1,6 L 0.75,6.75 L 0,7" fill="#a6a6a6" fill-opacity="1" />
	<path d="M 1,6 L 2,6 L 1.75,6.75 L 1.25,7.25 L 0.75,6.75" fill="#a6a6a6" fill-opacity="1" />
	<path d="M 2,6 L 3,6 L 2.75,6.75 L 2.25,7.25 L 1.75,6.75" fill="#000000" fill-opacity="1" />
	<path d="M 3,6 L 3.75,5.75 L 4.25,6.25 L 4.25,6.75 L 3.75,7.25 L 3.25,7.25 L 2.75,6.75" fill="#e0e0e0" fill-opacity="1" />
	<path d="M 4.25,6.25 L 4.75,6.25 L 5.25,6.75 L 4.75,7.25 L 4.25,6.75" fill="#000000" fill-opacity="1" />
	<path d="M 4.75,6.25 L 5.25,5.75 L 5.75,5.75 L 6.25,6.25 L 5.75,6.75 L 5.25,6.75" fill="#f8f8f8" fill-opacity="1" />
	<path d="M 6.25,6.25 L 6.75,6.25 L 6.75,6.75 L 6.25,7.25 L 5.75,6.75" fill="#000000" fill-opacity="1" />
	<path d="M 6.75,6.25 L 7.25,5.75 L 8,6 L 8,7 L 7.25,7.25 L 6.75,6.75" fill="#f8f8f8" fill-opacity="1" />
	<path d="M 8,6 L 9,6 L 8.75,6.75 L 8,7" fill="#f8f8f8" fill-opacity="1" />
	<path d="M 9,6 L 9.75,5.75 L 10.25,6.25 L 9.75,6.75 L 9.25,7.25 L 8.75,6.75" fill="#f8f8f8" fill-opacity="1" />
	<path d="M 10.25,6.25 L 11,6 L 11,7 L 10.25,7.25 L 9.75,6.75" fill="#000000" fill-opacity="1" />
	<path d="M 11,6 L 11.75,6.25 L 12.25,6.75 L 11.75,7.25 L 11,7" fill="#000000" fill-opacity="1" />
	<path d="M 11.75,6.25 L 12.25,5.75 L 13,6 L 13.25,6.75 L 12.75,7.25 L 12.25,6.75" fill="#f8f8f8" fill-opacity="1" />
	<path d="M 13,6 L 13.75,6.25 L 14.25,6.75 L 13.75,7.25 L 13.25,6.75" fill="#e0e0e0" fill-opacity="1" />
	<path d="M 13.75,6.25 L 14.25,5.75 L 14.75,6.25 L 15,7 L 14.25,6.75" fill="#c0c0c0" fill-opacity="1" />
	<path d="M 14.75,6.25 L 15.25,5.75 L 15.75,6.25 L 16,7 L 15,7" fill="#000000" fill-opacity="1" />
	<path d="M 15.75,6.25 L 16.25,5.75 L 17,6 L 17,7 L 16,7" fill="#a6a6a6" fill-opacity="1" />
	<path d="M 17,6 L 18,6 L 18,7 L 17,7" fill="#a6a6a6" fill-opacity="1" />
	<path d="M 0,7 L 0.75,6.75 L 1.25,7.25 L 1,8 L 0,8" fill="#a6a6a6" fill-opacity="1" />
	<path d="M 1.25,7.25 L 1.75,6.75 L 2.25,7.25 L 2,8 L 1,8" fill="#000000" fill-opacity="1" />
	<path d="M 2.25,7.25 L 2.75,6.75 L 3.25,7.25 L 3,8 L 2,8" fill="#c0c0c0" fill-opacity="1" />
	<path d="M 3.25,7.25 L 3.75,7.25 L 3.75,7.75 L 3,8" fill="#e0e0e0" fill-opacity="1" />
	<path d="M 3.75,7.25 L 4.25,6.75 L 4.75,7.25 L 4.75,7.75 L 4.25,8.25 L 3.75,7.75" fill="#ffffff" fill-opacity="1" />
	<path d="M 4.75,7.25 L 5.25,6.75 L 5.75,6.75 L 6.25,7.25 L 6.25,7.75 L 5.75,8.25 L 5.25,8.25 L 4.75,7.75" fill="#000000" fill-opacity="1" />
	<path d="M 6.25,7.25 L 6.75,6.75 L 7.25,7.25 L 7.25,7.75 L 6.75,8.25 L 6.25,7.75" fill="#ffffff" fill-opacity="1" />
	<path d="M 7.25,7.25 L 8,7 L 8,8 L 7.25,7.75" fill="#f8f8f8" fill-opacity="1" />
	<path d="M 8,7 L 8.75,6.75 L 9.25,7.25 L 9.25,7.75 L 8.75,8.25 L 8,8" fill="#f8f8f8" fill-opacity="1" />
	<path d="M 9.25,7.25 L 9.75,6.75 L 10.25,7.25 L 10.25,7.75 L 9.75,8.25 L 9.25,7.75" fill="#000000" fill-opacity="1" />
	<path d="M 10.25,7.25 L 11,7 L 11,8 L 10.25,7.75" fill="#f8f8f8" fill-opacity="1" />
	<path d="M 11,7 L 11.75,7.25 L 11.75,7.75 L 11,8" fill="#f8f8f8" fill-opacity="1" />
	<path d="M 11.75,7.25 L 12.25,6.75 L 12.75,7.25 L 12.75,7.75 L 12.25,8.25 L 11.75,7.75" fill="#000000" fill-opacity="1" />
	<path d="M 12.75,7.25 L 13.25,6.75 L 13.75,7.25 L 14,8 L 13.25,8.25 L 12.75,7.75" fill="#f8f8f8" fill-opacity="1" />
	<path d="M 13.75,7.25 L 14.25,6.75 L 15,7 L 15,8 L 14,8" fill="#e0e0e0" fill-opacity="1" />
	<path d="M 15,7 L 16,7 L 16,8 L 15,8" fill="#000000" fill-opacity="1" />
	<path d="M 16,7 L 17,7 L 17,8 L 16,8" fill="#a6a6a6" fill-opacity="1" />
	<path d="M 17,7 L 18,7 L 18,8 L 17,8" fill="#a6a6a6" fill-opacity="1" />
	<path d="M 0,8 L 1,8 L 1.25,8.75 L 0.75,9.25 L 0,9" fill="#a6a6a6" fill-opacity="1" />
	<path d="M 1,8 L 2,8 L 2.25,8.75 L 1.75,9.25 L 1.25,8.75" fill="#000000" fill-opacity="1" />
	<path d="M 2,8 L 3,8 L 3.25,8.75 L 2.75,9.25 L 2.25,8.75" fill="#c0c0c0" fill-opacity="1" />
	<path d="M 3,8 L 3.75,7.75 L 4.25,8.25 L 4.25,8.75 L 3.75,9.25 L 3.25,8.75" fill="#e0e0e0" fill-opacity="1" />
	<path d="M 4.25,8.25 L 4.75,7.75 L 5.25,8.25 L 4.75,8.75 L 4.25,8.75" fill="#000000" fill-opacity="1" />
	<path d="M 5.25,8.25 L 5.75,8.25 L 6.25,8.75 L 5.75,9.25 L 5.25,9.25 L 4.75,8.75" fill="#ffffff" fill-opacity="1" />
	<path d="M 5.75,8.25 L 6.25,7.75 L 6.75,8.25 L 6.75,8.75 L 6.25,8.75" fill="#000000" fill-opacity="1" />
	<path d="M 6.75,8.25 L 7.25,7.75 L 8,8 L 8,9 L 7.25,9.25 L 6.75,8.75" fill="#f8f8f8" fill-opacity="1" />
	<path d="M 8,8 L 8.75,8.25 L 9,9 L 8,9" fill="#f8f8f8" fill-opacity="1" />
	<path d="M 8.75,8.25 L 9.25,7.75 L 9.75,8.25 L 10.25,8.75 L 9.75,9.25 L 9,9" fill="#f8f8f8" fill-opacity="1" />
	<path d="M 9.75,8.25 L 10.25,7.75 L 11,8 L 11,9 L 10.25,8.75" fill="#000000" fill-opacity="1" />
	<path d="M 11,8 L 11.75,7.75 L 12.25,8.25 L 11.75,8.75 L 11,9" fill="#000000" fill-opacity="1" />
	<path d="M 12.25,8.25 L 12.75,7.75 L 13.25,8.25 L 13,9 L 12.25,9.25 L 11.75,8.75" fill="#ffffff" fill-opacity="1" />
	<path d="M 13.25,8.25 L 14,8 L 14,9 L 13,9" fill="#f8f8f8" fill-opacity="1" />
	<path d="M 14,8 L 15,8 L 15,9 L 14,9" fill="#e0e0e0" fill-opacity="1" />
	<path d="M 15,8 L 16,8 L 16,9 L 15,9" fill="#000000" fill-opacity="1" />
	<path d="M 16,8 L 17,8 L 17,9 L 16,9" fill="#a6a6a6" fill-opacity="1" />
	<path d="M 17,8 L 18,8 L 18,9 L 17,9" fill="#a6a6a6" fill-opacity="1" />
	<path d="M 0,9 L 0.75,9.25 L 0.75,9.75 L 0,10" fill="#a6a6a6" fill-opacity="1" />
	<path d="M 0.75,9.25 L 1.25,8.75 L 1.75,9.25 L 1.75,9.75 L 1.25,10.25 L 0.75,9.75" fill="#a6a6a6" fill-opacity="1" />
	<path d="M 1.75,9.25 L 2.25,8.75 L 2.75,9.25 L 2.75,9.75 L 2.25,10.25 L 1.75,9.75" fill="#000000" fill-opacity="1" />
	<path d="M 2.75,9.25 L 3.25,8.75 L 3.75,9.25 L 4,10 L 3.25,10.25 L 2.75,9.75" fill="#e0e0e0" fill-opacity="1" />
	<path d="M 3.75,9.25 L 4.25,8.75 L 4.75,8.75 L 5.25,9.25 L 5,10 L 4,10" fill="#f8f8f8" fill-opacity="1" />
	<path d="M 5.25,9.25 L 5.75,9.25 L 6.25,9.75 L 5.75,10.25 L 5,10" fill="#f8f8f8" fill-opacity="1" />
	<path d="M 5.75,9.25 L 6.25,8.75 L 6.75,8.75 L 7.25,9.25 L 6.75,9.75 L 6.25,9.75" fill="#f8f8f8" fill-opacity="1" />
	<path d="M 7.25,9.25 L 8,9 L 8.25,9.75 L 7.75,10.25 L 7.25,10.25 L 6.75,9.75" fill="#f8f8f8" fill-opacity="1" />
	<path d="M 8,9 L 9,9 L 9,10 L 8.25,9.75" fill="#f8f8f8" fill-opacity="1" />
	<path d="M 9,9 L 9.75,9.25 L 10,10 L 9,10" fill="#f8f8f8" fill-opacity="1" />
	<path d="M 9.75,9.25 L 10.25,8.75 L 11,9 L 11,10 L 10,10" fill="#f8f8f8" fill-opacity="1" />
	<path d="M 11,9 L 11.75,8.75 L 12.25,9.25 L 12.25,9.75 L 11.75,10.25 L 11,10" fill="#f8f8f8" fill-opacity="1" />
	<path d="M 12.25,9.25 L 13,9 L 12.75,9.75 L 12.25,9.75" fill="#ffffff" fill-opacity="1" />
	<path d="M 13,9 L 14,9 L 13.75,9.75 L 13.25,10.25 L 12.75,9.75" fill="#f8f8f8" fill-opacity="1" />
	<path d="M 14,9 L 15,9 L 15.25,9.75 L 14.75,10.25 L 14.25,10.25 L 13.75,9.75" fill="#e0e0e0" fill-opacity="1" />
	<path d="M 15,9 L 16,9 L 16.25,9.75 L 15.75,10.25 L 15.25,9.75" fill="#000000" fill-opacity="1" />
	<path d="M 16,9 L 17,9 L 17.25,9.75 L 16.75,10.25 L 16.25,9.75" fill="#a6a6a6" fill-opacity="1" />
	<path d="M 17,9 L 18,9 L 18,10 L 17.25,9.75" fill="#a6a6a6" fill-opacity="1" />
	<path d="M 0,10 L 0.75,9.75 L 1.25,10.25 L 1,11 L 0,11" fill="#a6a6a6" fill-opacity="1" />
	<path d="M 1.25,10.25 L 1.75,9.75 L 2.25,10.25 L 2,11 L 1,11" fill="#000000" fill-opacity="1" />
	<path d="M 2.25,10.25 L 2.75,9.75 L 3.25,10.25 L 3,11 L 2,11" fill="#c0c0c0" fill-opacity="1" />
	<path d="M 3.25,10.25 L 4,10 L 4,11 L 3,11" fill="#e0e0e0" fill-opacity="1" />
	<path d="M 4,10 L 5,10 L 5,11 L 4,11" fill="#ffffff" fill-opacity="1" />
	<path d="M 5,10 L 5.75,10.25 L 5.75,10.75 L 5,11" fill="#ffffff" fill-opacity="1" />
	<path d="M 5.75,10.25 L 6.25,9.75 L 6.75,9.75 L 7.25,10.25 L 6.75,10.75 L 6.25,11.25 L 5.75,10.75" fill="#f8f8f8" fill-opacity="1" />
	<path d="M 7.25,10.25 L 7.75,10.25 L 8.25,10.75 L 7.75,11.25 L 7.25,11.25 L 6.75,10.75" fill="#f810ae" fill-opacity="1" />
	<path d="M 7.75,10.25 L 8.25,9.75 L 9,10 L 9.25,10.75 L 8.75,11.25 L 8.25,10.75" fill="#f8f8f8" fill-opacity="1" />
	<path d="M 9,10 L 10,10 L 9.75,10.75 L 9.25,10.75" fill="#f8f8f8" fill-opacity="1" />
	<path d="M 10,10 L 11,10 L 11.25,10.75 L 10.75,11.25 L 10.25,11.25 L 9.75,10.75" fill="#f8f8f8" fill-opacity="1" />
	<path d="M 11,10 L 11.75,10.25 L 12,11 L 11.25,10.75" fill="#f8f8f8" fill-opacity="1" />
	<path d="M 11.75,10.25 L 12.25,9.75 L 12.75,9.75 L 13.25,10.25 L 13.25,10.75 L 12.75,11.25 L 12,11" fill="#f8f8f8" fill-opacity="1" />
	<path d="M 13.25,10.25 L 13.75,9.75 L 14.25,10.25 L 14.25,10.75 L 13.75,11.25 L 13.25,10.75" fill="#e0e0e0" fill-opacity="1" />
	<path d="M 14.25,10.25 L 14.75,10.25 L 15.25,10.75 L 14.75,11.25 L 14.25,10.75" fill="#c0c0c0" fill-opacity="1" />
	<path d="M 14.75,10.25 L 15.25,9.75 L 15.75,10.25 L 16,11 L 15.25,10.75" fill="#c0c0c0" fill-opacity="1" />
	<path d="M 15.75,10.25 L 16.25,9.75 L 16.75,10.25 L 17,11 L 16,11" fill="#000000" fill-opacity="1" />
	<path d="M 16.75,10.25 L 17.25,9.75 L 18,10 L 18,11 L 17,11" fill="#a6a6a6" fill-opacity="1" />
	<path d="M 0,11 L 1,11 L 1.25,11.75 L 0.75,12.25 L 0,12" fill="#a6a6a6" fill-opacity="1" />
	<path d="M 1,11 L 2,11 L 2.25,11.75 L 1.75,12.25 L 1.25,11.75" fill="#000000" fill-opacity="1" />
	<path d="M 2,11 L 3,11 L 3.25,11.75 L 2.75,12.25 L 2.25,11.75" fill="#c0c0c0" fill-opacity="1" />
	<path d="M 3,11 L 4,11 L 4.25,11.75 L 3.75,12.25 L 3.25,11.75" fill="#e0e0e0" fill-opacity="1" />
	<path d="M 4,11 L 5,11 L 4.75,11.75 L 4.25,11.75" fill="#ffffff" fill-opacity="1" />
	<path d="M 5,11 L 5.75,10.75 L 6.25,11.25 L 5.75,11.75 L 5.25,12.25 L 4.75,11.75" fill="#ffffff" fill-opacity="1" />
	<path d="M 6.25,11.25 L 6.75,10.75 L 7.25,11.25 L 6.75,11.75 L 6.25,12.25 L 5.75,11.75" fill="#f810ae" fill-opacity="1" />
	<path d="M 7.25,11.25 L 7.75,11.25 L 8.25,11.75 L 7.75,12.25 L 7.25,12.25 L 6.75,11.75" fill="#f8f8f8" fill-opacity="1" />
	<path d="M 7.75,11.25 L 8.25,10.75 L 8.75,11.25 L 9.25,11.75 L 8.75,12.25 L 8.25,11.75" fill="#f810ae" fill-opacity="1" />
	<path d="M 8.75,11.25 L 9.25,10.75 L 9.75,10.75 L 10.25,11.25 L 9.75,11.75 L 9.25,11.75" fill="#f8f8f8" fill-opacity="1" />
	<path d="M 10.25,11.25 L 10.75,11.25 L 10.75,11.75 L 10.25,12.25 L 9.75,11.75" fill="#f810ae" fill-opacity="1" />
	<path d="M 10.75,11.25 L 11.25,10.75 L 12,11 L 12,12 L 11.25,12.25 L 10.75,11.75" fill="#f8f8f8" fill-opacity="1" />
	<path d="M 12,11 L 12.75,11.25 L 12.75,11.75 L 12,12" fill="#f8f8f8" fill-opacity="1" />
	<path d="M 12.75,11.25 L 13.25,10.75 L 13.75,11.25 L 13.75,11.75 L 13.25,12.25 L 12.75,11.75" fill="#f8f8f8" fill-opacity="1" />
	<path d="M 13.75,11.25 L 14.25,10.75 L 14.75,11.25 L 14.75,11.75 L 14.25,12.25 L 13.75,11.75" fill="#e0e0e0" fill-opacity="1" />
	<path d="M 14.75,11.25 L 15.25,10.75 L 16,11 L 15.75,11.75 L 15.25,12.25 L 14.75,11.75" fill="#c0c0c0" fill-opacity="1" />
	<path d="M 16,11 L 17,11 L 16.75,11.75 L 16.25,12.25 L 15.75,11.75" fill="#000000" fill-opacity="1" />
	<path d="M 17,11 L 18,11 L 18,12 L 17.25,12.25 L 16.75,11.75" fill="#a6a6a6" fill-opacity="1" />
	<path d="M 0,12 L 0.75,12.25 L 1,13 L 0,13" fill="#a6a6a6" fill-opacity="1" />
	<path d="M 0.75,12.25 L 1.25,11.75 L 1.75,12.25 L 2,13 L 1,13" fill="#a6a6a6" fill-opacity="1" />
	<path d="M 1.75,12.25 L 2.25,11.75 L 2.75,12.25 L 3,13 L 2,13" fill="#000000" fill-opacity="1" />
	<path d="M 2.75,12.25 L 3.25,11.75 L 3.75,12.25 L 4.25,12.75 L 3.75,13.25 L 3,13" fill="#c0c0c0" fill-opacity="1" />
	<path d="M 3.75,12.25 L 4.25,11.75 L 4.75,11.75 L 5.25,12.25 L 5.25,12.75 L 4.75,13.25 L 4.25,12.75" fill="#e0e0e0" fill-opacity="1" />
	<path d="M 5.25,12.25 L 5.75,11.75 L 6.25,12.25 L 6,13 L 5.25,12.75" fill="#f810ae" fill-opacity="1" />
	<path d="M 6.25,12.25 L 6.75,11.75 L 7.25,12.25 L 7,13 L 6,13" fill="#f8f8f8" fill-opacity="1" />
	<path d="M 7.25,12.25 L 7.75,12.25 L 8,13 L 7,13" fill="#f8f8f8" fill-opacity="1" />
	<path d="M 7.75,12.25 L 8.25,11.75 L 8.75,12.25 L 9.25,12.75 L 8.75,13.25 L 8,13" fill="#f8f8f8" fill-opacity="1" />
	<path d="M 8.75,12.25 L 9.25,11.75 L 9.75,11.75 L 10.25,12.25 L 9.75,12.75 L 9.25,12.75" fill="#f810ae" fill-opacity="1" />
	<path d="M 10.25,12.25 L 10.75,11.75 L 11.25,12.25 L 11,13 L 10.25,13.25 L 9.75,12.75" fill="#f8f8f8" fill-opacity="1" />
	<path d="M 11.25,12.25 L 12,12 L 11.75,12.75 L 11,13" fill="#f8f8f8" fill-opacity="1" />
	<path d="M 12,12 L 12.75,11.75 L 13.25,12.25 L 13.25,12.75 L 12.75,13.25 L 12.25,13.25 L 11.75,12.75" fill="#f8f8f8" fill-opacity="1" />
	<path d="M 13.25,12.25 L 13.75,11.75 L 14.25,12.25 L 14,13 L 13.25,12.75" fill="#e0e0e0" fill-opacity="1" />
	<path d="M 14.25,12.25 L 14.75,11.75 L 15.25,12.25 L 15,13 L 14,13" fill="#c0c0c0" fill-opacity="1" />
	<path d="M 15.25,12.25 L 15.75,11.75 L 16.25,12.25 L 16,13 L 15,13" fill="#000000" fill-opacity="1" />
	<path d="M 16.25,12.25 L 16.75,11.75 L 17.25,12.25 L 17,13 L 16,13" fill="#a6a6a6" fill-opacity="1" />
	<path d="M 17.25,12.25 L 18,12 L 18,13 L 17,13" fill="#a6a6a6" fill-opacity="1" />
	<path d="M 0,13 L 1,13 L 1,14 L 0,14" fill="#a6a6a6" fill-opacity="1" />
	<path d="M 1,13 L 2,13 L 2.25,13.75 L 1.75,14.25 L 1,14" fill="#a6a6a6" fill-opacity="1" />
	<path d="M 2,13 L 3,13 L 3.25,13.75 L 2.75,14.25 L 2.25,13.75" fill="#000000" fill-opacity="1" />
	<path d="M 3,13 L 3.75,13.25 L 4.25,13.75 L 3.75,14.25 L 3.25,13.75" fill="#c0c0c0" fill-opacity="1" />
	<path d="M 3.75,13.25 L 4.25,12.75 L 4.75,13.25 L 5.25,13.75 L 4.75,14.25 L 4.25,13.75" fill="#c0c0c0" fill-opacity="1" />
	<path d="M 4.75,13.25 L 5.25,12.75 L 6,13 L 6,14 L 5.25,13.75" fill="#c0c0c0" fill-opacity="1" />
	<path d="M 6,13 L 7,13 L 7,14 L 6,14" fill="#e0e0e0" fill-opacity="1" />
	<path d="M 7,13 L 8,13 L 8,14 L 7,14" fill="#e0e0e0" fill-opacity="1" />
	<path d="M 8,13 L 8.75,13.25 L 9.25,13.75 L 8.75,14.25 L 8,14" fill="#e0e0e0" fill-opacity="1" />
	<path d="M 8.75,13.25 L 9.25,12.75 L 9.75,12.75 L 10.25,13.25 L 10,14 L 9.25,13.75" fill="#f8f8f8" fill-opacity="1" />
	<path d="M 10.25,13.25 L 11,13 L 11,14 L 10,14" fill="#f8f8f8" fill-opacity="1" />
	<path d="M 11,13 L 11.75,12.75 L 12.25,13.25 L 11.75,13.75 L 11,14" fill="#f8f8f8" fill-opacity="1" />
	<path d="M 12.25,13.25 L 12.75,13.25 L 12.75,13.75 L 12.25,14.25 L 11.75,13.75" fill="#c0c0c0" fill-opacity="1" />
	<path d="M 12.75,13.25 L 13.25,12.75 L 14,13 L 14,14 L 13.25,14.25 L 12.75,13.75" fill="#e0e0e0" fill-opacity="1" />
	<path d="M 14,13 L 15,13 L 14.75,13.75 L 14,14" fill="#c0c0c0" fill-opacity="1" />
	<path d="M 15,13 L 16,13 L 15.75,13.75 L 15.25,14.25 L 14.75,13.75" fill="#000000" fill-opacity="1" />
	<path d="M 16,13 L 17,13 L 17,14 L 16.25,14.25 L 15.75,13.75" fill="#a6a6a6" fill-opacity="1" />
	<path d="M 17,13 L 18,13 L 18,14 L 17,14" fill="#a6a6a6" fill-opacity="1" />
	<path d="M 0,14 L 1,14 L 1,15 L 0,15" fill="#a6a6a6" fill-opacity="1" />
	<path d="M 1,14 L 1.75,14.25 L 2,15 L 1,15" fill="#a6a6a6" fill-opacity="1" />
	<path d="M 1.75,14.25 L 2.25,13.75 L 2.75,14.25 L 3.25,14.75 L 2.75,15.25 L 2,15" fill="#a6a6a6" fill-opacity="1" />
	<path d="M 2.75,14.25 L 3.25,13.75 L 3.75,14.25 L 4.25,14.75 L 3.75,15.25 L 3.25,14.75" fill="#000000" fill-opacity="1" />
	<path d="M 3.75,14.25 L 4.25,13.75 L 4.75,14.25 L 5,15 L 4.25,14.75" fill="#e0e0e0" fill-opacity="1" />
	<path d="M 4.75,14.25 L 5.25,13.75 L 6,14 L 6.25,14.75 L 5.75,15.25 L 5,15" fill="#c0c0c0" fill-opacity="1" />
	<path d="M 6,14 L 7,14 L 7,15 L 6.25,14.75" fill="#e0e0e0" fill-opacity="1" />
	<path d="M 7,14 L 8,14 L 8,15 L 7,15" fill="#e0e0e0" fill-opacity="1" />
	<path d="M 8,14 L 8.75,14.25 L 9,15 L 8,15" fill="#e0e0e0" fill-opacity="1" />
	<path d="M 8.75,14.25 L 9.25,13.75 L 10,14 L 10,15 L 9,15" fill="#e0e0e0" fill-opacity="1" />
	<path d="M 10,14 L 11,14 L 11.25,14.75 L 10.75,15.25 L 10,15" fill="#e0e0e0" fill-opacity="1" />
	<path d="M 11,14 L 11.75,13.75 L 12.25,14.25 L 11.75,14.75 L 11.25,14.75" fill="#e0e0e0" fill-opacity="1" />
	<path d="M 12.25,14.25 L 12.75,13.75 L 13.25,14.25 L 12.75,14.75 L 12.25,15.25 L 11.75,14.75" fill="#c0c0c0" fill-opacity="1" />
	<path d="M 13.25,14.25 L 14,14 L 14,15 L 13.25,15.25 L 12.75,14.75" fill="#000000" fill-opacity="1" />
	<path d="M 14,14 L 14.75,13.75 L 15.25,14.25 L 14.75,14.75 L 14,15" fill="#000000" fill-opacity="1" />
	<path d="M 15.25,14.25 L 15.75,13.75 L 16.25,14.25 L 16,15 L 15.25,15.25 L 14.75,14.75" fill="#a6a6a6" fill-opacity="1" />
	<path d="M 16.25,14.25 L 17,14 L 17,15 L 16,15" fill="#a6a6a6" fill-opacity="1" />
	<path d="M 17,14 L 18,14 L 18,15 L 17,15" fill="#a6a6a6" fill-opacity="1" />
	<path d="M 0,15 L 1,15 L 1,16 L 0,16" fill="#a6a6a6" fill-opacity="1" />
	<path d="M 1,15 L 2,15 L 2,16 L 1,16" fill="#a6a6a6" fill-opacity="1" />
	<path d="M 2,15 L 2.75,15.25 L 3,16 L 2,16" fill="#a6a6a6" fill-opacity="1" />
	<path d="M 2.75,15.25 L 3.25,14.75 L 3.75,15.25 L 4.25,15.75 L 3.75,16.25 L 3,16" fill="#a6a6a6" fill-opacity="1" />
	<path d="M 3.75,15.25 L 4.25,14.75 L 5,15 L 5,16 L 4.25,15.75" fill="#000000" fill-opacity="1" />
	<path d="M 5,15 L 5.75,15.25 L 6.25,15.75 L 5.75,16.25 L 5,16" fill="#000000" fill-opacity="1" />
	<path d="M 5.75,15.25 L 6.25,14.75 L 7,15 L 7,16 L 6.25,15.75" fill="#c0c0c0" fill-opacity="1" />
	<path d="M 7,15 L 8,15 L 8.25,15.75 L 7.75,16.25 L 7,16" fill="#c0c0c0" fill-opacity="1" />
	<path d="M 8,15 L 9,15 L 8.75,15.75 L 8.25,15.75" fill="#c0c0c0" fill-opacity="1" />
	<path d="M 9,15 L 10,15 L 9.75,15.75 L 9.25,16.25 L 8.75,15.75" fill="#c0c0c0" fill-opacity="1" />
	<path d="M 10,15 L 10.75,15.25 L 11,16 L 10.25,16.25 L 9.75,15.75" fill="#c0c0c0" fill-opacity="1" />
	<path d="M 10.75,15.25 L 11.25,14.75 L 11.75,14.75 L 12.25,15.25 L 11.75,15.75 L 11,16" fill="#e0e0e0" fill-opacity="1" />
	<path d="M 12.25,15.25 L 12.75,14.75 L 13.25,15.25 L 12.75,15.75 L 12.25,16.25 L 11.75,15.75" fill="#000000" fill-opacity="1" />
	<path d="M 13.25,15.25 L 14,15 L 14,16 L 13.25,16.25 L 12.75,15.75" fill="#a6a6a6" fill-opacity="1" />
	<path d="M 14,15 L 14.75,14.75 L 15.25,15.25 L 15,16 L 14,16" fill="#a6a6a6" fill-opacity="1" />
	<path d="M 15.25,15.25 L 16,15 L 16,16 L 15,16" fill="#a6a6a6" fill-opacity="1" />
	<path d="M 16,15 L 17,15 L 17,16 L 16,16" fill="#a6a6a6" fill-opacity="1" />
	<path d="M 17,15 L 18,15 L 18,16 L 17,16" fill="#a6a6a6" fill-opacity="1" />
	<path d="M 0,16 L 1,16 L 1,17 L 0,17" fill="#a6a6a6" fill-opacity="1" />
	<path d="M 1,16 L 2,16 L 2,17 L 1,17" fill="#a6a6a6" fill-opacity="1" />
	<path d="M 2,16 L 3,16 L 3,17 L 2,17" fill="#a6a6a6" fill-opacity="1" />
	<path d="M 3,16 L 3.75,16.25 L 4,17 L 3,17" fill="#a6a6a6" fill-opacity="1" />
	<path d="M 3.75,16.25 L 4.25,15.75 L 5,16 L 5,17 L 4,17" fill="#a6a6a6" fill-opacity="1" />
	<path d="M 5,16 L 5.75,16.25 L 6.25,16.75 L 5.75,17.25 L 5,17" fill="#a6a6a6" fill-opacity="1" />
	<path d="M 5.75,16.25 L 6.25,15.75 L 7,16 L 7.25,16.75 L 6.75,17.25 L 6.25,16.75" fill="#000000" fill-opacity="1" />
	<path d="M 7,16 L 7.75,16.25 L 8,17 L 7.25,16.75" fill="#000000" fill-opacity="1" />
	<path d="M 7.75,16.25 L 8.25,15.75 L 8.75,15.75 L 9.25,16.25 L 9,17 L 8,17" fill="#c0c0c0" fill-opacity="1" />
	<path d="M 9.25,16.25 L 9.75,15.75 L 10.25,16.25 L 10,17 L 9,17" fill="#e0e0e0" fill-opacity="1" />
	<path d="M 10.25,16.25 L 11,16 L 10.75,16.75 L 10,17" fill="#000000" fill-opacity="1" />
	<path d="M 11,16 L 11.75,15.75 L 12.25,16.25 L 11.75,16.75 L 11.25,17.25 L 10.75,16.75" fill="#000000" fill-opacity="1" />
	<path d="M 12.25,16.25 L 12.75,15.75 L 13.25,16.25 L 13,17 L 12.25,17.25 L 11.75,16.75" fill="#a6a6a6" fill-opacity="1" />
	<path d="M 13.25,16.25 L 14,16 L 14,17 L 13,17" fill="#a6a6a6" fill-opacity="1" />
	<path d="M 14,16 L 15,16 L 15,17 L 14,17" fill="#a6a6a6" fill-opacity="1" />
	<path d="M 15,16 L 16,16 L 16,17 L 15,17" fill="#a6a6a6" fill-opacity="1" />
	<path d="M 16,16 L 17,16 L 17,17 L 16,17" fill="#a6a6a6" fill-opacity="1" />
	<path d="M 17,16 L 18,16 L 18,17 L 17,17" fill="#a6a6a6" fill-opacity="1" />
	<path d="M 0,17 L 1,17 L 1,18 L 0,18" fill="#a6a6a6" fill-opacity="1" />
	<path d="M 1,17 L 2,17 L 2,18 L 1,18" fill="#a6a6a6" fill-opacity="1" />
	<path d="M 2,17 L 3,17 L 3,18 L 2,18" fill="#a6a6a6" fill-opacity="1" />
	<path d="M 3,17 L 4,17 L 4,18 L 3,18" fill="#a6a6a6" fill-opacity="1" />
	<path d="M 4,17 L 5,17 L 5,18 L 4,18" fill="#a6a6a6" fill-opacity="1" />
	<path d="M 5,17 L 5.75,17.25 L 6,18 L 5,18" fill="#a6a6a6" fill-opacity="1" />
	<path d="M 5.75,17.25 L 6.25,16.75 L 6.75,17.25 L 7,18 L 6,18" fill="#a6a6a6" fill-opacity="1" />
	<path d="M 6.75,17.25 L 7.25,16.75 L 8,17 L 8,18 L 7,18" fill="#000000" fill-opacity="1" />
	<path d="M 8,17 L 9,17 L 9,18 L 8,18" fill="#c0c0c0" fill-opacity="1" />
	<path d="M 9,17 L 10,17 L 10,18 L 9,18" fill="#e0e0e0" fill-opacity="1" />
	<path d="M 10,17 L 10.75,16.75 L 11.25,17.25 L 11,18 L 10,18" fill="#000000" fill-opacity="1" />
	<path d="M 11.25,17.25 L 11.75,16.75 L 12.25,17.25 L 12,18 L 11,18" fill="#a6a6a6" fill-opacity="1" />
	<path d="M 12.25,17.25 L 13,17 L 13,18 L 12,18" fill="#a6a6a6" fill-opacity="1" />
	<path d="M 13,17 L 14,17 L 14,18 L 13,18" fill="#a6a6a6" fill-opacity="1" />
	<path d="M 14,17 L 15,17 L 15,18 L 14,18" fill="#a6a6a6" fill-opacity="1" />
	<path d="M 15,17 L 16,17 L 16,18 L 15,18" fill="#a6a6a6" fill-opacity="1" />
	<path d="M 16,17 L 17,17 L 17,18 L 16,18" fill="#a6a6a6" fill-opacity="1" />
	<path d="M 17,17 L 18,17 L 18,18 L 17,18" fill="#a6a6a6" fill-opacity="1" />
</svg>
