<?xml version="1.0" encoding="UTF-8" standalone="no"?>
<svg xmlns:dc="http://purl.org/dc/elements/1.1/" xmlns:cc="http://creativecommons.org/ns#" xmlns:rdf="http://www.w3.org/1999/02/22-rdf-syntax-ns#" xmlns:svg="http://www.w3.org/2000/svg" xmlns="http://www.w3.org/2000/svg" xmlns:sodipodi="http://sodipodi.sourceforge.net/DTD/sodipodi-0.dtd" xmlns:inkscape="http://www.inkscape.org/namespaces/inkscape" width="8" height="8" id="svg2" version="1.1" inkscape:version="0.48.4 r9939" sodipodi:docname="boof_white3.svg">
<metadata id="metadata78">
<rdf:RDF>
<cc:Work rdf:about="">
<dc:format>image/svg+xml</dc:format>
<dc:type rdf:resource="http://purl.org/dc/dcmitype/StillImage" />
</cc:Work>
</rdf:RDF>
</metadata>
<defs id="defs76" />
<sodipodi:namedview pagecolor="#ffffff" bordercolor="#666666" borderopacity="1" objecttolerance="10" gridtolerance="10" guidetolerance="10" inkscape:pageopacity="0" inkscape:pageshadow="2" inkscape:window-width="1326" inkscape:window-height="745" id="namedview74" showgrid="false" fit-margin-top="0" fit-margin-left="0" fit-margin-right="0" fit-margin-bottom="0" inkscape:snap-smooth-nodes="true" inkscape:object-nodes="true" inkscape:zoom="70.5" inkscape:cx="4" inkscape:cy="4" inkscape:window-x="40" inkscape:window-y="0" inkscape:window-maximized="1" inkscape:current-layer="svg2" />
<path d="M -9,0.5 -9,0 -8.5,0 -8,0 -7.5,0 -7,0 -6.5,0 -6,0 -5.5,0 -5,0 -4.5,0 -4,0 -3.5,0 -3,0 -2.5,0 -2,0 -1.5,0 -1,0 -0.5,0 0,0 0.5,0 1,0 1.5,0 2,0 2.5,0 3,0 3.5,0 4,0 4.5,0 5,0 5.5,0 6,0 6.5,0 7,0 7.5,0 8,0 8.5,0 9,0 9,0.5 9,1 9,1.5 9,2 9,2.5 9,3 9,3.5 9,4 9,4.5 9,5 9,5.5 9,6 9,6.5 9,7 9,7.5 9,8 9,8.5 9,9 9,9.5 9,10 9,10.5 9,11 9,11.5 9,12 9,12.5 9,13 9,13.5 9,14 9,14.5 9,15 9,15.5 9,16 9,16.5 9,17 9,17.5 9,18 8.5,18 8,18 7.5,18 7,18 6.5,18 6,18 5.5,18 5,18 4.5,18 4,18 3.5,18 3,18 2.5,18 2,18 2.125,17.625 Q 2.25,17.25 2.5,17 2.75,16.75 3,16.5 3.25,16.25 3.5,16 3.75,15.75 4,15.5 4.25,15.25 4.625,15.125 5,15 5.375,14.875 5.75,14.75 6,14.5 6.25,14.25 6.5,14 6.75,13.75 6.875,13.375 7,13 7.125,12.625 7.25,12.25 7.5,12 7.75,11.75 7.875,11.375 8,11 7.875,10.625 7.75,10.25 7.5,10 7.25,9.75 7.125,9.375 7,9 7,8.5 7,8 7,7.5 7,7 6.875,6.625 6.75,6.25 6.5,6 6.25,5.75 6.125,5.375 6,5 5.875,4.625 5.75,4.25 5.5,4 5.25,3.75 5.25,3.5 5.25,3.25 5.5,3 5.75,2.75 6,2.5 6.25,2.25 6.5,2 6.75,1.75 6.75,1.5 6.75,1.25 6.375,1.125 6,1 5.625,1.125 5.25,1.25 5.125,1.625 5,2 4.875,2.375 4.75,2.75 4.5,2.75 4.25,2.75 4.125,2.375 4,2 3.875,1.625 3.75,1.25 3.5,1.25 3.25,1.25 3,1.5 2.75,1.75 2.5,1.75 2.25,1.75 2,1.5 1.75,1.25 1.375,1.125 1,1 0.5,1 0,1 -0.5,1 -1,1 -1.5,1 -2,1 -2.375,1.125 -2.75,1.25 -3,1.5 -3.25,1.75 -3.5,1.75 -3.75,1.75 -4,1.5 -4.25,1.25 -4.5,1.25 -4.75,1.25 -4.875,1.625 -5,2 -5.125,2.375 -5.25,2.75 -5.5,2.75 -5.75,2.75 -5.875,2.375 -6,2 -6.125,1.625 -6.25,1.25 -6.625,1.125 -7,1 -7.375,1.125 -7.75,1.25 -7.75,1.5 q 0,0.25 0.25,0.5 0.25,0.25 0.5,0.5 0.25,0.25 0.5,0.5 0.25,0.25 0.25,0.5 0,0.25 -0.25,0.5 Q -6.75,4.25 -6.875,4.625 -7,5 -7,5.5 -7,6 -7.125,6.375 -7.25,6.75 -7.5,7 -7.75,7.25 -7.875,7.625 -8,8 -7.875,8.375 -7.75,8.75 -7.5,9 q 0.25,0.25 0.25,0.5 0,0.25 -0.25,0.5 -0.25,0.25 -0.375,0.625 Q -8,11 -7.875,11.375 -7.75,11.75 -7.5,12 -7.25,12.25 -7.125,12.625 -7,13 -6.875,13.375 -6.75,13.75 -6.5,14 q 0.25,0.25 0.5,0.5 0.25,0.25 0.5,0.5 0.25,0.25 0.5,0.5 0.25,0.25 0.625,0.375 Q -4,16 -3.625,16.125 -3.25,16.25 -3,16.5 q 0.25,0.25 0.5,0.5 0.25,0.25 0.375,0.625 L -2,18 -2.5,18 -3,18 -3.5,18 -4,18 -4.5,18 -5,18 -5.5,18 -6,18 -6.5,18 -7,18 -7.5,18 -8,18 -8.5,18 -9,18 -9,17.5 -9,17 -9,16.5 -9,16 -9,15.5 -9,15 -9,14.5 -9,14 -9,13.5 -9,13 -9,12.5 -9,12 -9,11.5 -9,11 -9,10.5 -9,10 -9,9.5 -9,9 -9,8.5 -9,8 -9,7.5 -9,7 -9,6.5 -9,6 -9,5.5 -9,5 -9,4.5 -9,4 -9,3.5 -9,3 -9,2.5 -9,2 -9,1.5 -9,1 -9,0.5" id="path4" inkscape:connector-curvature="0" style="fill:#a6a6a6;fill-opacity:1" />
<path d="m -7.75,1.5 q 0,-0.25 0.375,-0.375 0.375,-0.125 0.75,0 0.375,0.125 0.5,0.5 Q -6,2 -5.875,2.375 -5.75,2.75 -5.5,2.75 -5.25,2.75 -5.125,2.375 -5,2 -4.875,1.625 -4.75,1.25 -4.5,1.25 q 0.25,0 0.5,0.25 0.25,0.25 0.5,0.25 0.25,0 0.5,-0.25 Q -2.75,1.25 -2.375,1.125 -2,1 -1.5,1 -1,1 -0.5,1 0,1 0.5,1 1,1 1.375,1.125 1.75,1.25 2,1.5 2.25,1.75 2.5,1.75 2.75,1.75 3,1.5 3.25,1.25 3.5,1.25 3.75,1.25 3.875,1.625 4,2 4.125,2.375 4.25,2.75 4.5,2.75 4.75,2.75 4.875,2.375 5,2 5.125,1.625 5.25,1.25 5.625,1.125 6,1 6.375,1.125 6.75,1.25 6.75,1.5 6.75,1.75 6.5,2 6.25,2.25 6,2.5 5.75,2.75 5.5,3 5.25,3.25 5.25,3.5 5.25,3.75 5.5,4 5.75,4.25 5.875,4.625 6,5 6.125,5.375 6.25,5.75 6.5,6 6.75,6.25 6.875,6.625 7,7 7,7.5 7,8 7,8.5 7,9 7.125,9.375 7.25,9.75 7.5,10 7.75,10.25 7.875,10.625 8,11 7.875,11.375 7.75,11.75 7.5,12 7.25,12.25 7.125,12.625 7,13 6.875,13.375 6.75,13.75 6.5,14 6.25,14.25 6,14.5 5.75,14.75 5.375,14.875 5,15 4.625,15.125 4.25,15.25 4,15.5 3.75,15.75 3.5,16 3.25,16.25 3,16.5 2.75,16.75 2.5,17 2.25,17.25 2.125,17.625 L 2,18 1.5,18 1,18 1,17.5 Q 1,17 1.125,16.625 1.25,16.25 1.625,16.125 L 2,16 2.375,15.875 Q 2.75,15.75 3,15.5 3.25,15.25 3.5,15 3.75,14.75 4,14.5 4.25,14.25 4.625,14.125 L 5,14 5.375,13.875 Q 5.75,13.75 5.875,13.375 6,13 6.125,12.625 6.25,12.25 6.5,12 6.75,11.75 6.875,11.375 7,11 6.875,10.625 6.75,10.25 6.5,10 6.25,9.75 6.125,9.375 6,9 6,8.5 6,8 6,7.5 L 6,7 5.875,6.625 Q 5.75,6.25 5.5,6 5.25,5.75 5.125,5.375 5,5 4.875,4.625 4.75,4.25 4.5,4 4.25,3.75 4,3.5 3.75,3.25 3.375,3.125 L 3,3 2.625,2.875 Q 2.25,2.75 2,2.5 1.75,2.25 1.375,2.125 1,2 0.5,2 0,2 -0.5,2 -1,2 -1.5,2 -2,2 -2.375,2.125 -2.75,2.25 -3,2.5 -3.25,2.75 -3.625,2.875 -4,3 -4.375,3.125 -4.75,3.25 -5,3.5 -5.25,3.75 -5.5,4 -5.75,4.25 -5.875,4.625 L -6,5 -6,5.5 -6,6 -6.125,6.375 Q -6.25,6.75 -6.5,7 -6.75,7.25 -6.875,7.625 -7,8 -6.875,8.375 -6.75,8.75 -6.5,9 q 0.25,0.25 0.25,0.5 0,0.25 -0.25,0.5 -0.25,0.25 -0.375,0.625 Q -7,11 -6.875,11.375 -6.75,11.75 -6.5,12 -6.25,12.25 -6.125,12.625 -6,13 -5.875,13.375 -5.75,13.75 -5.5,14 q 0.25,0.25 0.5,0.5 0.25,0.25 0.625,0.375 L -4,15 -3.625,15.125 Q -3.25,15.25 -3,15.5 q 0.25,0.25 0.625,0.375 0.375,0.125 0.75,0.25 0.375,0.125 0.5,0.5 Q -1,17 -1,17.5 L -1,18 -1.5,18 -2,18 -2.125,17.625 Q -2.25,17.25 -2.5,17 -2.75,16.75 -3,16.5 -3.25,16.25 -3.625,16.125 -4,16 -4.375,15.875 -4.75,15.75 -5,15.5 -5.25,15.25 -5.5,15 -5.75,14.75 -6,14.5 -6.25,14.25 -6.5,14 -6.75,13.75 -6.875,13.375 -7,13 -7.125,12.625 -7.25,12.25 -7.5,12 -7.75,11.75 -7.875,11.375 -8,11 -7.875,10.625 -7.75,10.25 -7.5,10 -7.25,9.75 -7.25,9.5 -7.25,9.25 -7.5,9 -7.75,8.75 -7.875,8.375 -8,8 -7.875,7.625 -7.75,7.25 -7.5,7 -7.25,6.75 -7.125,6.375 -7,6 -7,5.5 -7,5 -6.875,4.625 -6.75,4.25 -6.5,4 -6.25,3.75 -6.25,3.5 -6.25,3.25 -6.5,3 -6.75,2.75 -7,2.5 -7.25,2.25 -7.5,2 -7.75,1.75 -7.75,1.5" id="path6" inkscape:connector-curvature="0" style="fill:#000000;fill-opacity:1" />
<path d="M -3,2.5 Q -2.75,2.25 -2.375,2.125 -2,2 -1.5,2 -1,2 -0.5,2 0,2 0.5,2 1,2 1.375,2.125 1.75,2.25 2,2.5 L 2.25,2.75 2.0625,2.5625 1.875,2.375 2,2.5 Q 2.125,2.625 2.28125,2.71875 L 2.4375,2.8125 2.35937,2.765625 2.28125,2.71875 2.01562,2.984375 Q 1.75,3.25 1.375,3.125 1,3 0.5,3 0,3 -0.5,3 -1,3 -1.5,3 -2,3 -2.375,3.125 -2.75,3.25 -2.875,3.625 L -3,4 -3.5,4 Q -4,4 -4.375,4.125 L -4.75,4.25 -4.46875,4.15625 -4.1875,4.0625 -4.375,4.125 Q -4.5625,4.1875 -4.71875,4.28125 L -4.875,4.375 -4.796875,4.328125 -4.71875,4.28125 -4.984375,4.015625 -5.25,3.75 -5,3.5 Q -4.75,3.25 -4.375,3.125 -4,3 -3.625,2.875 -3.25,2.75 -3,2.5 M -5.0625,3.5625 -5.25,3.75 -5.3125,3.8125 -5.375,3.875 -5.25,3.75 Q -5.125,3.625 -5,3.5 l 0.125,-0.125 -0.1875,0.1875" id="path8" inkscape:connector-curvature="0" style="fill:#c0c0c0;fill-opacity:1" />
<path d="M -2.875,3.625 Q -2.75,3.25 -2.375,3.125 -2,3 -1.5,3 -1,3 -0.5,3 0,3 0.5,3 1,3 1.375,3.125 1.75,3.25 2.01562,2.984375 L 2.28125,2.71875 2.20312,2.671875 2.125,2.625 2.28125,2.71875 Q 2.4375,2.8125 2.625,2.875 L 2.8125,2.9375 2.53125,2.84375 2.25,2.75 2.625,2.875 3,3 3,3.5 3,4 2.5,4 Q 2,4 1.5,4 1,4 0.5,4 0,4 -0.5,4 -1,4 -1.5,4 -2,4 -2.5,4 L -3,4 -2.875,3.625" id="path10" inkscape:connector-curvature="0" style="fill:#e0e0e0;fill-opacity:1" />
<path d="M 3,3.5 3,3 3.375,3.125 Q 3.75,3.25 4,3.5 L 4.25,3.75 4,4 Q 3.75,4.25 3.375,4.125 L 3,4 3,3.5 M 4.3125,3.8125 4.25,3.75 4.0625,3.5625 3.875,3.375 4,3.5 Q 4.125,3.625 4.25,3.75 L 4.375,3.875 4.3125,3.8125" id="path12" inkscape:connector-curvature="0" style="fill:#c0c0c0;fill-opacity:1" />
<path d="M -5.875,4.625 Q -5.75,4.25 -5.5,4 L -5.25,3.75 -4.984375,4.015625 -4.71875,4.28125 -4.640625,4.234375 -4.5625,4.1875 -4.71875,4.28125 Q -4.875,4.375 -5,4.5 L -5.125,4.625 -4.9375,4.4375 -4.75,4.25 -5,4.5 Q -5.25,4.75 -5.625,4.875 L -6,5 -5.875,4.625 M -5.1875,3.6875 -5.25,3.75 -5.4375,3.9375 -5.625,4.125 -5.5,4 q 0.125,-0.125 0.25,-0.25 l 0.125,-0.125 -0.0625,0.0625" id="path14" inkscape:connector-curvature="0" style="fill:#a6a6a6;fill-opacity:1" />
<path d="M -5,4.5 Q -4.75,4.25 -4.375,4.125 -4,4 -3.5,4 L -3,4 -3,4.5 -3,5 -3.5,5 Q -4,5 -4.375,5.125 L -4.75,5.25 -4.46875,5.15625 -4.1875,5.0625 -4.375,5.125 Q -4.5625,5.1875 -4.71875,5.28125 L -4.875,5.375 -4.796875,5.328125 -4.71875,5.28125 -5,5 -5.28125,4.71875 -5.359375,4.765625 -5.4375,4.8125 -5.28125,4.71875 Q -5.125,4.625 -5,4.5 L -4.875,4.375 -5.0625,4.5625 -5.25,4.75 -5,4.5" id="path16" inkscape:connector-curvature="0" style="fill:#e0e0e0;fill-opacity:1" />
<path d="M -3,4.5 -3,4 -2.5,4 q 0.5,0 1,0 0.5,0 1,0 0.5,0 1,0 0.5,0 1,0 0.5,0 1,0 L 3,4 3,4.5 Q 3,5 3.5,5 4,5 4,5.5 4,6 4.125,6.375 4.25,6.75 4.625,6.875 L 5,7 5,7.5 Q 5,8 5,8.5 5,9 5,9.5 L 5,10 4.5,10 4,10 4,10.5 Q 4,11 4.5,11 L 5,11 5,11.5 5,12 4.5,12 Q 4,12 4.125,12.375 4.25,12.75 3.96875,13.03125 L 3.6875,13.3125 3.7188,13.3438 3.7501,13.3751 3.6876,13.3126 Q 3.625,13.25 3.5,13.25 l -0.125,0 0.1875,0 0.1875,0 -0.25,0 Q 3.25,13.25 3,13.5 2.75,13.75 2.375,13.875 2,14 1.5,14 1,14 0.5,14 0,14 -0.125,13.625 -0.25,13.25 -0.625,13.125 -1,13 -1.5,13 -2,13 -2.546875,12.95312 L -3.09375,12.90622 -3.17188,12.95312 -3.25,13 -3.09375,12.90625 Q -2.9375,12.8125 -2.875,12.625 L -2.8125,12.4375 -2.90625,12.71875 -3,13 -2.875,12.625 Q -2.75,12.25 -2.5,12 q 0.25,-0.25 0.5,-0.5 0.25,-0.25 0.5,-0.25 0.25,0 0.5,0.25 0.25,0.25 0.5,0.5 0.25,0.25 0.5,0.5 0.25,0.25 0.5,0.25 0.25,0 0.5,-0.25 Q 1.25,12.25 1.5,12 1.75,11.75 1.75,11.5 1.75,11.25 1.5,11.25 1.25,11.25 1,11.5 0.75,11.75 0.5,11.75 0.25,11.75 0,11.5 -0.25,11.25 -0.5,11 -0.75,10.75 -1,10.5 -1.25,10.25 -1.5,10.25 -1.75,10.25 -2,10.5 -2.25,10.75 -2.5,11 L -2.75,11.25 -3,11 Q -3.25,10.75 -3.125,10.375 -3,10 -3.5,10 -4,10 -4.5,10 L -5,10 -5.125,9.625 Q -5.25,9.25 -4.96875,8.96875 L -4.6875,8.6875 -4.71875,8.65625 -4.75,8.625 -4.6875,8.6875 Q -4.625,8.75 -4.5,8.75 l 0.125,0 -0.1875,0 -0.1875,0 0.25,0 0.25,0 -0.1875,0 -0.1875,0 0.125,0 q 0.125,0 0.25,-0.0625 L -4.125,8.625 -4.1875,8.65625 -4.25,8.6875 -4,8.96875 Q -3.75,9.25 -3.5,9.25 -3.25,9.25 -3,8.96875 L -2.75,8.6875 -2.8125,8.65625 -2.875,8.625 -2.75,8.6875 Q -2.625,8.75 -2.5,8.75 l 0.125,0 -0.1875,0 -0.1875,0 0.25,0 q 0.25,0 0.25,-0.25 l 0,-0.25 0,0.1875 0,0.1875 0,-0.125 q 0,-0.125 -0.0625,-0.25 L -2.375,8.125 -2.34375,8.1875 -2.3125,8.25 -2.03125,8 Q -1.75,7.75 -1.75,7.5 -1.75,7.25 -2.03125,7 L -2.3125,6.75 -2.34375,6.8125 -2.375,6.875 -2.3125,6.75 Q -2.25,6.625 -2.25,6.5 l 0,-0.125 0,0.1875 0,0.1875 0,-0.25 0,-0.25 0,0.1875 0,0.1875 0,-0.125 q 0,-0.125 -0.0625,-0.1875 L -2.375,6.25 -2.34375,6.28125 -2.3125,6.3125 -2.03125,6.03125 Q -1.75,5.75 -1.875,5.375 -2,5 -2.5,5 L -3,5 -3,4.5 M -2.8125,11.3125 -2.75,11.25 -2.5625,11.0625 -2.375,10.875 -2.5,11 q -0.125,0.125 -0.25,0.25 l -0.125,0.125 0.0625,-0.0625 M 3.5,10 4,10 4,9.5 Q 4,9 4.125,8.625 4.25,8.25 3.96875,8 L 3.6875,7.75 3.65625,7.8125 3.625,7.875 3.6875,7.75 Q 3.75,7.625 3.75,7.5 l 0,-0.125 0,0.1875 0,0.1875 0,-0.25 Q 3.75,7.25 3.5,7 3.25,6.75 3,6.5 2.75,6.25 2.375,6.125 2,6 1.625,6.125 1.25,6.25 1,6.5 0.75,6.75 0.5,7 0.25,7.25 0.25,7.5 0.25,7.75 0.5,8 0.75,8.25 1,8.5 1.25,8.75 1.625,8.875 2,9 2.375,8.875 L 2.75,8.75 2.46875,8.84375 2.1875,8.9375 2.375,8.875 Q 2.5625,8.8125 2.71875,8.71875 L 2.875,8.625 2.7969,8.67187 2.7188,8.71874 2.98442,8.984365 Q 3.25,9.25 3.125,9.625 3,10 3.5,10" id="path18" inkscape:connector-curvature="0" style="fill:#f8f8f8;fill-opacity:1" />
<path d="M 3,4.5 3,4 3.375,4.125 Q 3.75,4.25 4,4 L 4.25,3.75 4.5,4 Q 4.75,4.25 4.875,4.625 5,5 5.125,5.375 L 5.25,5.75 5.15625,5.46875 5.0625,5.1875 5.125,5.375 Q 5.1875,5.5625 5.28125,5.71875 L 5.375,5.875 5.32812,5.796875 5.28125,5.71875 5.01562,5.984375 Q 4.75,6.25 4.875,6.625 L 5,7 4.625,6.875 Q 4.25,6.75 4.125,6.375 4,6 4,5.5 4,5 3.5,5 3,5 3,4.5 M 4.4375,3.9375 4.25,3.75 4.1875,3.6875 4.125,3.625 4.25,3.75 Q 4.375,3.875 4.5,4 L 4.625,4.125 4.4375,3.9375" id="path20" inkscape:connector-curvature="0" style="fill:#e0e0e0;fill-opacity:1" />
<path d="M -6,5.5 -6,5 -5.625,4.875 -5.25,4.75 -5.53125,4.84375 -5.8125,4.9375 -5.625,4.875 Q -5.4375,4.8125 -5.28125,4.71875 L -5.125,4.625 -5.203125,4.671875 -5.28125,4.71875 -5,5 -4.71875,5.28125 -4.640625,5.234375 -4.5625,5.1875 -4.71875,5.28125 Q -4.875,5.375 -5,5.5 L -5.125,5.625 -4.9375,5.4375 -4.75,5.25 -5,5.5 Q -5.25,5.75 -5.625,5.875 L -6,6 -6,5.5" id="path22" inkscape:connector-curvature="0" style="fill:#c0c0c0;fill-opacity:1" />
<path d="M -5,5.5 Q -4.75,5.25 -4.375,5.125 -4,5 -3.5,5 L -3,5 -2.5,5 Q -2,5 -1.875,5.375 -1.75,5.75 -2.03125,6.03125 L -2.3125,6.3125 -2.28125,6.34375 -2.25,6.375 -2.3125,6.3125 Q -2.375,6.25 -2.5,6.25 l -0.125,0 0.1875,0 0.1875,0 -0.25,0 -0.25,0 0.1875,0 0.1875,0 -0.125,0 q -0.125,0 -0.25,0.0625 L -2.875,6.375 -2.8125,6.34375 -2.75,6.3125 -3,6.03125 Q -3.25,5.75 -3.5,5.75 -3.75,5.75 -4,6.03125 L -4.25,6.3125 -4.1875,6.34375 -4.125,6.375 -4.25,6.3125 Q -4.375,6.25 -4.5,6.25 l -0.125,0 0.1875,0 0.1875,0 -0.25,0 -0.25,0 0.1875,0 0.1875,0 -0.125,0 q -0.125,0 -0.1875,0.0625 L -4.75,6.375 -4.71875,6.34375 -4.6875,6.3125 -4.984375,6.015625 -5.28125,5.71875 -5.359375,5.765625 -5.4375,5.8125 -5.28125,5.71875 Q -5.125,5.625 -5,5.5 L -4.875,5.375 -5.0625,5.5625 -5.25,5.75 -5,5.5" id="path24" inkscape:connector-curvature="0" style="fill:#ffffff;fill-opacity:1" />
<path d="M -6.125,6.375 -6,6 -5.625,5.875 -5.25,5.75 -5.53125,5.84375 -5.8125,5.9375 -5.625,5.875 Q -5.4375,5.8125 -5.28125,5.71875 L -5.125,5.625 -5.203125,5.671875 -5.28125,5.71875 -4.984375,6.015625 -4.6875,6.3125 -4.65625,6.28125 -4.625,6.25 -4.6875,6.3125 Q -4.75,6.375 -4.75,6.5 l 0,0.125 0,-0.1875 0,-0.1875 0,0.25 0,0.25 0,-0.1875 0,-0.1875 0,0.125 q 0,0.125 0.0625,0.25 L -4.625,6.875 -4.65625,6.8125 -4.6875,6.75 -4.96875,7 Q -5.25,7.25 -5.25,7.5 q 0,0.25 0.28125,0.5 L -4.6875,8.25 -4.65625,8.1875 -4.625,8.125 -4.6875,8.25 Q -4.75,8.375 -4.75,8.5 l 0,0.125 0,-0.1875 0,-0.1875 0,0.25 0,0.25 0,-0.1875 0,-0.1875 0,0.125 q 0,0.125 0.0625,0.1875 L -4.625,8.75 -4.65625,8.71875 -4.6875,8.6875 -4.96875,8.96875 Q -5.25,9.25 -5.125,9.625 L -5,10 l 0,0.5 q 0,0.5 0,1 L -5,12 -5.375,11.875 Q -5.75,11.75 -5.875,11.375 -6,11 -5.875,10.625 -5.75,10.25 -6.03125,10 L -6.3125,9.75 -6.34375,9.8125 -6.375,9.875 -6.3125,9.75 Q -6.25,9.625 -6.25,9.5 l 0,-0.125 0,0.1875 0,0.1875 0,-0.25 0,-0.25 0,0.1875 0,0.1875 0,-0.125 q 0,-0.125 -0.0625,-0.25 L -6.375,9.125 -6.34375,9.1875 -6.3125,9.25 -6.03125,9 Q -5.75,8.75 -5.875,8.375 -6,8 -5.875,7.625 -5.75,7.25 -6.015625,6.984375 L -6.28125,6.71875 -6.328125,6.796875 -6.375,6.875 -6.28125,6.71875 Q -6.1875,6.5625 -6.125,6.375 L -6.0625,6.1875 -6.15625,6.46875 -6.25,6.75 -6.125,6.375" id="path26" inkscape:connector-curvature="0" style="fill:#e0e0e0;fill-opacity:1" />
<path d="m -4.75,6.5 q 0,-0.25 0.25,-0.25 0.25,0 0.5,0.25 0.25,0.25 0.5,0.25 0.25,0 0.5,-0.25 0.25,-0.25 0.5,-0.25 0.25,0 0.25,0.25 0,0.25 -0.25,0.5 -0.25,0.25 -0.25,0.5 0,0.25 0.25,0.5 0.25,0.25 0.25,0.5 0,0.25 -0.25,0.25 Q -2.75,8.75 -3,8.5 -3.25,8.25 -3.5,8.25 -3.75,8.25 -4,8.5 -4.25,8.75 -4.5,8.75 -4.75,8.75 -4.75,8.5 -4.75,8.25 -4.5,8 -4.25,7.75 -4.25,7.5 -4.25,7.25 -4.5,7 -4.75,6.75 -4.75,6.5" id="path28" inkscape:connector-curvature="0" style="fill:#000000;fill-opacity:1" />
<path d="M -4,6.5 -4.25,6.25 -4.0625,6.4375 -3.875,6.625 -4,6.5 Q -4.125,6.375 -4.25,6.3125 L -4.375,6.25 -4.3125,6.28125 -4.25,6.3125 -4,6.03125 Q -3.75,5.75 -3.5,5.75 q 0.25,0 0.5,0.28125 L -2.75,6.3125 -2.6875,6.28125 -2.625,6.25 -2.75,6.3125 Q -2.875,6.375 -3,6.5 L -3.125,6.625 -2.9375,6.4375 -2.75,6.25 -3,6.5 Q -3.25,6.75 -3.5,6.75 -3.75,6.75 -4,6.5" id="path30" inkscape:connector-curvature="0" style="fill:#f8f8f8;fill-opacity:1" />
<path d="M 1,6.5 Q 1.25,6.25 1.625,6.125 2,6 2.375,6.125 2.75,6.25 3,6.5 3.25,6.75 3.5,7 3.75,7.25 3.75,7.5 3.75,7.75 3.5,8 3.25,8.25 3,8.5 2.75,8.75 2.375,8.875 2,9 1.625,8.875 1.25,8.75 1,8.5 0.75,8.25 0.5,8 0.25,7.75 0.25,7.5 0.25,7.25 0.5,7 0.75,6.75 1,6.5 M 1.625,7.875 Q 2,8 2.375,7.875 2.75,7.75 2.75,7.5 2.75,7.25 2.375,7.125 2,7 1.625,7.125 1.25,7.25 1.25,7.5 q 0,0.25 0.375,0.375" id="path32" inkscape:connector-curvature="0" style="fill:#000000;fill-opacity:1" />
<path d="M 4.875,6.625 Q 4.75,6.25 5.01562,5.984375 L 5.28125,5.71875 5.23437,5.640625 5.1875,5.5625 5.28125,5.71875 Q 5.375,5.875 5.5,6 L 5.625,6.125 5.4375,5.9375 5.25,5.75 5.5,6 Q 5.75,6.25 5.875,6.625 L 6,7 5.5,7 5,7 4.875,6.625" id="path34" inkscape:connector-curvature="0" style="fill:#c0c0c0;fill-opacity:1" />
<path d="M -6.875,7.625 Q -6.75,7.25 -6.5,7 L -6.25,6.75 -6.4375,6.9375 -6.625,7.125 -6.5,7 Q -6.375,6.875 -6.28125,6.71875 L -6.1875,6.5625 -6.23437,6.64063 -6.28124,6.71876 -6.015615,6.984385 Q -5.75,7.25 -5.875,7.625 -6,8 -5.875,8.375 -5.75,8.75 -6.03125,9 L -6.3125,9.25 -6.28125,9.3125 -6.25,9.375 -6.3125,9.25 Q -6.375,9.125 -6.5,9 L -6.625,8.875 -6.4375,9.0625 -6.25,9.25 -6.5,9 Q -6.75,8.75 -6.875,8.375 -7,8 -6.875,7.625" id="path36" inkscape:connector-curvature="0" style="fill:#c0c0c0;fill-opacity:1" />
<path d="m -5.25,7.5 q 0,-0.25 0.28125,-0.5 L -4.6875,6.75 -4.71875,6.6875 -4.75,6.625 -4.6875,6.75 Q -4.625,6.875 -4.5,7 L -4.375,7.125 -4.5625,6.9375 -4.75,6.75 -4.5,7 q 0.25,0.25 0.25,0.5 0,0.25 -0.25,0.5 L -4.75,8.25 -4.5625,8.0625 -4.375,7.875 -4.5,8 Q -4.625,8.125 -4.6875,8.25 L -4.75,8.375 -4.71875,8.3125 -4.6875,8.25 -4.96875,8 Q -5.25,7.75 -5.25,7.5" id="path38" inkscape:connector-curvature="0" style="fill:#ffffff;fill-opacity:1" />
<path d="M -2.75,7.5 Q -2.75,7.25 -2.5,7 L -2.25,6.75 -2.4375,6.9375 -2.625,7.125 -2.5,7 Q -2.375,6.875 -2.3125,6.75 L -2.25,6.625 -2.28125,6.6875 -2.3125,6.75 -2.03125,7 Q -1.75,7.25 -1.75,7.5 -1.75,7.75 -2.03125,8 L -2.3125,8.25 -2.28125,8.3125 -2.25,8.375 -2.3125,8.25 Q -2.375,8.125 -2.5,8 L -2.625,7.875 -2.4375,8.0625 -2.25,8.25 -2.5,8 Q -2.75,7.75 -2.75,7.5" id="path40" inkscape:connector-curvature="0" style="fill:#ffffff;fill-opacity:1" />
<path d="M 1.25,7.5 Q 1.25,7.25 1.625,7.125 2,7 2.375,7.125 2.75,7.25 2.75,7.5 2.75,7.75 2.375,7.875 2,8 1.625,7.875 1.25,7.75 1.25,7.5" id="path42" inkscape:connector-curvature="0" style="fill:#f8f8f8;fill-opacity:1" />
<path d="M 5,7.5 5,7 5.5,7 6,7 6,7.5 Q 6,8 6,8.5 6,9 6.125,9.375 L 6.25,9.75 6.15625,9.46875 6.0625,9.1875 6.125,9.375 Q 6.1875,9.5625 6.28125,9.71875 L 6.375,9.875 6.32812,9.796875 6.28125,9.71875 6.01562,9.984375 Q 5.75,10.25 5.375,10.125 L 5,10 5,9.5 Q 5,9 5,8.5 5,8 5,7.5" id="path44" inkscape:connector-curvature="0" style="fill:#e0e0e0;fill-opacity:1" />
<path d="m -4,8.5 q 0.25,-0.25 0.5,-0.25 0.25,0 0.5,0.25 L -2.75,8.75 -2.9375,8.5625 -3.125,8.375 -3,8.5 q 0.125,0.125 0.25,0.1875 L -2.625,8.75 -2.6875,8.71875 -2.75,8.6875 -3,8.96875 Q -3.25,9.25 -3.5,9.25 -3.75,9.25 -4,8.96875 L -4.25,8.6875 -4.3125,8.71875 -4.375,8.75 -4.25,8.6875 Q -4.125,8.625 -4,8.5 L -3.875,8.375 -4.0625,8.5625 -4.25,8.75 -4,8.5" id="path46" inkscape:connector-curvature="0" style="fill:#ffffff;fill-opacity:1" />
<path d="M 3,8.5 Q 3.25,8.25 3.5,8 L 3.75,7.75 3.5625,7.9375 3.375,8.125 3.5,8 Q 3.625,7.875 3.6875,7.75 L 3.75,7.625 3.71875,7.6875 3.6875,7.75 3.96875,8 Q 4.25,8.25 4.125,8.625 4,9 4,9.5 L 4,10 3.5,10 Q 3,10 3.125,9.625 3.25,9.25 2.98437,8.984375 L 2.71875,8.71875 2.64062,8.765625 2.5625,8.8125 2.71875,8.71875 Q 2.875,8.625 3,8.5 L 3.125,8.375 2.9375,8.5625 2.75,8.75 3,8.5" id="path48" inkscape:connector-curvature="0" style="fill:#ffffff;fill-opacity:1" />
<path d="M -6.875,10.625 Q -6.75,10.25 -6.5,10 L -6.25,9.75 -6.4375,9.9375 -6.625,10.125 -6.5,10 Q -6.375,9.875 -6.3125,9.75 L -6.25,9.625 -6.28125,9.6875 -6.3125,9.75 -6.03125,10 q 0.28125,0.25 0.15625,0.625 -0.125,0.375 0,0.75 0.125,0.375 0.5,0.5 L -5,12 l 0,0.5 q 0,0.5 0.375,0.625 0.375,0.125 0.671875,-0.14063 l 0.296875,-0.26562 -0.04687,-0.0469 -0.04687,-0.0469 0.09375,0.0937 Q -3.5625,12.8125 -3.375,12.875 L -3.1875,12.9375 -3.46875,12.8438 -3.75,12.75 -3.375,12.875 -3,13 l -0.375,0 -0.375,0 0.25,0 q 0.25,0 0.40625,-0.0937 l 0.15625,-0.0937 -0.07813,0.0469 -0.07813,0.0469 0.04687,0.54687 Q -3,14 -2.875,14.375 q 0.125,0.375 0.5,0.5 Q -2,15 -1.5,15 q 0.5,0 1,0 0.5,0 1,0 0.5,0 1,0 Q 2,15 2,15.5 L 2,16 1.625,16.125 1.25,16.25 1.53125,16.1563 1.8125,16.0626 1.625,16.1251 Q 1.4375,16.1876 1.3125,16.3126 L 1.1875,16.4376 1.25,16.3751 1.3125,16.3126 1.03125,16.03135 Q 0.75,15.75 0.375,15.875 0,16 0,16.5 0,17 0,17.5 L 0,18 -0.5,18 -1,18 -1,17.5 Q -1,17 -1.125,16.625 -1.25,16.25 -1.625,16.125 -2,16 -2.375,15.875 -2.75,15.75 -3,15.5 -3.25,15.25 -3.625,15.125 L -4,15 -4,14.5 Q -4,14 -4.375,13.875 -4.75,13.75 -5,14 L -5.25,14.25 -5.5,14 Q -5.75,13.75 -5.875,13.375 -6,13 -6.125,12.625 -6.25,12.25 -6.5,12 -6.75,11.75 -6.875,11.375 -7,11 -6.875,10.625 M -5.4375,14.0625 -5.25,14.25 -5.1875,14.3125 -5.125,14.375 -5.25,14.25 Q -5.375,14.125 -5.5,14 l -0.125,-0.125 0.1875,0.1875" id="path50" inkscape:connector-curvature="0" style="fill:#c0c0c0;fill-opacity:1" />
<path d="m -5,10.5 0,-0.5 0.5,0 q 0.5,0 1,0 0.5,0 0.375,0.375 Q -3.25,10.75 -3,11 L -2.75,11.25 -3,11.5 Q -3.25,11.75 -3.5,12 L -3.75,12.25 -3.5625,12.0625 -3.375,11.875 -3.5,12 q -0.125,0.125 -0.1875,0.25 L -3.75,12.375 -3.71875,12.3125 -3.6875,12.25 -3.96875,12 Q -4.25,11.75 -4.625,11.875 L -5,12 -5,11.5 q 0,-0.5 0,-1 M -2.9375,11.4375 -2.75,11.25 -2.6875,11.1875 -2.625,11.125 -2.75,11.25 Q -2.875,11.375 -3,11.5 l -0.125,0.125 0.1875,-0.1875" id="path52" inkscape:connector-curvature="0" style="fill:#ffffff;fill-opacity:1" />
<path d="m -2,10.5 q 0.25,-0.25 0.5,-0.25 0.25,0 0.5,0.25 0.25,0.25 0.5,0.5 0.25,0.25 0.5,0.5 0.25,0.25 0.5,0.25 0.25,0 0.5,-0.25 0.25,-0.25 0.5,-0.25 0.25,0 0.25,0.25 0,0.25 -0.25,0.5 Q 1.25,12.25 1,12.5 0.75,12.75 0.5,12.75 0.25,12.75 0,12.5 -0.25,12.25 -0.5,12 -0.75,11.75 -1,11.5 -1.25,11.25 -1.5,11.25 -1.75,11.25 -2,11.5 -2.25,11.75 -2.5,12 -2.75,12.25 -2.875,12.625 -3,13 -3.375,12.875 -3.75,12.75 -3.75,12.5 q 0,-0.25 0.25,-0.5 0.25,-0.25 0.5,-0.5 0.25,-0.25 0.5,-0.5 0.25,-0.25 0.5,-0.5" id="path54" inkscape:connector-curvature="0" style="fill:#f810ae;fill-opacity:1" />
<path d="M 4,10.5 4,10 4.5,10 5,10 5,10.5 5,11 4.5,11 Q 4,11 4,10.5" id="path56" inkscape:connector-curvature="0" style="fill:#e0e0e0;fill-opacity:1" />
<path d="M 5,10.5 5,10 5.375,10.125 Q 5.75,10.25 6.01562,9.984375 L 6.28125,9.71875 6.23437,9.640625 6.1875,9.5625 6.28125,9.71875 Q 6.375,9.875 6.5,10 L 6.625,10.125 6.4375,9.9375 6.25,9.75 6.5,10 Q 6.75,10.25 6.875,10.625 7,11 6.875,11.375 6.75,11.75 6.5,12 6.25,12.25 6.125,12.625 6,13 5.875,13.375 5.75,13.75 5.375,13.875 L 5,14 5,13.5 Q 5,13 5,12.5 L 5,12 5.375,11.875 Q 5.75,11.75 5.875,11.375 6,11 5.5,11 L 5,11 5,10.5" id="path58" inkscape:connector-curvature="0" style="fill:#c0c0c0;fill-opacity:1" />
<path d="M 5,11.5 5,11 5.5,11 q 0.5,0 0.375,0.375 -0.125,0.375 -0.5,0.5 L 5,12 5,11.5" id="path60" inkscape:connector-curvature="0" style="fill:#e0e0e0;fill-opacity:1" />
<path d="M -5,12.5 -5,12 -4.625,11.875 Q -4.25,11.75 -3.96875,12 L -3.6875,12.25 -3.65625,12.1875 -3.625,12.125 -3.6875,12.25 Q -3.75,12.375 -3.75,12.5 l 0,0.125 0,-0.1875 0,-0.1875 0,0.25 0,0.25 0,-0.1875 0,-0.1875 0,0.125 q 0,0.125 0.09375,0.21875 l 0.09375,0.0937 -0.04687,-0.0469 -0.04687,-0.0469 -0.296875,0.26562 Q -4.25,13.25 -4.625,13.125 -5,13 -5,12.5" id="path62" inkscape:connector-curvature="0" style="fill:#e0e0e0;fill-opacity:1" />
<path d="M 4.125,12.375 Q 4,12 4.5,12 l 0.5,0 0,0.5 q 0,0.5 0,1 L 5,14 4.625,14.125 4.25,14.25 4.53125,14.1563 4.8125,14.0626 4.625,14.1251 Q 4.4375,14.1876 4.28125,14.28135 L 4.125,14.37505 4.2031,14.32815 4.2812,14.28125 4.01557,14.01562 Q 3.75,13.75 3.75,13.5 l 0,-0.25 0,0.1875 0,0.1875 0,-0.125 q 0,-0.125 -0.0625,-0.1875 L 3.625,13.25 3.6563,13.2813 3.6876,13.3126 3.96885,13.03135 Q 4.25,12.75 4.125,12.375" id="path64" inkscape:connector-curvature="0" style="fill:#e0e0e0;fill-opacity:1" />
<path d="m -3.046875,13.45312 -0.04687,-0.54687 0.546875,0.0469 Q -2,13 -1.5,13 q 0.5,0 0.875,0.125 0.375,0.125 0.5,0.5 Q 0,14 0.5,14 1,14 1.5,14 2,14 2.375,13.875 L 2.75,13.75 2.46875,13.8437 2.1875,13.9374 2.375,13.8749 q 0.1875,-0.0625 0.34375,-0.15625 l 0.15625,-0.0937 -0.0781,0.0469 -0.0781,0.0469 0.26562,0.26562 Q 3.25,14.25 3,14.5 2.75,14.75 3,15 L 3.25,15.25 3,15.5 Q 2.75,15.75 2.375,15.875 L 2,16 2,15.5 Q 2,15 1.5,15 1,15 0.5,15 0,15 -0.5,15 -1,15 -1.5,15 -2,15 -2.375,14.875 -2.75,14.75 -2.875,14.375 -3,14 -3.046875,13.45312 M 3.0625,15.4375 3.25,15.25 3.3125,15.1875 3.375,15.125 3.25,15.25 Q 3.125,15.375 3,15.5 l -0.125,0.125 0.1875,-0.1875" id="path66" inkscape:connector-curvature="0" style="fill:#e0e0e0;fill-opacity:1" />
<path d="m 3,13.5 q 0.25,-0.25 0.5,-0.25 0.25,0 0.25,0.25 0,0.25 0.26562,0.51562 l 0.26563,0.26563 0.0781,-0.0469 0.0781,-0.0469 -0.15625,0.0937 Q 4.125,14.375 4,14.5 L 3.875,14.625 4.0625,14.4375 4.25,14.25 4,14.5 Q 3.75,14.75 3.5,15 L 3.25,15.25 3,15 Q 2.75,14.75 3,14.5 3.25,14.25 2.9844,13.98437 l -0.26562,-0.26562 -0.0781,0.0469 -0.0781,0.0469 0.15625,-0.0937 Q 2.875,13.625 3,13.5 L 3.125,13.375 2.9375,13.5625 2.75,13.75 3,13.5 M 3.1875,15.3125 3.25,15.25 3.4375,15.0625 3.625,14.875 3.5,15 q -0.125,0.125 -0.25,0.25 l -0.125,0.125 0.0625,-0.0625" id="path68" inkscape:connector-curvature="0" style="fill:#c0c0c0;fill-opacity:1" />
<path d="M -5,14.5 -5.25,14.25 -5,14 Q -4.75,13.75 -4.375,13.875 -4,14 -4,14.5 L -4,15 -4.375,14.875 Q -4.75,14.75 -5,14.5 M -5.3125,14.1875 -5.25,14.25 -5.0625,14.4375 -4.875,14.625 -5,14.5 q -0.125,-0.125 -0.25,-0.25 l -0.125,-0.125 0.0625,0.0625" id="path70" inkscape:connector-curvature="0" style="fill:#e0e0e0;fill-opacity:1" />
<path d="M 0,16.5 Q 0,16 0.375,15.875 0.75,15.75 1.03125,16.03125 L 1.3125,16.3125 1.375,16.25 1.4375,16.1875 1.3125,16.3125 Q 1.1875,16.4375 1.125,16.625 L 1.0625,16.8125 1.1562,16.53125 1.25,16.25 1.125,16.625 Q 1,17 1,17.5 L 1,18 0.5,18 0,18 0,17.5 q 0,-0.5 0,-1" id="path72" inkscape:connector-curvature="0" style="fill:#e0e0e0;fill-opacity:1" />
<path sodipodi:type="arc" style="fill:none;fill-opacity:1;stroke:#00ff00;stroke-width:0.1;stroke-miterlimit:4;stroke-dasharray:none" id="path3019" sodipodi:cx="3.730496" sodipodi:cy="4.184397" sodipodi:rx="0.3829787" sodipodi:ry="0.3829787" d="m 4.113475,4.184397 a 0.3829787,0.3829787 0 1 1 -0.765958,0 0.3829787,0.3829787 0 1 1 0.765958,0 z" />
</svg>
