<?xml version="1.0" encoding="UTF-8" standalone="no"?>
<svg
   xmlns:dc="http://purl.org/dc/elements/1.1/"
   xmlns:cc="http://creativecommons.org/ns#"
   xmlns:rdf="http://www.w3.org/1999/02/22-rdf-syntax-ns#"
   xmlns:svg="http://www.w3.org/2000/svg"
   xmlns="http://www.w3.org/2000/svg"
   xmlns:sodipodi="http://sodipodi.sourceforge.net/DTD/sodipodi-0.dtd"
   xmlns:inkscape="http://www.inkscape.org/namespaces/inkscape"
   width="8"
   height="8"
   id="svg2"
   version="1.1"
   inkscape:version="0.48.4 r9939"
   sodipodi:docname="test.svg">
  <metadata
     id="metadata78">
    <rdf:RDF>
      <cc:Work
         rdf:about="">
        <dc:format>image/svg+xml</dc:format>
        <dc:type
           rdf:resource="http://purl.org/dc/dcmitype/StillImage" />
      </cc:Work>
    </rdf:RDF>
  </metadata>
  <defs
     id="defs76" />
  <sodipodi:namedview
     pagecolor="#ffffff"
     bordercolor="#666666"
     borderopacity="1"
     objecttolerance="10"
     gridtolerance="10"
     guidetolerance="10"
     inkscape:pageopacity="0"
     inkscape:pageshadow="2"
     inkscape:window-width="1366"
     inkscape:window-height="709"
     id="namedview74"
     showgrid="false"
     fit-margin-top="0"
     fit-margin-left="0"
     fit-margin-right="0"
     fit-margin-bottom="0"
     inkscape:zoom="64"
     inkscape:cx="4"
     inkscape:cy="4"
     inkscape:window-x="0"
     inkscape:window-y="27"
     inkscape:window-maximized="1"
     inkscape:current-layer="svg2" />
  <path
     d="m -5,-9.5 0,-0.5 0.5,0 0.5,0 0.5,0 0.5,0 0.5,0 0.5,0 0.5,0 0.5,0 0.5,0 0.5,0 0.5,0 0.5,0 0.5,0 0.5,0 0.5,0 0.5,0 0.5,0 0.5,0 0.5,0 0.5,0 0.5,0 0.5,0 0.5,0 0.5,0 0.5,0 0.5,0 0.5,0 0.5,0 0.5,0 0.5,0 0.5,0 0.5,0 0.5,0 0.5,0 0.5,0 0.5,0 0,0.5 0,0.5 0,0.5 0,0.5 0,0.5 0,0.5 0,0.5 0,0.5 0,0.5 0,0.5 0,0.5 0,0.5 0,0.5 0,0.5 0,0.5 0,0.5 0,0.5 0,0.5 0,0.5 L 13,0 13,0.5 13,1 13,1.5 13,2 13,2.5 13,3 13,3.5 13,4 13,4.5 13,5 13,5.5 13,6 13,6.5 13,7 13,7.5 13,8 12.5,8 12,8 11.5,8 11,8 10.5,8 10,8 9.5,8 9,8 8.5,8 8,8 7.5,8 7,8 6.5,8 6,8 6.125,7.625 Q 6.25,7.25 6.5,7 6.75,6.75 7,6.5 7.25,6.25 7.5,6 7.75,5.75 8,5.5 8.25,5.25 8.625,5.125 9,5 9.375,4.875 9.75,4.75 10,4.5 10.25,4.25 10.5,4 10.75,3.75 10.875,3.375 11,3 11.125,2.625 11.25,2.25 11.5,2 11.75,1.75 11.875,1.375 12,1 11.875,0.625 11.75,0.25 11.5,0 11.25,-0.25 11.125,-0.625 11,-1 11,-1.5 11,-2 11,-2.5 11,-3 10.875,-3.375 10.75,-3.75 10.5,-4 10.25,-4.25 10.125,-4.625 10,-5 9.875,-5.375 9.75,-5.75 9.5,-6 9.25,-6.25 9.25,-6.5 9.25,-6.75 9.5,-7 9.75,-7.25 10,-7.5 q 0.25,-0.25 0.5,-0.5 0.25,-0.25 0.25,-0.5 0,-0.25 -0.375,-0.375 Q 10,-9 9.625,-8.875 9.25,-8.75 9.125,-8.375 9,-8 8.875,-7.625 8.75,-7.25 8.5,-7.25 8.25,-7.25 8.125,-7.625 8,-8 7.875,-8.375 7.75,-8.75 7.5,-8.75 7.25,-8.75 7,-8.5 6.75,-8.25 6.5,-8.25 6.25,-8.25 6,-8.5 5.75,-8.75 5.375,-8.875 5,-9 4.5,-9 4,-9 3.5,-9 3,-9 2.5,-9 2,-9 1.625,-8.875 1.25,-8.75 1,-8.5 0.75,-8.25 0.5,-8.25 0.25,-8.25 0,-8.5 q -0.25,-0.25 -0.5,-0.25 -0.25,0 -0.375,0.375 Q -1,-8 -1.125,-7.625 -1.25,-7.25 -1.5,-7.25 -1.75,-7.25 -1.875,-7.625 -2,-8 -2.125,-8.375 -2.25,-8.75 -2.625,-8.875 -3,-9 -3.375,-8.875 -3.75,-8.75 -3.75,-8.5 q 0,0.25 0.25,0.5 0.25,0.25 0.5,0.5 0.25,0.25 0.5,0.5 0.25,0.25 0.25,0.5 0,0.25 -0.25,0.5 -0.25,0.25 -0.375,0.625 Q -3,-5 -3,-4.5 -3,-4 -3.125,-3.625 -3.25,-3.25 -3.5,-3 -3.75,-2.75 -3.875,-2.375 -4,-2 -3.875,-1.625 -3.75,-1.25 -3.5,-1 q 0.25,0.25 0.25,0.5 0,0.25 -0.25,0.5 Q -3.75,0.25 -3.875,0.625 -4,1 -3.875,1.375 -3.75,1.75 -3.5,2 -3.25,2.25 -3.125,2.625 -3,3 -2.875,3.375 -2.75,3.75 -2.5,4 -2.25,4.25 -2,4.5 -1.75,4.75 -1.5,5 -1.25,5.25 -1,5.5 -0.75,5.75 -0.375,5.875 0,6 0.375,6.125 0.75,6.25 1,6.5 1.25,6.75 1.5,7 1.75,7.25 1.875,7.625 L 2,8 1.5,8 1,8 0.5,8 0,8 -0.5,8 -1,8 -1.5,8 -2,8 -2.5,8 -3,8 -3.5,8 -4,8 -4.5,8 -5,8 -5,7.5 -5,7 -5,6.5 -5,6 -5,5.5 -5,5 -5,4.5 -5,4 -5,3.5 -5,3 -5,2.5 -5,2 -5,1.5 -5,1 -5,0.5 -5,0 -5,-0.5 -5,-1 -5,-1.5 -5,-2 -5,-2.5 -5,-3 -5,-3.5 -5,-4 -5,-4.5 -5,-5 -5,-5.5 -5,-6 -5,-6.5 -5,-7 -5,-7.5 -5,-8 -5,-8.5 -5,-9 -5,-9.5"
     id="path4"
     inkscape:connector-curvature="0"
     style="fill:#a6a6a6;fill-opacity:1" />
  <path
     d="m -3.75,-8.5 q 0,-0.25 0.375,-0.375 0.375,-0.125 0.75,0 0.375,0.125 0.5,0.5 0.125,0.375 0.25,0.75 0.125,0.375 0.375,0.375 0.25,0 0.375,-0.375 Q -1,-8 -0.875,-8.375 -0.75,-8.75 -0.5,-8.75 q 0.25,0 0.5,0.25 0.25,0.25 0.5,0.25 0.25,0 0.5,-0.25 Q 1.25,-8.75 1.625,-8.875 2,-9 2.5,-9 3,-9 3.5,-9 4,-9 4.5,-9 5,-9 5.375,-8.875 5.75,-8.75 6,-8.5 q 0.25,0.25 0.5,0.25 0.25,0 0.5,-0.25 0.25,-0.25 0.5,-0.25 0.25,0 0.375,0.375 Q 8,-8 8.125,-7.625 8.25,-7.25 8.5,-7.25 8.75,-7.25 8.875,-7.625 9,-8 9.125,-8.375 q 0.125,-0.375 0.5,-0.5 0.375,-0.125 0.75,0 0.375,0.125 0.375,0.375 0,0.25 -0.25,0.5 -0.25,0.25 -0.5,0.5 -0.25,0.25 -0.5,0.5 -0.25,0.25 -0.25,0.5 0,0.25 0.25,0.5 0.25,0.25 0.375,0.625 Q 10,-5 10.125,-4.625 10.25,-4.25 10.5,-4 10.75,-3.75 10.875,-3.375 11,-3 11,-2.5 q 0,0.5 0,1 0,0.5 0.125,0.875 Q 11.25,-0.25 11.5,0 11.75,0.25 11.875,0.625 12,1 11.875,1.375 11.75,1.75 11.5,2 11.25,2.25 11.125,2.625 11,3 10.875,3.375 10.75,3.75 10.5,4 10.25,4.25 10,4.5 9.75,4.75 9.375,4.875 9,5 8.625,5.125 8.25,5.25 8,5.5 7.75,5.75 7.5,6 7.25,6.25 7,6.5 6.75,6.75 6.5,7 6.25,7.25 6.125,7.625 L 6,8 5.5,8 5,8 5,7.5 Q 5,7 5.125,6.625 5.25,6.25 5.625,6.125 L 6,6 6.375,5.875 Q 6.75,5.75 7,5.5 7.25,5.25 7.5,5 7.75,4.75 8,4.5 8.25,4.25 8.625,4.125 L 9,4 9.375,3.875 Q 9.75,3.75 9.875,3.375 10,3 10.125,2.625 10.25,2.25 10.5,2 10.75,1.75 10.875,1.375 11,1 10.875,0.625 10.75,0.25 10.5,0 10.25,-0.25 10.125,-0.625 10,-1 10,-1.5 10,-2 10,-2.5 L 10,-3 9.875,-3.375 Q 9.75,-3.75 9.5,-4 9.25,-4.25 9.125,-4.625 9,-5 8.875,-5.375 8.75,-5.75 8.5,-6 8.25,-6.25 8,-6.5 7.75,-6.75 7.375,-6.875 L 7,-7 6.625,-7.125 Q 6.25,-7.25 6,-7.5 5.75,-7.75 5.375,-7.875 5,-8 4.5,-8 4,-8 3.5,-8 3,-8 2.5,-8 2,-8 1.625,-7.875 1.25,-7.75 1,-7.5 0.75,-7.25 0.375,-7.125 0,-7 -0.375,-6.875 -0.75,-6.75 -1,-6.5 -1.25,-6.25 -1.5,-6 -1.75,-5.75 -1.875,-5.375 L -2,-5 l 0,0.5 0,0.5 -0.125,0.375 Q -2.25,-3.25 -2.5,-3 -2.75,-2.75 -2.875,-2.375 -3,-2 -2.875,-1.625 -2.75,-1.25 -2.5,-1 q 0.25,0.25 0.25,0.5 0,0.25 -0.25,0.5 Q -2.75,0.25 -2.875,0.625 -3,1 -2.875,1.375 -2.75,1.75 -2.5,2 -2.25,2.25 -2.125,2.625 -2,3 -1.875,3.375 -1.75,3.75 -1.5,4 -1.25,4.25 -1,4.5 -0.75,4.75 -0.375,4.875 L 0,5 0.375,5.125 Q 0.75,5.25 1,5.5 1.25,5.75 1.625,5.875 2,6 2.375,6.125 2.75,6.25 2.875,6.625 3,7 3,7.5 L 3,8 2.5,8 2,8 1.875,7.625 Q 1.75,7.25 1.5,7 1.25,6.75 1,6.5 0.75,6.25 0.375,6.125 0,6 -0.375,5.875 -0.75,5.75 -1,5.5 -1.25,5.25 -1.5,5 -1.75,4.75 -2,4.5 -2.25,4.25 -2.5,4 -2.75,3.75 -2.875,3.375 -3,3 -3.125,2.625 -3.25,2.25 -3.5,2 -3.75,1.75 -3.875,1.375 -4,1 -3.875,0.625 -3.75,0.25 -3.5,0 -3.25,-0.25 -3.25,-0.5 -3.25,-0.75 -3.5,-1 -3.75,-1.25 -3.875,-1.625 -4,-2 -3.875,-2.375 -3.75,-2.75 -3.5,-3 -3.25,-3.25 -3.125,-3.625 -3,-4 -3,-4.5 -3,-5 -2.875,-5.375 -2.75,-5.75 -2.5,-6 -2.25,-6.25 -2.25,-6.5 -2.25,-6.75 -2.5,-7 -2.75,-7.25 -3,-7.5 -3.25,-7.75 -3.5,-8 -3.75,-8.25 -3.75,-8.5"
     id="path6"
     inkscape:connector-curvature="0"
     style="fill:#000000;fill-opacity:1" />
  <path
     d="M 1,-7.5 Q 1.25,-7.75 1.625,-7.875 2,-8 2.5,-8 3,-8 3.5,-8 4,-8 4.5,-8 5,-8 5.375,-7.875 5.75,-7.75 6,-7.5 L 6.25,-7.25 6.0625,-7.4375 5.875,-7.625 6,-7.5 q 0.125,0.125 0.28125,0.21875 L 6.4375,-7.1875 6.359375,-7.234375 6.28125,-7.28125 6.015625,-7.015625 Q 5.75,-6.75 5.375,-6.875 5,-7 4.5,-7 4,-7 3.5,-7 3,-7 2.5,-7 2,-7 1.625,-6.875 1.25,-6.75 1.125,-6.375 L 1,-6 0.5,-6 Q 0,-6 -0.375,-5.875 L -0.75,-5.75 -0.46875,-5.84375 -0.1875,-5.9375 -0.375,-5.875 q -0.1875,0.0625 -0.34375,0.15625 L -0.875,-5.625 -0.796875,-5.671875 -0.71875,-5.71875 -0.984375,-5.984375 -1.25,-6.25 -1,-6.5 Q -0.75,-6.75 -0.375,-6.875 0,-7 0.375,-7.125 0.75,-7.25 1,-7.5 M -1.0625,-6.4375 -1.25,-6.25 -1.3125,-6.1875 -1.375,-6.125 -1.25,-6.25 Q -1.125,-6.375 -1,-6.5 l 0.125,-0.125 -0.1875,0.1875"
     id="path8"
     inkscape:connector-curvature="0"
     style="fill:#c0c0c0;fill-opacity:1" />
  <path
     d="M 1.125,-6.375 Q 1.25,-6.75 1.625,-6.875 2,-7 2.5,-7 q 0.5,0 1,0 0.5,0 1,0 0.5,0 0.875,0.125 0.375,0.125 0.640625,-0.140625 L 6.28125,-7.28125 6.203125,-7.328125 6.125,-7.375 6.28125,-7.28125 Q 6.4375,-7.1875 6.625,-7.125 L 6.8125,-7.0625 6.53125,-7.15625 6.25,-7.25 6.625,-7.125 7,-7 7,-6.5 7,-6 6.5,-6 Q 6,-6 5.5,-6 5,-6 4.5,-6 4,-6 3.5,-6 3,-6 2.5,-6 2,-6 1.5,-6 L 1,-6 1.125,-6.375"
     id="path10"
     inkscape:connector-curvature="0"
     style="fill:#e0e0e0;fill-opacity:1" />
  <path
     d="M 7,-6.5 7,-7 7.375,-6.875 Q 7.75,-6.75 8,-6.5 L 8.25,-6.25 8,-6 Q 7.75,-5.75 7.375,-5.875 L 7,-6 7,-6.5 M 8.3125,-6.1875 8.25,-6.25 8.0625,-6.4375 7.875,-6.625 8,-6.5 q 0.125,0.125 0.25,0.25 l 0.125,0.125 -0.0625,-0.0625"
     id="path12"
     inkscape:connector-curvature="0"
     style="fill:#c0c0c0;fill-opacity:1" />
  <path
     d="M -1.875,-5.375 Q -1.75,-5.75 -1.5,-6 l 0.25,-0.25 0.265625,0.265625 0.265625,0.265625 0.078125,-0.046875 L -0.5625,-5.8125 -0.71875,-5.71875 Q -0.875,-5.625 -1,-5.5 L -1.125,-5.375 -0.9375,-5.5625 -0.75,-5.75 -1,-5.5 q -0.25,0.25 -0.625,0.375 L -2,-5 -1.875,-5.375 M -1.1875,-6.3125 -1.25,-6.25 -1.4375,-6.0625 -1.625,-5.875 -1.5,-6 q 0.125,-0.125 0.25,-0.25 l 0.125,-0.125 -0.0625,0.0625"
     id="path14"
     inkscape:connector-curvature="0"
     style="fill:#a6a6a6;fill-opacity:1" />
  <path
     d="M -1,-5.5 Q -0.75,-5.75 -0.375,-5.875 0,-6 0.5,-6 L 1,-6 1,-5.5 1,-5 0.5,-5 Q 0,-5 -0.375,-4.875 L -0.75,-4.75 -0.46875,-4.84375 -0.1875,-4.9375 -0.375,-4.875 q -0.1875,0.0625 -0.34375,0.15625 L -0.875,-4.625 -0.796875,-4.671875 -0.71875,-4.71875 -1,-5 -1.28125,-5.28125 -1.359375,-5.234375 -1.4375,-5.1875 -1.28125,-5.28125 Q -1.125,-5.375 -1,-5.5 L -0.875,-5.625 -1.0625,-5.4375 -1.25,-5.25 -1,-5.5"
     id="path16"
     inkscape:connector-curvature="0"
     style="fill:#e0e0e0;fill-opacity:1" />
  <path
     d="M 1,-5.5 1,-6 1.5,-6 q 0.5,0 1,0 0.5,0 1,0 0.5,0 1,0 0.5,0 1,0 0.5,0 1,0 L 7,-6 7,-5.5 Q 7,-5 7.5,-5 8,-5 8,-4.5 q 0,0.5 0.125,0.875 0.125,0.375 0.5,0.5 L 9,-3 9,-2.5 q 0,0.5 0,1 0,0.5 0,1 L 9,0 8.5,0 8,0 8,0.5 Q 8,1 8.5,1 L 9,1 9,1.5 9,2 8.5,2 Q 8,2 8.125,2.375 8.25,2.75 7.96875,3.03125 L 7.6875,3.3125 7.71875,3.34375 7.75,3.375 7.6875,3.3125 Q 7.625,3.25 7.5,3.25 l -0.125,0 0.1875,0 0.1875,0 -0.25,0 Q 7.25,3.25 7,3.5 6.75,3.75 6.375,3.875 6,4 5.5,4 5,4 4.5,4 4,4 3.875,3.625 3.75,3.25 3.375,3.125 3,3 2.5,3 2,3 1.453125,2.953125 L 0.90625,2.90625 0.828125,2.953125 0.75,3 0.90625,2.90625 Q 1.0625,2.8125 1.125,2.625 L 1.1875,2.4375 1.09375,2.71875 1,3 1.125,2.625 Q 1.25,2.25 1.5,2 1.75,1.75 2,1.5 2.25,1.25 2.5,1.25 2.75,1.25 3,1.5 3.25,1.75 3.5,2 3.75,2.25 4,2.5 4.25,2.75 4.5,2.75 4.75,2.75 5,2.5 5.25,2.25 5.5,2 5.75,1.75 5.75,1.5 5.75,1.25 5.5,1.25 5.25,1.25 5,1.5 4.75,1.75 4.5,1.75 4.25,1.75 4,1.5 3.75,1.25 3.5,1 3.25,0.75 3,0.5 2.75,0.25 2.5,0.25 2.25,0.25 2,0.5 1.75,0.75 1.5,1 L 1.25,1.25 1,1 Q 0.75,0.75 0.875,0.375 1,0 0.5,0 0,0 -0.5,0 L -1,0 -1.125,-0.375 Q -1.25,-0.75 -0.96875,-1.03125 L -0.6875,-1.3125 -0.71875,-1.34375 -0.75,-1.375 -0.6875,-1.3125 Q -0.625,-1.25 -0.5,-1.25 l 0.125,0 -0.1875,0 -0.1875,0 0.25,0 0.25,0 -0.1875,0 -0.1875,0 0.125,0 q 0.125,0 0.25,-0.0625 L -0.125,-1.375 -0.1875,-1.34375 -0.25,-1.3125 0,-1.03125 Q 0.25,-0.75 0.5,-0.75 0.75,-0.75 1,-1.03125 L 1.25,-1.3125 1.1875,-1.34375 1.125,-1.375 1.25,-1.3125 Q 1.375,-1.25 1.5,-1.25 l 0.125,0 -0.1875,0 -0.1875,0 0.25,0 q 0.25,0 0.25,-0.25 l 0,-0.25 0,0.1875 0,0.1875 0,-0.125 q 0,-0.125 -0.0625,-0.25 L 1.625,-1.875 1.65625,-1.8125 1.6875,-1.75 1.96875,-2 Q 2.25,-2.25 2.25,-2.5 2.25,-2.75 1.96875,-3 L 1.6875,-3.25 1.65625,-3.1875 1.625,-3.125 1.6875,-3.25 Q 1.75,-3.375 1.75,-3.5 l 0,-0.125 0,0.1875 0,0.1875 0,-0.25 0,-0.25 0,0.1875 0,0.1875 0,-0.125 q 0,-0.125 -0.0625,-0.1875 L 1.625,-3.75 1.65625,-3.71875 1.6875,-3.6875 1.96875,-3.96875 Q 2.25,-4.25 2.125,-4.625 2,-5 1.5,-5 L 1,-5 1,-5.5 M 1.1875,1.3125 1.25,1.25 1.4375,1.0625 1.625,0.875 1.5,1 Q 1.375,1.125 1.25,1.25 L 1.125,1.375 1.1875,1.3125 M 7.5,0 8,0 8,-0.5 Q 8,-1 8.125,-1.375 8.25,-1.75 7.96875,-2 L 7.6875,-2.25 7.65625,-2.1875 7.625,-2.125 7.6875,-2.25 Q 7.75,-2.375 7.75,-2.5 l 0,-0.125 0,0.1875 0,0.1875 0,-0.25 Q 7.75,-2.75 7.5,-3 7.25,-3.25 7,-3.5 6.75,-3.75 6.375,-3.875 6,-4 5.625,-3.875 5.25,-3.75 5,-3.5 4.75,-3.25 4.5,-3 q -0.25,0.25 -0.25,0.5 0,0.25 0.25,0.5 0.25,0.25 0.5,0.5 0.25,0.25 0.625,0.375 0.375,0.125 0.75,0 L 6.75,-1.25 6.46875,-1.15625 6.1875,-1.0625 6.375,-1.125 Q 6.5625,-1.1875 6.71875,-1.28125 L 6.875,-1.375 6.796875,-1.328125 6.71875,-1.28125 6.984375,-1.015625 Q 7.25,-0.75 7.125,-0.375 7,0 7.5,0"
     id="path18"
     inkscape:connector-curvature="0"
     style="fill:#f8f8f8;fill-opacity:1" />
  <path
     d="M 7,-5.5 7,-6 7.375,-5.875 Q 7.75,-5.75 8,-6 L 8.25,-6.25 8.5,-6 Q 8.75,-5.75 8.875,-5.375 9,-5 9.125,-4.625 L 9.25,-4.25 9.15625,-4.53125 9.0625,-4.8125 9.125,-4.625 q 0.0625,0.1875 0.15625,0.34375 L 9.375,-4.125 9.328125,-4.203125 9.28125,-4.28125 9.015625,-4.015625 Q 8.75,-3.75 8.875,-3.375 L 9,-3 8.625,-3.125 Q 8.25,-3.25 8.125,-3.625 8,-4 8,-4.5 8,-5 7.5,-5 7,-5 7,-5.5 M 8.4375,-6.0625 8.25,-6.25 8.1875,-6.3125 8.125,-6.375 8.25,-6.25 Q 8.375,-6.125 8.5,-6 l 0.125,0.125 -0.1875,-0.1875"
     id="path20"
     inkscape:connector-curvature="0"
     style="fill:#e0e0e0;fill-opacity:1" />
  <path
     d="M -2,-4.5 -2,-5 -1.625,-5.125 -1.25,-5.25 -1.53125,-5.15625 -1.8125,-5.0625 -1.625,-5.125 q 0.1875,-0.0625 0.34375,-0.15625 L -1.125,-5.375 -1.203125,-5.328125 -1.28125,-5.28125 -1,-5 -0.71875,-4.71875 -0.640625,-4.765625 -0.5625,-4.8125 -0.71875,-4.71875 Q -0.875,-4.625 -1,-4.5 L -1.125,-4.375 -0.9375,-4.5625 -0.75,-4.75 -1,-4.5 q -0.25,0.25 -0.625,0.375 L -2,-4 -2,-4.5"
     id="path22"
     inkscape:connector-curvature="0"
     style="fill:#c0c0c0;fill-opacity:1" />
  <path
     d="M -1,-4.5 Q -0.75,-4.75 -0.375,-4.875 0,-5 0.5,-5 L 1,-5 1.5,-5 Q 2,-5 2.125,-4.625 2.25,-4.25 1.96875,-3.96875 L 1.6875,-3.6875 1.71875,-3.65625 1.75,-3.625 1.6875,-3.6875 Q 1.625,-3.75 1.5,-3.75 l -0.125,0 0.1875,0 0.1875,0 -0.25,0 -0.25,0 0.1875,0 0.1875,0 -0.125,0 q -0.125,0 -0.25,0.0625 L 1.125,-3.625 1.1875,-3.65625 1.25,-3.6875 1,-3.96875 Q 0.75,-4.25 0.5,-4.25 0.25,-4.25 0,-3.96875 L -0.25,-3.6875 -0.1875,-3.65625 -0.125,-3.625 -0.25,-3.6875 Q -0.375,-3.75 -0.5,-3.75 l -0.125,0 0.1875,0 0.1875,0 -0.25,0 -0.25,0 0.1875,0 0.1875,0 -0.125,0 q -0.125,0 -0.1875,0.0625 L -0.75,-3.625 -0.71875,-3.65625 -0.6875,-3.6875 -0.984375,-3.984375 -1.28125,-4.28125 -1.359375,-4.234375 -1.4375,-4.1875 -1.28125,-4.28125 Q -1.125,-4.375 -1,-4.5 L -0.875,-4.625 -1.0625,-4.4375 -1.25,-4.25 -1,-4.5"
     id="path24"
     inkscape:connector-curvature="0"
     style="fill:#ffffff;fill-opacity:1" />
  <path
     d="M -2.125,-3.625 -2,-4 -1.625,-4.125 -1.25,-4.25 -1.53125,-4.15625 -1.8125,-4.0625 -1.625,-4.125 q 0.1875,-0.0625 0.34375,-0.15625 L -1.125,-4.375 -1.203125,-4.328125 -1.28125,-4.28125 -0.984375,-3.984375 -0.6875,-3.6875 -0.65625,-3.71875 -0.625,-3.75 -0.6875,-3.6875 Q -0.75,-3.625 -0.75,-3.5 l 0,0.125 0,-0.1875 0,-0.1875 0,0.25 0,0.25 0,-0.1875 0,-0.1875 0,0.125 q 0,0.125 0.0625,0.25 L -0.625,-3.125 -0.65625,-3.1875 -0.6875,-3.25 -0.96875,-3 Q -1.25,-2.75 -1.25,-2.5 q 0,0.25 0.28125,0.5 L -0.6875,-1.75 -0.65625,-1.8125 -0.625,-1.875 -0.6875,-1.75 Q -0.75,-1.625 -0.75,-1.5 l 0,0.125 0,-0.1875 0,-0.1875 0,0.25 0,0.25 0,-0.1875 0,-0.1875 0,0.125 q 0,0.125 0.0625,0.1875 L -0.625,-1.25 -0.65625,-1.28125 -0.6875,-1.3125 -0.96875,-1.03125 Q -1.25,-0.75 -1.125,-0.375 L -1,0 -1,0.5 q 0,0.5 0,1 L -1,2 -1.375,1.875 Q -1.75,1.75 -1.875,1.375 -2,1 -1.875,0.625 -1.75,0.25 -2.03125,0 L -2.3125,-0.25 -2.34375,-0.1875 -2.375,-0.125 -2.3125,-0.25 Q -2.25,-0.375 -2.25,-0.5 l 0,-0.125 0,0.1875 0,0.1875 0,-0.25 0,-0.25 0,0.1875 0,0.1875 0,-0.125 q 0,-0.125 -0.0625,-0.25 L -2.375,-0.875 -2.34375,-0.8125 -2.3125,-0.75 -2.03125,-1 Q -1.75,-1.25 -1.875,-1.625 -2,-2 -1.875,-2.375 -1.75,-2.75 -2.015625,-3.015625 L -2.28125,-3.28125 -2.328125,-3.203125 -2.375,-3.125 -2.28125,-3.28125 Q -2.1875,-3.4375 -2.125,-3.625 L -2.0625,-3.8125 -2.15625,-3.53125 -2.25,-3.25 -2.125,-3.625"
     id="path26"
     inkscape:connector-curvature="0"
     style="fill:#e0e0e0;fill-opacity:1" />
  <path
     d="m -0.75,-3.5 q 0,-0.25 0.25,-0.25 0.25,0 0.5,0.25 0.25,0.25 0.5,0.25 0.25,0 0.5,-0.25 0.25,-0.25 0.5,-0.25 0.25,0 0.25,0.25 0,0.25 -0.25,0.5 -0.25,0.25 -0.25,0.5 0,0.25 0.25,0.5 0.25,0.25 0.25,0.5 0,0.25 -0.25,0.25 -0.25,0 -0.5,-0.25 -0.25,-0.25 -0.5,-0.25 -0.25,0 -0.5,0.25 -0.25,0.25 -0.5,0.25 -0.25,0 -0.25,-0.25 0,-0.25 0.25,-0.5 0.25,-0.25 0.25,-0.5 0,-0.25 -0.25,-0.5 -0.25,-0.25 -0.25,-0.5"
     id="path28"
     inkscape:connector-curvature="0"
     style="fill:#000000;fill-opacity:1" />
  <path
     d="M 0,-3.5 -0.25,-3.75 -0.0625,-3.5625 0.125,-3.375 0,-3.5 Q -0.125,-3.625 -0.25,-3.6875 L -0.375,-3.75 -0.3125,-3.71875 -0.25,-3.6875 0,-3.96875 Q 0.25,-4.25 0.5,-4.25 q 0.25,0 0.5,0.28125 L 1.25,-3.6875 1.3125,-3.71875 1.375,-3.75 1.25,-3.6875 Q 1.125,-3.625 1,-3.5 L 0.875,-3.375 1.0625,-3.5625 1.25,-3.75 1,-3.5 Q 0.75,-3.25 0.5,-3.25 0.25,-3.25 0,-3.5"
     id="path30"
     inkscape:connector-curvature="0"
     style="fill:#f8f8f8;fill-opacity:1" />
  <path
     d="M 5,-3.5 Q 5.25,-3.75 5.625,-3.875 6,-4 6.375,-3.875 6.75,-3.75 7,-3.5 7.25,-3.25 7.5,-3 7.75,-2.75 7.75,-2.5 7.75,-2.25 7.5,-2 7.25,-1.75 7,-1.5 6.75,-1.25 6.375,-1.125 6,-1 5.625,-1.125 5.25,-1.25 5,-1.5 4.75,-1.75 4.5,-2 4.25,-2.25 4.25,-2.5 4.25,-2.75 4.5,-3 4.75,-3.25 5,-3.5 m 0.625,1.375 Q 6,-2 6.375,-2.125 6.75,-2.25 6.75,-2.5 6.75,-2.75 6.375,-2.875 6,-3 5.625,-2.875 5.25,-2.75 5.25,-2.5 q 0,0.25 0.375,0.375"
     id="path32"
     inkscape:connector-curvature="0"
     style="fill:#000000;fill-opacity:1" />
  <path
     d="M 8.875,-3.375 Q 8.75,-3.75 9.015625,-4.015625 L 9.28125,-4.28125 9.234375,-4.359375 9.1875,-4.4375 9.28125,-4.28125 Q 9.375,-4.125 9.5,-4 L 9.625,-3.875 9.4375,-4.0625 9.25,-4.25 9.5,-4 q 0.25,0.25 0.375,0.625 L 10,-3 9.5,-3 9,-3 8.875,-3.375"
     id="path34"
     inkscape:connector-curvature="0"
     style="fill:#c0c0c0;fill-opacity:1" />
  <path
     d="M -2.875,-2.375 Q -2.75,-2.75 -2.5,-3 L -2.25,-3.25 -2.4375,-3.0625 -2.625,-2.875 -2.5,-3 q 0.125,-0.125 0.21875,-0.28125 l 0.09375,-0.15625 -0.046875,0.078125 -0.046875,0.078125 0.265625,0.265625 Q -1.75,-2.75 -1.875,-2.375 -2,-2 -1.875,-1.625 -1.75,-1.25 -2.03125,-1 L -2.3125,-0.75 -2.28125,-0.6875 -2.25,-0.625 -2.3125,-0.75 Q -2.375,-0.875 -2.5,-1 L -2.625,-1.125 -2.4375,-0.9375 -2.25,-0.75 -2.5,-1 Q -2.75,-1.25 -2.875,-1.625 -3,-2 -2.875,-2.375"
     id="path36"
     inkscape:connector-curvature="0"
     style="fill:#c0c0c0;fill-opacity:1" />
  <path
     d="m -1.25,-2.5 q 0,-0.25 0.28125,-0.5 L -0.6875,-3.25 -0.71875,-3.3125 -0.75,-3.375 -0.6875,-3.25 Q -0.625,-3.125 -0.5,-3 L -0.375,-2.875 -0.5625,-3.0625 -0.75,-3.25 -0.5,-3 q 0.25,0.25 0.25,0.5 0,0.25 -0.25,0.5 L -0.75,-1.75 -0.5625,-1.9375 -0.375,-2.125 -0.5,-2 q -0.125,0.125 -0.1875,0.25 L -0.75,-1.625 -0.71875,-1.6875 -0.6875,-1.75 -0.96875,-2 Q -1.25,-2.25 -1.25,-2.5"
     id="path38"
     inkscape:connector-curvature="0"
     style="fill:#ffffff;fill-opacity:1" />
  <path
     d="M 1.25,-2.5 Q 1.25,-2.75 1.5,-3 L 1.75,-3.25 1.5625,-3.0625 1.375,-2.875 1.5,-3 Q 1.625,-3.125 1.6875,-3.25 L 1.75,-3.375 1.71875,-3.3125 1.6875,-3.25 1.96875,-3 Q 2.25,-2.75 2.25,-2.5 2.25,-2.25 1.96875,-2 L 1.6875,-1.75 1.71875,-1.6875 1.75,-1.625 1.6875,-1.75 Q 1.625,-1.875 1.5,-2 L 1.375,-2.125 1.5625,-1.9375 1.75,-1.75 1.5,-2 Q 1.25,-2.25 1.25,-2.5"
     id="path40"
     inkscape:connector-curvature="0"
     style="fill:#ffffff;fill-opacity:1" />
  <path
     d="m 5.25,-2.5 q 0,-0.25 0.375,-0.375 Q 6,-3 6.375,-2.875 6.75,-2.75 6.75,-2.5 6.75,-2.25 6.375,-2.125 6,-2 5.625,-2.125 5.25,-2.25 5.25,-2.5"
     id="path42"
     inkscape:connector-curvature="0"
     style="fill:#f8f8f8;fill-opacity:1" />
  <path
     d="m 9,-2.5 0,-0.5 0.5,0 0.5,0 0,0.5 q 0,0.5 0,1 0,0.5 0.125,0.875 L 10.25,-0.25 10.15625,-0.53125 10.0625,-0.8125 10.125,-0.625 q 0.0625,0.1875 0.15625,0.34375 L 10.375,-0.125 10.328125,-0.203125 10.28125,-0.28125 10.015625,-0.015625 Q 9.75,0.25 9.375,0.125 L 9,0 9,-0.5 q 0,-0.5 0,-1 0,-0.5 0,-1"
     id="path44"
     inkscape:connector-curvature="0"
     style="fill:#e0e0e0;fill-opacity:1" />
  <path
     d="m 0,-1.5 q 0.25,-0.25 0.5,-0.25 0.25,0 0.5,0.25 L 1.25,-1.25 1.0625,-1.4375 0.875,-1.625 1,-1.5 q 0.125,0.125 0.25,0.1875 L 1.375,-1.25 1.3125,-1.28125 1.25,-1.3125 1,-1.03125 Q 0.75,-0.75 0.5,-0.75 0.25,-0.75 0,-1.03125 L -0.25,-1.3125 -0.3125,-1.28125 -0.375,-1.25 -0.25,-1.3125 Q -0.125,-1.375 0,-1.5 L 0.125,-1.625 -0.0625,-1.4375 -0.25,-1.25 0,-1.5"
     id="path46"
     inkscape:connector-curvature="0"
     style="fill:#ffffff;fill-opacity:1" />
  <path
     d="M 7,-1.5 Q 7.25,-1.75 7.5,-2 L 7.75,-2.25 7.5625,-2.0625 7.375,-1.875 7.5,-2 Q 7.625,-2.125 7.6875,-2.25 L 7.75,-2.375 7.71875,-2.3125 7.6875,-2.25 7.96875,-2 Q 8.25,-1.75 8.125,-1.375 8,-1 8,-0.5 L 8,0 7.5,0 Q 7,0 7.125,-0.375 7.25,-0.75 6.984375,-1.015625 L 6.71875,-1.28125 6.640625,-1.234375 6.5625,-1.1875 6.71875,-1.28125 Q 6.875,-1.375 7,-1.5 L 7.125,-1.625 6.9375,-1.4375 6.75,-1.25 7,-1.5"
     id="path48"
     inkscape:connector-curvature="0"
     style="fill:#ffffff;fill-opacity:1" />
  <path
     d="M -2.875,0.625 Q -2.75,0.25 -2.5,0 L -2.25,-0.25 -2.4375,-0.0625 -2.625,0.125 -2.5,0 q 0.125,-0.125 0.1875,-0.25 L -2.25,-0.375 -2.28125,-0.3125 -2.3125,-0.25 -2.03125,0 Q -1.75,0.25 -1.875,0.625 -2,1 -1.875,1.375 q 0.125,0.375 0.5,0.5 L -1,2 -1,2.5 Q -1,3 -0.625,3.125 -0.25,3.25 0.046875,2.984375 L 0.34375,2.71875 0.296875,2.671875 0.25,2.625 0.34375,2.71875 Q 0.4375,2.8125 0.625,2.875 L 0.8125,2.9375 0.53125,2.84375 0.25,2.75 0.625,2.875 1,3 0.625,3 0.25,3 0.5,3 Q 0.75,3 0.90625,2.90625 L 1.0625,2.8125 0.984375,2.859375 0.90625,2.90625 0.953125,3.453125 Q 1,4 1.125,4.375 1.25,4.75 1.625,4.875 2,5 2.5,5 3,5 3.5,5 4,5 4.5,5 5,5 5.5,5 6,5 6,5.5 L 6,6 5.625,6.125 5.25,6.25 5.53125,6.15625 5.8125,6.0625 5.625,6.125 Q 5.4375,6.1875 5.3125,6.3125 L 5.1875,6.4375 5.25,6.375 5.3125,6.3125 5.03125,6.03125 Q 4.75,5.75 4.375,5.875 4,6 4,6.5 4,7 4,7.5 L 4,8 3.5,8 3,8 3,7.5 Q 3,7 2.875,6.625 2.75,6.25 2.375,6.125 2,6 1.625,5.875 1.25,5.75 1,5.5 0.75,5.25 0.375,5.125 L 0,5 0,4.5 Q 0,4 -0.375,3.875 -0.75,3.75 -1,4 L -1.25,4.25 -1.5,4 Q -1.75,3.75 -1.875,3.375 -2,3 -2.125,2.625 -2.25,2.25 -2.5,2 -2.75,1.75 -2.875,1.375 -3,1 -2.875,0.625 M -1.4375,4.0625 -1.25,4.25 -1.1875,4.3125 -1.125,4.375 -1.25,4.25 Q -1.375,4.125 -1.5,4 l -0.125,-0.125 0.1875,0.1875"
     id="path50"
     inkscape:connector-curvature="0"
     style="fill:#c0c0c0;fill-opacity:1" />
  <path
     d="M -1,0.5 -1,0 -0.5,0 Q 0,0 0.5,0 1,0 0.875,0.375 0.75,0.75 1,1 L 1.25,1.25 1,1.5 Q 0.75,1.75 0.5,2 L 0.25,2.25 0.4375,2.0625 0.625,1.875 0.5,2 Q 0.375,2.125 0.3125,2.25 L 0.25,2.375 0.28125,2.3125 0.3125,2.25 0.03125,2 Q -0.25,1.75 -0.625,1.875 L -1,2 -1,1.5 Q -1,1 -1,0.5 M 1.0625,1.4375 1.25,1.25 1.3125,1.1875 1.375,1.125 1.25,1.25 Q 1.125,1.375 1,1.5 L 0.875,1.625 1.0625,1.4375"
     id="path52"
     inkscape:connector-curvature="0"
     style="fill:#ffffff;fill-opacity:1" />
  <path
     d="M 2,0.5 Q 2.25,0.25 2.5,0.25 2.75,0.25 3,0.5 3.25,0.75 3.5,1 3.75,1.25 4,1.5 4.25,1.75 4.5,1.75 4.75,1.75 5,1.5 5.25,1.25 5.5,1.25 5.75,1.25 5.75,1.5 5.75,1.75 5.5,2 5.25,2.25 5,2.5 4.75,2.75 4.5,2.75 4.25,2.75 4,2.5 3.75,2.25 3.5,2 3.25,1.75 3,1.5 2.75,1.25 2.5,1.25 2.25,1.25 2,1.5 1.75,1.75 1.5,2 1.25,2.25 1.125,2.625 1,3 0.625,2.875 0.25,2.75 0.25,2.5 0.25,2.25 0.5,2 0.75,1.75 1,1.5 1.25,1.25 1.5,1 1.75,0.75 2,0.5"
     id="path54"
     inkscape:connector-curvature="0"
     style="fill:#f810ae;fill-opacity:1" />
  <path
     d="M 8,0.5 8,0 8.5,0 9,0 9,0.5 9,1 8.5,1 Q 8,1 8,0.5"
     id="path56"
     inkscape:connector-curvature="0"
     style="fill:#e0e0e0;fill-opacity:1" />
  <path
     d="M 9,0.5 9,0 9.375,0.125 Q 9.75,0.25 10.015625,-0.015625 L 10.28125,-0.28125 10.234375,-0.359375 10.1875,-0.4375 10.28125,-0.28125 Q 10.375,-0.125 10.5,0 L 10.625,0.125 10.4375,-0.0625 10.25,-0.25 10.5,0 Q 10.75,0.25 10.875,0.625 11,1 10.875,1.375 10.75,1.75 10.5,2 10.25,2.25 10.125,2.625 10,3 9.875,3.375 9.75,3.75 9.375,3.875 L 9,4 9,3.5 Q 9,3 9,2.5 L 9,2 9.375,1.875 Q 9.75,1.75 9.875,1.375 10,1 9.5,1 L 9,1 9,0.5"
     id="path58"
     inkscape:connector-curvature="0"
     style="fill:#c0c0c0;fill-opacity:1" />
  <path
     d="M 9,1.5 9,1 9.5,1 Q 10,1 9.875,1.375 9.75,1.75 9.375,1.875 L 9,2 9,1.5"
     id="path60"
     inkscape:connector-curvature="0"
     style="fill:#e0e0e0;fill-opacity:1" />
  <path
     d="M -1,2.5 -1,2 -0.625,1.875 Q -0.25,1.75 0.03125,2 L 0.3125,2.25 0.34375,2.1875 0.375,2.125 0.3125,2.25 Q 0.25,2.375 0.25,2.5 l 0,0.125 0,-0.1875 0,-0.1875 0,0.25 0,0.25 0,-0.1875 0,-0.1875 0,0.125 q 0,0.125 0.09375,0.21875 L 0.4375,2.8125 0.390625,2.765625 0.34375,2.71875 0.046875,2.984375 Q -0.25,3.25 -0.625,3.125 -1,3 -1,2.5"
     id="path62"
     inkscape:connector-curvature="0"
     style="fill:#e0e0e0;fill-opacity:1" />
  <path
     d="M 8.125,2.375 Q 8,2 8.5,2 L 9,2 9,2.5 Q 9,3 9,3.5 L 9,4 8.625,4.125 8.25,4.25 8.53125,4.15625 8.8125,4.0625 8.625,4.125 Q 8.4375,4.1875 8.28125,4.28125 L 8.125,4.375 8.20313,4.32813 8.28126,4.28126 8.015635,4.015635 Q 7.75,3.75 7.75,3.5 l 0,-0.25 0,0.1875 0,0.1875 0,-0.125 Q 7.75,3.375 7.6875,3.3125 L 7.625,3.25 7.65625,3.28125 7.6875,3.3125 7.96875,3.03125 Q 8.25,2.75 8.125,2.375"
     id="path64"
     inkscape:connector-curvature="0"
     style="fill:#e0e0e0;fill-opacity:1" />
  <path
     d="M 0.953125,3.453125 0.90625,2.90625 1.453125,2.953125 Q 2,3 2.5,3 3,3 3.375,3.125 3.75,3.25 3.875,3.625 4,4 4.5,4 5,4 5.5,4 6,4 6.375,3.875 L 6.75,3.75 6.46875,3.84375 6.1875,3.9375 6.375,3.875 Q 6.5625,3.8125 6.71875,3.71875 L 6.875,3.625 6.79687,3.67187 6.71874,3.71874 6.984365,3.984365 Q 7.25,4.25 7,4.5 6.75,4.75 7,5 L 7.25,5.25 7,5.5 Q 6.75,5.75 6.375,5.875 L 6,6 6,5.5 Q 6,5 5.5,5 5,5 4.5,5 4,5 3.5,5 3,5 2.5,5 2,5 1.625,4.875 1.25,4.75 1.125,4.375 1,4 0.953125,3.453125 M 7.0625,5.4375 7.25,5.25 7.3125,5.1875 7.375,5.125 7.25,5.25 Q 7.125,5.375 7,5.5 L 6.875,5.625 7.0625,5.4375"
     id="path66"
     inkscape:connector-curvature="0"
     style="fill:#e0e0e0;fill-opacity:1" />
  <path
     d="m 7,3.5 q 0.25,-0.25 0.5,-0.25 0.25,0 0.25,0.25 0,0.25 0.265625,0.515625 L 8.28125,4.28125 8.35938,4.23438 8.43751,4.18751 8.28126,4.28126 Q 8.125,4.375 8,4.5 L 7.875,4.625 8.0625,4.4375 8.25,4.25 8,4.5 Q 7.75,4.75 7.5,5 L 7.25,5.25 7,5 Q 6.75,4.75 7,4.5 7.25,4.25 6.98437,3.984375 L 6.718745,3.71875 6.640615,3.76562 6.562485,3.81249 6.718735,3.71874 Q 6.875,3.625 7,3.5 L 7.125,3.375 6.9375,3.5625 6.75,3.75 7,3.5 M 7.1875,5.3125 7.25,5.25 7.4375,5.0625 7.625,4.875 7.5,5 Q 7.375,5.125 7.25,5.25 L 7.125,5.375 7.1875,5.3125"
     id="path68"
     inkscape:connector-curvature="0"
     style="fill:#c0c0c0;fill-opacity:1" />
  <path
     d="M -1,4.5 -1.25,4.25 -1,4 Q -0.75,3.75 -0.375,3.875 0,4 0,4.5 L 0,5 -0.375,4.875 Q -0.75,4.75 -1,4.5 M -1.3125,4.1875 -1.25,4.25 -1.0625,4.4375 -0.875,4.625 -1,4.5 Q -1.125,4.375 -1.25,4.25 l -0.125,-0.125 0.0625,0.0625"
     id="path70"
     inkscape:connector-curvature="0"
     style="fill:#e0e0e0;fill-opacity:1" />
  <path
     d="M 4,6.5 Q 4,6 4.375,5.875 4.75,5.75 5.03125,6.03125 L 5.3125,6.3125 5.375,6.25 5.4375,6.1875 5.3125,6.3125 Q 5.1875,6.4375 5.125,6.625 L 5.0625,6.8125 5.15625,6.53125 5.25,6.25 5.125,6.625 Q 5,7 5,7.5 L 5,8 4.5,8 4,8 4,7.5 Q 4,7 4,6.5"
     id="path72"
     inkscape:connector-curvature="0"
     style="fill:#e0e0e0;fill-opacity:1" />
  <path
     sodipodi:type="arc"
     style="fill:none;fill-opacity:1;stroke:#00ff00;stroke-width:0.20000000000000001;stroke-miterlimit:4;stroke-dasharray:none"
     id="path3057"
     sodipodi:cx="4.046875"
     sodipodi:cy="3.90625"
     sodipodi:rx="0.765625"
     sodipodi:ry="0.765625"
     d="m 4.8125,3.90625 a 0.765625,0.765625 0 1 1 -1.53125,0 0.765625,0.765625 0 1 1 1.53125,0 z" />
</svg>
