<?xml version="1.0" encoding="UTF-8" standalone="no"?>
<svg xmlns:dc="http://purl.org/dc/elements/1.1/" xmlns:cc="http://creativecommons.org/ns#" xmlns:rdf="http://www.w3.org/1999/02/22-rdf-syntax-ns#" xmlns:svg="http://www.w3.org/2000/svg" xmlns="http://www.w3.org/2000/svg" xmlns:sodipodi="http://sodipodi.sourceforge.net/DTD/sodipodi-0.dtd" xmlns:inkscape="http://www.inkscape.org/namespaces/inkscape" width="8" height="8" id="svg2" version="1.1" inkscape:version="0.48.4 r9939" sodipodi:docname="boof_white2.svg">
<metadata id="metadata78">
<rdf:RDF>
<cc:Work rdf:about="">
<dc:format>image/svg+xml</dc:format>
<dc:type rdf:resource="http://purl.org/dc/dcmitype/StillImage" />
</cc:Work>
</rdf:RDF>
</metadata>
<defs id="defs76" />
<sodipodi:namedview pagecolor="#ffffff" bordercolor="#666666" borderopacity="1" objecttolerance="10" gridtolerance="10" guidetolerance="10" inkscape:pageopacity="0" inkscape:pageshadow="2" inkscape:window-width="1326" inkscape:window-height="745" id="namedview74" showgrid="false" fit-margin-top="0" fit-margin-left="0" fit-margin-right="0" fit-margin-bottom="0" inkscape:snap-smooth-nodes="true" inkscape:object-nodes="true" inkscape:zoom="70.5" inkscape:cx="4" inkscape:cy="4" inkscape:window-x="40" inkscape:window-y="0" inkscape:window-maximized="1" inkscape:current-layer="svg2" />
<path d="M 0,0.5 0,0 0.5,0 1,0 1.5,0 2,0 2.5,0 3,0 3.5,0 4,0 4.5,0 5,0 5.5,0 6,0 6.5,0 7,0 7.5,0 8,0 8.5,0 9,0 9.5,0 10,0 l 0.5,0 0.5,0 0.5,0 0.5,0 0.5,0 0.5,0 0.5,0 0.5,0 0.5,0 0.5,0 0.5,0 0.5,0 0.5,0 0.5,0 0.5,0 0.5,0 0,0.5 0,0.5 0,0.5 0,0.5 0,0.5 0,0.5 0,0.5 0,0.5 0,0.5 0,0.5 0,0.5 0,0.5 0,0.5 0,0.5 0,0.5 0,0.5 0,0.5 0,0.5 0,0.5 0,0.5 0,0.5 0,0.5 0,0.5 0,0.5 0,0.5 0,0.5 0,0.5 0,0.5 0,0.5 0,0.5 0,0.5 0,0.5 0,0.5 0,0.5 0,0.5 0,0.5 -0.5,0 -0.5,0 -0.5,0 -0.5,0 -0.5,0 -0.5,0 -0.5,0 -0.5,0 -0.5,0 -0.5,0 -0.5,0 -0.5,0 -0.5,0 -0.5,0 0.125,-0.375 Q 11.25,17.25 11.5,17 11.75,16.75 12,16.5 12.25,16.25 12.5,16 12.75,15.75 13,15.5 13.25,15.25 13.625,15.125 14,15 14.375,14.875 14.75,14.75 15,14.5 15.25,14.25 15.5,14 15.75,13.75 15.875,13.375 16,13 16.125,12.625 16.25,12.25 16.5,12 16.75,11.75 16.875,11.375 17,11 16.875,10.625 16.75,10.25 16.5,10 16.25,9.75 16.125,9.375 16,9 16,8.5 16,8 16,7.5 16,7 15.875,6.625 15.75,6.25 15.5,6 15.25,5.75 15.125,5.375 15,5 14.875,4.625 14.75,4.25 14.5,4 14.25,3.75 14.25,3.5 14.25,3.25 14.5,3 14.75,2.75 15,2.5 15.25,2.25 15.5,2 15.75,1.75 15.75,1.5 15.75,1.25 15.375,1.125 15,1 14.625,1.125 14.25,1.25 14.125,1.625 14,2 13.875,2.375 13.75,2.75 13.5,2.75 13.25,2.75 13.125,2.375 13,2 12.875,1.625 12.75,1.25 12.5,1.25 12.25,1.25 12,1.5 11.75,1.75 11.5,1.75 11.25,1.75 11,1.5 10.75,1.25 10.375,1.125 10,1 9.5,1 9,1 8.5,1 8,1 7.5,1 7,1 6.625,1.125 6.25,1.25 6,1.5 5.75,1.75 5.5,1.75 5.25,1.75 5,1.5 4.75,1.25 4.5,1.25 4.25,1.25 4.125,1.625 4,2 3.875,2.375 3.75,2.75 3.5,2.75 3.25,2.75 3.125,2.375 3,2 2.875,1.625 2.75,1.25 2.375,1.125 2,1 1.625,1.125 1.25,1.25 1.25,1.5 1.25,1.75 1.5,2 1.75,2.25 2,2.5 2.25,2.75 2.5,3 2.75,3.25 2.75,3.5 2.75,3.75 2.5,4 2.25,4.25 2.125,4.625 2,5 2,5.5 2,6 1.875,6.375 1.75,6.75 1.5,7 1.25,7.25 1.125,7.625 1,8 1.125,8.375 1.25,8.75 1.5,9 1.75,9.25 1.75,9.5 1.75,9.75 1.5,10 1.25,10.25 1.125,10.625 1,11 1.125,11.375 1.25,11.75 1.5,12 1.75,12.25 1.875,12.625 2,13 2.125,13.375 2.25,13.75 2.5,14 2.75,14.25 3,14.5 3.25,14.75 3.5,15 3.75,15.25 4,15.5 4.25,15.75 4.625,15.875 5,16 5.375,16.125 5.75,16.25 6,16.5 6.25,16.75 6.5,17 6.75,17.25 6.875,17.625 L 7,18 6.5,18 6,18 5.5,18 5,18 4.5,18 4,18 3.5,18 3,18 2.5,18 2,18 1.5,18 1,18 0.5,18 0,18 0,17.5 0,17 0,16.5 0,16 0,15.5 0,15 0,14.5 0,14 0,13.5 0,13 0,12.5 0,12 0,11.5 0,11 0,10.5 0,10 0,9.5 0,9 0,8.5 0,8 0,7.5 0,7 0,6.5 0,6 0,5.5 0,5 0,4.5 0,4 0,3.5 0,3 0,2.5 0,2 0,1.5 0,1 0,0.5" id="path4" inkscape:connector-curvature="0" style="fill:#a6a6a6;fill-opacity:1" />
<path d="M 1.25,1.5 Q 1.25,1.25 1.625,1.125 2,1 2.375,1.125 2.75,1.25 2.875,1.625 3,2 3.125,2.375 3.25,2.75 3.5,2.75 3.75,2.75 3.875,2.375 4,2 4.125,1.625 4.25,1.25 4.5,1.25 4.75,1.25 5,1.5 5.25,1.75 5.5,1.75 5.75,1.75 6,1.5 6.25,1.25 6.625,1.125 7,1 7.5,1 8,1 8.5,1 9,1 9.5,1 10,1 10.375,1.125 10.75,1.25 11,1.5 q 0.25,0.25 0.5,0.25 0.25,0 0.5,-0.25 0.25,-0.25 0.5,-0.25 0.25,0 0.375,0.375 Q 13,2 13.125,2.375 13.25,2.75 13.5,2.75 13.75,2.75 13.875,2.375 14,2 14.125,1.625 14.25,1.25 14.625,1.125 15,1 15.375,1.125 15.75,1.25 15.75,1.5 15.75,1.75 15.5,2 15.25,2.25 15,2.5 14.75,2.75 14.5,3 14.25,3.25 14.25,3.5 14.25,3.75 14.5,4 14.75,4.25 14.875,4.625 15,5 15.125,5.375 15.25,5.75 15.5,6 15.75,6.25 15.875,6.625 16,7 16,7.5 16,8 16,8.5 16,9 16.125,9.375 16.25,9.75 16.5,10 q 0.25,0.25 0.375,0.625 0.125,0.375 0,0.75 Q 16.75,11.75 16.5,12 16.25,12.25 16.125,12.625 16,13 15.875,13.375 15.75,13.75 15.5,14 15.25,14.25 15,14.5 14.75,14.75 14.375,14.875 14,15 13.625,15.125 13.25,15.25 13,15.5 12.75,15.75 12.5,16 12.25,16.25 12,16.5 11.75,16.75 11.5,17 11.25,17.25 11.125,17.625 L 11,18 10.5,18 10,18 10,17.5 q 0,-0.5 0.125,-0.875 0.125,-0.375 0.5,-0.5 L 11,16 11.375,15.875 Q 11.75,15.75 12,15.5 12.25,15.25 12.5,15 12.75,14.75 13,14.5 13.25,14.25 13.625,14.125 L 14,14 14.375,13.875 q 0.375,-0.125 0.5,-0.5 Q 15,13 15.125,12.625 15.25,12.25 15.5,12 15.75,11.75 15.875,11.375 16,11 15.875,10.625 15.75,10.25 15.5,10 15.25,9.75 15.125,9.375 15,9 15,8.5 15,8 15,7.5 L 15,7 14.875,6.625 Q 14.75,6.25 14.5,6 14.25,5.75 14.125,5.375 14,5 13.875,4.625 13.75,4.25 13.5,4 13.25,3.75 13,3.5 12.75,3.25 12.375,3.125 L 12,3 11.625,2.875 Q 11.25,2.75 11,2.5 10.75,2.25 10.375,2.125 10,2 9.5,2 9,2 8.5,2 8,2 7.5,2 7,2 6.625,2.125 6.25,2.25 6,2.5 5.75,2.75 5.375,2.875 5,3 4.625,3.125 4.25,3.25 4,3.5 3.75,3.75 3.5,4 3.25,4.25 3.125,4.625 L 3,5 3,5.5 3,6 2.875,6.375 Q 2.75,6.75 2.5,7 2.25,7.25 2.125,7.625 2,8 2.125,8.375 2.25,8.75 2.5,9 2.75,9.25 2.75,9.5 2.75,9.75 2.5,10 2.25,10.25 2.125,10.625 2,11 2.125,11.375 2.25,11.75 2.5,12 2.75,12.25 2.875,12.625 3,13 3.125,13.375 3.25,13.75 3.5,14 3.75,14.25 4,14.5 4.25,14.75 4.625,14.875 L 5,15 5.375,15.125 Q 5.75,15.25 6,15.5 6.25,15.75 6.625,15.875 7,16 7.375,16.125 7.75,16.25 7.875,16.625 8,17 8,17.5 L 8,18 7.5,18 7,18 6.875,17.625 Q 6.75,17.25 6.5,17 6.25,16.75 6,16.5 5.75,16.25 5.375,16.125 5,16 4.625,15.875 4.25,15.75 4,15.5 3.75,15.25 3.5,15 3.25,14.75 3,14.5 2.75,14.25 2.5,14 2.25,13.75 2.125,13.375 2,13 1.875,12.625 1.75,12.25 1.5,12 1.25,11.75 1.125,11.375 1,11 1.125,10.625 1.25,10.25 1.5,10 1.75,9.75 1.75,9.5 1.75,9.25 1.5,9 1.25,8.75 1.125,8.375 1,8 1.125,7.625 1.25,7.25 1.5,7 1.75,6.75 1.875,6.375 2,6 2,5.5 2,5 2.125,4.625 2.25,4.25 2.5,4 2.75,3.75 2.75,3.5 2.75,3.25 2.5,3 2.25,2.75 2,2.5 1.75,2.25 1.5,2 1.25,1.75 1.25,1.5" id="path6" inkscape:connector-curvature="0" style="fill:#000000;fill-opacity:1" />
<path d="M 6,2.5 Q 6.25,2.25 6.625,2.125 7,2 7.5,2 8,2 8.5,2 9,2 9.5,2 10,2 10.375,2.125 10.75,2.25 11,2.5 L 11.25,2.75 11.0625,2.5625 10.875,2.375 11,2.5 q 0.125,0.125 0.28125,0.21875 L 11.4375,2.8125 11.35937,2.765625 11.28125,2.71875 11.01562,2.984375 Q 10.75,3.25 10.375,3.125 10,3 9.5,3 9,3 8.5,3 8,3 7.5,3 7,3 6.625,3.125 6.25,3.25 6.125,3.625 L 6,4 5.5,4 Q 5,4 4.625,4.125 L 4.25,4.25 4.53125,4.15625 4.8125,4.0625 4.625,4.125 Q 4.4375,4.1875 4.28125,4.28125 L 4.125,4.375 4.203125,4.328125 4.28125,4.28125 4.015625,4.015625 3.75,3.75 4,3.5 Q 4.25,3.25 4.625,3.125 5,3 5.375,2.875 5.75,2.75 6,2.5 M 3.9375,3.5625 3.75,3.75 3.6875,3.8125 3.625,3.875 3.75,3.75 Q 3.875,3.625 4,3.5 L 4.125,3.375 3.9375,3.5625" id="path8" inkscape:connector-curvature="0" style="fill:#c0c0c0;fill-opacity:1" />
<path d="M 6.125,3.625 Q 6.25,3.25 6.625,3.125 7,3 7.5,3 8,3 8.5,3 9,3 9.5,3 10,3 10.375,3.125 10.75,3.25 11.01562,2.984375 L 11.28125,2.71875 11.20312,2.671875 11.125,2.625 11.28125,2.71875 Q 11.4375,2.8125 11.625,2.875 L 11.8125,2.9375 11.53125,2.84375 11.25,2.75 11.625,2.875 12,3 12,3.5 12,4 11.5,4 Q 11,4 10.5,4 10,4 9.5,4 9,4 8.5,4 8,4 7.5,4 7,4 6.5,4 L 6,4 6.125,3.625" id="path10" inkscape:connector-curvature="0" style="fill:#e0e0e0;fill-opacity:1" />
<path d="M 12,3.5 12,3 12.375,3.125 Q 12.75,3.25 13,3.5 L 13.25,3.75 13,4 Q 12.75,4.25 12.375,4.125 L 12,4 12,3.5 M 13.3125,3.8125 13.25,3.75 13.0625,3.5625 12.875,3.375 13,3.5 q 0.125,0.125 0.25,0.25 l 0.125,0.125 -0.0625,-0.0625" id="path12" inkscape:connector-curvature="0" style="fill:#c0c0c0;fill-opacity:1" />
<path d="M 3.125,4.625 Q 3.25,4.25 3.5,4 L 3.75,3.75 4.015625,4.015625 4.28125,4.28125 4.359375,4.234375 4.4375,4.1875 4.28125,4.28125 Q 4.125,4.375 4,4.5 L 3.875,4.625 4.0625,4.4375 4.25,4.25 4,4.5 Q 3.75,4.75 3.375,4.875 L 3,5 3.125,4.625 M 3.8125,3.6875 3.75,3.75 3.5625,3.9375 3.375,4.125 3.5,4 Q 3.625,3.875 3.75,3.75 L 3.875,3.625 3.8125,3.6875" id="path14" inkscape:connector-curvature="0" style="fill:#a6a6a6;fill-opacity:1" />
<path d="M 4,4.5 Q 4.25,4.25 4.625,4.125 5,4 5.5,4 L 6,4 6,4.5 6,5 5.5,5 Q 5,5 4.625,5.125 L 4.25,5.25 4.53125,5.15625 4.8125,5.0625 4.625,5.125 Q 4.4375,5.1875 4.28125,5.28125 L 4.125,5.375 4.203125,5.328125 4.28125,5.28125 4,5 3.71875,4.71875 3.640625,4.765625 3.5625,4.8125 3.71875,4.71875 Q 3.875,4.625 4,4.5 L 4.125,4.375 3.9375,4.5625 3.75,4.75 4,4.5" id="path16" inkscape:connector-curvature="0" style="fill:#e0e0e0;fill-opacity:1" />
<path d="M 6,4.5 6,4 6.5,4 q 0.5,0 1,0 0.5,0 1,0 0.5,0 1,0 0.5,0 1,0 0.5,0 1,0 L 12,4 12,4.5 Q 12,5 12.5,5 13,5 13,5.5 q 0,0.5 0.125,0.875 0.125,0.375 0.5,0.5 L 14,7 14,7.5 q 0,0.5 0,1 0,0.5 0,1 l 0,0.5 -0.5,0 -0.5,0 0,0.5 q 0,0.5 0.5,0.5 l 0.5,0 0,0.5 0,0.5 -0.5,0 q -0.5,0 -0.375,0.375 0.125,0.375 -0.15625,0.65625 l -0.28125,0.28125 0.0313,0.0313 0.0313,0.0313 -0.0625,-0.0625 Q 12.625,13.25 12.5,13.25 l -0.125,0 0.1875,0 0.1875,0 -0.25,0 q -0.25,0 -0.5,0.25 -0.25,0.25 -0.625,0.375 Q 11,14 10.5,14 10,14 9.5,14 9,14 8.875,13.625 8.75,13.25 8.375,13.125 8,13 7.5,13 7,13 6.453125,12.95312 L 5.90625,12.90625 5.828125,12.95312 5.75,13 5.90625,12.90625 Q 6.0625,12.8125 6.125,12.625 L 6.1875,12.4375 6.09375,12.71875 6,13 6.125,12.625 Q 6.25,12.25 6.5,12 6.75,11.75 7,11.5 q 0.25,-0.25 0.5,-0.25 0.25,0 0.5,0.25 0.25,0.25 0.5,0.5 0.25,0.25 0.5,0.5 0.25,0.25 0.5,0.25 0.25,0 0.5,-0.25 0.25,-0.25 0.5,-0.5 0.25,-0.25 0.25,-0.5 0,-0.25 -0.25,-0.25 -0.25,0 -0.5,0.25 Q 9.75,11.75 9.5,11.75 9.25,11.75 9,11.5 8.75,11.25 8.5,11 8.25,10.75 8,10.5 7.75,10.25 7.5,10.25 7.25,10.25 7,10.5 6.75,10.75 6.5,11 L 6.25,11.25 6,11 Q 5.75,10.75 5.875,10.375 6,10 5.5,10 5,10 4.5,10 L 4,10 3.875,9.625 Q 3.75,9.25 4.03125,8.96875 L 4.3125,8.6875 4.28125,8.65625 4.25,8.625 4.3125,8.6875 Q 4.375,8.75 4.5,8.75 l 0.125,0 -0.1875,0 -0.1875,0 0.25,0 0.25,0 -0.1875,0 -0.1875,0 0.125,0 q 0.125,0 0.25,-0.0625 L 4.875,8.625 4.8125,8.65625 4.75,8.6875 5,8.96875 Q 5.25,9.25 5.5,9.25 5.75,9.25 6,8.96875 L 6.25,8.6875 6.1875,8.65625 6.125,8.625 6.25,8.6875 Q 6.375,8.75 6.5,8.75 l 0.125,0 -0.1875,0 -0.1875,0 0.25,0 q 0.25,0 0.25,-0.25 l 0,-0.25 0,0.1875 0,0.1875 0,-0.125 Q 6.75,8.375 6.6875,8.25 L 6.625,8.125 6.65625,8.1875 6.6875,8.25 6.96875,8 Q 7.25,7.75 7.25,7.5 7.25,7.25 6.96875,7 L 6.6875,6.75 6.65625,6.8125 6.625,6.875 6.6875,6.75 Q 6.75,6.625 6.75,6.5 l 0,-0.125 0,0.1875 0,0.1875 0,-0.25 0,-0.25 0,0.1875 0,0.1875 0,-0.125 Q 6.75,6.375 6.6875,6.3125 L 6.625,6.25 6.65625,6.28125 6.6875,6.3125 6.96875,6.03125 Q 7.25,5.75 7.125,5.375 7,5 6.5,5 L 6,5 6,4.5 M 6.1875,11.3125 6.25,11.25 6.4375,11.0625 6.625,10.875 6.5,11 Q 6.375,11.125 6.25,11.25 L 6.125,11.375 6.1875,11.3125 M 12.5,10 13,10 13,9.5 Q 13,9 13.125,8.625 13.25,8.25 12.96875,8 L 12.6875,7.75 12.65625,7.8125 12.625,7.875 12.6875,7.75 Q 12.75,7.625 12.75,7.5 l 0,-0.125 0,0.1875 0,0.1875 0,-0.25 Q 12.75,7.25 12.5,7 12.25,6.75 12,6.5 11.75,6.25 11.375,6.125 11,6 10.625,6.125 10.25,6.25 10,6.5 9.75,6.75 9.5,7 9.25,7.25 9.25,7.5 9.25,7.75 9.5,8 9.75,8.25 10,8.5 10.25,8.75 10.625,8.875 11,9 11.375,8.875 L 11.75,8.75 11.46875,8.84375 11.1875,8.9375 11.375,8.875 Q 11.5625,8.8125 11.71875,8.71875 L 11.875,8.625 11.7969,8.67187 11.7188,8.71874 11.98442,8.984365 Q 12.25,9.25 12.125,9.625 12,10 12.5,10" id="path18" inkscape:connector-curvature="0" style="fill:#f8f8f8;fill-opacity:1" />
<path d="M 12,4.5 12,4 12.375,4.125 Q 12.75,4.25 13,4 L 13.25,3.75 13.5,4 Q 13.75,4.25 13.875,4.625 14,5 14.125,5.375 L 14.25,5.75 14.15625,5.46875 14.0625,5.1875 14.125,5.375 q 0.0625,0.1875 0.15625,0.34375 L 14.375,5.875 14.32812,5.796875 14.28125,5.71875 14.01562,5.984375 Q 13.75,6.25 13.875,6.625 L 14,7 13.625,6.875 Q 13.25,6.75 13.125,6.375 13,6 13,5.5 13,5 12.5,5 12,5 12,4.5 M 13.4375,3.9375 13.25,3.75 13.1875,3.6875 13.125,3.625 13.25,3.75 Q 13.375,3.875 13.5,4 l 0.125,0.125 -0.1875,-0.1875" id="path20" inkscape:connector-curvature="0" style="fill:#e0e0e0;fill-opacity:1" />
<path d="M 3,5.5 3,5 3.375,4.875 3.75,4.75 3.46875,4.84375 3.1875,4.9375 3.375,4.875 Q 3.5625,4.8125 3.71875,4.71875 L 3.875,4.625 3.796875,4.671875 3.71875,4.71875 4,5 4.28125,5.28125 4.359375,5.234375 4.4375,5.1875 4.28125,5.28125 Q 4.125,5.375 4,5.5 L 3.875,5.625 4.0625,5.4375 4.25,5.25 4,5.5 Q 3.75,5.75 3.375,5.875 L 3,6 3,5.5" id="path22" inkscape:connector-curvature="0" style="fill:#c0c0c0;fill-opacity:1" />
<path d="M 4,5.5 Q 4.25,5.25 4.625,5.125 5,5 5.5,5 L 6,5 6.5,5 Q 7,5 7.125,5.375 7.25,5.75 6.96875,6.03125 L 6.6875,6.3125 6.71875,6.34375 6.75,6.375 6.6875,6.3125 Q 6.625,6.25 6.5,6.25 l -0.125,0 0.1875,0 0.1875,0 -0.25,0 -0.25,0 0.1875,0 0.1875,0 -0.125,0 q -0.125,0 -0.25,0.0625 L 6.125,6.375 6.1875,6.34375 6.25,6.3125 6,6.03125 Q 5.75,5.75 5.5,5.75 5.25,5.75 5,6.03125 L 4.75,6.3125 4.8125,6.34375 4.875,6.375 4.75,6.3125 Q 4.625,6.25 4.5,6.25 l -0.125,0 0.1875,0 0.1875,0 -0.25,0 -0.25,0 0.1875,0 0.1875,0 -0.125,0 q -0.125,0 -0.1875,0.0625 L 4.25,6.375 4.28125,6.34375 4.3125,6.3125 4.015625,6.015625 3.71875,5.71875 3.640625,5.765625 3.5625,5.8125 3.71875,5.71875 Q 3.875,5.625 4,5.5 L 4.125,5.375 3.9375,5.5625 3.75,5.75 4,5.5" id="path24" inkscape:connector-curvature="0" style="fill:#ffffff;fill-opacity:1" />
<path d="M 2.875,6.375 3,6 3.375,5.875 3.75,5.75 3.46875,5.84375 3.1875,5.9375 3.375,5.875 Q 3.5625,5.8125 3.71875,5.71875 L 3.875,5.625 3.796875,5.671875 3.71875,5.71875 4.015625,6.015625 4.3125,6.3125 4.34375,6.28125 4.375,6.25 4.3125,6.3125 Q 4.25,6.375 4.25,6.5 l 0,0.125 0,-0.1875 0,-0.1875 0,0.25 0,0.25 0,-0.1875 0,-0.1875 0,0.125 q 0,0.125 0.0625,0.25 L 4.375,6.875 4.34375,6.8125 4.3125,6.75 4.03125,7 Q 3.75,7.25 3.75,7.5 3.75,7.75 4.03125,8 L 4.3125,8.25 4.34375,8.1875 4.375,8.125 4.3125,8.25 Q 4.25,8.375 4.25,8.5 l 0,0.125 0,-0.1875 0,-0.1875 0,0.25 0,0.25 0,-0.1875 0,-0.1875 0,0.125 q 0,0.125 0.0625,0.1875 L 4.375,8.75 4.34375,8.71875 4.3125,8.6875 4.03125,8.96875 Q 3.75,9.25 3.875,9.625 L 4,10 4,10.5 q 0,0.5 0,1 L 4,12 3.625,11.875 Q 3.25,11.75 3.125,11.375 3,11 3.125,10.625 3.25,10.25 2.96875,10 L 2.6875,9.75 2.65625,9.8125 2.625,9.875 2.6875,9.75 Q 2.75,9.625 2.75,9.5 l 0,-0.125 0,0.1875 0,0.1875 0,-0.25 0,-0.25 0,0.1875 0,0.1875 0,-0.125 Q 2.75,9.375 2.6875,9.25 L 2.625,9.125 2.65625,9.1875 2.6875,9.25 2.96875,9 Q 3.25,8.75 3.125,8.375 3,8 3.125,7.625 3.25,7.25 2.984375,6.984375 L 2.71875,6.71875 2.671875,6.796875 2.625,6.875 2.71875,6.71875 Q 2.8125,6.5625 2.875,6.375 L 2.9375,6.1875 2.84375,6.46875 2.75,6.75 2.875,6.375" id="path26" inkscape:connector-curvature="0" style="fill:#e0e0e0;fill-opacity:1" />
<path d="M 4.25,6.5 Q 4.25,6.25 4.5,6.25 4.75,6.25 5,6.5 5.25,6.75 5.5,6.75 5.75,6.75 6,6.5 6.25,6.25 6.5,6.25 6.75,6.25 6.75,6.5 6.75,6.75 6.5,7 6.25,7.25 6.25,7.5 6.25,7.75 6.5,8 6.75,8.25 6.75,8.5 6.75,8.75 6.5,8.75 6.25,8.75 6,8.5 5.75,8.25 5.5,8.25 5.25,8.25 5,8.5 4.75,8.75 4.5,8.75 4.25,8.75 4.25,8.5 4.25,8.25 4.5,8 4.75,7.75 4.75,7.5 4.75,7.25 4.5,7 4.25,6.75 4.25,6.5" id="path28" inkscape:connector-curvature="0" style="fill:#000000;fill-opacity:1" />
<path d="M 5,6.5 4.75,6.25 4.9375,6.4375 5.125,6.625 5,6.5 Q 4.875,6.375 4.75,6.3125 L 4.625,6.25 4.6875,6.28125 4.75,6.3125 5,6.03125 Q 5.25,5.75 5.5,5.75 5.75,5.75 6,6.03125 L 6.25,6.3125 6.3125,6.28125 6.375,6.25 6.25,6.3125 Q 6.125,6.375 6,6.5 L 5.875,6.625 6.0625,6.4375 6.25,6.25 6,6.5 Q 5.75,6.75 5.5,6.75 5.25,6.75 5,6.5" id="path30" inkscape:connector-curvature="0" style="fill:#f8f8f8;fill-opacity:1" />
<path d="M 10,6.5 Q 10.25,6.25 10.625,6.125 11,6 11.375,6.125 11.75,6.25 12,6.5 12.25,6.75 12.5,7 12.75,7.25 12.75,7.5 12.75,7.75 12.5,8 12.25,8.25 12,8.5 11.75,8.75 11.375,8.875 11,9 10.625,8.875 10.25,8.75 10,8.5 9.75,8.25 9.5,8 9.25,7.75 9.25,7.5 9.25,7.25 9.5,7 9.75,6.75 10,6.5 m 0.625,1.375 Q 11,8 11.375,7.875 11.75,7.75 11.75,7.5 11.75,7.25 11.375,7.125 11,7 10.625,7.125 10.25,7.25 10.25,7.5 q 0,0.25 0.375,0.375" id="path32" inkscape:connector-curvature="0" style="fill:#000000;fill-opacity:1" />
<path d="M 13.875,6.625 Q 13.75,6.25 14.01562,5.984375 L 14.28125,5.71875 14.23437,5.640625 14.1875,5.5625 14.28125,5.71875 Q 14.375,5.875 14.5,6 L 14.625,6.125 14.4375,5.9375 14.25,5.75 14.5,6 q 0.25,0.25 0.375,0.625 L 15,7 14.5,7 14,7 13.875,6.625" id="path34" inkscape:connector-curvature="0" style="fill:#c0c0c0;fill-opacity:1" />
<path d="M 2.125,7.625 Q 2.25,7.25 2.5,7 L 2.75,6.75 2.5625,6.9375 2.375,7.125 2.5,7 Q 2.625,6.875 2.71875,6.71875 L 2.8125,6.5625 2.765625,6.640625 2.71875,6.71875 2.984375,6.984375 Q 3.25,7.25 3.125,7.625 3,8 3.125,8.375 3.25,8.75 2.96875,9 L 2.6875,9.25 2.71875,9.3125 2.75,9.375 2.6875,9.25 Q 2.625,9.125 2.5,9 L 2.375,8.875 2.5625,9.0625 2.75,9.25 2.5,9 Q 2.25,8.75 2.125,8.375 2,8 2.125,7.625" id="path36" inkscape:connector-curvature="0" style="fill:#c0c0c0;fill-opacity:1" />
<path d="M 3.75,7.5 Q 3.75,7.25 4.03125,7 L 4.3125,6.75 4.28125,6.6875 4.25,6.625 4.3125,6.75 Q 4.375,6.875 4.5,7 L 4.625,7.125 4.4375,6.9375 4.25,6.75 4.5,7 Q 4.75,7.25 4.75,7.5 4.75,7.75 4.5,8 L 4.25,8.25 4.4375,8.0625 4.625,7.875 4.5,8 Q 4.375,8.125 4.3125,8.25 L 4.25,8.375 4.28125,8.3125 4.3125,8.25 4.03125,8 Q 3.75,7.75 3.75,7.5" id="path38" inkscape:connector-curvature="0" style="fill:#ffffff;fill-opacity:1" />
<path d="M 6.25,7.5 Q 6.25,7.25 6.5,7 L 6.75,6.75 6.5625,6.9375 6.375,7.125 6.5,7 Q 6.625,6.875 6.6875,6.75 L 6.75,6.625 6.71875,6.6875 6.6875,6.75 6.96875,7 Q 7.25,7.25 7.25,7.5 7.25,7.75 6.96875,8 L 6.6875,8.25 6.71875,8.3125 6.75,8.375 6.6875,8.25 Q 6.625,8.125 6.5,8 L 6.375,7.875 6.5625,8.0625 6.75,8.25 6.5,8 Q 6.25,7.75 6.25,7.5" id="path40" inkscape:connector-curvature="0" style="fill:#ffffff;fill-opacity:1" />
<path d="m 10.25,7.5 q 0,-0.25 0.375,-0.375 Q 11,7 11.375,7.125 11.75,7.25 11.75,7.5 11.75,7.75 11.375,7.875 11,8 10.625,7.875 10.25,7.75 10.25,7.5" id="path42" inkscape:connector-curvature="0" style="fill:#f8f8f8;fill-opacity:1" />
<path d="M 14,7.5 14,7 14.5,7 15,7 15,7.5 q 0,0.5 0,1 0,0.5 0.125,0.875 L 15.25,9.75 15.15625,9.46875 15.0625,9.1875 15.125,9.375 q 0.0625,0.1875 0.15625,0.34375 L 15.375,9.875 15.32812,9.796875 15.28125,9.71875 15.01562,9.984375 Q 14.75,10.25 14.375,10.125 L 14,10 14,9.5 q 0,-0.5 0,-1 0,-0.5 0,-1" id="path44" inkscape:connector-curvature="0" style="fill:#e0e0e0;fill-opacity:1" />
<path d="M 5,8.5 Q 5.25,8.25 5.5,8.25 5.75,8.25 6,8.5 L 6.25,8.75 6.0625,8.5625 5.875,8.375 6,8.5 Q 6.125,8.625 6.25,8.6875 L 6.375,8.75 6.3125,8.71875 6.25,8.6875 6,8.96875 Q 5.75,9.25 5.5,9.25 5.25,9.25 5,8.96875 L 4.75,8.6875 4.6875,8.71875 4.625,8.75 4.75,8.6875 Q 4.875,8.625 5,8.5 L 5.125,8.375 4.9375,8.5625 4.75,8.75 5,8.5" id="path46" inkscape:connector-curvature="0" style="fill:#ffffff;fill-opacity:1" />
<path d="M 12,8.5 Q 12.25,8.25 12.5,8 L 12.75,7.75 12.5625,7.9375 12.375,8.125 12.5,8 Q 12.625,7.875 12.6875,7.75 L 12.75,7.625 12.71875,7.6875 12.6875,7.75 12.96875,8 Q 13.25,8.25 13.125,8.625 13,9 13,9.5 l 0,0.5 -0.5,0 Q 12,10 12.125,9.625 12.25,9.25 11.98437,8.984375 L 11.71875,8.71875 11.64062,8.765625 11.5625,8.8125 11.71875,8.71875 Q 11.875,8.625 12,8.5 L 12.125,8.375 11.9375,8.5625 11.75,8.75 12,8.5" id="path48" inkscape:connector-curvature="0" style="fill:#ffffff;fill-opacity:1" />
<path d="M 2.125,10.625 Q 2.25,10.25 2.5,10 L 2.75,9.75 2.5625,9.9375 2.375,10.125 2.5,10 Q 2.625,9.875 2.6875,9.75 L 2.75,9.625 2.71875,9.6875 2.6875,9.75 2.96875,10 Q 3.25,10.25 3.125,10.625 3,11 3.125,11.375 q 0.125,0.375 0.5,0.5 L 4,12 4,12.5 Q 4,13 4.375,13.125 4.75,13.25 5.046875,12.98437 L 5.34375,12.71875 5.296875,12.67187 5.25,12.625 5.34375,12.71875 Q 5.4375,12.8125 5.625,12.875 L 5.8125,12.9375 5.53125,12.84375 5.25,12.75 5.625,12.875 6,13 5.625,13 5.25,13 5.5,13 q 0.25,0 0.40625,-0.0937 L 6.0625,12.8126 5.98437,12.8595 5.90624,12.9064 5.95311,13.45327 Q 6,14 6.125,14.375 6.25,14.75 6.625,14.875 7,15 7.5,15 q 0.5,0 1,0 0.5,0 1,0 0.5,0 1,0 0.5,0 0.5,0.5 l 0,0.5 -0.375,0.125 -0.375,0.125 0.28125,-0.0937 0.28125,-0.0937 -0.1875,0.0625 q -0.1875,0.0625 -0.3125,0.1875 l -0.125,0.125 0.0625,-0.0625 0.0625,-0.0625 -0.28125,-0.28125 Q 9.75,15.75 9.375,15.875 9,16 9,16.5 9,17 9,17.5 L 9,18 8.5,18 8,18 8,17.5 Q 8,17 7.875,16.625 7.75,16.25 7.375,16.125 7,16 6.625,15.875 6.25,15.75 6,15.5 5.75,15.25 5.375,15.125 L 5,15 5,14.5 Q 5,14 4.625,13.875 4.25,13.75 4,14 L 3.75,14.25 3.5,14 Q 3.25,13.75 3.125,13.375 3,13 2.875,12.625 2.75,12.25 2.5,12 2.25,11.75 2.125,11.375 2,11 2.125,10.625 M 3.5625,14.0625 3.75,14.25 3.8125,14.3125 3.875,14.375 3.75,14.25 Q 3.625,14.125 3.5,14 l -0.125,-0.125 0.1875,0.1875" id="path50" inkscape:connector-curvature="0" style="fill:#c0c0c0;fill-opacity:1" />
<path d="M 4,10.5 4,10 4.5,10 Q 5,10 5.5,10 6,10 5.875,10.375 5.75,10.75 6,11 L 6.25,11.25 6,11.5 Q 5.75,11.75 5.5,12 L 5.25,12.25 5.4375,12.0625 5.625,11.875 5.5,12 Q 5.375,12.125 5.3125,12.25 L 5.25,12.375 5.28125,12.3125 5.3125,12.25 5.03125,12 Q 4.75,11.75 4.375,11.875 L 4,12 4,11.5 Q 4,11 4,10.5 M 6.0625,11.4375 6.25,11.25 6.3125,11.1875 6.375,11.125 6.25,11.25 Q 6.125,11.375 6,11.5 l -0.125,0.125 0.1875,-0.1875" id="path52" inkscape:connector-curvature="0" style="fill:#ffffff;fill-opacity:1" />
<path d="m 7,10.5 q 0.25,-0.25 0.5,-0.25 0.25,0 0.5,0.25 0.25,0.25 0.5,0.5 0.25,0.25 0.5,0.5 0.25,0.25 0.5,0.25 0.25,0 0.5,-0.25 0.25,-0.25 0.5,-0.25 0.25,0 0.25,0.25 0,0.25 -0.25,0.5 Q 10.25,12.25 10,12.5 9.75,12.75 9.5,12.75 9.25,12.75 9,12.5 8.75,12.25 8.5,12 8.25,11.75 8,11.5 7.75,11.25 7.5,11.25 7.25,11.25 7,11.5 6.75,11.75 6.5,12 6.25,12.25 6.125,12.625 6,13 5.625,12.875 5.25,12.75 5.25,12.5 5.25,12.25 5.5,12 5.75,11.75 6,11.5 6.25,11.25 6.5,11 6.75,10.75 7,10.5" id="path54" inkscape:connector-curvature="0" style="fill:#f810ae;fill-opacity:1" />
<path d="m 13,10.5 0,-0.5 0.5,0 0.5,0 0,0.5 0,0.5 -0.5,0 Q 13,11 13,10.5" id="path56" inkscape:connector-curvature="0" style="fill:#e0e0e0;fill-opacity:1" />
<path d="m 14,10.5 0,-0.5 0.375,0.125 Q 14.75,10.25 15.01562,9.984375 L 15.28125,9.71875 15.23437,9.640625 15.1875,9.5625 15.28125,9.71875 Q 15.375,9.875 15.5,10 L 15.625,10.125 15.4375,9.9375 15.25,9.75 15.5,10 q 0.25,0.25 0.375,0.625 0.125,0.375 0,0.75 Q 15.75,11.75 15.5,12 15.25,12.25 15.125,12.625 15,13 14.875,13.375 q -0.125,0.375 -0.5,0.5 L 14,14 14,13.5 q 0,-0.5 0,-1 l 0,-0.5 0.375,-0.125 q 0.375,-0.125 0.5,-0.5 Q 15,11 14.5,11 l -0.5,0 0,-0.5" id="path58" inkscape:connector-curvature="0" style="fill:#c0c0c0;fill-opacity:1" />
<path d="m 14,11.5 0,-0.5 0.5,0 q 0.5,0 0.375,0.375 -0.125,0.375 -0.5,0.5 L 14,12 14,11.5" id="path60" inkscape:connector-curvature="0" style="fill:#e0e0e0;fill-opacity:1" />
<path d="M 4,12.5 4,12 4.375,11.875 Q 4.75,11.75 5.03125,12 L 5.3125,12.25 5.34375,12.1875 5.375,12.125 5.3125,12.25 Q 5.25,12.375 5.25,12.5 l 0,0.125 0,-0.1875 0,-0.1875 0,0.25 0,0.25 0,-0.1875 0,-0.1875 0,0.125 q 0,0.125 0.09375,0.21875 l 0.09375,0.0937 -0.04687,-0.0469 -0.04687,-0.0469 -0.296875,0.26562 Q 4.75,13.25 4.375,13.125 4,13 4,12.5" id="path62" inkscape:connector-curvature="0" style="fill:#e0e0e0;fill-opacity:1" />
<path d="M 13.125,12.375 Q 13,12 13.5,12 l 0.5,0 0,0.5 q 0,0.5 0,1 l 0,0.5 -0.375,0.125 -0.375,0.125 0.28125,-0.0937 0.28125,-0.0937 -0.1875,0.0625 q -0.1875,0.0625 -0.34375,0.15625 l -0.15625,0.0937 0.0781,-0.0469 0.0781,-0.0469 -0.26563,-0.26563 Q 12.75,13.75 12.75,13.5 l 0,-0.25 0,0.1875 0,0.1875 0,-0.125 q 0,-0.125 -0.0625,-0.1875 L 12.625,13.25 l 0.0313,0.0313 0.0313,0.0313 0.28125,-0.28125 Q 13.25,12.75 13.125,12.375" id="path64" inkscape:connector-curvature="0" style="fill:#e0e0e0;fill-opacity:1" />
<path d="m 5.953125,13.45312 -0.04687,-0.54687 0.546875,0.0469 Q 7,13 7.5,13 8,13 8.375,13.125 8.75,13.25 8.875,13.625 9,14 9.5,14 q 0.5,0 1,0 0.5,0 0.875,-0.125 l 0.375,-0.125 -0.28125,0.0937 -0.28125,0.0937 0.1875,-0.0625 q 0.1875,-0.0625 0.34375,-0.15625 l 0.15625,-0.0937 -0.0781,0.0469 -0.0781,0.0469 0.26562,0.26562 Q 12.25,14.25 12,14.5 11.75,14.75 12,15 L 12.25,15.25 12,15.5 q -0.25,0.25 -0.625,0.375 L 11,16 11,15.5 Q 11,15 10.5,15 10,15 9.5,15 9,15 8.5,15 8,15 7.5,15 7,15 6.625,14.875 6.25,14.75 6.125,14.375 6,14 5.953125,13.45312 M 12.0625,15.4375 12.25,15.25 12.3125,15.1875 12.375,15.125 12.25,15.25 Q 12.125,15.375 12,15.5 l -0.125,0.125 0.1875,-0.1875" id="path66" inkscape:connector-curvature="0" style="fill:#e0e0e0;fill-opacity:1" />
<path d="m 12,13.5 q 0.25,-0.25 0.5,-0.25 0.25,0 0.25,0.25 0,0.25 0.26562,0.51562 l 0.26563,0.26563 0.0781,-0.0469 0.0781,-0.0469 -0.15625,0.0937 Q 13.125,14.375 13,14.5 L 12.875,14.625 13.0625,14.4375 13.25,14.25 13,14.5 Q 12.75,14.75 12.5,15 L 12.25,15.25 12,15 q -0.25,-0.25 0,-0.5 0.25,-0.25 -0.0156,-0.51563 l -0.26562,-0.26562 -0.0781,0.0469 -0.0781,0.0469 0.15625,-0.0937 Q 11.875,13.625 12,13.5 L 12.125,13.375 11.9375,13.5625 11.75,13.75 12,13.5 M 12.1875,15.3125 12.25,15.25 12.4375,15.0625 12.625,14.875 12.5,15 q -0.125,0.125 -0.25,0.25 l -0.125,0.125 0.0625,-0.0625" id="path68" inkscape:connector-curvature="0" style="fill:#c0c0c0;fill-opacity:1" />
<path d="M 4,14.5 3.75,14.25 4,14 Q 4.25,13.75 4.625,13.875 5,14 5,14.5 L 5,15 4.625,14.875 Q 4.25,14.75 4,14.5 M 3.6875,14.1875 3.75,14.25 3.9375,14.4375 4.125,14.625 4,14.5 Q 3.875,14.375 3.75,14.25 l -0.125,-0.125 0.0625,0.0625" id="path70" inkscape:connector-curvature="0" style="fill:#e0e0e0;fill-opacity:1" />
<path d="M 9,16.5 Q 9,16 9.375,15.875 9.75,15.75 10.03125,16.03125 l 0.28125,0.28125 0.0625,-0.0625 0.0625,-0.0625 -0.125,0.125 q -0.125,0.125 -0.1875,0.3125 L 10.0625,16.8125 10.1562,16.53125 10.25,16.25 10.125,16.625 Q 10,17 10,17.5 L 10,18 9.5,18 9,18 9,17.5 q 0,-0.5 0,-1" id="path72" inkscape:connector-curvature="0" style="fill:#e0e0e0;fill-opacity:1" />
<path sodipodi:type="arc" style="fill:none;fill-opacity:1;stroke:#00ff00;stroke-width:0.1;stroke-miterlimit:4;stroke-dasharray:none" id="path3057" sodipodi:cx="4.25" sodipodi:cy="4.25" sodipodi:rx="0.4166667" sodipodi:ry="0.4166667" d="m 4.666667,4.25 a 0.4166667,0.4166667 0 1 1 -0.833334,0 0.4166667,0.4166667 0 1 1 0.833334,0 z" />
</svg>
