<?xml version="1.0" encoding="UTF-8" standalone="no"?>
<!-- Created with Inkscape (http://www.inkscape.org/) -->

<svg
   xmlns:dc="http://purl.org/dc/elements/1.1/"
   xmlns:cc="http://creativecommons.org/ns#"
   xmlns:rdf="http://www.w3.org/1999/02/22-rdf-syntax-ns#"
   xmlns:svg="http://www.w3.org/2000/svg"
   xmlns="http://www.w3.org/2000/svg"
   xmlns:sodipodi="http://sodipodi.sourceforge.net/DTD/sodipodi-0.dtd"
   xmlns:inkscape="http://www.inkscape.org/namespaces/inkscape"
   width="11.999998"
   height="5.0000205"
   id="svg2"
   version="1.1"
   inkscape:version="0.48.4 r9939"
   sodipodi:docname="evolution.svg"
   inkscape:export-filename="evolution.png"
   inkscape:export-xdpi="2880"
   inkscape:export-ydpi="2880">
  <defs
     id="defs4" />
  <sodipodi:namedview
     id="base"
     pagecolor="#ffffff"
     bordercolor="#666666"
     borderopacity="1.0"
     inkscape:pageopacity="1"
     inkscape:pageshadow="2"
     inkscape:zoom="94.000015"
     inkscape:cx="5.999999"
     inkscape:cy="2.5000103"
     inkscape:document-units="px"
     inkscape:current-layer="layer1"
     showgrid="false"
     fit-margin-top="0"
     fit-margin-left="0"
     fit-margin-right="0"
     fit-margin-bottom="0"
     inkscape:window-width="1326"
     inkscape:window-height="745"
     inkscape:window-x="40"
     inkscape:window-y="0"
     inkscape:window-maximized="1" />
  <metadata
     id="metadata7">
    <rdf:RDF>
      <cc:Work
         rdf:about="">
        <dc:format>image/svg+xml</dc:format>
        <dc:type
           rdf:resource="http://purl.org/dc/dcmitype/StillImage" />
        <dc:title></dc:title>
      </cc:Work>
    </rdf:RDF>
  </metadata>
  <g
     inkscape:label="Camada 1"
     inkscape:groupmode="layer"
     id="layer1"
     transform="translate(-695.45532,-701.1568)">
    <g
       id="g3145">
      <path
         id="rect3052"
         transform="translate(695.45532,701.1568)"
         d="M 1 1 L 1 2 L 2 2 L 2 3 L 1 3 L 1 4 L 2 4 L 3 4 L 3 3 L 3 2 L 3 1 L 2 1 L 1 1 z "
         style="fill:#00ff00;fill-opacity:1;stroke:none" />
      <path
         id="rect3062"
         transform="translate(695.45532,701.1568)"
         d="M 0 0 L 0 1 L 0 2 L 0 3 L 0 4 L 0 5 L 1 5 L 2 5 L 3 5 L 4 5 L 4 4 L 4 3 L 4 2 L 4 1 L 4 0 L 3 0 L 2 0 L 1 0 L 0 0 z M 1 1 L 2 1 L 3 1 L 3 2 L 3 3 L 3 4 L 2 4 L 1 4 L 1 3 L 2 3 L 2 2 L 1 2 L 1 1 z "
         style="fill:#ffffff;fill-opacity:1;stroke:none" />
    </g>
    <g
       id="g3149"
       transform="translate(4,0)">
      <path
         style="fill:#00ff00;fill-opacity:1;stroke:none"
         d="M 1,1 1,2 2,2 2,3 1,3 1,4 2,4 3,4 3,3 3,2 3,1 2,1 1,1 z"
         transform="translate(695.45532,701.1568)"
         id="path3151"
         inkscape:connector-curvature="0" />
      <path
         style="fill:#ffffff;fill-opacity:1;stroke:none"
         d="M 0,0 0,1 0,2 0,3 0,4 0,5 1,5 2,5 3,5 4,5 4,4 4,3 4,2 4,1 4,0 3,0 2,0 1,0 0,0 z M 1,1 2,1 3,1 3,2 3,3 3,4 2,4 1,4 1,3 2,3 2,2 1,2 1,1 z"
         transform="translate(695.45532,701.1568)"
         id="path3153"
         inkscape:connector-curvature="0" />
    </g>
    <path
       style="fill:#ff0000;fill-opacity:1"
       inkscape:connector-curvature="0"
       d="m 704.70532,702.40682 0.75,-0.25 0.75,0.25 0.25,0.75 0,1 -0.25,0.75 -0.75,0.25 -0.75,-0.25 0,-0.5 0.5,-0.5 0,-0.5 -0.5,-0.5 z"
       id="path3038" />
    <path
       style="fill:#ff0000;fill-opacity:0.49803922"
       inkscape:connector-curvature="0"
       d="m 700.70532,702.40682 0.75,-0.25 0.75,0.25 0.25,0.75 0,1 -0.25,0.75 -0.75,0.25 -0.75,-0.25 0,-0.5 0.5,-0.5 0,-0.5 -0.5,-0.5 z"
       id="path3000" />
    <path
       style="fill:#0000ff;fill-opacity:0.49803922"
       inkscape:connector-curvature="0"
       d="m 705.08032,702.28182 q 0.375,-0.125 0.75,0 0.375,0.125 0.5,0.5 0.125,0.375 0.125,0.875 0,0.5 -0.125,0.875 -0.125,0.375 -0.5,0.5 -0.375,0.125 -0.75,0 -0.375,-0.125 -0.375,-0.375 0,-0.25 0.25,-0.5 0.25,-0.25 0.25,-0.5 0,-0.25 -0.25,-0.5 -0.25,-0.25 -0.25,-0.5 0,-0.25 0.375,-0.375 z"
       id="path3016" />
  </g>
</svg>
