<?xml version="1.0" encoding="UTF-8" standalone="no"?>
<svg
   xmlns:dc="http://purl.org/dc/elements/1.1/"
   xmlns:cc="http://creativecommons.org/ns#"
   xmlns:rdf="http://www.w3.org/1999/02/22-rdf-syntax-ns#"
   xmlns:svg="http://www.w3.org/2000/svg"
   xmlns="http://www.w3.org/2000/svg"
   xmlns:sodipodi="http://sodipodi.sourceforge.net/DTD/sodipodi-0.dtd"
   xmlns:inkscape="http://www.inkscape.org/namespaces/inkscape"
   width="10.484209"
   height="4.2548919"
   id="svg2"
   version="1.1"
   inkscape:version="0.48.4 r9939"
   sodipodi:docname="polygons-with-holes-and-splines.svg"
   inkscape:export-filename="/home/vinipsmaker/Projetos/gsoc2013-inkscape/posts/post #3/polygons-with-holes-and-splines.png"
   inkscape:export-xdpi="3426.644"
   inkscape:export-ydpi="3426.644">
  <metadata
     id="metadata12">
    <rdf:RDF>
      <cc:Work
         rdf:about="">
        <dc:format>image/svg+xml</dc:format>
        <dc:type
           rdf:resource="http://purl.org/dc/dcmitype/StillImage" />
        <dc:title></dc:title>
      </cc:Work>
    </rdf:RDF>
  </metadata>
  <defs
     id="defs10" />
  <sodipodi:namedview
     pagecolor="#ffffff"
     bordercolor="#666666"
     borderopacity="1"
     objecttolerance="10"
     gridtolerance="10"
     guidetolerance="10"
     inkscape:pageopacity="0"
     inkscape:pageshadow="2"
     inkscape:window-width="1326"
     inkscape:window-height="745"
     id="namedview8"
     showgrid="false"
     inkscape:zoom="78.666667"
     inkscape:cx="5.2593437"
     inkscape:cy="2.5296421"
     inkscape:window-x="40"
     inkscape:window-y="0"
     inkscape:window-maximized="1"
     inkscape:current-layer="svg2"
     fit-margin-top="0"
     fit-margin-left="0"
     fit-margin-right="0"
     fit-margin-bottom="0" />
  <path
     d="m 0.5625,0.0625 q 0.5,0 1,0 0.5,0 1,0 0.5,0 0.5,0.5 0,0.5 0,1 0,0.5 0,1 0,0.5 -0.5,0.5 -0.5,0 -1,0 -0.5,0 -0.625,-0.375 -0.125,-0.375 0.125,-0.625 0.25,-0.25 0.5,-0.25 0.25,0 0.25,-0.25 0,-0.25 -0.25,-0.25 -0.25,0 -0.25,0.25 0,0.25 -0.25,0.5 -0.25,0.25 -0.125,0.625 0.125,0.375 -0.375,0.375 -0.5,0 -0.5,-0.5 0,-0.5 0,-1 0,-0.5 0,-1 0,-0.5 0.5,-0.5 z"
     id="path4"
     style="fill:#ffffff;fill-opacity:1;stroke:#000000;stroke-width:0.1;stroke-miterlimit:4;stroke-dasharray:none"
     inkscape:connector-curvature="0" />
  <path
     d="m 1.5625,1.3125 q 0.25,0 0.25,0.25 0,0.25 -0.25,0.25 -0.25,0 -0.25,-0.25 0,-0.25 0.25,-0.25 z"
     id="path6"
     inkscape:connector-curvature="0"
     style="fill:#ffff00;fill-opacity:1" />
  <path
     sodipodi:type="arc"
     style="fill:none;stroke:#ff0000;stroke-width:0.1;stroke-linecap:round;stroke-linejoin:bevel;stroke-miterlimit:4;stroke-opacity:1;stroke-dasharray:none;stroke-dashoffset:0"
     id="path3757"
     sodipodi:cx="0.95338982"
     sodipodi:cy="2.9300847"
     sodipodi:rx="0.33686438"
     sodipodi:ry="0.33686438"
     d="m 1.2902542,2.9300847 a 0.33686438,0.33686438 0 1 1 -0.67372876,0 0.33686438,0.33686438 0 1 1 0.67372876,0 z"
     transform="translate(0.0625,0.0625)" />
  <path
     style="fill:none;stroke:#ff0000;stroke-width:0.1;stroke-linecap:butt;stroke-linejoin:miter;stroke-miterlimit:4;stroke-opacity:1;stroke-dasharray:none"
     d="m 1.2002118,3.246822 0.4925848,0.4925847 1.0582627,0"
     id="path3759"
     inkscape:connector-curvature="0" />
  <text
     xml:space="preserve"
     style="font-size:0.89026535px;font-style:normal;font-variant:normal;font-weight:normal;font-stretch:normal;line-height:125%;letter-spacing:0px;word-spacing:0px;fill:#000000;fill-opacity:1;stroke:none;font-family:Bitstream Vera Sans;-inkscape-font-specification:Bitstream Vera Sans"
     x="2.8808737"
     y="4.0697098"
     id="text3761"
     sodipodi:linespacing="125%"><tspan
       sodipodi:role="line"
       id="tspan3763"
       x="2.8808737"
       y="4.0697098">An unfilled space</tspan></text>
</svg>
