<?xml version="1.0" encoding="UTF-8" standalone="no"?>
<!-- Created with Inkscape (http://www.inkscape.org/) -->

<svg
   xmlns:dc="http://purl.org/dc/elements/1.1/"
   xmlns:cc="http://creativecommons.org/ns#"
   xmlns:rdf="http://www.w3.org/1999/02/22-rdf-syntax-ns#"
   xmlns:svg="http://www.w3.org/2000/svg"
   xmlns="http://www.w3.org/2000/svg"
   xmlns:sodipodi="http://sodipodi.sourceforge.net/DTD/sodipodi-0.dtd"
   xmlns:inkscape="http://www.inkscape.org/namespaces/inkscape"
   width="7.0625"
   height="3.09375"
   id="svg2"
   version="1.1"
   inkscape:version="0.48.4 r9939"
   sodipodi:docname="polygon-holes.svg"
   inkscape:export-filename="polygon-holes.png"
   inkscape:export-xdpi="5089.1055"
   inkscape:export-ydpi="5089.1055">
  <defs
     id="defs4" />
  <sodipodi:namedview
     id="base"
     pagecolor="#ffffff"
     bordercolor="#666666"
     borderopacity="1.0"
     inkscape:pageopacity="0.0"
     inkscape:pageshadow="2"
     inkscape:zoom="159.71681"
     inkscape:cx="3.53125"
     inkscape:cy="1.546875"
     inkscape:document-units="px"
     inkscape:current-layer="layer1"
     showgrid="false"
     inkscape:window-width="1326"
     inkscape:window-height="745"
     inkscape:window-x="40"
     inkscape:window-y="0"
     inkscape:window-maximized="1"
     fit-margin-top="0"
     fit-margin-left="0"
     fit-margin-right="0"
     fit-margin-bottom="0" />
  <metadata
     id="metadata7">
    <rdf:RDF>
      <cc:Work
         rdf:about="">
        <dc:format>image/svg+xml</dc:format>
        <dc:type
           rdf:resource="http://purl.org/dc/dcmitype/StillImage" />
        <dc:title></dc:title>
      </cc:Work>
    </rdf:RDF>
  </metadata>
  <g
     inkscape:label="Camada 1"
     inkscape:groupmode="layer"
     id="layer1"
     transform="translate(4,-1049.3125)">
    <g
       id="g3816"
       transform="matrix(-1,0,0,1,3.025,0)">
      <rect
         style="fill:#ffff00;fill-opacity:1;stroke:none"
         id="rect3810"
         width="1"
         height="1"
         x="1"
         y="1050.3622" />
      <path
         sodipodi:nodetypes="ccccccccccccccccccc"
         inkscape:connector-curvature="0"
         id="rect2985-8"
         d="m 0.0125,1049.3497 0,1 0,1 0,1 1,0 1,0 0,-1 -1,0 0,-1 1,0 0,1 0,1 1,0 0,-1 0,-1 0,-1 -1,0 -1,0 z"
         style="fill:#ffffff;fill-opacity:1;stroke:#000000;stroke-width:0.1;stroke-miterlimit:4;stroke-opacity:1;stroke-dasharray:none" />
    </g>
    <g
       id="g3812"
       transform="translate(-4,-1.7382813e-5)">
      <path
         sodipodi:nodetypes="ccccccccccccccccccc"
         inkscape:connector-curvature="0"
         id="rect2985"
         d="m 0,1049.3622 0,1 0,1 0,1 1,0 1,0 0,-1 -1,0 0,-1 1,0 0,1 0,1 1,0 0,-1 0,-1 0,-1 -1,0 -1,0 z"
         style="fill:#000000;fill-opacity:1;stroke:none" />
      <rect
         y="1050.3622"
         x="1"
         height="1"
         width="1"
         id="rect3808"
         style="fill:#ffff00;fill-opacity:1;stroke:none" />
    </g>
  </g>
</svg>
