<svg xmlns="http://www.w3.org/2000/svg" width="2px" height="2px">
	<path d="M 0,0.5 L 0,0 L 0.5,0 L 1,0 L 1,0.5 L 1,1 L 1,0.625 L 1,0.25 L 1,0.5 Q 1,0.75 1.125,0.875 L 1.25,1 L 1.1875,0.9375 L 1.125,0.875 L 0.5625,0.9375 L 0,1 L 0,0.5" fill="#f8b880" fill-opacity="1" />
	<path d="M 1,0.5 L 1,0 L 1.5,0 L 2,0 L 2,0.5 L 2,1 L 1.5,1 Q 1,1 1,0.5" fill="#0000ff" fill-opacity="1" />
	<path d="M 0,1.5 L 0,1 L 0.5625,0.9375 L 1.125,0.875 L 1.0625,0.8125 L 1,0.75 L 1.125,0.875 Q 1.25,1 1.5,1 L 1.75,1 L 1.375,1 L 1,1 L 1.5,1 L 2,1 L 2,1.5 L 2,2 L 1.5,2 L 1,2 L 0.5,2 L 0,2 L 0,1.5" fill="#f09058" fill-opacity="1" />
</svg>
