<?xml version="1.0" encoding="utf-8" ?>
<svg baseProfile="full" height="100%" version="1.1" width="100%" xmlns="http://www.w3.org/2000/svg" xmlns:ev="http://www.w3.org/2001/xml-events" xmlns:xlink="http://www.w3.org/1999/xlink"><defs /><path d="M 449 289 Q 439 300 449 310 Q 460 321 470 310 Q 481 299 470 289 Q 459 279 449 289 Z" fill="rgb(112,140,172)" stroke="rgb(112,140,172)" /><path d="M 255 245 Q 240 240 240 260 Q 240 280 255 285 Q 270 290 275 305 Q 280 320 295 315 Q 310 310 310 300 Q 310 290 300 280 Q 290 270 280 260 Q 270 250 255 245 Z" fill="rgb(112,140,172)" stroke="rgb(112,140,172)" /><path d="M 185 205 Q 170 210 170 220 Q 170 230 180 240 Q 190 250 200 260 Q 210 270 225 275 Q 240 280 240 260 Q 240 240 225 235 Q 210 230 205 215 Q 200 200 185 205 Z" fill="rgb(188,220,255)" stroke="rgb(188,220,255)" /><path d="M 20 0 Q 0 0 0 20 Q 0 40 0 60 Q 0 80 0 100 Q 0 120 0 140 Q 0 160 0 180 Q 0 200 0 220 Q 0 240 0 260 Q 0 280 0 300 Q 0 320 0 340 Q 0 360 0 380 Q 0 400 0 420 Q 0 440 0 460 Q 0 480 0 500 Q 0 520 0 540 Q 0 560 0 580 Q 0 600 20 600 Q 40 600 60 600 Q 80 600 100 600 Q 120 600 140 600 Q 160 600 180 600 Q 200 600 220 600 Q 240 600 260 600 Q 280 600 300 600 Q 320 600 340 600 Q 360 600 380 600 Q 400 600 420 600 Q 440 600 460 600 Q 480 600 500 600 Q 520 600 540 600 Q 560 600 580 600 Q 600 600 600 580 Q 600 560 600 540 Q 600 520 600 500 Q 600 480 600 460 Q 600 440 600 420 Q 600 400 600 380 Q 600 360 600 340 Q 600 320 600 300 Q 600 280 600 260 Q 600 240 600 220 Q 600 200 600 180 Q 600 160 600 140 Q 600 120 600 100 Q 600 80 600 60 Q 600 40 600 20 Q 600 0 580 0 Q 560 0 540 0 Q 520 0 500 0 Q 480 0 460 0 Q 440 0 420 0 Q 400 0 380 0 Q 360 0 340 0 Q 320 0 300 0 Q 280 0 260 0 Q 240 0 220 0 Q 200 0 180 0 Q 160 0 140 0 Q 120 0 100 0 Q 80 0 60 0 Q 40 0 20 0 Z M 51 68 Q 54 55 69 49 Q 84 43 103 44 Q 122 45 139 46 Q 157 47 171 51 Q 185 56 196 66 Q 207 76 217 85 Q 227 94 237 103 Q 247 113 259 123 Q 270 133 279 142 Q 289 151 299 160 Q 310 170 321 180 Q 333 191 341 198 Q 350 206 361 216 Q 372 226 383 235 Q 394 245 402 252 Q 411 260 421 260 Q 431 260 442 258 Q 452 256 466 252 Q 479 249 492 252 Q 505 254 510 268 Q 515 282 509 297 Q 504 312 500 321 Q 497 331 492 344 Q 487 358 492 373 Q 497 387 505 399 Q 513 411 520 422 Q 527 432 535 442 Q 542 453 547 466 Q 552 479 548 492 Q 543 506 533 516 Q 523 526 514 534 Q 506 542 493 547 Q 480 553 466 548 Q 451 542 440 534 Q 428 526 419 520 Q 409 513 398 505 Q 386 497 373 492 Q 360 486 344 491 Q 329 496 318 500 Q 308 503 295 507 Q 281 512 268 508 Q 255 505 250 491 Q 245 477 249 461 Q 253 446 256 437 Q 258 428 260 418 Q 262 409 252 399 Q 243 388 235 380 Q 228 372 217 361 Q 207 350 198 340 Q 189 331 179 320 Q 168 309 159 299 Q 150 289 140 279 Q 131 268 122 258 Q 113 248 103 238 Q 94 227 84 217 Q 74 206 65 196 Q 56 186 51 172 Q 45 157 45 138 Q 46 119 47 100 Q 47 82 51 68 Z" fill="rgb(183,153,127)" stroke="rgb(183,153,127)" /><path d="M 455 405 Q 440 400 445 415 Q 450 430 460 440 Q 470 450 475 465 Q 480 480 495 475 Q 510 470 510 460 Q 510 450 500 440 Q 490 430 480 420 Q 470 410 455 405 Z" fill="rgb(112,140,172)" stroke="rgb(112,140,172)" /><path d="M 51 68 Q 47 82 47 100 Q 46 119 45 138 Q 45 157 51 172 Q 56 186 65 196 Q 74 206 84 217 Q 94 227 103 238 Q 113 248 122 258 Q 131 268 140 279 Q 150 289 159 299 Q 168 309 179 320 Q 189 331 198 340 Q 207 350 217 361 Q 228 372 235 380 Q 243 388 252 399 Q 262 409 260 418 Q 258 428 256 437 Q 253 446 249 461 Q 245 477 250 491 Q 255 505 268 508 Q 281 512 295 507 Q 308 503 318 500 Q 329 496 344 491 Q 360 486 373 492 Q 386 497 398 505 Q 409 513 419 520 Q 428 526 440 534 Q 451 542 466 548 Q 480 553 493 547 Q 506 542 514 534 Q 523 526 533 516 Q 543 506 548 492 Q 552 479 547 466 Q 542 453 535 442 Q 527 432 520 422 Q 513 411 505 399 Q 497 387 492 373 Q 487 358 492 344 Q 497 331 500 321 Q 504 312 509 297 Q 515 282 510 268 Q 505 254 492 252 Q 479 249 466 252 Q 452 256 442 258 Q 431 260 421 260 Q 411 260 402 252 Q 394 245 383 235 Q 372 226 361 216 Q 350 206 341 198 Q 333 191 321 180 Q 310 170 299 160 Q 289 151 279 142 Q 270 133 259 123 Q 247 113 237 103 Q 227 94 217 85 Q 207 76 196 66 Q 185 56 171 51 Q 157 47 139 46 Q 122 45 103 44 Q 84 43 69 49 Q 54 55 51 68 Z M 85 105 Q 90 90 105 85 Q 120 80 140 80 Q 160 80 175 85 Q 190 90 200 100 Q 210 110 220 120 Q 230 130 240 140 Q 250 150 260 160 Q 270 170 280 180 Q 290 190 300 200 Q 310 210 320 220 Q 330 230 340 240 Q 350 250 355 265 Q 360 280 355 295 Q 350 310 340 320 Q 330 330 320 340 Q 310 350 295 355 Q 280 360 265 355 Q 250 350 240 340 Q 230 330 220 320 Q 210 310 200 300 Q 190 290 180 280 Q 170 270 160 260 Q 150 250 140 240 Q 130 230 125 215 Q 120 200 105 195 Q 90 190 85 175 Q 80 160 80 140 Q 80 120 85 105 Z M 405 425 Q 410 410 425 405 Q 440 400 455 405 Q 470 410 480 420 Q 490 430 500 440 Q 510 450 510 460 Q 510 470 495 475 Q 480 480 475 495 Q 470 510 460 510 Q 450 510 440 500 Q 430 490 420 480 Q 410 470 405 455 Q 400 440 405 425 Z M 449 289 Q 459 279 470 289 Q 481 299 470 310 Q 460 321 449 310 Q 439 300 449 289 Z M 380 353 Q 401 350 406 349 Q 412 348 419 347 Q 426 346 433 355 Q 439 364 418 367 Q 397 371 392 372 Q 387 373 379 374 Q 372 376 365 366 Q 359 357 380 353 Z M 329 410 Q 339 399 350 409 Q 361 419 350 430 Q 340 441 329 431 Q 319 420 329 410 Z M 289 449 Q 299 438 310 448 Q 320 459 310 469 Q 300 480 290 470 Q 279 460 289 449 Z" fill="rgb(32,72,104)" stroke="rgb(32,72,104)" /><path d="M 215 165 Q 200 160 200 180 Q 200 200 215 205 Q 230 210 235 225 Q 240 240 255 245 Q 270 250 280 260 Q 290 270 300 280 Q 310 290 310 300 Q 310 310 295 315 Q 280 320 280 340 Q 280 360 294 355 Q 310 350 320 340 Q 330 330 340 320 Q 350 310 355 295 Q 360 280 344 275 Q 330 270 320 260 Q 310 250 300 240 Q 290 230 280 220 Q 270 210 260 200 Q 250 190 240 180 Q 230 170 215 165 Z" fill="rgb(188,220,255)" stroke="rgb(188,220,255)" /><path d="M 255 285 Q 240 280 245 295 Q 250 310 265 315 Q 280 320 275 305 Q 270 290 255 285 Z" fill="rgb(188,220,255)" stroke="rgb(188,220,255)" /><path d="M 215 205 Q 200 200 205 215 Q 210 230 225 235 Q 240 240 235 225 Q 230 210 215 205 Z" fill="rgb(112,140,172)" stroke="rgb(112,140,172)" /><path d="M 134 195 Q 120 200 125 215 Q 130 230 140 240 Q 150 250 160 260 Q 170 270 180 280 Q 190 290 200 300 Q 210 310 220 320 Q 230 330 240 340 Q 250 350 265 355 Q 280 360 280 340 Q 280 320 265 315 Q 250 310 245 294 Q 240 280 225 275 Q 210 270 200 260 Q 190 250 180 239 Q 170 230 170 220 Q 170 210 185 205 Q 200 200 200 180 Q 200 160 184 165 Q 170 170 160 180 Q 150 190 135 195 Z" fill="rgb(112,140,172)" stroke="rgb(112,140,172)" /><path d="M 289 449 Q 279 460 290 470 Q 300 480 310 469 Q 320 459 310 448 Q 299 438 289 449 Z" fill="rgb(112,140,172)" stroke="rgb(112,140,172)" /><path d="M 329 410 Q 319 420 329 431 Q 340 441 350 430 Q 361 419 350 409 Q 339 399 329 410 Z" fill="rgb(188,220,255)" stroke="rgb(188,220,255)" /><path d="M 85 105 Q 80 120 95 125 Q 110 130 120 140 Q 130 150 140 150 Q 150 150 150 140 Q 150 130 140 120 Q 130 110 125 94 Q 120 80 105 85 Q 90 90 85 105 Z" fill="rgb(188,220,255)" stroke="rgb(188,220,255)" /><path d="M 405 425 Q 400 440 405 455 Q 410 470 420 480 Q 430 490 440 500 Q 450 510 460 510 Q 470 510 475 495 Q 480 480 475 465 Q 470 450 460 440 Q 450 430 445 415 Q 440 400 425 405 Q 410 410 405 425 Z" fill="rgb(140,80,48)" stroke="rgb(140,80,48)" /></svg>