<?xml version="1.0" encoding="utf-8" ?>
<svg baseProfile="full" height="100%" version="1.1" width="100%" xmlns="http://www.w3.org/2000/svg" xmlns:ev="http://www.w3.org/2001/xml-events" xmlns:xlink="http://www.w3.org/1999/xlink"><defs /><path d="M 175 685 Q 160 680 160 700 Q 160 720 175 725 Q 190 730 200 740 Q 210 750 220 760 Q 230 770 240 780 Q 250 790 265 795 Q 280 800 300 800 Q 320 800 315 785 Q 310 770 300 760 Q 290 750 285 735 Q 280 720 260 720 Q 240 720 225 715 Q 210 710 200 700 Q 190 690 175 685 Z" fill="rgb(0,0,88)" stroke="rgb(0,0,88)" /><path d="M 220 480 Q 200 480 200 500 Q 200 520 220 520 Q 240 520 240 500 Q 240 480 220 480 Z" fill="rgb(160,136,80)" stroke="rgb(160,136,80)" /><path d="M 420 880 Q 400 880 400 900 Q 400 920 400 940 Q 400 960 405 975 Q 410 990 425 995 Q 440 1000 460 1000 Q 480 1000 495 995 Q 510 990 515 975 Q 520 960 500 960 Q 480 960 465 955 Q 450 950 445 935 Q 440 920 440 900 Q 440 880 420 880 Z" fill="rgb(184,0,136)" stroke="rgb(184,0,136)" /><path d="M 220 880 Q 200 880 200 900 Q 200 920 205 935 Q 210 950 225 955 Q 240 960 240 940 Q 240 920 240 900 Q 240 880 220 880 Z" fill="rgb(248,56,192)" stroke="rgb(248,56,192)" /><path d="M 59 520 Q 40 520 44 534 Q 50 550 60 560 Q 70 570 80 580 Q 90 590 100 600 Q 110 610 120 620 Q 130 630 145 635 Q 160 640 160 620 Q 160 600 160 580 Q 160 560 155 545 Q 150 530 135 525 Q 120 520 115 534 Q 110 550 100 550 Q 90 550 85 535 Q 80 520 60 520 Z" fill="rgb(160,152,160)" stroke="rgb(160,152,160)" /><path d="M 300 720 Q 280 720 285 735 Q 290 750 300 760 Q 310 770 315 785 Q 320 800 340 800 Q 360 800 379 800 Q 400 800 405 785 Q 410 770 420 760 Q 430 750 435 735 Q 440 720 420 720 Q 400 720 395 735 Q 390 750 375 755 Q 360 760 345 755 Q 330 750 325 735 Q 320 720 300 720 Z" fill="rgb(0,0,248)" stroke="rgb(0,0,248)" /><path d="M 340 680 Q 320 680 320 700 Q 320 720 340 720 Q 360 720 360 700 Q 360 680 340 680 Z" fill="rgb(248,184,144)" stroke="rgb(248,184,144)" /><path d="M 405 385 Q 400 400 400 420 Q 400 440 400 460 Q 400 480 400 500 Q 400 520 420 520 Q 440 520 440 500 Q 440 480 440 460 Q 440 440 440 420 Q 440 400 435 385 Q 430 370 420 370 Q 410 370 405 385 Z" fill="rgb(248,184,144)" stroke="rgb(248,184,144)" /><path d="M 245 385 Q 240 400 240 420 Q 240 440 240 460 Q 240 480 240 500 Q 240 520 260 520 Q 280 520 280 500 Q 280 480 280 460 Q 280 440 280 420 Q 280 400 275 385 Q 270 370 260 370 Q 250 370 245 385 Z" fill="rgb(248,184,144)" stroke="rgb(248,184,144)" /><path d="M 380 680 Q 360 680 360 700 Q 360 720 380 720 Q 400 720 400 700 Q 400 680 380 680 Z" fill="rgb(160,136,80)" stroke="rgb(160,136,80)" /><path d="M 285 105 Q 280 120 299 120 Q 320 120 325 105 Q 330 90 345 85 Q 360 80 375 85 Q 390 90 400 99 Q 410 110 425 115 Q 440 120 435 105 Q 430 90 420 80 Q 410 70 400 60 Q 390 50 375 45 Q 360 40 345 44 Q 330 50 320 60 Q 310 70 300 80 Q 290 90 285 104 Z" fill="rgb(184,0,136)" stroke="rgb(184,0,136)" /><path d="M 405 785 Q 400 800 415 795 Q 430 790 440 780 Q 450 770 460 760 Q 470 750 480 740 Q 490 730 505 725 Q 520 720 520 700 Q 520 680 505 685 Q 490 690 480 700 Q 470 710 455 715 Q 440 720 435 735 Q 430 750 420 760 Q 410 770 405 785 Z" fill="rgb(0,0,88)" stroke="rgb(0,0,88)" /><path d="M 260 920 Q 240 920 240 940 Q 240 960 260 960 Q 280 960 280 940 Q 280 920 260 920 Z" fill="rgb(248,248,248)" stroke="rgb(248,248,248)" /><path d="M 19 0 Q 0 0 0 20 Q 0 40 0 59 Q 0 80 0 100 Q 0 120 0 140 Q 0 160 0 179 Q 0 200 0 220 Q 0 240 0 259 Q 0 280 0 300 Q 0 320 0 340 Q 0 360 0 379 Q 0 400 0 420 Q 0 440 0 460 Q 0 480 0 499 Q 0 520 0 540 Q 0 560 0 580 Q 0 600 0 619 Q 0 640 0 660 Q 0 680 0 700 Q 0 720 0 739 Q 0 760 0 780 Q 0 800 0 819 Q 0 840 0 860 Q 0 880 0 900 Q 0 920 0 939 Q 0 960 0 980 Q 0 1000 0 1020 Q 0 1040 19 1040 Q 40 1040 60 1040 Q 80 1040 100 1040 Q 120 1040 139 1040 Q 160 1040 180 1040 Q 200 1040 220 1040 Q 240 1040 259 1040 Q 280 1040 300 1040 Q 320 1040 339 1040 Q 360 1040 380 1040 Q 400 1040 420 1040 Q 440 1040 459 1040 Q 480 1040 500 1040 Q 520 1040 540 1040 Q 560 1040 579 1040 Q 600 1040 620 1040 Q 640 1040 660 1040 Q 680 1040 680 1020 Q 680 1000 680 980 Q 680 960 680 940 Q 680 920 680 899 Q 680 880 680 860 Q 680 840 680 820 Q 680 800 680 780 Q 680 760 680 740 Q 680 720 680 700 Q 680 680 680 660 Q 680 640 680 620 Q 680 600 680 580 Q 680 560 680 540 Q 680 520 680 500 Q 680 480 680 459 Q 680 440 680 420 Q 680 400 680 380 Q 680 360 680 340 Q 680 320 680 299 Q 680 280 680 260 Q 680 240 680 219 Q 680 200 680 180 Q 680 160 680 140 Q 680 120 680 100 Q 680 80 680 59 Q 680 40 680 20 Q 680 0 660 0 Q 640 0 620 0 Q 600 0 580 0 Q 560 0 539 0 Q 520 0 500 0 Q 480 0 459 0 Q 440 0 420 0 Q 400 0 380 0 Q 360 0 340 0 Q 320 0 299 0 Q 280 0 260 0 Q 240 0 219 0 Q 200 0 180 0 Q 160 0 140 0 Q 120 0 99 0 Q 80 0 60 0 Q 40 0 20 0 Z M 45 265 Q 50 250 60 240 Q 70 230 80 220 Q 90 210 100 200 Q 110 190 120 180 Q 130 170 145 165 Q 160 160 175 155 Q 190 150 200 140 Q 210 130 225 125 Q 240 120 260 120 Q 280 120 285 105 Q 290 90 300 80 Q 310 70 320 59 Q 330 50 345 45 Q 360 40 375 45 Q 390 50 400 59 Q 410 70 420 80 Q 430 90 435 105 Q 440 120 455 125 Q 470 130 480 140 Q 490 150 505 155 Q 520 160 535 165 Q 550 170 560 180 Q 570 190 580 200 Q 590 210 600 220 Q 610 230 620 240 Q 630 250 635 265 Q 640 280 640 300 Q 640 320 640 340 Q 640 360 640 380 Q 640 400 640 420 Q 640 440 640 460 Q 640 480 640 500 Q 640 520 635 535 Q 630 550 620 560 Q 610 570 600 580 Q 590 590 580 600 Q 570 610 560 620 Q 550 630 535 635 Q 520 640 520 660 Q 520 680 520 700 Q 520 720 520 740 Q 520 760 520 780 Q 520 800 520 820 Q 520 840 520 860 Q 520 880 520 900 Q 520 920 520 940 Q 520 960 515 975 Q 510 990 495 995 Q 480 1000 459 1000 Q 440 1000 425 995 Q 410 990 405 975 Q 400 960 400 940 Q 400 920 400 900 Q 400 880 400 859 Q 400 840 400 820 Q 400 800 379 800 Q 360 800 340 800 Q 320 800 299 800 Q 280 800 280 820 Q 280 840 280 860 Q 280 880 280 900 Q 280 920 280 940 Q 280 960 275 975 Q 270 990 255 995 Q 240 1000 219 1000 Q 200 1000 185 995 Q 170 990 165 975 Q 160 960 160 940 Q 160 920 160 900 Q 160 880 160 859 Q 160 840 160 820 Q 160 800 160 779 Q 160 760 160 740 Q 160 720 160 700 Q 160 680 160 660 Q 160 640 145 635 Q 130 630 119 620 Q 110 610 100 600 Q 90 590 79 580 Q 70 570 60 560 Q 50 550 44 534 Q 40 520 40 500 Q 40 480 40 460 Q 40 440 40 419 Q 40 400 40 380 Q 40 360 40 339 Q 40 320 40 300 Q 40 280 45 264 Z" fill="rgb(98,146,99)" stroke="rgb(98,146,99)" /><path d="M 380 480 Q 360 480 360 500 Q 360 520 380 520 Q 400 520 400 500 Q 400 480 380 480 Z" fill="rgb(160,136,80)" stroke="rgb(160,136,80)" /><path d="M 500 920 Q 480 920 480 940 Q 480 960 500 960 Q 520 960 520 940 Q 520 920 500 920 Z" fill="rgb(248,248,248)" stroke="rgb(248,248,248)" /><path d="M 380 600 Q 360 600 360 620 Q 360 640 360 660 Q 360 680 380 680 Q 400 680 420 680 Q 440 680 440 660 Q 440 640 425 635 Q 410 630 405 615 Q 400 600 380 600 Z" fill="rgb(88,160,248)" stroke="rgb(88,160,248)" /><path d="M 460 480 Q 440 480 440 500 Q 440 520 460 520 Q 480 520 480 500 Q 480 480 460 480 Z" fill="rgb(160,136,80)" stroke="rgb(160,136,80)" /><path d="M 205 625 Q 200 640 205 655 Q 210 670 225 675 Q 240 680 245 665 Q 250 650 260 640 Q 270 630 275 615 Q 280 600 260 600 Q 240 600 225 605 Q 210 610 205 625 Z" fill="rgb(0,0,88)" stroke="rgb(0,0,88)" /><path d="M 580 520 Q 560 520 565 535 Q 570 550 580 550 Q 590 550 595 535 Q 600 520 580 520 Z" fill="rgb(248,248,248)" stroke="rgb(248,248,248)" /><path d="M 420 680 Q 400 680 400 700 Q 400 720 420 720 Q 440 720 455 715 Q 470 710 480 700 Q 490 690 505 685 Q 520 680 520 660 Q 520 640 500 640 Q 480 640 475 655 Q 470 670 455 675 Q 440 680 420 680 Z" fill="rgb(0,0,0)" stroke="rgb(0,0,0)" /><path d="M 220 320 Q 200 320 200 340 Q 200 360 215 355 Q 230 350 235 335 Q 240 320 220 320 Z" fill="rgb(160,136,80)" stroke="rgb(160,136,80)" /><path d="M 580 440 Q 560 440 560 460 Q 560 480 560 500 Q 560 520 580 520 Q 600 520 620 520 Q 640 520 640 500 Q 640 480 625 475 Q 610 470 605 455 Q 600 440 580 440 Z" fill="rgb(184,0,136)" stroke="rgb(184,0,136)" /><path d="M 180 640 Q 160 640 160 660 Q 160 680 175 685 Q 190 690 200 700 Q 210 710 225 715 Q 240 720 260 720 Q 280 720 280 700 Q 280 680 260 680 Q 240 680 225 675 Q 210 670 205 655 Q 200 640 180 640 Z" fill="rgb(0,0,0)" stroke="rgb(0,0,0)" /><path d="M 455 605 Q 440 600 440 620 Q 440 640 460 640 Q 480 640 475 625 Q 470 610 455 605 Z" fill="rgb(0,0,88)" stroke="rgb(0,0,88)" /><path d="M 460 880 Q 440 880 440 900 Q 440 920 445 935 Q 450 950 465 955 Q 480 960 480 940 Q 480 920 480 900 Q 480 880 460 880 Z" fill="rgb(248,56,192)" stroke="rgb(248,56,192)" /><path d="M 449 809 Q 439 820 449 830 Q 460 840 470 830 Q 480 819 470 809 Q 459 799 449 809 Z" fill="rgb(248,248,248)" stroke="rgb(248,248,248)" /><path d="M 340 720 Q 320 720 325 735 Q 330 750 345 755 Q 360 760 375 755 Q 390 750 395 735 Q 400 720 380 720 Q 360 720 340 720 Z" fill="rgb(88,160,248)" stroke="rgb(88,160,248)" /><path d="M 300 480 Q 280 480 280 500 Q 280 520 300 520 Q 320 520 320 500 Q 320 480 300 480 Z" fill="rgb(160,136,80)" stroke="rgb(160,136,80)" /><path d="M 125 265 Q 120 280 120 299 Q 120 320 135 315 Q 150 310 160 300 Q 170 290 185 285 Q 200 280 220 280 Q 240 280 260 280 Q 280 280 300 280 Q 320 280 340 280 Q 360 280 380 280 Q 400 280 420 280 Q 440 280 460 280 Q 480 280 495 285 Q 510 290 520 300 Q 530 310 540 320 Q 550 330 555 345 Q 560 360 560 380 Q 560 400 575 395 Q 590 390 595 375 Q 600 360 600 340 Q 600 320 600 300 Q 600 280 595 265 Q 590 250 580 240 Q 570 230 560 220 Q 550 210 539 199 Q 530 190 525 175 Q 520 160 505 155 Q 490 150 480 140 Q 470 130 455 125 Q 440 120 425 115 Q 410 110 400 100 Q 390 90 374 84 Q 360 80 355 94 Q 350 110 335 115 Q 320 120 300 120 Q 280 120 260 120 Q 240 120 235 135 Q 230 150 220 160 Q 210 170 200 180 Q 190 190 180 200 Q 170 210 159 220 Q 150 230 140 240 Q 130 250 125 265 Z" fill="rgb(232,232,232)" stroke="rgb(232,232,232)" /><path d="M 300 320 Q 280 320 285 335 Q 290 350 305 355 Q 320 360 320 340 Q 320 320 300 320 Z" fill="rgb(160,136,80)" stroke="rgb(160,136,80)" /><path d="M 134 315 Q 120 320 120 340 Q 120 360 120 380 Q 120 400 120 420 Q 120 440 120 460 Q 120 480 120 500 Q 120 520 134 525 Q 150 530 155 545 Q 160 560 180 560 Q 200 560 220 560 Q 240 560 260 560 Q 280 560 299 560 Q 320 560 340 560 Q 360 560 380 560 Q 400 560 420 560 Q 440 560 460 560 Q 480 560 500 560 Q 520 560 525 545 Q 530 530 545 525 Q 560 520 560 500 Q 560 480 560 460 Q 560 440 560 420 Q 560 400 560 380 Q 560 360 555 345 Q 550 330 540 320 Q 530 310 520 300 Q 510 290 495 285 Q 480 280 460 280 Q 440 280 420 280 Q 400 280 380 280 Q 360 280 340 280 Q 320 280 300 280 Q 280 280 260 280 Q 240 280 220 280 Q 200 280 185 285 Q 170 290 159 300 Q 150 310 135 315 Z M 165 345 Q 170 330 185 325 Q 200 320 220 320 Q 240 320 260 320 Q 280 320 300 320 Q 320 320 340 320 Q 360 320 380 320 Q 400 320 420 320 Q 440 320 460 320 Q 480 320 495 325 Q 510 330 515 345 Q 520 360 520 380 Q 520 400 520 420 Q 520 440 520 460 Q 520 480 515 495 Q 510 510 495 515 Q 480 520 460 520 Q 440 520 420 520 Q 400 520 380 520 Q 360 520 340 520 Q 320 520 300 520 Q 280 520 260 520 Q 240 520 220 520 Q 200 520 185 515 Q 170 510 165 495 Q 160 480 160 460 Q 160 440 160 420 Q 160 400 160 380 Q 160 360 165 345 Z" fill="rgb(208,56,0)" stroke="rgb(208,56,0)" /><path d="M 60 440 Q 40 440 40 460 Q 40 480 40 500 Q 40 520 59 520 Q 80 520 100 520 Q 120 520 120 500 Q 120 480 104 475 Q 90 470 85 455 Q 80 440 59 440 Z" fill="rgb(184,0,136)" stroke="rgb(184,0,136)" /><path d="M 180 560 Q 160 560 160 580 Q 160 600 160 620 Q 160 640 180 640 Q 200 640 205 625 Q 210 610 225 605 Q 240 600 260 600 Q 280 600 300 600 Q 320 600 340 600 Q 360 600 380 600 Q 400 600 420 600 Q 440 600 455 605 Q 470 610 475 625 Q 480 640 500 640 Q 520 640 520 620 Q 520 600 504 595 Q 490 590 485 575 Q 480 560 460 560 Q 440 560 420 560 Q 400 560 380 560 Q 360 560 340 560 Q 320 560 300 560 Q 280 560 259 560 Q 240 560 220 560 Q 200 560 180 560 Z" fill="rgb(96,96,96)" stroke="rgb(96,96,96)" /><path d="M 100 440 Q 80 440 85 455 Q 90 470 105 475 Q 120 480 120 460 Q 120 440 100 440 Z" fill="rgb(248,56,192)" stroke="rgb(248,56,192)" /><path d="M 85 265 Q 80 280 80 299 Q 80 320 80 340 Q 80 360 80 380 Q 80 400 80 420 Q 80 440 100 440 Q 120 440 120 420 Q 120 400 120 380 Q 120 360 120 340 Q 120 320 120 299 Q 120 280 125 265 Q 130 250 140 240 Q 150 230 160 220 Q 170 210 180 200 Q 190 190 200 180 Q 210 170 220 159 Q 230 150 235 135 Q 240 120 225 125 Q 210 130 200 140 Q 190 150 175 155 Q 160 160 155 175 Q 150 190 140 200 Q 130 210 120 220 Q 110 230 100 240 Q 90 250 85 265 Z" fill="rgb(176,176,176)" stroke="rgb(176,176,176)" /><path d="M 605 425 Q 600 440 620 440 Q 640 440 640 420 Q 640 400 625 405 Q 610 410 605 425 Z" fill="rgb(96,96,96)" stroke="rgb(96,96,96)" /><path d="M 415 795 Q 400 800 400 820 Q 400 840 400 860 Q 400 880 420 880 Q 440 880 460 880 Q 480 880 500 880 Q 520 880 520 860 Q 520 840 520 820 Q 520 800 520 780 Q 520 760 520 740 Q 520 720 505 725 Q 490 730 480 740 Q 470 750 460 760 Q 450 770 440 780 Q 430 790 415 795 Z M 449 809 Q 459 799 470 809 Q 480 819 470 830 Q 460 840 449 830 Q 439 820 449 809 Z" fill="rgb(160,152,160)" stroke="rgb(160,152,160)" /><path d="M 100 520 Q 80 520 85 535 Q 90 550 100 550 Q 110 550 115 535 Q 120 520 100 520 Z" fill="rgb(248,248,248)" stroke="rgb(248,248,248)" /><path d="M 175 725 Q 160 720 160 740 Q 160 760 160 780 Q 160 800 160 820 Q 160 840 160 860 Q 160 880 179 880 Q 200 880 220 880 Q 240 880 260 880 Q 280 880 280 860 Q 280 840 280 820 Q 280 800 265 795 Q 250 790 240 780 Q 230 770 220 760 Q 210 750 200 740 Q 190 730 175 725 Z M 209 809 Q 219 798 230 809 Q 240 819 230 829 Q 220 840 210 830 Q 199 820 209 809 Z" fill="rgb(160,152,160)" stroke="rgb(160,152,160)" /><path d="M 620 440 Q 600 440 605 455 Q 610 470 625 475 Q 640 480 640 460 Q 640 440 620 440 Z" fill="rgb(248,56,192)" stroke="rgb(248,56,192)" /><path d="M 375 355 Q 360 360 360 380 Q 360 400 360 420 Q 360 440 360 460 Q 360 480 380 480 Q 400 480 400 460 Q 400 440 400 420 Q 400 400 405 385 Q 410 370 420 370 Q 430 370 435 385 Q 440 400 440 420 Q 440 440 440 460 Q 440 480 459 480 Q 480 480 480 460 Q 480 440 480 420 Q 480 400 480 380 Q 480 360 465 355 Q 450 350 445 335 Q 440 320 420 320 Q 400 320 395 335 Q 390 350 375 355 Z" fill="rgb(0,0,0)" stroke="rgb(0,0,0)" /><path d="M 420 600 Q 400 600 405 615 Q 410 630 425 635 Q 440 640 440 620 Q 440 600 420 600 Z" fill="rgb(248,248,248)" stroke="rgb(248,248,248)" /><path d="M 215 355 Q 200 360 200 380 Q 200 400 200 420 Q 200 440 200 460 Q 200 480 220 480 Q 240 480 240 460 Q 240 440 240 420 Q 240 400 245 385 Q 250 370 260 370 Q 270 370 275 385 Q 280 400 280 420 Q 280 440 280 460 Q 280 480 299 480 Q 320 480 320 460 Q 320 440 320 420 Q 320 400 320 380 Q 320 360 305 355 Q 290 350 285 335 Q 280 320 260 320 Q 240 320 235 335 Q 230 350 215 355 Z" fill="rgb(0,0,0)" stroke="rgb(0,0,0)" /><path d="M 500 880 Q 480 880 480 900 Q 480 920 500 920 Q 520 920 520 900 Q 520 880 500 880 Z" fill="rgb(184,0,136)" stroke="rgb(184,0,136)" /><path d="M 535 165 Q 520 160 525 175 Q 530 190 540 200 Q 550 210 560 220 Q 570 230 580 240 Q 590 250 595 265 Q 600 280 600 300 Q 600 320 600 340 Q 600 360 595 375 Q 590 390 575 395 Q 560 400 560 420 Q 560 440 580 440 Q 600 440 605 425 Q 610 410 624 405 Q 640 400 640 380 Q 640 360 640 340 Q 640 320 640 300 Q 640 280 635 264 Q 630 250 620 240 Q 610 230 600 220 Q 590 210 580 200 Q 570 190 560 180 Q 550 170 535 165 Z" fill="rgb(176,176,176)" stroke="rgb(176,176,176)" /><path d="M 380 320 Q 360 320 360 340 Q 360 360 375 355 Q 390 350 395 335 Q 400 320 380 320 Z" fill="rgb(160,136,80)" stroke="rgb(160,136,80)" /><path d="M 44 265 Q 40 280 40 300 Q 40 320 40 340 Q 40 360 40 380 Q 40 400 40 420 Q 40 440 59 440 Q 80 440 80 420 Q 80 400 80 380 Q 80 360 80 340 Q 80 320 80 299 Q 80 280 85 265 Q 90 250 100 239 Q 110 230 119 220 Q 130 210 140 200 Q 150 190 155 174 Q 160 160 145 165 Q 130 170 119 180 Q 110 190 100 200 Q 90 210 79 220 Q 70 230 60 240 Q 50 250 45 265 Z" fill="rgb(96,96,96)" stroke="rgb(96,96,96)" /><path d="M 209 809 Q 199 820 210 830 Q 220 840 230 829 Q 240 819 230 809 Q 219 798 209 809 Z" fill="rgb(248,248,248)" stroke="rgb(248,248,248)" /><path d="M 180 880 Q 160 880 160 900 Q 160 920 160 940 Q 160 960 165 975 Q 170 990 185 995 Q 200 1000 220 1000 Q 240 1000 255 995 Q 270 990 275 975 Q 280 960 260 960 Q 240 960 225 955 Q 210 950 205 935 Q 200 920 200 900 Q 200 880 180 880 Z" fill="rgb(184,0,136)" stroke="rgb(184,0,136)" /><path d="M 300 680 Q 280 680 280 700 Q 280 720 300 720 Q 320 720 320 700 Q 320 680 300 680 Z" fill="rgb(160,136,80)" stroke="rgb(160,136,80)" /><path d="M 340 320 Q 320 320 320 340 Q 320 360 320 380 Q 320 400 320 420 Q 320 440 320 460 Q 320 480 320 500 Q 320 520 340 520 Q 360 520 360 500 Q 360 480 360 460 Q 360 440 360 420 Q 360 400 360 380 Q 360 360 360 340 Q 360 320 340 320 Z" fill="rgb(248,184,144)" stroke="rgb(248,184,144)" /><path d="M 460 640 Q 440 640 440 660 Q 440 680 455 675 Q 470 670 475 655 Q 480 640 460 640 Z" fill="rgb(0,0,248)" stroke="rgb(0,0,248)" /><path d="M 495 325 Q 480 320 480 340 Q 480 360 480 380 Q 480 400 480 420 Q 480 440 480 460 Q 480 480 480 500 Q 480 520 495 515 Q 510 510 515 495 Q 520 480 520 460 Q 520 440 520 420 Q 520 400 520 380 Q 520 360 515 345 Q 510 330 495 325 Z" fill="rgb(248,184,144)" stroke="rgb(248,184,144)" /><path d="M 525 545 Q 520 560 520 580 Q 520 600 520 620 Q 520 640 535 635 Q 550 630 560 620 Q 570 610 580 600 Q 590 590 600 580 Q 610 570 620 560 Q 630 550 635 535 Q 640 520 620 520 Q 600 520 595 535 Q 590 550 580 550 Q 570 550 565 535 Q 560 520 545 525 Q 530 530 525 545 Z" fill="rgb(160,152,160)" stroke="rgb(160,152,160)" /><path d="M 260 880 Q 240 880 240 900 Q 240 920 260 920 Q 280 920 280 900 Q 280 880 260 880 Z" fill="rgb(184,0,136)" stroke="rgb(184,0,136)" /><path d="M 165 345 Q 160 360 160 380 Q 160 400 160 420 Q 160 440 160 460 Q 160 480 165 495 Q 170 510 185 515 Q 200 520 200 500 Q 200 480 200 460 Q 200 440 200 420 Q 200 400 200 380 Q 200 360 200 340 Q 200 320 185 325 Q 170 330 165 345 Z" fill="rgb(248,184,144)" stroke="rgb(248,184,144)" /><path d="M 325 105 Q 320 120 335 115 Q 350 110 355 95 Q 360 80 345 85 Q 330 90 325 105 Z" fill="rgb(248,56,192)" stroke="rgb(248,56,192)" /><path d="M 500 560 Q 480 560 485 575 Q 490 590 505 595 Q 520 600 520 580 Q 520 560 500 560 Z" fill="rgb(0,0,0)" stroke="rgb(0,0,0)" /><path d="M 245 665 Q 240 680 260 680 Q 280 680 300 680 Q 320 680 340 680 Q 360 680 360 660 Q 360 640 360 620 Q 360 600 340 600 Q 320 600 300 600 Q 280 600 275 615 Q 270 630 260 640 Q 250 650 245 665 Z" fill="rgb(0,0,248)" stroke="rgb(0,0,248)" /><path d="M 460 320 Q 440 320 445 335 Q 450 350 465 355 Q 480 360 480 340 Q 480 320 460 320 Z" fill="rgb(160,136,80)" stroke="rgb(160,136,80)" /></svg>