<?xml version="1.0" encoding="utf-8" ?>
<svg baseProfile="full" height="100%" version="1.1" width="100%" xmlns="http://www.w3.org/2000/svg" xmlns:ev="http://www.w3.org/2001/xml-events" xmlns:xlink="http://www.w3.org/1999/xlink"><defs /><path d="M 495 245 Q 480 240 480 260 Q 480 280 480 300 Q 480 320 485 335 Q 490 350 500 350 Q 510 350 515 335 Q 520 320 520 299 Q 520 280 515 265 Q 510 250 495 245 Z" fill="rgb(248,200,112)" stroke="rgb(248,200,112)" /><path d="M 500 480 Q 480 480 485 495 Q 490 510 505 515 Q 520 520 520 500 Q 520 480 500 480 Z" fill="rgb(0,0,168)" stroke="rgb(0,0,168)" /><path d="M 245 265 Q 240 280 240 300 Q 240 320 245 335 Q 250 350 265 355 Q 280 360 280 340 Q 280 320 280 300 Q 280 280 280 260 Q 280 240 265 245 Q 250 250 245 265 Z" fill="rgb(248,200,112)" stroke="rgb(248,200,112)" /><path d="M 300 240 Q 280 240 280 260 Q 280 280 280 300 Q 280 320 280 340 Q 280 360 300 360 Q 320 360 320 340 Q 320 320 320 299 Q 320 280 320 260 Q 320 240 300 240 Z" fill="rgb(0,0,0)" stroke="rgb(0,0,0)" /><path d="M 460 80 Q 440 80 445 95 Q 450 110 465 115 Q 480 120 495 125 Q 510 130 515 145 Q 520 160 535 155 Q 550 150 550 140 Q 550 130 540 120 Q 530 110 520 100 Q 510 90 495 85 Q 480 80 460 80 Z" fill="rgb(168,184,168)" stroke="rgb(168,184,168)" /><path d="M 580 240 Q 560 240 560 260 Q 560 280 580 280 Q 600 280 615 275 Q 630 270 635 255 Q 640 240 620 240 Q 600 240 580 240 Z" fill="rgb(144,0,112)" stroke="rgb(144,0,112)" /><path d="M 220 600 Q 200 600 200 620 Q 200 640 205 655 Q 210 670 225 675 Q 240 680 240 660 Q 240 640 240 620 Q 240 600 220 600 Z" fill="rgb(120,136,120)" stroke="rgb(120,136,120)" /><path d="M 19 0 Q 0 0 0 19 Q 0 40 0 60 Q 0 80 0 100 Q 0 120 0 139 Q 0 160 0 180 Q 0 200 0 220 Q 0 240 0 259 Q 0 280 0 300 Q 0 320 0 339 Q 0 360 0 380 Q 0 400 0 420 Q 0 440 0 459 Q 0 480 0 500 Q 0 520 0 540 Q 0 560 0 579 Q 0 600 0 620 Q 0 640 0 660 Q 0 680 0 700 Q 0 720 0 740 Q 0 760 0 780 Q 0 800 0 820 Q 0 840 19 840 Q 40 840 60 840 Q 80 840 100 840 Q 120 840 139 840 Q 160 840 180 840 Q 200 840 220 840 Q 240 840 259 840 Q 280 840 300 840 Q 320 840 339 840 Q 360 840 380 840 Q 400 840 420 840 Q 440 840 459 840 Q 480 840 500 840 Q 520 840 540 840 Q 560 840 579 840 Q 600 840 620 840 Q 640 840 660 840 Q 680 840 700 840 Q 720 840 740 840 Q 760 840 760 820 Q 760 800 760 780 Q 760 760 760 740 Q 760 720 760 699 Q 760 680 760 660 Q 760 640 760 620 Q 760 600 760 580 Q 760 560 760 540 Q 760 520 760 499 Q 760 480 760 460 Q 760 440 760 420 Q 760 400 760 380 Q 760 360 760 340 Q 760 320 760 299 Q 760 280 760 260 Q 760 240 760 220 Q 760 200 760 180 Q 760 160 760 139 Q 760 120 760 100 Q 760 80 760 59 Q 760 40 760 20 Q 760 0 740 0 Q 720 0 699 0 Q 680 0 660 0 Q 640 0 619 0 Q 600 0 580 0 Q 560 0 540 0 Q 520 0 499 0 Q 480 0 460 0 Q 440 0 419 0 Q 400 0 380 0 Q 360 0 340 0 Q 320 0 299 0 Q 280 0 260 0 Q 240 0 220 0 Q 200 0 179 0 Q 160 0 140 0 Q 120 0 100 0 Q 80 0 59 0 Q 40 0 20 0 Z M 45 185 Q 50 170 60 160 Q 70 150 80 140 Q 90 130 105 125 Q 120 120 140 120 Q 160 120 175 115 Q 190 110 200 100 Q 210 90 220 80 Q 230 70 240 60 Q 250 50 265 45 Q 280 40 300 40 Q 320 40 340 40 Q 360 40 380 40 Q 400 40 420 40 Q 440 40 460 40 Q 480 40 495 45 Q 510 50 520 60 Q 530 70 540 79 Q 550 90 560 100 Q 570 110 585 115 Q 600 120 620 120 Q 640 120 655 124 Q 670 130 680 140 Q 690 150 700 160 Q 710 170 715 184 Q 720 200 715 215 Q 710 230 700 240 Q 690 250 685 265 Q 680 280 675 294 Q 670 310 660 320 Q 650 330 645 345 Q 640 360 635 375 Q 630 390 620 400 Q 610 410 605 425 Q 600 440 595 455 Q 590 470 575 475 Q 560 480 560 500 Q 560 520 565 535 Q 570 550 580 550 Q 590 550 600 540 Q 610 530 625 525 Q 640 520 655 525 Q 670 530 680 540 Q 690 550 700 560 Q 710 570 715 585 Q 720 600 720 620 Q 720 640 715 655 Q 710 670 700 680 Q 690 690 680 700 Q 670 710 660 720 Q 650 730 640 740 Q 630 750 620 760 Q 610 770 599 780 Q 590 790 575 795 Q 560 800 545 795 Q 530 790 519 780 Q 510 770 500 760 Q 490 750 485 735 Q 480 720 475 705 Q 470 690 460 690 Q 450 690 440 700 Q 430 710 415 715 Q 400 720 379 720 Q 360 720 345 715 Q 330 710 320 700 Q 310 690 299 690 Q 290 690 285 705 Q 280 720 275 735 Q 270 750 259 760 Q 250 770 240 780 Q 230 790 215 795 Q 200 800 185 795 Q 170 790 159 780 Q 150 770 140 760 Q 130 750 120 740 Q 110 730 99 720 Q 90 710 80 700 Q 70 690 60 680 Q 50 670 44 655 Q 40 640 40 620 Q 40 600 44 585 Q 50 570 60 560 Q 70 550 80 540 Q 90 530 105 525 Q 120 520 134 525 Q 150 530 160 540 Q 170 550 180 550 Q 190 550 195 535 Q 200 520 195 504 Q 190 490 180 480 Q 170 470 165 455 Q 160 440 154 424 Q 150 410 140 400 Q 130 390 125 375 Q 120 360 120 339 Q 120 320 115 305 Q 110 290 100 280 Q 90 270 80 260 Q 70 250 59 239 Q 50 230 45 215 Q 40 200 44 185 Z" fill="rgb(203,234,206)" stroke="rgb(203,234,206)" /><path d="M 540 600 Q 520 600 520 620 Q 520 640 520 660 Q 520 680 535 675 Q 550 670 555 655 Q 560 640 560 620 Q 560 600 540 600 Z" fill="rgb(120,136,120)" stroke="rgb(120,136,120)" /><path d="M 140 240 Q 120 240 125 255 Q 130 270 145 275 Q 160 280 180 280 Q 200 280 200 260 Q 200 240 180 240 Q 160 240 140 240 Z" fill="rgb(144,0,112)" stroke="rgb(144,0,112)" /><path d="M 580 280 Q 560 280 560 300 Q 560 320 580 320 Q 600 320 600 300 Q 600 280 580 280 Z" fill="rgb(200,224,200)" stroke="rgb(200,224,200)" /><path d="M 500 600 Q 480 600 480 620 Q 480 640 500 640 Q 520 640 520 620 Q 520 600 500 600 Z" fill="rgb(200,224,200)" stroke="rgb(200,224,200)" /><path d="M 180 280 Q 160 280 160 300 Q 160 320 180 320 Q 200 320 200 300 Q 200 280 180 280 Z" fill="rgb(200,224,200)" stroke="rgb(200,224,200)" /><path d="M 260 480 Q 240 480 240 500 Q 240 520 255 515 Q 270 510 275 495 Q 280 480 260 480 Z" fill="rgb(0,0,80)" stroke="rgb(0,0,80)" /><path d="M 45 184 Q 40 200 45 215 Q 50 230 60 240 Q 70 250 80 260 Q 90 270 99 279 Q 110 290 115 305 Q 120 320 120 340 Q 120 360 124 374 Q 130 390 140 400 Q 150 410 155 425 Q 160 440 164 454 Q 170 470 180 480 Q 190 490 195 505 Q 200 520 194 535 Q 190 550 180 550 Q 170 550 160 540 Q 150 530 134 524 Q 120 520 105 525 Q 90 530 80 540 Q 70 550 60 560 Q 50 570 44 585 Q 40 600 40 619 Q 40 640 45 655 Q 50 670 60 680 Q 70 690 79 700 Q 90 710 100 720 Q 110 730 120 740 Q 130 750 140 760 Q 150 770 159 780 Q 170 790 185 795 Q 200 800 215 795 Q 230 790 239 780 Q 250 770 260 760 Q 270 750 275 734 Q 280 720 284 705 Q 290 690 300 690 Q 310 690 320 700 Q 330 710 345 715 Q 360 720 379 720 Q 400 720 415 715 Q 430 710 440 700 Q 450 690 459 690 Q 470 690 475 705 Q 480 720 485 735 Q 490 750 500 760 Q 510 770 519 780 Q 530 790 545 795 Q 560 800 575 795 Q 590 790 599 780 Q 610 770 620 760 Q 630 750 640 739 Q 650 730 660 720 Q 670 710 680 700 Q 690 690 700 680 Q 710 670 715 654 Q 720 640 720 620 Q 720 600 715 585 Q 710 570 700 559 Q 690 550 680 540 Q 670 530 655 525 Q 640 520 625 525 Q 610 530 599 540 Q 590 550 580 550 Q 570 550 565 535 Q 560 520 539 520 Q 520 520 515 534 Q 510 550 495 555 Q 480 560 459 560 Q 440 560 440 579 Q 440 600 460 600 Q 480 600 480 620 Q 480 640 464 645 Q 450 650 440 660 Q 430 670 415 675 Q 400 680 379 680 Q 360 680 345 675 Q 330 670 320 660 Q 310 650 295 645 Q 280 640 259 640 Q 240 640 240 659 Q 240 680 240 700 Q 240 720 234 735 Q 230 750 215 755 Q 200 760 185 755 Q 170 750 160 740 Q 150 730 139 719 Q 130 710 120 700 Q 110 690 100 680 Q 90 670 84 654 Q 80 640 80 620 Q 80 600 85 585 Q 90 570 105 565 Q 120 560 134 565 Q 150 570 160 580 Q 170 590 185 595 Q 200 600 220 600 Q 240 600 259 600 Q 280 600 300 600 Q 320 600 320 580 Q 320 560 299 560 Q 280 560 265 555 Q 250 550 245 535 Q 240 520 240 499 Q 240 480 235 465 Q 230 450 220 440 Q 210 430 204 414 Q 200 400 195 385 Q 190 370 180 360 Q 170 350 164 334 Q 160 320 160 300 Q 160 280 145 275 Q 130 270 124 254 Q 120 240 105 235 Q 90 230 84 214 Q 80 200 85 185 Q 90 170 104 165 Q 120 160 140 160 Q 160 160 174 164 Q 190 170 195 185 Q 200 200 200 220 Q 200 240 214 235 Q 230 230 235 215 Q 240 200 234 184 Q 230 170 220 160 Q 210 150 210 140 Q 210 130 220 119 Q 230 110 239 100 Q 250 90 265 85 Q 280 80 300 80 Q 320 80 339 80 Q 360 80 380 80 Q 400 80 420 80 Q 440 80 459 80 Q 480 80 495 85 Q 510 90 519 99 Q 530 110 540 120 Q 550 130 550 140 Q 550 150 535 154 Q 520 160 520 180 Q 520 200 525 215 Q 530 230 544 234 Q 560 240 560 220 Q 560 200 565 184 Q 570 170 584 165 Q 600 160 620 160 Q 640 160 655 165 Q 670 170 675 184 Q 680 200 675 215 Q 670 230 655 235 Q 640 240 635 255 Q 630 270 614 275 Q 600 280 600 299 Q 600 320 595 335 Q 590 350 579 360 Q 570 370 565 384 Q 560 400 555 415 Q 550 430 539 440 Q 530 450 525 464 Q 520 480 540 480 Q 560 480 575 474 Q 590 470 595 455 Q 600 440 605 425 Q 610 410 620 400 Q 630 390 635 374 Q 640 360 645 345 Q 650 330 660 320 Q 670 310 675 295 Q 680 280 685 264 Q 690 250 700 240 Q 710 230 715 215 Q 720 200 715 184 Q 710 170 700 160 Q 690 150 680 140 Q 670 130 654 124 Q 640 120 620 120 Q 600 120 585 115 Q 570 110 560 100 Q 550 90 539 79 Q 530 70 520 60 Q 510 50 495 45 Q 480 40 459 40 Q 440 40 420 40 Q 400 40 380 40 Q 360 40 340 40 Q 320 40 299 40 Q 280 40 265 44 Q 250 50 240 60 Q 230 70 219 80 Q 210 90 200 99 Q 190 110 175 115 Q 160 120 139 120 Q 120 120 105 124 Q 90 130 80 140 Q 70 150 60 160 Q 50 170 44 185 Z" fill="rgb(0,0,0)" stroke="rgb(0,0,0)" /><path d="M 215 235 Q 200 240 200 260 Q 200 280 200 300 Q 200 320 205 335 Q 210 350 220 360 Q 230 370 240 380 Q 250 390 264 395 Q 280 400 300 400 Q 320 400 340 400 Q 360 400 380 400 Q 400 400 420 400 Q 440 400 460 400 Q 480 400 475 385 Q 470 370 455 365 Q 440 360 420 360 Q 400 360 380 360 Q 360 360 340 360 Q 320 360 299 360 Q 280 360 265 355 Q 250 350 245 335 Q 240 320 240 299 Q 240 280 245 265 Q 250 250 265 245 Q 280 240 299 240 Q 320 240 340 240 Q 360 240 380 240 Q 400 240 419 240 Q 440 240 460 240 Q 480 240 495 245 Q 510 250 515 264 Q 520 280 520 300 Q 520 320 540 320 Q 560 320 560 300 Q 560 280 560 259 Q 560 240 545 235 Q 530 230 525 214 Q 520 200 500 200 Q 480 200 460 200 Q 440 200 420 200 Q 400 200 380 200 Q 360 200 340 200 Q 320 200 299 200 Q 280 200 260 200 Q 240 200 235 215 Q 230 230 214 235 Z" fill="rgb(224,0,0)" stroke="rgb(224,0,0)" /><path d="M 285 145 Q 280 160 280 180 Q 280 200 300 200 Q 320 200 340 200 Q 360 200 380 200 Q 400 200 420 200 Q 440 200 460 200 Q 480 200 500 200 Q 520 200 520 180 Q 520 160 515 145 Q 510 130 495 125 Q 480 120 465 115 Q 450 110 445 95 Q 440 80 420 80 Q 400 80 380 80 Q 360 80 340 80 Q 320 80 315 94 Q 310 110 300 120 Q 290 130 285 145 Z" fill="rgb(248,248,248)" stroke="rgb(248,248,248)" /><path d="M 340 240 Q 320 240 320 260 Q 320 280 320 300 Q 320 320 320 340 Q 320 360 340 360 Q 360 360 380 360 Q 400 360 420 360 Q 440 360 440 340 Q 440 320 440 300 Q 440 280 440 260 Q 440 240 420 240 Q 400 240 380 240 Q 360 240 340 240 Z" fill="rgb(248,200,112)" stroke="rgb(248,200,112)" /><path d="M 420 600 Q 400 600 405 615 Q 410 630 420 630 Q 430 630 435 615 Q 440 600 420 600 Z" fill="rgb(0,72,240)" stroke="rgb(0,72,240)" /><path d="M 535 675 Q 520 680 520 700 Q 520 720 525 735 Q 530 750 545 755 Q 560 760 560 740 Q 560 720 565 705 Q 570 690 580 680 Q 590 670 600 660 Q 610 650 625 645 Q 640 640 660 640 Q 680 640 680 620 Q 680 600 675 585 Q 670 570 655 565 Q 640 560 625 565 Q 610 570 600 580 Q 590 590 575 595 Q 560 600 560 620 Q 560 640 555 655 Q 550 670 535 675 Z" fill="rgb(248,48,200)" stroke="rgb(248,48,200)" /><path d="M 85 585 Q 80 600 80 620 Q 80 640 99 640 Q 120 640 135 645 Q 150 650 160 660 Q 170 670 180 680 Q 190 690 195 705 Q 200 720 200 740 Q 200 760 215 755 Q 230 750 235 735 Q 240 720 240 700 Q 240 680 225 675 Q 210 670 205 655 Q 200 640 200 620 Q 200 600 185 595 Q 170 590 160 580 Q 150 570 135 565 Q 120 560 104 565 Q 90 570 85 585 Z" fill="rgb(248,48,200)" stroke="rgb(248,48,200)" /><path d="M 300 600 Q 280 600 280 620 Q 280 640 295 645 Q 310 650 320 660 Q 330 670 345 675 Q 360 680 379 680 Q 400 680 415 675 Q 430 670 440 660 Q 450 650 465 645 Q 480 640 480 620 Q 480 600 460 600 Q 440 600 420 600 Q 400 600 380 600 Q 360 600 340 600 Q 320 600 300 600 Z" fill="rgb(0,0,168)" stroke="rgb(0,0,168)" /><path d="M 380 480 Q 360 480 360 500 Q 360 520 360 540 Q 360 560 380 560 Q 400 560 420 560 Q 440 560 460 560 Q 480 560 495 555 Q 510 550 515 535 Q 520 520 505 515 Q 490 510 485 495 Q 480 480 460 480 Q 440 480 420 480 Q 400 480 380 480 Z" fill="rgb(0,72,240)" stroke="rgb(0,72,240)" /><path d="M 565 185 Q 560 200 560 220 Q 560 240 580 240 Q 600 240 620 240 Q 640 240 655 235 Q 670 230 675 215 Q 680 200 675 185 Q 670 170 655 165 Q 640 160 620 160 Q 600 160 585 165 Q 570 170 565 185 Z" fill="rgb(248,48,200)" stroke="rgb(248,48,200)" /><path d="M 85 185 Q 80 200 85 215 Q 90 230 105 235 Q 120 240 140 240 Q 160 240 180 240 Q 200 240 200 220 Q 200 200 195 185 Q 190 170 175 165 Q 160 160 139 160 Q 120 160 105 165 Q 90 170 85 185 Z" fill="rgb(248,48,200)" stroke="rgb(248,48,200)" /><path d="M 540 480 Q 520 480 520 500 Q 520 520 540 520 Q 560 520 560 500 Q 560 480 540 480 Z" fill="rgb(0,0,80)" stroke="rgb(0,0,80)" /><path d="M 180 320 Q 160 320 165 335 Q 170 350 180 360 Q 190 370 195 385 Q 200 400 205 415 Q 210 430 220 440 Q 230 450 235 465 Q 240 480 260 480 Q 280 480 285 465 Q 290 450 305 445 Q 320 440 320 420 Q 320 400 300 400 Q 280 400 265 395 Q 250 390 240 380 Q 230 370 220 360 Q 210 350 205 335 Q 200 320 180 320 Z" fill="rgb(168,184,168)" stroke="rgb(168,184,168)" /><path d="M 255 515 Q 240 520 245 535 Q 250 550 265 555 Q 280 560 300 560 Q 320 560 340 560 Q 360 560 360 540 Q 360 520 360 500 Q 360 480 340 480 Q 320 480 300 480 Q 280 480 275 495 Q 270 510 255 515 Z" fill="rgb(0,0,168)" stroke="rgb(0,0,168)" /><path d="M 495 395 Q 480 400 480 420 Q 480 440 480 460 Q 480 480 500 480 Q 520 480 525 465 Q 530 450 540 440 Q 550 430 555 415 Q 560 400 565 385 Q 570 370 580 360 Q 590 350 595 335 Q 600 320 580 320 Q 560 320 555 335 Q 550 350 540 360 Q 530 370 520 380 Q 510 390 495 395 Z" fill="rgb(120,136,120)" stroke="rgb(120,136,120)" /><path d="M 100 640 Q 80 640 85 655 Q 90 670 100 680 Q 110 690 120 700 Q 130 710 140 720 Q 150 730 160 740 Q 170 750 185 755 Q 200 760 200 740 Q 200 720 195 705 Q 190 690 180 680 Q 170 670 160 660 Q 150 650 135 645 Q 120 640 100 640 Z" fill="rgb(144,0,112)" stroke="rgb(144,0,112)" /><path d="M 460 240 Q 440 240 440 260 Q 440 280 440 300 Q 440 320 440 340 Q 440 360 455 365 Q 470 370 475 385 Q 480 400 495 395 Q 510 390 520 380 Q 530 370 540 360 Q 550 350 555 335 Q 560 320 540 320 Q 520 320 515 335 Q 510 350 500 350 Q 490 350 485 335 Q 480 320 480 300 Q 480 280 480 260 Q 480 240 460 240 Z" fill="rgb(0,0,0)" stroke="rgb(0,0,0)" /><path d="M 565 705 Q 560 720 560 740 Q 560 760 575 755 Q 590 750 600 740 Q 610 730 620 720 Q 630 710 640 700 Q 650 690 660 680 Q 670 670 675 655 Q 680 640 660 640 Q 640 640 625 645 Q 610 650 600 660 Q 590 670 580 680 Q 570 690 565 705 Z" fill="rgb(144,0,112)" stroke="rgb(144,0,112)" /><path d="M 260 600 Q 240 600 240 620 Q 240 640 260 640 Q 280 640 280 620 Q 280 600 260 600 Z" fill="rgb(200,224,200)" stroke="rgb(200,224,200)" /><path d="M 220 120 Q 210 130 210 140 Q 210 150 220 160 Q 230 170 235 185 Q 240 200 260 200 Q 280 200 280 180 Q 280 160 285 145 Q 290 130 300 120 Q 310 110 315 95 Q 320 80 300 80 Q 280 80 265 85 Q 250 90 240 100 Q 230 110 220 120 Z" fill="rgb(120,136,120)" stroke="rgb(120,136,120)" /><path d="M 285 465 Q 280 480 300 480 Q 320 480 340 480 Q 360 480 380 480 Q 400 480 420 480 Q 440 480 460 480 Q 480 480 480 460 Q 480 440 460 440 Q 440 440 420 440 Q 400 440 380 440 Q 360 440 340 440 Q 320 440 305 445 Q 290 450 285 465 Z" fill="rgb(0,0,0)" stroke="rgb(0,0,0)" /><path d="M 340 400 Q 320 400 320 420 Q 320 440 340 440 Q 360 440 380 440 Q 400 440 420 440 Q 440 440 460 440 Q 480 440 480 420 Q 480 400 460 400 Q 440 400 420 400 Q 400 400 380 400 Q 360 400 340 400 Z" fill="rgb(248,248,248)" stroke="rgb(248,248,248)" /><path d="M 340 560 Q 320 560 320 580 Q 320 600 340 600 Q 360 600 380 600 Q 400 600 420 600 Q 440 600 440 580 Q 440 560 420 560 Q 400 560 380 560 Q 360 560 340 560 Z" fill="rgb(248,200,112)" stroke="rgb(248,200,112)" /></svg>