<?xml version="1.0" encoding="utf-8" ?>
<svg baseProfile="full" height="100%" version="1.1" width="100%" xmlns="http://www.w3.org/2000/svg" xmlns:ev="http://www.w3.org/2001/xml-events" xmlns:xlink="http://www.w3.org/1999/xlink"><defs /><path d="M 665 845 Q 650 850 650 860 Q 650 870 665 875 Q 680 880 680 860 Q 680 840 665 845 Z" fill="rgb(255,251,255)" stroke="rgb(255,251,255)" /><path d="M 285 1265 Q 280 1280 300 1280 Q 320 1280 315 1265 Q 310 1250 300 1250 Q 290 1250 285 1265 Z" fill="rgb(222,251,198)" stroke="rgb(222,251,198)" /><path d="M 925 1305 Q 920 1320 925 1335 Q 930 1350 945 1355 Q 960 1360 975 1355 Q 990 1350 995 1335 Q 1000 1320 1000 1300 Q 1000 1280 980 1280 Q 960 1280 945 1285 Q 930 1290 925 1305 Z" fill="rgb(91,130,0)" stroke="rgb(91,130,0)" /><path d="M 975 1405 Q 960 1400 960 1420 Q 960 1440 965 1455 Q 970 1470 980 1470 Q 990 1470 995 1455 Q 1000 1440 995 1425 Q 990 1410 975 1405 Z" fill="rgb(255,146,49)" stroke="rgb(255,146,49)" /><path d="M 1340 760 Q 1320 760 1325 775 Q 1330 790 1345 795 Q 1360 800 1375 805 Q 1390 810 1400 820 Q 1410 830 1425 835 Q 1440 840 1435 825 Q 1430 810 1420 800 Q 1410 790 1405 775 Q 1400 760 1380 760 Q 1360 760 1340 760 Z" fill="rgb(99,194,0)" stroke="rgb(99,194,0)" /><path d="M 1020 760 Q 1000 760 1000 780 Q 1000 800 1015 805 Q 1030 810 1040 820 Q 1050 830 1065 835 Q 1080 840 1100 840 Q 1120 840 1140 840 Q 1160 840 1180 840 Q 1200 840 1215 845 Q 1230 850 1240 860 Q 1250 870 1260 880 Q 1270 890 1280 900 Q 1290 910 1300 920 Q 1310 930 1320 940 Q 1330 950 1340 960 Q 1350 970 1360 980 Q 1370 990 1380 1000 Q 1390 1010 1395 1025 Q 1400 1040 1405 1055 Q 1410 1070 1420 1080 Q 1430 1090 1435 1105 Q 1440 1120 1440 1140 Q 1440 1160 1440 1180 Q 1440 1200 1440 1220 Q 1440 1240 1440 1260 Q 1440 1280 1440 1300 Q 1440 1320 1460 1320 Q 1480 1320 1480 1300 Q 1480 1280 1480 1260 Q 1480 1240 1480 1220 Q 1480 1200 1480 1180 Q 1480 1160 1480 1140 Q 1480 1120 1475 1105 Q 1470 1090 1460 1080 Q 1450 1070 1445 1055 Q 1440 1040 1435 1025 Q 1430 1010 1420 1000 Q 1410 990 1400 980 Q 1390 970 1380 960 Q 1370 950 1360 940 Q 1350 930 1340 920 Q 1330 910 1320 900 Q 1310 890 1300 880 Q 1290 870 1280 860 Q 1270 850 1260 840 Q 1250 830 1240 820 Q 1230 810 1215 805 Q 1200 800 1180 800 Q 1160 800 1145 795 Q 1130 790 1130 780 Q 1130 770 1145 765 Q 1160 760 1160 740 Q 1160 720 1155 705 Q 1150 690 1135 685 Q 1120 680 1105 685 Q 1090 690 1085 705 Q 1080 720 1075 735 Q 1070 750 1055 755 Q 1040 760 1020 760 Z" fill="rgb(222,251,198)" stroke="rgb(222,251,198)" /><path d="M 1175 1435 Q 1160 1440 1165 1455 Q 1170 1470 1180 1470 Q 1190 1470 1200 1460 Q 1210 1450 1220 1440 Q 1230 1430 1230 1420 Q 1230 1410 1215 1405 Q 1200 1400 1195 1415 Q 1190 1430 1175 1435 Z" fill="rgb(255,146,49)" stroke="rgb(255,146,49)" /><path d="M 1325 745 Q 1320 760 1340 760 Q 1360 760 1380 760 Q 1400 760 1395 745 Q 1390 730 1375 725 Q 1360 720 1345 725 Q 1330 730 1325 745 Z" fill="rgb(222,251,198)" stroke="rgb(222,251,198)" /><path d="M 525 1305 Q 520 1320 535 1315 Q 550 1310 555 1295 Q 560 1280 545 1285 Q 530 1290 525 1305 Z" fill="rgb(99,194,0)" stroke="rgb(99,194,0)" /><path d="M 305 1405 Q 290 1410 290 1420 Q 290 1430 305 1435 Q 320 1440 320 1420 Q 320 1400 305 1405 Z" fill="rgb(255,251,255)" stroke="rgb(255,251,255)" /><path d="M 460 600 Q 440 600 445 615 Q 450 630 465 635 Q 480 640 495 635 Q 510 630 520 620 Q 530 610 540 600 Q 550 590 560 580 Q 570 570 585 565 Q 600 560 614 555 Q 630 550 640 540 Q 650 530 665 525 Q 680 520 695 515 Q 710 510 715 495 Q 720 480 700 480 Q 680 480 665 485 Q 650 490 640 500 Q 630 510 615 515 Q 600 520 580 520 Q 560 520 540 520 Q 520 520 520 540 Q 520 560 515 575 Q 510 590 495 595 Q 480 600 460 600 Z" fill="rgb(173,73,41)" stroke="rgb(173,73,41)" /><path d="M 1145 765 Q 1130 770 1130 780 Q 1130 790 1145 795 Q 1160 800 1180 800 Q 1200 800 1215 805 Q 1230 810 1240 820 Q 1250 830 1260 840 Q 1270 850 1280 860 Q 1290 870 1300 880 Q 1310 890 1320 900 Q 1330 910 1340 920 Q 1350 930 1360 940 Q 1370 950 1380 960 Q 1390 970 1400 980 Q 1410 990 1420 1000 Q 1430 1010 1435 1025 Q 1440 1040 1445 1055 Q 1450 1070 1460 1080 Q 1470 1090 1475 1105 Q 1480 1120 1480 1140 Q 1480 1160 1480 1180 Q 1480 1200 1480 1220 Q 1480 1240 1480 1260 Q 1480 1280 1480 1300 Q 1480 1320 1500 1320 Q 1520 1320 1520 1300 Q 1520 1280 1520 1260 Q 1520 1240 1520 1220 Q 1520 1200 1520 1180 Q 1520 1160 1520 1140 Q 1520 1120 1515 1105 Q 1510 1090 1500 1080 Q 1490 1070 1485 1055 Q 1480 1040 1475 1025 Q 1470 1010 1460 1000 Q 1450 990 1445 975 Q 1440 960 1435 945 Q 1430 930 1420 920 Q 1410 910 1400 900 Q 1390 890 1380 880 Q 1370 870 1360 860 Q 1350 850 1340 840 Q 1330 830 1320 820 Q 1310 810 1295 805 Q 1280 800 1265 795 Q 1250 790 1240 780 Q 1230 770 1215 765 Q 1200 760 1180 760 Q 1160 760 1145 765 Z" fill="rgb(255,251,255)" stroke="rgb(255,251,255)" /><path d="M 1065 1405 Q 1050 1410 1050 1420 Q 1050 1430 1065 1435 Q 1080 1440 1080 1420 Q 1080 1400 1065 1405 Z" fill="rgb(255,251,255)" stroke="rgb(255,251,255)" /><path d="M 255 525 Q 240 520 240 540 Q 240 560 255 565 Q 270 570 275 585 Q 280 600 300 600 Q 320 600 315 585 Q 310 570 300 560 Q 290 550 280 540 Q 270 530 255 525 Z" fill="rgb(173,73,41)" stroke="rgb(173,73,41)" /><path d="M 1485 625 Q 1480 640 1480 660 Q 1480 680 1495 685 Q 1510 690 1515 705 Q 1520 720 1525 735 Q 1530 750 1540 760 Q 1550 770 1560 780 Q 1570 790 1585 795 Q 1600 800 1600 780 Q 1600 760 1605 745 Q 1610 730 1620 720 Q 1630 710 1635 695 Q 1640 680 1640 660 Q 1640 640 1635 625 Q 1630 610 1620 610 Q 1610 610 1600 620 Q 1590 630 1580 640 Q 1570 650 1560 660 Q 1550 670 1540 670 Q 1530 670 1525 655 Q 1520 640 1525 625 Q 1530 610 1540 600 Q 1550 590 1550 580 Q 1550 570 1540 570 Q 1530 570 1520 580 Q 1510 590 1500 600 Q 1490 610 1485 625 Z" fill="rgb(255,251,255)" stroke="rgb(255,251,255)" /><path d="M 1780 1160 Q 1760 1160 1760 1180 Q 1760 1200 1760 1220 Q 1760 1240 1780 1240 Q 1800 1240 1815 1235 Q 1830 1230 1840 1220 Q 1850 1210 1865 1205 Q 1880 1200 1895 1195 Q 1910 1190 1910 1180 Q 1910 1170 1895 1165 Q 1880 1160 1860 1160 Q 1840 1160 1820 1160 Q 1800 1160 1780 1160 Z" fill="rgb(255,251,255)" stroke="rgb(255,251,255)" /><path d="M 805 265 Q 800 280 805 295 Q 810 310 825 315 Q 840 320 855 315 Q 870 310 875 295 Q 880 280 880 260 Q 880 240 880 220 Q 880 200 885 185 Q 890 170 905 165 Q 920 160 915 145 Q 910 130 900 120 Q 890 110 880 100 Q 870 90 860 90 Q 850 90 845 105 Q 840 120 840 140 Q 840 160 840 180 Q 840 200 835 215 Q 830 230 820 240 Q 810 250 805 265 Z" fill="rgb(255,251,255)" stroke="rgb(255,251,255)" /><path d="M 885 345 Q 880 360 900 360 Q 920 360 925 345 Q 930 330 940 320 Q 950 310 955 295 Q 960 280 960 260 Q 960 240 945 245 Q 930 250 925 265 Q 920 280 915 295 Q 910 310 900 320 Q 890 330 885 345 Z" fill="rgb(99,194,0)" stroke="rgb(99,194,0)" /><path d="M 300 1280 Q 280 1280 280 1300 Q 280 1320 295 1315 Q 310 1310 315 1295 Q 320 1280 300 1280 Z" fill="rgb(99,194,0)" stroke="rgb(99,194,0)" /><path d="M 972 345 Q 967 360 972 373 Q 977 387 983 399 Q 989 411 996 424 Q 1002 437 1009 451 Q 1017 466 1024 476 Q 1031 486 1038 497 Q 1045 507 1053 519 Q 1060 530 1060 539 Q 1060 549 1060 557 Q 1059 566 1059 576 Q 1060 587 1069 593 Q 1079 599 1092 608 Q 1105 616 1117 624 Q 1128 632 1138 639 Q 1149 646 1161 655 Q 1174 663 1188 672 Q 1201 680 1212 686 Q 1223 693 1234 699 Q 1244 706 1256 704 Q 1267 702 1269 690 Q 1271 678 1266 665 Q 1261 653 1256 641 Q 1251 629 1246 615 Q 1240 601 1234 587 Q 1228 572 1222 559 Q 1217 546 1212 531 Q 1206 517 1200 500 Q 1194 483 1188 468 Q 1183 453 1175 442 Q 1168 431 1160 421 Q 1153 411 1145 399 Q 1137 387 1132 373 Q 1126 359 1132 346 Q 1137 333 1146 324 Q 1155 315 1164 307 Q 1173 298 1185 286 Q 1197 275 1192 267 Q 1186 259 1178 260 Q 1171 261 1159 265 Q 1147 268 1134 271 Q 1122 275 1102 280 Q 1082 286 1068 279 Q 1054 273 1056 262 Q 1059 252 1067 243 Q 1075 235 1084 227 Q 1093 218 1105 206 Q 1118 194 1112 187 Q 1106 179 1099 180 Q 1091 182 1082 184 Q 1072 186 1057 189 Q 1041 192 1030 186 Q 1018 181 1006 171 Q 994 162 986 168 Q 979 174 980 181 Q 982 188 984 199 Q 986 209 989 225 Q 992 240 993 259 Q 993 279 988 293 Q 983 308 980 319 Q 977 329 972 345 Z" fill="rgb(255,146,49)" stroke="rgb(255,146,49)" /><path d="M 165 745 Q 160 760 180 760 Q 200 760 205 745 Q 210 730 220 720 Q 230 710 230 700 Q 230 690 220 690 Q 210 690 200 700 Q 190 710 180 720 Q 170 730 165 745 Z" fill="rgb(255,251,255)" stroke="rgb(255,251,255)" /><path d="M 140 1000 Q 120 1000 125 1015 Q 130 1030 140 1040 Q 150 1050 160 1060 Q 170 1070 180 1070 Q 190 1070 195 1055 Q 200 1040 200 1020 Q 200 1000 180 1000 Q 160 1000 139 1000 Z" fill="rgb(255,251,255)" stroke="rgb(255,251,255)" /><path d="M 20 0 Q 0 0 0 20 Q 0 40 0 60 Q 0 80 0 100 Q 0 120 0 140 Q 0 160 0 180 Q 0 200 0 219 Q 0 240 0 260 Q 0 280 0 300 Q 0 320 0 340 Q 0 360 0 380 Q 0 400 0 420 Q 0 440 0 459 Q 0 480 0 500 Q 0 520 0 540 Q 0 560 0 580 Q 0 600 0 620 Q 0 640 0 659 Q 0 680 0 700 Q 0 720 0 740 Q 0 760 0 780 Q 0 800 0 820 Q 0 840 0 860 Q 0 880 0 899 Q 0 920 0 940 Q 0 960 0 980 Q 0 1000 0 1020 Q 0 1040 0 1060 Q 0 1080 0 1099 Q 0 1120 0 1140 Q 0 1160 0 1180 Q 0 1200 0 1220 Q 0 1240 0 1260 Q 0 1280 0 1300 Q 0 1320 0 1339 Q 0 1360 0 1380 Q 0 1400 0 1420 Q 0 1440 0 1460 Q 0 1480 0 1500 Q 0 1520 0 1540 Q 0 1560 19 1560 Q 40 1560 60 1560 Q 80 1560 100 1560 Q 120 1560 140 1560 Q 160 1560 180 1560 Q 200 1560 219 1560 Q 240 1560 260 1560 Q 280 1560 300 1560 Q 320 1560 340 1560 Q 360 1560 380 1560 Q 400 1560 420 1560 Q 440 1560 459 1560 Q 480 1560 500 1560 Q 520 1560 540 1560 Q 560 1560 580 1560 Q 600 1560 620 1560 Q 640 1560 660 1560 Q 680 1560 699 1560 Q 720 1560 740 1560 Q 760 1560 780 1560 Q 800 1560 820 1560 Q 840 1560 860 1560 Q 880 1560 899 1560 Q 920 1560 940 1560 Q 960 1560 980 1560 Q 1000 1560 1020 1560 Q 1040 1560 1060 1560 Q 1080 1560 1100 1560 Q 1120 1560 1139 1560 Q 1160 1560 1180 1560 Q 1200 1560 1220 1560 Q 1240 1560 1260 1560 Q 1280 1560 1300 1560 Q 1320 1560 1339 1560 Q 1360 1560 1380 1560 Q 1400 1560 1420 1560 Q 1440 1560 1460 1560 Q 1480 1560 1500 1560 Q 1520 1560 1540 1560 Q 1560 1560 1580 1560 Q 1600 1560 1620 1560 Q 1640 1560 1660 1560 Q 1680 1560 1700 1560 Q 1720 1560 1740 1560 Q 1760 1560 1780 1560 Q 1800 1560 1819 1560 Q 1840 1560 1860 1560 Q 1880 1560 1900 1560 Q 1920 1560 1940 1560 Q 1960 1560 1960 1540 Q 1960 1520 1960 1500 Q 1960 1480 1960 1460 Q 1960 1440 1960 1420 Q 1960 1400 1960 1380 Q 1960 1360 1960 1340 Q 1960 1320 1960 1300 Q 1960 1280 1960 1259 Q 1960 1240 1960 1220 Q 1960 1200 1960 1180 Q 1960 1160 1960 1140 Q 1960 1120 1960 1100 Q 1960 1080 1960 1060 Q 1960 1040 1960 1020 Q 1960 1000 1960 980 Q 1960 960 1960 939 Q 1960 920 1960 900 Q 1960 880 1960 860 Q 1960 840 1960 819 Q 1960 800 1960 780 Q 1960 760 1960 740 Q 1960 720 1960 700 Q 1960 680 1960 660 Q 1960 640 1960 620 Q 1960 600 1960 580 Q 1960 560 1960 540 Q 1960 520 1960 499 Q 1960 480 1960 460 Q 1960 440 1960 420 Q 1960 400 1960 379 Q 1960 360 1960 340 Q 1960 320 1960 300 Q 1960 280 1960 260 Q 1960 240 1960 220 Q 1960 200 1960 180 Q 1960 160 1960 140 Q 1960 120 1960 100 Q 1960 80 1960 59 Q 1960 40 1960 20 Q 1960 0 1940 0 Q 1920 0 1899 0 Q 1880 0 1860 0 Q 1840 0 1820 0 Q 1800 0 1780 0 Q 1760 0 1740 0 Q 1720 0 1700 0 Q 1680 0 1660 0 Q 1640 0 1620 0 Q 1600 0 1580 0 Q 1560 0 1540 0 Q 1520 0 1500 0 Q 1480 0 1460 0 Q 1440 0 1419 0 Q 1400 0 1380 0 Q 1360 0 1340 0 Q 1320 0 1300 0 Q 1280 0 1260 0 Q 1240 0 1220 0 Q 1200 0 1180 0 Q 1160 0 1139 0 Q 1120 0 1100 0 Q 1080 0 1060 0 Q 1040 0 1020 0 Q 1000 0 979 0 Q 960 0 940 0 Q 920 0 900 0 Q 880 0 860 0 Q 840 0 820 0 Q 800 0 780 0 Q 760 0 740 0 Q 720 0 699 0 Q 680 0 660 0 Q 640 0 620 0 Q 600 0 580 0 Q 560 0 540 0 Q 520 0 499 0 Q 480 0 460 0 Q 440 0 420 0 Q 400 0 380 0 Q 360 0 340 0 Q 320 0 300 0 Q 280 0 259 0 Q 240 0 220 0 Q 200 0 180 0 Q 160 0 140 0 Q 120 0 100 0 Q 80 0 60 0 Q 40 0 19 0 Z M 45 785 Q 50 770 60 760 Q 70 750 75 735 Q 80 720 85 705 Q 90 690 100 680 Q 110 670 120 660 Q 130 650 140 640 Q 150 630 155 615 Q 160 600 160 580 Q 160 560 155 545 Q 150 530 139 520 Q 130 510 120 500 Q 110 490 100 480 Q 90 470 90 460 Q 90 450 100 440 Q 110 430 120 420 Q 130 410 139 400 Q 150 390 160 380 Q 170 370 179 360 Q 190 350 200 340 Q 210 330 219 320 Q 230 310 235 295 Q 240 280 240 259 Q 240 240 240 220 Q 240 200 245 185 Q 250 170 260 159 Q 270 150 275 135 Q 280 120 285 104 Q 290 90 299 80 Q 310 70 320 60 Q 330 50 340 50 Q 350 50 360 59 Q 370 70 380 80 Q 390 90 395 104 Q 400 120 400 140 Q 400 160 405 175 Q 410 190 425 195 Q 440 200 455 195 Q 470 190 480 180 Q 490 170 500 160 Q 510 150 520 140 Q 530 130 540 130 Q 550 130 560 139 Q 570 150 580 150 Q 590 150 600 140 Q 610 130 620 120 Q 630 110 640 99 Q 650 90 660 80 Q 670 70 680 60 Q 690 50 700 50 Q 710 50 720 60 Q 730 70 740 80 Q 750 90 760 100 Q 770 110 780 110 Q 790 110 795 95 Q 800 80 805 65 Q 810 50 825 45 Q 840 40 855 45 Q 870 50 880 59 Q 890 70 900 80 Q 910 90 920 100 Q 930 110 945 115 Q 960 120 975 125 Q 990 130 1000 139 Q 1010 150 1025 155 Q 1040 160 1055 155 Q 1070 150 1080 140 Q 1090 130 1100 130 Q 1110 130 1119 139 Q 1130 150 1140 160 Q 1150 170 1160 180 Q 1170 190 1179 199 Q 1190 210 1200 220 Q 1210 230 1219 239 Q 1230 250 1230 260 Q 1230 270 1220 280 Q 1210 290 1200 299 Q 1190 310 1180 320 Q 1170 330 1165 344 Q 1160 360 1165 375 Q 1170 390 1180 390 Q 1190 390 1199 380 Q 1210 370 1220 370 Q 1230 370 1239 379 Q 1250 390 1260 400 Q 1270 410 1270 420 Q 1270 430 1260 439 Q 1250 450 1245 465 Q 1240 480 1240 499 Q 1240 520 1245 535 Q 1250 550 1265 555 Q 1280 560 1299 560 Q 1320 560 1320 539 Q 1320 520 1325 505 Q 1330 490 1340 479 Q 1350 470 1355 455 Q 1360 440 1365 425 Q 1370 410 1380 410 Q 1390 410 1395 424 Q 1400 440 1400 460 Q 1400 480 1400 500 Q 1400 520 1400 539 Q 1400 560 1400 580 Q 1400 600 1400 619 Q 1400 640 1405 655 Q 1410 670 1419 670 Q 1430 670 1440 660 Q 1450 650 1465 645 Q 1480 640 1485 625 Q 1490 610 1500 599 Q 1510 590 1520 580 Q 1530 570 1540 570 Q 1550 570 1550 580 Q 1550 590 1540 599 Q 1530 610 1525 625 Q 1520 640 1525 654 Q 1530 670 1540 670 Q 1550 670 1560 660 Q 1570 650 1580 640 Q 1590 630 1600 619 Q 1610 610 1620 610 Q 1630 610 1635 625 Q 1640 640 1640 660 Q 1640 680 1635 694 Q 1630 710 1620 720 Q 1610 730 1605 744 Q 1600 760 1600 780 Q 1600 800 1605 815 Q 1610 830 1625 835 Q 1640 840 1645 824 Q 1650 810 1665 805 Q 1680 800 1695 805 Q 1710 810 1710 820 Q 1710 830 1700 839 Q 1690 850 1680 860 Q 1670 870 1655 875 Q 1640 880 1640 900 Q 1640 920 1660 920 Q 1680 920 1695 915 Q 1710 910 1720 900 Q 1730 890 1745 885 Q 1760 880 1775 875 Q 1790 870 1800 860 Q 1810 850 1825 845 Q 1840 840 1855 845 Q 1870 850 1870 860 Q 1870 870 1860 880 Q 1850 890 1840 900 Q 1830 910 1820 920 Q 1810 930 1800 940 Q 1790 950 1780 960 Q 1770 970 1760 980 Q 1750 990 1735 995 Q 1720 1000 1720 1020 Q 1720 1040 1720 1059 Q 1720 1080 1735 1075 Q 1750 1070 1760 1060 Q 1770 1050 1785 1045 Q 1800 1040 1820 1040 Q 1840 1040 1855 1045 Q 1870 1050 1870 1060 Q 1870 1070 1855 1075 Q 1840 1080 1825 1085 Q 1810 1090 1800 1100 Q 1790 1110 1775 1115 Q 1760 1120 1739 1120 Q 1720 1120 1720 1140 Q 1720 1160 1740 1160 Q 1760 1160 1780 1160 Q 1800 1160 1819 1160 Q 1840 1160 1860 1160 Q 1880 1160 1895 1165 Q 1910 1170 1910 1180 Q 1910 1190 1895 1195 Q 1880 1200 1865 1205 Q 1850 1210 1840 1220 Q 1830 1230 1815 1235 Q 1800 1240 1780 1240 Q 1760 1240 1755 1255 Q 1750 1270 1735 1275 Q 1720 1280 1715 1295 Q 1710 1310 1695 1315 Q 1680 1320 1660 1320 Q 1640 1320 1620 1320 Q 1600 1320 1580 1320 Q 1560 1320 1539 1320 Q 1520 1320 1500 1320 Q 1480 1320 1460 1320 Q 1440 1320 1420 1320 Q 1400 1320 1380 1320 Q 1360 1320 1339 1320 Q 1320 1320 1300 1320 Q 1280 1320 1280 1340 Q 1280 1360 1280 1380 Q 1280 1400 1275 1415 Q 1270 1430 1259 1440 Q 1250 1450 1240 1460 Q 1230 1470 1220 1480 Q 1210 1490 1200 1500 Q 1190 1510 1180 1510 Q 1170 1510 1159 1500 Q 1150 1490 1140 1490 Q 1130 1490 1120 1500 Q 1110 1510 1100 1510 Q 1090 1510 1080 1500 Q 1070 1490 1059 1490 Q 1050 1490 1040 1500 Q 1030 1510 1015 1515 Q 1000 1520 985 1515 Q 970 1510 959 1500 Q 950 1490 940 1480 Q 930 1470 920 1460 Q 910 1450 900 1440 Q 890 1430 885 1415 Q 880 1400 880 1379 Q 880 1360 875 1345 Q 870 1330 855 1325 Q 840 1320 820 1320 Q 800 1320 780 1320 Q 760 1320 739 1320 Q 720 1320 700 1320 Q 680 1320 675 1335 Q 670 1350 660 1360 Q 650 1370 645 1385 Q 640 1400 640 1420 Q 640 1440 640 1460 Q 640 1480 635 1495 Q 630 1510 615 1515 Q 600 1520 585 1515 Q 570 1510 559 1500 Q 550 1490 540 1490 Q 530 1490 520 1500 Q 510 1510 495 1515 Q 480 1520 465 1515 Q 450 1510 439 1500 Q 430 1490 420 1490 Q 410 1490 400 1500 Q 390 1510 375 1515 Q 360 1520 345 1515 Q 330 1510 319 1500 Q 310 1490 300 1480 Q 290 1470 280 1460 Q 270 1450 260 1440 Q 250 1430 245 1415 Q 240 1400 240 1379 Q 240 1360 240 1340 Q 240 1320 240 1300 Q 240 1280 245 1265 Q 250 1250 259 1240 Q 270 1230 275 1214 Q 280 1200 280 1180 Q 280 1160 280 1140 Q 280 1120 285 1105 Q 290 1090 299 1080 Q 310 1070 315 1054 Q 320 1040 315 1025 Q 310 1010 295 1005 Q 280 1000 265 1005 Q 250 1010 245 1024 Q 240 1040 240 1060 Q 240 1080 235 1095 Q 230 1110 215 1115 Q 200 1120 185 1115 Q 170 1110 160 1100 Q 150 1090 139 1079 Q 130 1070 120 1060 Q 110 1050 100 1040 Q 90 1030 85 1015 Q 80 1000 75 985 Q 70 970 59 959 Q 50 950 45 935 Q 40 920 40 900 Q 40 880 40 860 Q 40 840 40 820 Q 40 800 45 784 Z" fill="rgb(155,145,161)" stroke="rgb(155,145,161)" /><path d="M 493 226 Q 488 239 493 251 Q 498 263 510 266 Q 522 270 541 270 Q 559 271 573 267 Q 588 263 599 260 Q 611 257 626 253 Q 642 248 662 246 Q 682 244 700 242 Q 717 240 735 238 Q 753 236 768 231 Q 784 226 787 213 Q 790 200 785 189 Q 780 178 771 170 Q 763 163 751 153 Q 739 143 735 133 Q 730 122 723 108 Q 716 93 706 97 Q 696 101 690 109 Q 684 117 673 130 Q 663 143 650 149 Q 637 155 625 161 Q 614 166 601 172 Q 588 178 580 179 Q 571 179 563 180 Q 554 180 544 181 Q 533 182 525 189 Q 517 196 508 205 Q 498 213 493 226 Z" fill="rgb(255,146,49)" stroke="rgb(255,146,49)" /><path d="M 415 1315 Q 400 1320 405 1335 Q 410 1350 425 1355 Q 440 1360 455 1355 Q 470 1350 475 1335 Q 480 1320 475 1305 Q 470 1290 455 1285 Q 440 1280 435 1295 Q 430 1310 415 1315 Z" fill="rgb(91,130,0)" stroke="rgb(91,130,0)" /><path d="M 335 1405 Q 320 1400 320 1420 Q 320 1440 325 1455 Q 330 1470 340 1470 Q 350 1470 355 1455 Q 360 1440 355 1425 Q 350 1410 335 1405 Z" fill="rgb(255,146,49)" stroke="rgb(255,146,49)" /><path d="M 791 555 Q 781 564 784 573 Q 787 581 794 590 Q 802 599 808 606 Q 815 614 827 629 Q 839 643 845 636 Q 852 629 850 622 Q 849 616 843 607 Q 837 598 831 589 Q 826 580 813 563 Q 801 546 791 555 Z" fill="rgb(255,251,255)" stroke="rgb(255,251,255)" /><path d="M 44 785 Q 40 800 374 1044 Q 710 1290 700 1280 Q 690 1270 680 1260 Q 670 1250 660 1250 Q 650 1250 640 1260 Q 630 1270 614 1275 Q 600 1280 580 1280 Q 560 1280 545 1285 Q 530 1290 525 1305 Q 520 1320 525 1335 Q 530 1350 545 1355 Q 560 1360 580 1360 Q 600 1360 614 1355 Q 630 1350 640 1340 Q 650 1330 665 1325 Q 680 1320 700 1320 Q 720 1320 740 1320 Q 760 1320 779 1320 Q 800 1320 820 1320 Q 840 1320 855 1325 Q 870 1330 875 1345 Q 880 1360 880 1380 Q 880 1400 885 1415 Q 890 1430 899 1440 Q 910 1450 920 1460 Q 930 1470 940 1480 Q 950 1490 960 1500 Q 970 1510 985 1515 Q 1000 1520 1015 1515 Q 1030 1510 1039 1500 Q 1050 1490 1060 1490 Q 1070 1490 1080 1500 Q 1090 1510 1100 1510 Q 1110 1510 1120 1500 Q 1130 1490 1139 1490 Q 1150 1490 1160 1500 Q 1170 1510 1180 1510 Q 1190 1510 1200 1500 Q 1210 1490 1220 1480 Q 1230 1470 1240 1460 Q 1250 1450 1259 1440 Q 1270 1430 1275 1415 Q 1280 1400 1280 1380 Q 1280 1360 1280 1340 Q 1280 1320 1280 1300 Q 1280 1280 1275 1264 Q 1270 1250 1260 1240 Q 1250 1230 1240 1220 Q 1230 1210 1215 1205 Q 1200 1200 1185 1205 Q 1170 1210 1160 1220 Q 1150 1230 1139 1230 Q 1130 1230 1120 1220 Q 1110 1210 1100 1200 Q 1090 1190 1080 1180 Q 1070 1170 1060 1160 Q 1050 1150 1045 1134 Q 1040 1120 1040 1100 Q 1040 1080 1045 1065 Q 1050 1050 1060 1040 Q 1070 1030 1080 1020 Q 1090 1010 1105 1005 Q 1120 1000 1140 1000 Q 1160 1000 1179 1000 Q 1200 1000 1215 1005 Q 1230 1010 1240 1020 Q 1250 1030 1260 1040 Q 1270 1050 1280 1060 Q 1290 1070 1300 1080 Q 1310 1090 1315 1104 Q 1320 1120 1315 1135 Q 1310 1150 1300 1150 Q 1290 1150 1280 1140 Q 1270 1130 1254 1124 Q 1240 1120 1220 1120 Q 1200 1120 1180 1120 Q 1160 1120 1140 1120 Q 1120 1120 1105 1125 Q 1090 1130 1090 1140 Q 1090 1150 1105 1155 Q 1120 1160 1139 1160 Q 1160 1160 1180 1160 Q 1200 1160 1220 1160 Q 1240 1160 1255 1165 Q 1270 1170 1280 1180 Q 1290 1190 1300 1200 Q 1310 1210 1319 1219 Q 1330 1230 1340 1240 Q 1350 1250 1355 1265 Q 1360 1280 1360 1300 Q 1360 1320 1380 1320 Q 1400 1320 1400 1300 Q 1400 1280 1400 1260 Q 1400 1240 1400 1220 Q 1400 1200 1400 1180 Q 1400 1160 1400 1140 Q 1400 1120 1395 1104 Q 1390 1090 1380 1080 Q 1370 1070 1365 1055 Q 1360 1040 1355 1025 Q 1350 1010 1340 1000 Q 1330 990 1320 980 Q 1310 970 1300 959 Q 1290 950 1280 940 Q 1270 930 1255 925 Q 1240 920 1225 915 Q 1210 910 1200 900 Q 1190 890 1174 885 Q 1160 880 1140 880 Q 1120 880 1100 880 Q 1080 880 1065 875 Q 1050 870 1040 860 Q 1030 850 1020 840 Q 1010 830 1005 814 Q 1000 800 1000 780 Q 1000 760 1000 740 Q 1000 720 1005 705 Q 1010 690 1020 680 Q 1030 670 1040 660 Q 1050 650 1065 645 Q 1080 640 1094 644 Q 1110 650 1115 665 Q 1120 680 1135 685 Q 1150 690 1155 705 Q 1160 720 1160 740 Q 1160 760 1180 760 Q 1200 760 1214 764 Q 1230 770 1240 780 Q 1250 790 1265 795 Q 1280 800 1295 805 Q 1310 810 1320 820 Q 1330 830 1339 839 Q 1350 850 1360 860 Q 1370 870 1380 880 Q 1390 890 1400 900 Q 1410 910 1420 920 Q 1430 930 1435 945 Q 1440 960 1445 974 Q 1450 990 1460 1000 Q 1470 1010 1475 1025 Q 1480 1040 1485 1055 Q 1490 1070 1500 1080 Q 1510 1090 1515 1105 Q 1520 1120 1520 1139 Q 1520 1160 1520 1180 Q 1520 1200 1520 1220 Q 1520 1240 1520 1260 Q 1520 1280 1520 1300 Q 1520 1320 1539 1320 Q 1560 1320 1560 1300 Q 1560 1280 1560 1260 Q 1560 1240 1560 1220 Q 1560 1200 1560 1180 Q 1560 1160 1560 1139 Q 1560 1120 1555 1105 Q 1550 1090 1540 1080 Q 1530 1070 1525 1055 Q 1520 1040 1515 1025 Q 1510 1010 1500 1000 Q 1490 990 1485 974 Q 1480 960 1475 945 Q 1470 930 1460 920 Q 1450 910 1440 900 Q 1430 890 1420 880 Q 1410 870 1400 859 Q 1390 850 1380 840 Q 1370 830 1364 814 Q 1360 800 1345 795 Q 1330 790 1325 775 Q 1320 760 1325 744 Q 1330 730 1344 725 Q 1360 720 1375 725 Q 1390 730 1395 744 Q 1400 760 1405 775 Q 1410 790 1420 800 Q 1430 810 1434 824 Q 1440 840 1455 845 Q 1470 850 1479 859 Q 1490 870 1500 880 Q 1510 890 1520 900 Q 1530 910 1545 915 Q 1560 920 1575 925 Q 1590 930 1595 944 Q 1600 960 1600 980 Q 1600 1000 1600 1019 Q 1600 1040 1605 1055 Q 1610 1070 1620 1080 Q 1630 1090 1635 1104 Q 1640 1120 1640 1140 Q 1640 1160 1640 1179 Q 1640 1200 1640 1220 Q 1640 1240 1640 1260 Q 1640 1280 1640 1299 Q 1640 1320 1660 1320 Q 1680 1320 1694 1315 Q 1710 1310 1715 1295 Q 1720 1280 1705 1275 Q 1690 1270 1685 1255 Q 1680 1240 1680 1219 Q 1680 1200 1685 1185 Q 1690 1170 1705 1164 Q 1720 1160 1720 1140 Q 1720 1120 1720 1100 Q 1720 1080 1704 1075 Q 1690 1070 1680 1060 Q 1670 1050 1659 1039 Q 1650 1030 1645 1015 Q 1640 1000 1640 980 Q 1640 960 1640 939 Q 1640 920 1640 900 Q 1640 880 1624 874 Q 1610 870 1600 860 Q 1590 850 1580 850 Q 1570 850 1560 860 Q 1550 870 1540 870 Q 1530 870 1520 859 Q 1510 850 1500 840 Q 1490 830 1479 819 Q 1470 810 1460 800 Q 1450 790 1450 780 Q 1450 770 1460 759 Q 1470 750 1479 740 Q 1490 730 1505 724 Q 1520 720 1515 705 Q 1510 690 1495 685 Q 1480 680 1475 695 Q 1470 710 1455 715 Q 1440 720 1424 715 Q 1410 710 1400 700 Q 1390 690 1375 685 Q 1360 680 1345 675 Q 1330 670 1320 660 Q 1310 650 1300 639 Q 1290 630 1285 615 Q 1280 600 1280 579 Q 1280 560 1265 555 Q 1250 550 1245 535 Q 1240 520 1240 499 Q 1240 480 1244 465 Q 1250 450 1260 439 Q 1270 430 1270 420 Q 1270 410 1260 400 Q 1250 390 1240 380 Q 1230 370 1220 370 Q 1210 370 1199 380 Q 1190 390 1180 390 Q 1170 390 1165 375 Q 1160 360 1165 345 Q 1170 330 1180 320 Q 1190 310 1200 299 Q 1210 290 1219 280 Q 1230 270 1230 260 Q 1230 250 1220 240 Q 1210 230 1200 220 Q 1190 210 1180 200 Q 1170 190 1160 180 Q 1150 170 1139 159 Q 1130 150 1120 140 Q 1110 130 1100 130 Q 1090 130 1080 140 Q 1070 150 1055 155 Q 1040 160 1024 154 Q 1010 150 1000 140 Q 990 130 975 125 Q 960 120 945 115 Q 930 110 920 100 Q 910 90 899 79 Q 890 70 880 60 Q 870 50 855 45 Q 840 40 825 45 Q 810 50 805 65 Q 800 80 795 95 Q 790 110 780 110 Q 770 110 759 99 Q 750 90 740 80 Q 730 70 720 60 Q 710 50 700 50 Q 690 50 680 60 Q 670 70 659 80 Q 650 90 640 99 Q 630 110 620 120 Q 610 130 600 140 Q 590 150 580 150 Q 570 150 559 139 Q 550 130 540 130 Q 530 130 519 140 Q 510 150 500 159 Q 490 170 480 180 Q 470 190 455 195 Q 440 200 425 195 Q 410 190 404 174 Q 400 160 400 140 Q 400 120 395 105 Q 390 90 380 80 Q 370 70 360 60 Q 350 50 339 50 Q 330 50 320 59 Q 310 70 300 80 Q 290 90 285 105 Q 280 120 275 135 Q 270 150 260 160 Q 250 170 244 185 Q 240 200 240 219 Q 240 240 240 260 Q 240 280 235 295 Q 230 310 220 320 Q 210 330 200 340 Q 190 350 179 360 Q 170 370 160 379 Q 150 390 140 400 Q 130 410 120 420 Q 110 430 100 440 Q 90 450 90 460 Q 90 470 99 479 Q 110 490 120 500 Q 130 510 140 520 Q 150 530 155 545 Q 160 560 160 580 Q 160 600 154 615 Q 150 630 140 639 Q 130 650 120 660 Q 110 670 100 680 Q 90 690 85 705 Q 80 720 75 735 Q 70 750 59 760 Q 50 770 45 784 Z M 85 825 Q 90 810 100 800 Q 110 790 115 775 Q 120 760 125 745 Q 130 730 140 720 Q 150 710 160 700 Q 170 690 180 680 Q 190 670 200 660 Q 210 650 225 645 Q 240 640 260 640 Q 280 640 300 640 Q 320 640 335 645 Q 350 650 360 660 Q 370 670 385 675 Q 400 680 415 685 Q 430 690 440 700 Q 450 710 465 715 Q 480 720 499 720 Q 520 720 540 720 Q 560 720 575 715 Q 590 710 600 700 Q 610 690 620 680 Q 630 670 640 660 Q 650 650 660 640 Q 670 630 680 620 Q 690 610 700 600 Q 710 590 720 580 Q 730 570 740 560 Q 750 550 760 540 Q 770 530 785 525 Q 800 520 815 525 Q 830 530 840 540 Q 850 550 860 560 Q 870 570 880 580 Q 890 590 900 600 Q 910 610 915 625 Q 920 640 920 660 Q 920 680 935 685 Q 950 690 955 705 Q 960 720 960 740 Q 960 760 960 780 Q 960 800 960 820 Q 960 840 955 855 Q 950 870 940 880 Q 930 890 925 905 Q 920 920 915 935 Q 910 950 895 955 Q 880 960 865 965 Q 850 970 845 985 Q 840 1000 835 1015 Q 830 1030 815 1035 Q 800 1040 800 1060 Q 800 1080 795 1095 Q 790 1110 775 1115 Q 760 1120 755 1135 Q 750 1150 740 1160 Q 730 1170 720 1180 Q 710 1190 695 1195 Q 680 1200 665 1205 Q 650 1210 640 1220 Q 630 1230 615 1235 Q 600 1240 580 1240 Q 560 1240 540 1240 Q 520 1240 500 1240 Q 480 1240 460 1240 Q 440 1240 420 1240 Q 400 1240 385 1235 Q 370 1230 360 1220 Q 350 1210 340 1200 Q 330 1190 330 1180 Q 330 1170 340 1160 Q 350 1150 360 1140 Q 370 1130 385 1125 Q 400 1120 420 1120 Q 440 1120 455 1125 Q 470 1130 480 1140 Q 490 1150 505 1155 Q 520 1160 534 1155 Q 550 1150 555 1135 Q 560 1120 540 1120 Q 520 1120 505 1115 Q 490 1110 480 1100 Q 470 1090 455 1085 Q 440 1080 420 1080 Q 400 1080 385 1075 Q 370 1070 370 1060 Q 370 1050 385 1045 Q 400 1040 420 1040 Q 440 1040 455 1035 Q 470 1030 480 1020 Q 490 1010 505 1005 Q 520 1000 525 985 Q 530 970 540 960 Q 550 950 560 940 Q 570 930 585 925 Q 600 920 620 920 Q 640 920 655 915 Q 670 910 675 895 Q 680 880 680 860 Q 680 840 665 845 Q 650 850 650 860 Q 650 870 365 855 Q 80 840 85 825 Z M 325 425 Q 330 410 340 400 Q 350 390 360 380 Q 370 370 380 360 Q 390 350 400 340 Q 410 330 425 325 Q 440 320 460 320 Q 480 320 500 320 Q 520 320 540 320 Q 560 320 575 315 Q 590 310 600 300 Q 610 290 625 285 Q 640 280 660 280 Q 680 280 700 280 Q 720 280 740 280 Q 760 280 780 280 Q 800 280 805 265 Q 810 250 820 240 Q 830 230 835 215 Q 840 200 840 180 Q 840 160 840 140 Q 840 120 845 104 Q 850 90 860 90 Q 870 90 880 100 Q 890 110 900 120 Q 910 130 915 145 Q 920 160 925 175 Q 930 190 940 199 Q 950 210 955 225 Q 960 240 960 260 Q 960 280 955 295 Q 950 310 940 320 Q 930 330 925 344 Q 920 360 920 380 Q 920 400 935 405 Q 950 410 955 425 Q 960 440 965 455 Q 970 470 980 480 Q 990 490 995 505 Q 1000 520 1000 540 Q 1000 560 1000 580 Q 1000 600 1000 620 Q 1000 640 995 655 Q 990 670 980 670 Q 970 670 965 655 Q 960 640 955 625 Q 950 610 940 600 Q 930 590 920 580 Q 910 570 900 560 Q 890 550 880 540 Q 870 530 860 520 Q 850 510 840 500 Q 830 490 820 480 Q 810 470 810 460 Q 810 450 820 439 Q 830 430 835 415 Q 840 400 825 395 Q 810 390 800 380 Q 790 370 775 365 Q 760 360 745 355 Q 730 350 720 340 Q 710 330 695 325 Q 680 320 660 320 Q 640 320 625 325 Q 610 330 605 345 Q 600 360 595 374 Q 590 390 580 400 Q 570 410 560 420 Q 550 430 540 440 Q 530 450 520 460 Q 510 470 500 480 Q 490 490 480 500 Q 470 510 455 515 Q 440 520 420 520 Q 400 520 384 515 Q 370 510 360 500 Q 350 490 340 480 Q 330 470 325 455 Q 320 440 325 425 Z M 972 345 Q 977 329 980 319 Q 983 308 988 293 Q 993 279 993 259 Q 992 240 989 225 Q 986 209 984 199 Q 982 188 980 181 Q 979 174 986 168 Q 994 162 1006 171 Q 1018 181 1030 186 Q 1041 192 1057 189 Q 1072 186 1082 184 Q 1091 182 1099 180 Q 1106 179 1112 187 Q 1118 194 1105 206 Q 1093 218 1084 227 Q 1075 235 1067 243 Q 1059 252 1056 262 Q 1054 273 1068 279 Q 1082 286 1102 280 Q 1122 275 1134 271 Q 1147 268 1159 265 Q 1171 261 1178 260 Q 1186 259 1192 267 Q 1197 275 1185 286 Q 1173 298 1164 307 Q 1155 315 1146 324 Q 1137 333 1132 346 Q 1126 359 1132 373 Q 1137 387 1145 399 Q 1153 411 1160 421 Q 1168 431 1175 442 Q 1183 453 1188 468 Q 1194 483 1200 500 Q 1206 517 1212 531 Q 1217 546 1222 559 Q 1228 572 1234 587 Q 1240 601 1246 615 Q 1251 629 1256 641 Q 1261 653 1266 665 Q 1271 678 1269 690 Q 1267 702 1256 704 Q 1244 706 1234 699 Q 1223 693 1212 686 Q 1201 680 1188 672 Q 1174 663 1161 655 Q 1149 646 1138 639 Q 1128 632 1117 624 Q 1105 616 1092 608 Q 1079 599 1069 593 Q 1060 587 1059 576 Q 1059 566 1060 557 Q 1060 549 1060 539 Q 1060 530 1053 519 Q 1045 507 1038 497 Q 1031 486 1024 476 Q 1017 466 1009 451 Q 1002 437 996 424 Q 989 411 983 399 Q 977 387 972 373 Q 967 360 972 345 Z M 445 585 Q 450 570 460 560 Q 470 550 480 540 Q 490 530 505 525 Q 520 520 540 520 Q 560 520 560 500 Q 560 480 565 465 Q 570 450 580 440 Q 590 430 600 420 Q 610 410 620 400 Q 630 390 640 380 Q 650 370 665 365 Q 680 360 695 365 Q 710 370 720 380 Q 730 390 745 395 Q 760 400 775 405 Q 790 410 790 420 Q 790 430 780 440 Q 770 450 760 460 Q 750 470 735 475 Q 720 480 715 495 Q 710 510 695 515 Q 680 520 675 535 Q 670 550 660 560 Q 650 570 640 580 Q 630 590 615 595 Q 600 600 600 620 Q 600 640 595 655 Q 590 670 575 675 Q 560 680 540 680 Q 520 680 505 675 Q 490 670 485 655 Q 480 640 465 635 Q 450 630 445 615 Q 440 600 445 585 Z M 493 226 Q 498 213 508 205 Q 517 196 525 189 Q 533 182 544 181 Q 554 180 563 180 Q 571 179 580 179 Q 588 178 601 172 Q 614 166 625 161 Q 637 155 650 149 Q 663 143 673 130 Q 684 117 690 109 Q 696 101 706 97 Q 716 93 723 108 Q 730 122 735 133 Q 739 143 751 153 Q 763 163 771 170 Q 780 178 785 189 Q 790 200 787 213 Q 784 226 768 231 Q 753 236 735 238 Q 717 240 700 242 Q 682 244 662 246 Q 642 248 626 253 Q 611 257 599 260 Q 588 263 573 267 Q 559 271 541 270 Q 522 270 510 266 Q 498 263 493 251 Q 488 239 493 226 Z M 140 440 Q 150 430 160 420 Q 170 410 180 400 Q 190 390 200 380 Q 210 370 220 370 Q 230 370 240 380 Q 250 390 260 400 Q 270 410 275 425 Q 280 440 285 455 Q 290 470 300 480 Q 310 490 315 505 Q 320 520 325 535 Q 330 550 340 560 Q 350 570 350 580 Q 350 590 335 595 Q 320 600 300 600 Q 280 600 259 600 Q 240 600 225 595 Q 210 590 205 575 Q 200 560 200 540 Q 200 520 185 515 Q 170 510 165 495 Q 160 480 145 475 Q 130 470 130 460 Q 130 450 140 440 Z M 285 185 Q 290 170 300 160 Q 310 150 315 135 Q 320 120 325 105 Q 330 90 340 90 Q 350 90 355 105 Q 360 120 360 140 Q 360 160 360 180 Q 360 200 375 205 Q 390 210 395 225 Q 400 240 415 245 Q 430 250 430 260 Q 430 270 420 280 Q 410 290 400 299 Q 390 310 380 320 Q 370 330 360 340 Q 350 350 340 350 Q 330 350 325 335 Q 320 320 305 315 Q 290 310 285 295 Q 280 280 280 260 Q 280 240 280 220 Q 280 200 285 184 Z M 1045 1265 Q 1050 1250 1065 1245 Q 1080 1240 1095 1245 Q 1110 1250 1115 1265 Q 1120 1280 1120 1300 Q 1120 1320 1115 1335 Q 1110 1350 1095 1355 Q 1080 1360 1065 1355 Q 1050 1350 1045 1335 Q 1040 1320 1040 1300 Q 1040 1280 1045 1265 Z M 285 1265 Q 290 1250 300 1250 Q 310 1250 315 1265 Q 320 1280 335 1285 Q 350 1290 355 1305 Q 360 1320 355 1335 Q 350 1350 335 1355 Q 320 1360 305 1355 Q 290 1350 285 1335 Q 280 1320 280 1300 Q 280 1280 285 1265 Z M 1165 1265 Q 1170 1250 1185 1245 Q 1200 1240 1215 1245 Q 1230 1250 1235 1265 Q 1240 1280 1240 1300 Q 1240 1320 1235 1335 Q 1230 1350 1215 1355 Q 1200 1360 1185 1355 Q 1170 1350 1165 1335 Q 1160 1320 1160 1300 Q 1160 1280 1165 1265 Z M 925 1305 Q 930 1290 945 1285 Q 960 1280 980 1280 Q 1000 1280 995 1265 Q 990 1250 980 1250 Q 970 1250 945 1285 Q 920 1320 925 1305 Z M 1165 1425 Q 1170 1410 1185 1405 Q 1200 1400 1215 1405 Q 1230 1410 1230 1420 Q 1230 1430 1220 1440 Q 1210 1450 1200 1460 Q 1190 1470 1180 1470 Q 1170 1470 1165 1455 Q 1160 1440 1165 1425 Z M 538 1398 Q 556 1388 564 1410 Q 572 1432 553 1436 Q 534 1441 526 1424 Q 519 1408 538 1398 Z M 425 1405 Q 440 1400 455 1405 Q 470 1410 475 1425 Q 480 1440 475 1455 Q 470 1470 460 1470 Q 450 1470 445 1455 Q 440 1440 425 1435 Q 410 1430 410 1420 Q 410 1410 425 1405 Z M 1065 1405 Q 1080 1400 1095 1405 Q 1110 1410 1115 1425 Q 1120 1440 1115 1455 Q 1110 1470 1100 1470 Q 1090 1470 1085 1455 Q 1080 1440 1065 1435 Q 1050 1430 1050 1420 Q 1050 1410 1065 1405 Z M 305 1405 Q 320 1400 335 1405 Q 350 1410 355 1425 Q 360 1440 355 1455 Q 350 1470 340 1470 Q 330 1470 325 1455 Q 320 1440 305 1435 Q 290 1430 290 1420 Q 290 1410 305 1405 Z M 405 1305 Q 410 1290 425 1285 Q 440 1280 455 1285 Q 470 1290 475 1305 Q 480 1320 475 1335 Q 470 1350 455 1355 Q 440 1360 425 1355 Q 410 1350 405 1335 Q 400 1320 405 1305 Z M 945 1405 Q 960 1400 975 1405 Q 990 1410 995 1425 Q 1000 1440 995 1455 Q 990 1470 980 1470 Q 970 1470 965 1455 Q 960 1440 945 1435 Q 930 1430 930 1420 Q 930 1410 945 1405 Z M 329 1089 Q 339 1079 350 1089 Q 361 1099 350 1110 Q 340 1121 329 1110 Q 319 1100 329 1089 Z M 1209 409 Q 1219 398 1230 409 Q 1240 419 1230 429 Q 1220 440 1210 430 Q 1199 420 1209 409 Z M 1328 1169 Q 1339 1159 1349 1169 Q 1360 1179 1350 1190 Q 1340 1200 1329 1190 Q 1318 1180 1328 1169 Z M 1129 209 Q 1139 199 1150 209 Q 1160 219 1150 230 Q 1140 240 1130 230 Q 1119 220 1129 209 Z M 729 729 Q 740 718 750 729 Q 761 739 750 750 Q 740 760 729 750 Q 719 740 729 729 Z" fill="rgb(0,49,49)" stroke="rgb(0,49,49)" /><path d="M 445 585 Q 440 600 460 600 Q 480 600 495 595 Q 510 590 515 575 Q 520 560 520 540 Q 520 520 505 525 Q 490 530 480 540 Q 470 550 460 560 Q 450 570 445 585 Z" fill="rgb(255,146,49)" stroke="rgb(255,146,49)" /><path d="M 95 925 Q 80 920 85 935 Q 90 950 100 960 Q 110 970 114 984 Q 120 1000 140 1000 Q 160 1000 180 1000 Q 200 1000 215 995 Q 230 990 239 980 Q 250 970 265 965 Q 280 960 295 965 Q 310 970 319 980 Q 330 990 345 995 Q 360 1000 380 1000 Q 400 1000 419 1000 Q 440 1000 455 995 Q 470 990 480 980 Q 490 970 499 960 Q 510 950 520 940 Q 530 930 540 920 Q 550 910 559 900 Q 570 890 580 880 Q 590 870 600 860 Q 610 850 620 840 Q 630 830 635 815 Q 640 800 645 785 Q 650 770 660 760 Q 670 750 680 740 Q 690 730 700 720 Q 710 710 715 695 Q 720 680 704 685 Q 690 690 680 700 Q 670 710 660 720 Q 650 730 640 740 Q 630 750 620 760 Q 610 770 605 785 Q 600 800 595 815 Q 590 830 575 835 Q 560 840 545 845 Q 530 850 520 860 Q 510 870 500 880 Q 490 890 480 900 Q 470 910 460 920 Q 450 930 440 939 Q 430 950 415 955 Q 400 960 384 955 Q 370 950 360 940 Q 350 930 335 925 Q 320 920 299 920 Q 280 920 265 925 Q 250 930 240 940 Q 230 950 214 955 Q 200 960 180 960 Q 160 960 145 955 Q 130 950 120 940 Q 110 930 94 925 Z" fill="rgb(173,73,41)" stroke="rgb(173,73,41)" /><path d="M 335 315 Q 320 320 325 335 Q 330 350 340 350 Q 350 350 360 340 Q 370 330 380 320 Q 390 310 400 300 Q 410 290 420 280 Q 430 270 430 260 Q 430 250 415 245 Q 400 240 395 255 Q 390 270 375 275 Q 360 280 355 295 Q 350 310 335 315 Z" fill="rgb(173,73,41)" stroke="rgb(173,73,41)" /><path d="M 425 1405 Q 410 1410 410 1420 Q 410 1430 425 1435 Q 440 1440 440 1420 Q 440 1400 425 1405 Z" fill="rgb(255,251,255)" stroke="rgb(255,251,255)" /><path d="M 1055 1315 Q 1040 1320 1045 1335 Q 1050 1350 1065 1355 Q 1080 1360 1095 1355 Q 1110 1350 1115 1335 Q 1120 1320 1120 1300 Q 1120 1280 1100 1280 Q 1080 1280 1075 1295 Q 1070 1310 1055 1315 Z" fill="rgb(91,130,0)" stroke="rgb(91,130,0)" /><path d="M 295 1315 Q 280 1320 285 1335 Q 290 1350 305 1355 Q 320 1360 335 1355 Q 350 1350 355 1335 Q 360 1320 355 1305 Q 350 1290 335 1285 Q 320 1280 315 1295 Q 310 1310 295 1315 Z" fill="rgb(91,130,0)" stroke="rgb(91,130,0)" /><path d="M 375 205 Q 360 200 360 220 Q 360 240 360 260 Q 360 280 375 275 Q 390 270 395 255 Q 400 240 395 225 Q 390 210 375 205 Z" fill="rgb(99,194,0)" stroke="rgb(99,194,0)" /><path d="M 805 985 Q 800 1000 800 1020 Q 800 1040 815 1035 Q 830 1030 835 1015 Q 840 1000 845 985 Q 850 970 865 965 Q 880 960 895 955 Q 910 950 915 935 Q 920 920 925 905 Q 930 890 940 880 Q 950 870 955 855 Q 960 840 960 820 Q 960 800 960 780 Q 960 760 960 740 Q 960 720 955 705 Q 950 690 935 685 Q 920 680 920 700 Q 920 720 915 735 Q 910 750 900 760 Q 890 770 885 785 Q 880 800 880 820 Q 880 840 875 855 Q 870 870 860 880 Q 850 890 845 905 Q 840 920 835 935 Q 830 950 820 960 Q 810 970 805 985 Z" fill="rgb(173,73,41)" stroke="rgb(173,73,41)" /><path d="M 1045 1265 Q 1040 1280 1040 1300 Q 1040 1320 1055 1315 Q 1070 1310 1075 1295 Q 1080 1280 1080 1260 Q 1080 1240 1065 1245 Q 1050 1250 1045 1265 Z" fill="rgb(99,194,0)" stroke="rgb(99,194,0)" /><path d="M 1095 1405 Q 1080 1400 1080 1420 Q 1080 1440 1085 1455 Q 1090 1470 1100 1470 Q 1110 1470 1115 1455 Q 1120 1440 1115 1425 Q 1110 1410 1095 1405 Z" fill="rgb(255,146,49)" stroke="rgb(255,146,49)" /><path d="M 380 391 Q 358 397 366 406 Q 373 415 380 413 Q 388 412 393 411 Q 398 409 420 405 Q 441 400 433 390 Q 425 380 417 382 Q 409 384 405 385 Q 401 386 380 391 Z" fill="rgb(99,194,0)" stroke="rgb(99,194,0)" /><path d="M 354 786 Q 349 803 359 810 Q 370 816 377 814 Q 384 813 391 811 Q 397 809 413 805 Q 429 801 423 791 Q 418 781 408 777 Q 397 772 378 770 Q 359 768 354 786 Z" fill="rgb(0,49,49)" stroke="rgb(0,49,49)" /><path d="M 175 475 Q 160 480 165 495 Q 170 510 185 515 Q 200 520 205 505 Q 210 490 225 485 Q 240 480 235 465 Q 230 450 220 450 Q 210 450 200 460 Q 190 470 175 475 Z" fill="rgb(173,73,41)" stroke="rgb(173,73,41)" /><path d="M 140 440 Q 130 450 130 460 Q 130 470 145 475 Q 160 480 175 475 Q 190 470 200 460 Q 210 450 220 450 Q 230 450 235 465 Q 240 480 240 500 Q 240 520 255 525 Q 270 530 280 540 Q 290 550 300 560 Q 310 570 315 585 Q 320 600 335 595 Q 350 590 350 580 Q 350 570 340 560 Q 330 550 325 535 Q 320 520 315 505 Q 310 490 300 480 Q 290 470 285 455 Q 280 440 275 425 Q 270 410 259 400 Q 250 390 240 380 Q 230 370 220 370 Q 210 370 200 380 Q 190 390 180 400 Q 170 410 160 420 Q 150 430 140 440 Z" fill="rgb(255,146,49)" stroke="rgb(255,146,49)" /><path d="M 1175 1315 Q 1160 1320 1165 1335 Q 1170 1350 1185 1355 Q 1200 1360 1215 1355 Q 1230 1350 1235 1335 Q 1240 1320 1240 1300 Q 1240 1280 1235 1265 Q 1230 1250 1215 1245 Q 1200 1240 1200 1260 Q 1200 1280 1195 1295 Q 1190 1310 1175 1315 Z" fill="rgb(91,130,0)" stroke="rgb(91,130,0)" /><path d="M 1660 920 Q 1640 920 1640 940 Q 1640 960 1640 980 Q 1640 1000 1645 1015 Q 1650 1030 1660 1040 Q 1670 1050 1680 1060 Q 1690 1070 1705 1075 Q 1720 1080 1720 1060 Q 1720 1040 1720 1020 Q 1720 1000 1705 995 Q 1690 990 1685 975 Q 1680 960 1680 940 Q 1680 920 1660 920 Z" fill="rgb(173,73,41)" stroke="rgb(173,73,41)" /><path d="M 575 1405 Q 560 1400 560 1420 Q 560 1440 565 1455 Q 570 1470 580 1470 Q 590 1470 595 1455 Q 600 1440 595 1425 Q 590 1410 575 1405 Z" fill="rgb(255,146,49)" stroke="rgb(255,146,49)" /><path d="M 1375 805 Q 1360 800 1365 815 Q 1370 830 1380 840 Q 1390 850 1400 860 Q 1410 870 1420 880 Q 1430 890 1440 900 Q 1450 910 1460 920 Q 1470 930 1475 945 Q 1480 960 1485 975 Q 1490 990 1500 1000 Q 1510 1010 1515 1025 Q 1520 1040 1525 1055 Q 1530 1070 1540 1080 Q 1550 1090 1555 1105 Q 1560 1120 1560 1140 Q 1560 1160 1560 1180 Q 1560 1200 1560 1220 Q 1560 1240 1560 1260 Q 1560 1280 1560 1300 Q 1560 1320 1580 1320 Q 1600 1320 1620 1320 Q 1640 1320 1640 1300 Q 1640 1280 1640 1260 Q 1640 1240 1640 1220 Q 1640 1200 1640 1180 Q 1640 1160 1640 1140 Q 1640 1120 1635 1105 Q 1630 1090 1620 1080 Q 1610 1070 1605 1055 Q 1600 1040 1600 1020 Q 1600 1000 1600 980 Q 1600 960 1595 945 Q 1590 930 1575 925 Q 1560 920 1545 915 Q 1530 910 1520 900 Q 1510 890 1500 880 Q 1490 870 1480 860 Q 1470 850 1455 845 Q 1440 840 1425 835 Q 1410 830 1400 820 Q 1390 810 1375 805 Z" fill="rgb(91,130,0)" stroke="rgb(91,130,0)" /><path d="M 1735 1075 Q 1720 1080 1720 1100 Q 1720 1120 1740 1120 Q 1760 1120 1775 1115 Q 1790 1110 1800 1100 Q 1810 1090 1825 1085 Q 1840 1080 1855 1075 Q 1870 1070 1870 1060 Q 1870 1050 1855 1045 Q 1840 1040 1820 1040 Q 1800 1040 1785 1045 Q 1770 1050 1760 1060 Q 1750 1070 1735 1075 Z" fill="rgb(255,251,255)" stroke="rgb(255,251,255)" /><path d="M 1095 1245 Q 1080 1240 1080 1260 Q 1080 1280 1100 1280 Q 1120 1280 1115 1265 Q 1110 1250 1095 1245 Z" fill="rgb(222,251,198)" stroke="rgb(222,251,198)" /><path d="M 455 1405 Q 440 1400 440 1420 Q 440 1440 445 1455 Q 450 1470 460 1470 Q 470 1470 475 1455 Q 480 1440 475 1425 Q 470 1410 455 1405 Z" fill="rgb(255,146,49)" stroke="rgb(255,146,49)" /><path d="M 1685 1185 Q 1680 1200 1680 1220 Q 1680 1240 1685 1255 Q 1690 1270 1705 1275 Q 1720 1280 1735 1275 Q 1750 1270 1755 1255 Q 1760 1240 1760 1220 Q 1760 1200 1760 1180 Q 1760 1160 1740 1160 Q 1720 1160 1705 1165 Q 1690 1170 1685 1185 Z" fill="rgb(173,73,41)" stroke="rgb(173,73,41)" /><path d="M 565 465 Q 560 480 560 500 Q 560 520 580 520 Q 600 520 615 515 Q 630 510 640 500 Q 650 490 665 485 Q 680 480 700 480 Q 720 480 735 475 Q 750 470 760 460 Q 770 450 780 440 Q 790 430 790 420 Q 790 410 775 405 Q 760 400 745 395 Q 730 390 720 380 Q 710 370 695 365 Q 680 360 665 365 Q 650 370 640 380 Q 630 390 620 400 Q 610 410 600 420 Q 590 430 580 440 Q 570 450 565 465 Z" fill="rgb(255,146,49)" stroke="rgb(255,146,49)" /><path d="M 1005 705 Q 1000 720 1000 740 Q 1000 760 1020 760 Q 1040 760 1055 755 Q 1070 750 1075 735 Q 1080 720 1085 705 Q 1090 690 1105 685 Q 1120 680 1115 665 Q 1110 650 1095 645 Q 1080 640 1065 645 Q 1050 650 1040 660 Q 1030 670 1020 680 Q 1010 690 1005 705 Z" fill="rgb(255,251,255)" stroke="rgb(255,251,255)" /><path d="M 655 915 Q 640 920 640 940 Q 640 960 640 980 Q 640 1000 655 995 Q 670 990 675 975 Q 680 960 685 945 Q 690 930 700 920 Q 710 910 720 900 Q 730 890 745 885 Q 760 880 775 875 Q 790 870 795 855 Q 800 840 805 825 Q 810 810 825 805 Q 840 800 840 780 Q 840 760 840 740 Q 840 720 835 705 Q 830 690 820 680 Q 810 670 800 660 Q 790 650 780 650 Q 770 650 765 665 Q 760 680 775 685 Q 790 690 795 705 Q 800 720 800 740 Q 800 760 795 775 Q 790 790 775 795 Q 760 800 745 805 Q 730 810 720 820 Q 710 830 695 835 Q 680 840 680 860 Q 680 880 675 895 Q 670 910 655 915 Z" fill="rgb(173,73,41)" stroke="rgb(173,73,41)" /><path d="M 780 280 Q 760 280 760 299 Q 760 320 760 340 Q 760 360 775 365 Q 790 370 800 380 Q 810 390 825 395 Q 840 400 860 400 Q 880 400 900 400 Q 920 400 920 380 Q 920 360 900 360 Q 880 360 865 355 Q 850 350 845 335 Q 840 320 825 315 Q 810 310 805 295 Q 800 280 780 280 Z" fill="rgb(173,73,41)" stroke="rgb(173,73,41)" /><path d="M 945 1405 Q 930 1410 930 1420 Q 930 1430 945 1435 Q 960 1440 960 1420 Q 960 1400 945 1405 Z" fill="rgb(255,251,255)" stroke="rgb(255,251,255)" /><path d="M 565 625 Q 560 640 560 660 Q 560 680 575 675 Q 590 670 595 655 Q 600 640 600 620 Q 600 600 585 605 Q 570 610 565 625 Z" fill="rgb(99,194,0)" stroke="rgb(99,194,0)" /><path d="M 329 1089 Q 319 1100 329 1110 Q 340 1121 350 1110 Q 361 1099 350 1089 Q 339 1079 329 1089 Z" fill="rgb(255,251,255)" stroke="rgb(255,251,255)" /><path d="M 495 635 Q 480 640 485 655 Q 490 670 505 675 Q 520 680 540 680 Q 560 680 560 660 Q 560 640 565 625 Q 570 610 585 605 Q 600 600 615 595 Q 630 590 640 580 Q 650 570 660 560 Q 670 550 675 535 Q 680 520 665 525 Q 650 530 640 540 Q 630 550 615 555 Q 600 560 585 565 Q 570 570 560 580 Q 550 590 540 600 Q 530 610 520 620 Q 510 630 495 635 Z" fill="rgb(255,251,255)" stroke="rgb(255,251,255)" /><path d="M 205 505 Q 200 520 200 540 Q 200 560 205 575 Q 210 590 225 595 Q 240 600 240 580 Q 240 560 240 540 Q 240 520 240 500 Q 240 480 225 485 Q 210 490 205 505 Z" fill="rgb(91,130,0)" stroke="rgb(91,130,0)" /><path d="M 85 825 Q 80 840 80 860 Q 80 880 80 900 Q 80 920 95 925 Q 110 930 120 940 Q 130 950 145 955 Q 160 960 179 960 Q 200 960 215 955 Q 230 950 240 940 Q 250 930 265 925 Q 280 920 300 920 Q 320 920 335 925 Q 350 930 360 940 Q 370 950 385 955 Q 400 960 415 955 Q 430 950 440 940 Q 450 930 460 920 Q 470 910 480 900 Q 490 890 500 880 Q 510 870 520 860 Q 530 850 545 845 Q 560 840 575 835 Q 590 830 595 815 Q 600 800 605 785 Q 610 770 620 760 Q 630 750 640 740 Q 650 730 660 720 Q 670 710 680 700 Q 690 690 705 685 Q 720 680 740 680 Q 760 680 765 665 Q 770 650 780 650 Q 790 650 800 660 Q 810 670 820 680 Q 830 690 835 705 Q 840 720 840 740 Q 840 760 840 780 Q 840 800 840 820 Q 840 840 835 855 Q 830 870 820 880 Q 810 890 800 900 Q 790 910 775 915 Q 760 920 745 925 Q 730 930 725 945 Q 720 960 715 975 Q 710 990 700 1000 Q 690 1010 685 1025 Q 680 1040 675 1055 Q 670 1070 660 1080 Q 650 1090 640 1100 Q 630 1110 615 1115 Q 600 1120 580 1120 Q 560 1120 555 1135 Q 550 1150 535 1155 Q 520 1160 505 1155 Q 490 1150 480 1140 Q 470 1130 454 1125 Q 440 1120 420 1120 Q 400 1120 385 1125 Q 370 1130 360 1140 Q 350 1150 340 1160 Q 330 1170 330 1180 Q 330 1190 340 1200 Q 350 1210 360 1220 Q 370 1230 385 1235 Q 400 1240 420 1240 Q 440 1240 460 1240 Q 480 1240 500 1240 Q 520 1240 540 1240 Q 560 1240 580 1240 Q 600 1240 615 1235 Q 630 1230 640 1220 Q 650 1210 665 1205 Q 680 1200 695 1195 Q 710 1190 720 1180 Q 730 1170 740 1160 Q 750 1150 755 1135 Q 760 1120 765 1104 Q 770 1090 785 1085 Q 800 1080 800 1060 Q 800 1040 800 1020 Q 800 1000 805 985 Q 810 970 820 960 Q 830 950 835 935 Q 840 920 845 905 Q 850 890 860 880 Q 870 870 875 855 Q 880 840 880 820 Q 880 800 885 785 Q 890 770 900 760 Q 910 750 915 735 Q 920 720 920 700 Q 920 680 920 660 Q 920 640 915 625 Q 910 610 900 600 Q 890 590 880 580 Q 870 570 860 560 Q 850 550 840 540 Q 830 530 815 525 Q 800 520 785 525 Q 770 530 760 540 Q 750 550 740 560 Q 730 570 720 580 Q 710 590 700 600 Q 690 610 680 620 Q 670 630 660 640 Q 650 650 640 660 Q 630 670 620 680 Q 610 690 599 700 Q 590 710 575 715 Q 560 720 540 720 Q 520 720 500 720 Q 480 720 465 715 Q 450 710 440 700 Q 430 690 415 685 Q 400 680 385 675 Q 370 670 360 660 Q 350 650 335 645 Q 320 640 300 640 Q 280 640 260 640 Q 240 640 225 645 Q 210 650 199 660 Q 190 670 180 680 Q 170 690 160 700 Q 150 710 140 720 Q 130 730 125 745 Q 120 760 115 775 Q 110 790 100 800 Q 90 810 85 825 Z M 165 745 Q 170 730 180 720 Q 190 710 200 700 Q 210 690 220 690 Q 230 690 230 700 Q 230 710 220 720 Q 210 730 205 745 Q 200 760 215 765 Q 230 770 235 785 Q 240 800 235 815 Q 230 830 220 830 Q 210 830 200 820 Q 190 810 180 800 Q 170 790 165 775 Q 160 760 165 745 Z M 791 555 Q 801 546 813 563 Q 826 580 831 589 Q 837 598 843 607 Q 849 616 850 622 Q 852 629 845 636 Q 839 643 827 629 Q 815 614 808 606 Q 802 599 794 590 Q 787 581 784 573 Q 781 564 791 555 Z M 354 786 Q 359 768 378 770 Q 397 772 408 777 Q 418 781 423 791 Q 429 801 413 805 Q 397 809 391 811 Q 384 813 377 814 Q 370 816 359 810 Q 349 803 354 786 Z" fill="rgb(255,146,49)" stroke="rgb(255,146,49)" /><path d="M 855 315 Q 840 320 845 335 Q 850 350 865 355 Q 880 360 885 345 Q 890 330 900 320 Q 910 310 915 295 Q 920 280 925 265 Q 930 250 945 245 Q 960 240 955 225 Q 950 210 940 200 Q 930 190 925 175 Q 920 160 905 165 Q 890 170 885 185 Q 880 200 880 220 Q 880 240 880 260 Q 880 280 875 295 Q 870 310 855 315 Z" fill="rgb(222,251,198)" stroke="rgb(222,251,198)" /><path d="M 1045 1065 Q 1040 1080 1040 1100 Q 1040 1120 1045 1135 Q 1050 1150 1060 1160 Q 1070 1170 1080 1180 Q 1090 1190 1100 1200 Q 1110 1210 1120 1220 Q 1130 1230 1140 1230 Q 1150 1230 1160 1220 Q 1170 1210 1185 1205 Q 1200 1200 1215 1205 Q 1230 1210 1240 1220 Q 1250 1230 1260 1240 Q 1270 1250 1275 1265 Q 1280 1280 1280 1300 Q 1280 1320 1300 1320 Q 1320 1320 1340 1320 Q 1360 1320 1360 1300 Q 1360 1280 1355 1265 Q 1350 1250 1340 1240 Q 1330 1230 1320 1220 Q 1310 1210 1300 1200 Q 1290 1190 1280 1180 Q 1270 1170 1255 1165 Q 1240 1160 1220 1160 Q 1200 1160 1180 1160 Q 1160 1160 1140 1160 Q 1120 1160 1105 1155 Q 1090 1150 1090 1140 Q 1090 1130 1105 1125 Q 1120 1120 1140 1120 Q 1160 1120 1180 1120 Q 1200 1120 1220 1120 Q 1240 1120 1255 1125 Q 1270 1130 1280 1140 Q 1290 1150 1300 1150 Q 1310 1150 1315 1135 Q 1320 1120 1315 1105 Q 1310 1090 1300 1080 Q 1290 1070 1280 1060 Q 1270 1050 1260 1040 Q 1250 1030 1240 1020 Q 1230 1010 1215 1005 Q 1200 1000 1180 1000 Q 1160 1000 1140 1000 Q 1120 1000 1105 1005 Q 1090 1010 1080 1020 Q 1070 1030 1060 1040 Q 1050 1050 1045 1065 Z" fill="rgb(91,130,0)" stroke="rgb(91,130,0)" /><path d="M 1180 1280 Q 1160 1280 1160 1300 Q 1160 1320 1175 1315 Q 1190 1310 1195 1295 Q 1200 1280 1180 1280 Z" fill="rgb(99,194,0)" stroke="rgb(99,194,0)" /><path d="M 1325 505 Q 1320 520 1320 539 Q 1320 560 1325 575 Q 1330 590 1345 595 Q 1360 600 1380 600 Q 1400 600 1400 580 Q 1400 560 1400 540 Q 1400 520 1400 500 Q 1400 480 1400 460 Q 1400 440 1395 425 Q 1390 410 1380 410 Q 1370 410 1365 425 Q 1360 440 1355 455 Q 1350 470 1340 480 Q 1330 490 1325 505 Z" fill="rgb(255,251,255)" stroke="rgb(255,251,255)" /><path d="M 325 425 Q 320 440 325 455 Q 330 470 340 480 Q 350 490 360 500 Q 370 510 385 515 Q 400 520 420 520 Q 440 520 455 515 Q 470 510 480 500 Q 490 490 500 480 Q 510 470 520 460 Q 530 450 540 440 Q 550 430 560 420 Q 570 410 580 400 Q 590 390 595 375 Q 600 360 605 345 Q 610 330 625 325 Q 640 320 660 320 Q 680 320 695 325 Q 710 330 720 340 Q 730 350 745 355 Q 760 360 760 340 Q 760 320 760 300 Q 760 280 740 280 Q 720 280 700 280 Q 680 280 660 280 Q 640 280 625 285 Q 610 290 600 300 Q 590 310 575 315 Q 560 320 540 320 Q 520 320 500 320 Q 480 320 460 320 Q 440 320 425 325 Q 410 330 400 340 Q 390 350 380 360 Q 370 370 360 380 Q 350 390 340 400 Q 330 410 325 425 Z M 380 391 Q 401 386 405 385 Q 409 384 417 382 Q 425 380 433 390 Q 441 400 420 405 Q 398 409 393 411 Q 388 412 380 413 Q 373 415 366 406 Q 358 397 380 391 Z" fill="rgb(91,130,0)" stroke="rgb(91,130,0)" /><path d="M 535 1315 Q 520 1320 525 1335 Q 530 1350 545 1355 Q 560 1360 580 1360 Q 600 1360 615 1355 Q 630 1350 640 1340 Q 650 1330 665 1325 Q 680 1320 700 1320 Q 720 1320 715 1305 Q 710 1290 700 1280 Q 690 1270 680 1260 Q 670 1250 660 1250 Q 650 1250 640 1260 Q 630 1270 615 1275 Q 600 1280 580 1280 Q 560 1280 555 1295 Q 550 1310 535 1315 Z" fill="rgb(91,130,0)" stroke="rgb(91,130,0)" /><path d="M 1209 409 Q 1199 420 1210 430 Q 1220 440 1230 429 Q 1240 419 1230 409 Q 1219 398 1209 409 Z" fill="rgb(255,146,49)" stroke="rgb(255,146,49)" /><path d="M 385 1045 Q 370 1050 370 1060 Q 370 1070 385 1075 Q 400 1080 420 1080 Q 440 1080 455 1085 Q 470 1090 480 1100 Q 490 1110 505 1115 Q 520 1120 540 1120 Q 560 1120 560 1100 Q 560 1080 555 1065 Q 550 1050 540 1040 Q 530 1030 525 1015 Q 520 1000 505 1005 Q 490 1010 480 1020 Q 470 1030 455 1035 Q 440 1040 420 1040 Q 400 1040 385 1045 Z" fill="rgb(173,73,41)" stroke="rgb(173,73,41)" /><path d="M 1015 805 Q 1000 800 1005 815 Q 1010 830 1020 840 Q 1030 850 1040 860 Q 1050 870 1065 875 Q 1080 880 1100 880 Q 1120 880 1140 880 Q 1160 880 1175 885 Q 1190 890 1200 900 Q 1210 910 1225 915 Q 1240 920 1255 925 Q 1270 930 1280 940 Q 1290 950 1300 960 Q 1310 970 1320 980 Q 1330 990 1340 1000 Q 1350 1010 1355 1025 Q 1360 1040 1365 1055 Q 1370 1070 1380 1080 Q 1390 1090 1395 1105 Q 1400 1120 1400 1140 Q 1400 1160 1400 1180 Q 1400 1200 1400 1220 Q 1400 1240 1400 1260 Q 1400 1280 1400 1300 Q 1400 1320 1420 1320 Q 1440 1320 1440 1300 Q 1440 1280 1440 1260 Q 1440 1240 1440 1220 Q 1440 1200 1440 1180 Q 1440 1160 1440 1140 Q 1440 1120 1435 1105 Q 1430 1090 1420 1080 Q 1410 1070 1405 1055 Q 1400 1040 1395 1025 Q 1390 1010 1380 1000 Q 1370 990 1360 980 Q 1350 970 1340 960 Q 1330 950 1320 940 Q 1310 930 1300 920 Q 1290 910 1280 900 Q 1270 890 1260 880 Q 1250 870 1240 860 Q 1230 850 1215 845 Q 1200 840 1180 840 Q 1160 840 1140 840 Q 1120 840 1100 840 Q 1080 840 1065 835 Q 1050 830 1040 820 Q 1030 810 1015 805 Z" fill="rgb(99,194,0)" stroke="rgb(99,194,0)" /><path d="M 180 760 Q 160 760 165 775 Q 170 790 180 800 Q 190 810 200 820 Q 210 830 220 830 Q 230 830 235 815 Q 240 800 235 785 Q 230 770 215 765 Q 200 760 180 760 Z" fill="rgb(0,49,49)" stroke="rgb(0,49,49)" /><path d="M 538 1398 Q 519 1408 526 1424 Q 534 1441 553 1436 Q 572 1432 564 1410 Q 556 1388 538 1398 Z" fill="rgb(255,251,255)" stroke="rgb(255,251,255)" /><path d="M 765 1105 Q 760 1120 775 1115 Q 790 1110 795 1095 Q 800 1080 785 1085 Q 770 1090 765 1105 Z" fill="rgb(173,73,41)" stroke="rgb(173,73,41)" /><path d="M 1165 1265 Q 1160 1280 1180 1280 Q 1200 1280 1200 1260 Q 1200 1240 1185 1245 Q 1170 1250 1165 1265 Z" fill="rgb(222,251,198)" stroke="rgb(222,251,198)" /><path d="M 1460 760 Q 1450 770 1450 780 Q 1450 790 1460 800 Q 1470 810 1480 820 Q 1490 830 1500 840 Q 1510 850 1520 860 Q 1530 870 1540 870 Q 1550 870 1560 860 Q 1570 850 1580 850 Q 1590 850 1600 860 Q 1610 870 1625 875 Q 1640 880 1640 860 Q 1640 840 1625 835 Q 1610 830 1605 815 Q 1600 800 1585 795 Q 1570 790 1560 780 Q 1550 770 1540 760 Q 1530 750 1525 735 Q 1520 720 1505 725 Q 1490 730 1480 740 Q 1470 750 1460 760 Z" fill="rgb(173,73,41)" stroke="rgb(173,73,41)" /><path d="M 1645 825 Q 1640 840 1640 860 Q 1640 880 1655 875 Q 1670 870 1680 860 Q 1690 850 1700 840 Q 1710 830 1710 820 Q 1710 810 1695 805 Q 1680 800 1665 805 Q 1650 810 1645 825 Z" fill="rgb(255,251,255)" stroke="rgb(255,251,255)" /><path d="M 965 1265 Q 960 1280 980 1280 Q 1000 1280 995 1265 Q 990 1250 980 1250 Q 970 1250 965 1265 Z" fill="rgb(222,251,198)" stroke="rgb(222,251,198)" /><path d="M 405 1305 Q 400 1320 415 1315 Q 430 1310 435 1295 Q 440 1280 425 1285 Q 410 1290 405 1305 Z" fill="rgb(99,194,0)" stroke="rgb(99,194,0)" /><path d="M 1129 209 Q 1119 220 1130 230 Q 1140 240 1150 230 Q 1160 219 1150 209 Q 1139 199 1129 209 Z" fill="rgb(194,235,200)" stroke="rgb(194,235,200)" /><path d="M 1300 560 Q 1280 560 1280 580 Q 1280 600 1285 615 Q 1290 630 1300 640 Q 1310 650 1320 660 Q 1330 670 1345 675 Q 1360 680 1375 685 Q 1390 690 1400 700 Q 1410 710 1425 715 Q 1440 720 1455 715 Q 1470 710 1475 695 Q 1480 680 1480 660 Q 1480 640 1465 645 Q 1450 650 1440 660 Q 1430 670 1420 670 Q 1410 670 1405 655 Q 1400 640 1400 620 Q 1400 600 1380 600 Q 1360 600 1345 595 Q 1330 590 1325 575 Q 1320 560 1300 560 Z" fill="rgb(173,73,41)" stroke="rgb(173,73,41)" /><path d="M 1165 1425 Q 1160 1440 1175 1435 Q 1190 1430 1195 1415 Q 1200 1400 1185 1405 Q 1170 1410 1165 1425 Z" fill="rgb(255,251,255)" stroke="rgb(255,251,255)" /><path d="M 605 1105 Q 600 1120 615 1115 Q 630 1110 640 1100 Q 650 1090 660 1080 Q 670 1070 675 1055 Q 680 1040 685 1025 Q 690 1010 700 1000 Q 710 990 715 975 Q 720 960 725 945 Q 730 930 745 925 Q 760 920 775 915 Q 790 910 800 900 Q 810 890 820 880 Q 830 870 835 855 Q 840 840 840 820 Q 840 800 825 805 Q 810 810 805 825 Q 800 840 795 855 Q 790 870 775 875 Q 760 880 745 885 Q 730 890 720 900 Q 710 910 700 920 Q 690 930 685 945 Q 680 960 675 975 Q 670 990 655 995 Q 640 1000 640 1020 Q 640 1040 635 1055 Q 630 1070 620 1080 Q 610 1090 605 1105 Z" fill="rgb(0,49,49)" stroke="rgb(0,49,49)" /><path d="M 820 440 Q 810 450 810 460 Q 810 470 820 480 Q 830 490 840 500 Q 850 510 860 520 Q 870 530 880 540 Q 890 550 900 560 Q 910 570 920 580 Q 930 590 940 600 Q 950 610 955 625 Q 960 640 965 655 Q 970 670 980 670 Q 990 670 995 655 Q 1000 640 1000 620 Q 1000 600 1000 580 Q 1000 560 1000 540 Q 1000 520 995 505 Q 990 490 980 480 Q 970 470 965 455 Q 960 440 955 425 Q 950 410 935 405 Q 920 400 900 400 Q 880 400 860 400 Q 840 400 835 415 Q 830 430 820 440 Z" fill="rgb(91,130,0)" stroke="rgb(91,130,0)" /><path d="M 1695 915 Q 1680 920 1680 940 Q 1680 960 1685 975 Q 1690 990 1705 995 Q 1720 1000 1735 995 Q 1750 990 1760 980 Q 1770 970 1780 960 Q 1790 950 1800 940 Q 1810 930 1820 920 Q 1830 910 1840 900 Q 1850 890 1860 880 Q 1870 870 1870 860 Q 1870 850 1855 845 Q 1840 840 1825 845 Q 1810 850 1800 860 Q 1790 870 1775 875 Q 1760 880 1745 885 Q 1730 890 1720 900 Q 1710 910 1695 915 Z" fill="rgb(255,251,255)" stroke="rgb(255,251,255)" /><path d="M 1328 1169 Q 1318 1180 1329 1190 Q 1340 1200 1350 1190 Q 1360 1179 1349 1169 Q 1339 1159 1328 1169 Z" fill="rgb(91,130,0)" stroke="rgb(91,130,0)" /><path d="M 285 185 Q 280 200 280 220 Q 280 240 280 260 Q 280 280 285 295 Q 290 310 305 315 Q 320 320 335 315 Q 350 310 355 295 Q 360 280 360 260 Q 360 240 360 220 Q 360 200 360 180 Q 360 160 360 140 Q 360 120 355 104 Q 350 90 340 90 Q 330 90 325 105 Q 320 120 315 135 Q 310 150 300 160 Q 290 170 285 185 Z" fill="rgb(255,251,255)" stroke="rgb(255,251,255)" /><path d="M 255 565 Q 240 560 240 580 Q 240 600 260 600 Q 280 600 275 585 Q 270 570 255 565 Z" fill="rgb(255,251,255)" stroke="rgb(255,251,255)" /><path d="M 525 985 Q 520 1000 525 1015 Q 530 1030 540 1040 Q 550 1050 555 1065 Q 560 1080 560 1100 Q 560 1120 580 1120 Q 600 1120 605 1105 Q 610 1090 620 1080 Q 630 1070 635 1055 Q 640 1040 640 1020 Q 640 1000 640 980 Q 640 960 640 940 Q 640 920 620 920 Q 600 920 585 925 Q 570 930 560 940 Q 550 950 540 960 Q 530 970 525 985 Z" fill="rgb(255,251,255)" stroke="rgb(255,251,255)" /><path d="M 729 729 Q 719 740 729 750 Q 740 760 750 750 Q 761 739 750 729 Q 740 718 729 729 Z" fill="rgb(255,251,255)" stroke="rgb(255,251,255)" /></svg>