<?xml version="1.0" encoding="utf-8" ?>
<svg baseProfile="full" height="100%" version="1.1" width="100%" xmlns="http://www.w3.org/2000/svg" xmlns:ev="http://www.w3.org/2001/xml-events" xmlns:xlink="http://www.w3.org/1999/xlink"><defs /><path d="M 455 355 Q 440 360 445 375 Q 450 390 460 400 Q 470 410 475 425 Q 480 440 480 460 Q 480 480 480 500 Q 480 520 480 540 Q 480 560 480 580 Q 480 600 480 620 Q 480 640 485 655 Q 490 670 505 675 Q 520 680 540 680 Q 560 680 560 660 Q 560 640 545 635 Q 530 630 525 615 Q 520 600 520 579 Q 520 560 520 540 Q 520 520 520 500 Q 520 480 520 460 Q 520 440 520 420 Q 520 400 520 380 Q 520 360 520 340 Q 520 320 505 325 Q 490 330 480 340 Q 470 350 455 355 Z" fill="rgb(0,189,0)" stroke="rgb(0,189,0)" /><path d="M 493 948 Q 491 960 496 972 Q 500 984 508 992 Q 516 1001 525 1011 Q 534 1020 547 1025 Q 560 1029 572 1024 Q 584 1019 594 1010 Q 603 1002 613 992 Q 624 983 634 973 Q 645 963 652 956 Q 660 949 674 935 Q 689 921 680 910 Q 671 900 662 902 Q 653 904 642 910 Q 632 915 623 920 Q 615 925 602 932 Q 590 939 581 937 Q 572 935 563 933 Q 554 932 539 929 Q 524 926 510 930 Q 496 935 493 948 Z" fill="rgb(255,140,0)" stroke="rgb(255,140,0)" /><path d="M 95 525 Q 80 520 85 535 Q 90 550 100 560 Q 110 570 120 580 Q 130 590 145 595 Q 160 600 180 600 Q 200 600 205 585 Q 210 570 220 560 Q 230 550 240 540 Q 250 530 265 525 Q 280 520 280 500 Q 280 480 285 465 Q 290 450 305 445 Q 320 440 315 425 Q 310 410 300 410 Q 290 410 280 420 Q 270 430 260 440 Q 250 450 245 465 Q 240 480 235 495 Q 230 510 220 520 Q 210 530 200 540 Q 190 550 175 555 Q 160 560 144 555 Q 130 550 120 540 Q 110 530 95 525 Z" fill="rgb(0,189,0)" stroke="rgb(0,189,0)" /><path d="M 375 285 Q 360 280 365 294 Q 370 310 380 320 Q 390 330 400 340 Q 410 350 425 355 Q 440 360 455 355 Q 470 350 480 340 Q 490 330 505 325 Q 520 320 520 300 Q 520 280 505 285 Q 490 290 480 300 Q 470 310 455 315 Q 440 320 425 315 Q 410 310 400 300 Q 390 290 375 285 Z" fill="rgb(0,123,0)" stroke="rgb(0,123,0)" /><path d="M 578 269 Q 575 278 577 289 Q 579 301 589 303 Q 598 306 609 302 Q 619 299 622 290 Q 626 280 623 269 Q 620 258 610 256 Q 600 254 590 257 Q 581 261 578 269 Z" fill="rgb(255,140,0)" stroke="rgb(255,140,0)" /><path d="M 19 0 Q 0 0 0 20 Q 0 40 0 60 Q 0 80 0 99 Q 0 120 0 140 Q 0 160 0 180 Q 0 200 0 220 Q 0 240 0 259 Q 0 280 0 300 Q 0 320 0 340 Q 0 360 0 380 Q 0 400 0 419 Q 0 440 0 460 Q 0 480 0 500 Q 0 520 0 539 Q 0 560 0 580 Q 0 600 0 620 Q 0 640 0 660 Q 0 680 0 699 Q 0 720 0 740 Q 0 760 0 780 Q 0 800 0 820 Q 0 840 0 859 Q 0 880 0 900 Q 0 920 0 940 Q 0 960 0 980 Q 0 1000 0 1019 Q 0 1040 0 1060 Q 0 1080 0 1100 Q 0 1120 0 1139 Q 0 1160 0 1180 Q 0 1200 20 1200 Q 40 1200 60 1200 Q 80 1200 99 1200 Q 120 1200 140 1200 Q 160 1200 180 1200 Q 200 1200 220 1200 Q 240 1200 259 1200 Q 280 1200 300 1200 Q 320 1200 340 1200 Q 360 1200 380 1200 Q 400 1200 419 1200 Q 440 1200 460 1200 Q 480 1200 500 1200 Q 520 1200 539 1200 Q 560 1200 580 1200 Q 600 1200 620 1200 Q 640 1200 660 1200 Q 680 1200 699 1200 Q 720 1200 740 1200 Q 760 1200 780 1200 Q 800 1200 820 1200 Q 840 1200 859 1200 Q 880 1200 900 1200 Q 920 1200 940 1200 Q 960 1200 980 1200 Q 1000 1200 1019 1200 Q 1040 1200 1060 1200 Q 1080 1200 1100 1200 Q 1120 1200 1120 1180 Q 1120 1160 1120 1140 Q 1120 1120 1120 1100 Q 1120 1080 1120 1060 Q 1120 1040 1120 1019 Q 1120 1000 1120 980 Q 1120 960 1120 940 Q 1120 920 1120 900 Q 1120 880 1120 860 Q 1120 840 1120 820 Q 1120 800 1120 779 Q 1120 760 1120 740 Q 1120 720 1120 699 Q 1120 680 1120 660 Q 1120 640 1120 620 Q 1120 600 1120 580 Q 1120 560 1120 540 Q 1120 520 1120 499 Q 1120 480 1120 460 Q 1120 440 1120 419 Q 1120 400 1120 380 Q 1120 360 1120 340 Q 1120 320 1120 300 Q 1120 280 1120 260 Q 1120 240 1120 220 Q 1120 200 1120 179 Q 1120 160 1120 140 Q 1120 120 1120 99 Q 1120 80 1120 60 Q 1120 40 1120 20 Q 1120 0 1100 0 Q 1080 0 1060 0 Q 1040 0 1019 0 Q 1000 0 980 0 Q 960 0 940 0 Q 920 0 899 0 Q 880 0 860 0 Q 840 0 820 0 Q 800 0 780 0 Q 760 0 739 0 Q 720 0 700 0 Q 680 0 660 0 Q 640 0 619 0 Q 600 0 580 0 Q 560 0 540 0 Q 520 0 500 0 Q 480 0 460 0 Q 440 0 419 0 Q 400 0 380 0 Q 360 0 340 0 Q 320 0 299 0 Q 280 0 260 0 Q 240 0 220 0 Q 200 0 180 0 Q 160 0 139 0 Q 120 0 100 0 Q 80 0 60 0 Q 40 0 20 0 Z M 50 387 Q 55 372 62 359 Q 68 347 74 334 Q 81 321 87 307 Q 94 294 104 284 Q 114 273 124 264 Q 133 254 148 247 Q 163 240 175 233 Q 188 227 200 221 Q 212 216 226 210 Q 240 204 259 205 Q 278 205 293 210 Q 308 214 319 218 Q 331 221 340 223 Q 350 224 357 210 Q 364 197 364 178 Q 365 159 365 140 Q 366 121 370 107 Q 375 93 385 83 Q 395 73 404 64 Q 412 55 426 50 Q 439 45 453 50 Q 467 55 477 65 Q 487 75 496 84 Q 506 94 516 104 Q 525 113 535 123 Q 544 133 552 146 Q 560 160 567 172 Q 575 185 588 193 Q 602 201 614 208 Q 625 215 635 225 Q 645 235 655 243 Q 664 252 669 266 Q 674 280 669 296 Q 665 311 662 321 Q 659 331 658 340 Q 657 350 660 361 Q 664 373 669 386 Q 673 399 668 414 Q 663 429 659 440 Q 655 451 650 466 Q 645 480 645 500 Q 644 520 645 539 Q 645 558 650 573 Q 654 589 658 599 Q 661 610 661 620 Q 662 630 660 640 Q 659 651 658 660 Q 657 669 666 678 Q 676 687 683 694 Q 691 701 701 702 Q 711 703 722 699 Q 733 694 747 689 Q 760 684 780 684 Q 800 684 819 685 Q 838 685 854 690 Q 870 694 880 697 Q 890 700 900 701 Q 909 703 921 699 Q 933 695 946 690 Q 959 686 974 691 Q 988 696 1000 701 Q 1012 707 1025 713 Q 1038 720 1051 726 Q 1064 733 1069 746 Q 1074 760 1069 775 Q 1064 789 1059 801 Q 1055 812 1050 827 Q 1044 841 1039 859 Q 1033 877 1028 892 Q 1023 907 1019 920 Q 1015 932 1010 946 Q 1005 961 999 979 Q 993 997 989 1012 Q 984 1026 975 1038 Q 966 1050 959 1060 Q 952 1070 943 1081 Q 935 1092 928 1105 Q 920 1118 913 1131 Q 906 1144 891 1150 Q 877 1156 857 1156 Q 838 1156 819 1156 Q 799 1156 779 1156 Q 759 1156 739 1155 Q 720 1155 700 1155 Q 679 1154 660 1154 Q 641 1154 627 1149 Q 613 1145 605 1131 Q 597 1116 591 1105 Q 585 1094 570 1089 Q 556 1083 539 1078 Q 522 1073 508 1068 Q 493 1064 483 1054 Q 473 1044 464 1035 Q 455 1026 449 1012 Q 444 998 444 979 Q 445 960 449 945 Q 454 930 457 919 Q 461 908 462 899 Q 462 889 458 878 Q 454 866 450 852 Q 445 838 443 818 Q 441 798 439 778 Q 437 758 435 740 Q 433 721 429 707 Q 424 693 414 683 Q 404 674 396 666 Q 388 658 378 657 Q 368 656 357 660 Q 346 664 332 669 Q 319 674 300 674 Q 281 674 266 669 Q 251 664 239 659 Q 227 655 212 650 Q 198 645 180 639 Q 162 633 148 629 Q 133 624 123 614 Q 113 604 103 595 Q 94 585 84 575 Q 74 566 64 556 Q 55 547 49 532 Q 44 517 44 498 Q 44 478 44 459 Q 45 440 45 421 Q 45 401 50 387 Z" fill="rgb(184,173,199)" stroke="rgb(184,173,199)" /><path d="M 765 785 Q 760 800 780 800 Q 800 800 820 800 Q 840 800 855 795 Q 870 790 875 775 Q 880 760 875 745 Q 870 730 855 725 Q 840 720 835 735 Q 830 750 815 755 Q 800 760 785 765 Q 770 770 765 785 Z" fill="rgb(189,41,0)" stroke="rgb(189,41,0)" /><path d="M 735 755 Q 720 760 725 775 Q 730 790 745 795 Q 760 800 765 785 Q 770 770 785 765 Q 800 760 815 755 Q 830 750 835 735 Q 840 720 820 720 Q 800 720 780 720 Q 760 720 755 735 Q 750 750 735 755 Z" fill="rgb(255,140,0)" stroke="rgb(255,140,0)" /><path d="M 535 365 Q 520 360 520 380 Q 520 400 520 420 Q 520 440 520 460 Q 520 480 535 475 Q 550 470 555 455 Q 560 440 560 420 Q 560 400 555 385 Q 550 370 535 365 Z" fill="rgb(0,123,0)" stroke="rgb(0,123,0)" /><path d="M 745 925 Q 730 930 730 940 Q 730 950 745 955 Q 760 960 780 960 Q 800 960 820 960 Q 840 960 840 940 Q 840 920 820 920 Q 800 920 780 920 Q 760 920 745 925 Z" fill="rgb(0,189,0)" stroke="rgb(0,189,0)" /><path d="M 405 105 Q 400 120 415 125 Q 430 130 440 140 Q 450 150 460 160 Q 470 170 480 180 Q 490 190 505 195 Q 520 200 520 180 Q 520 160 505 155 Q 490 150 485 135 Q 480 120 465 115 Q 450 110 445 95 Q 440 80 425 85 Q 410 90 405 105 Z" fill="rgb(0,123,0)" stroke="rgb(0,123,0)" /><path d="M 607 389 Q 602 398 607 408 Q 613 418 622 417 Q 631 415 637 406 Q 643 397 638 388 Q 632 379 622 380 Q 612 380 607 389 Z" fill="rgb(255,140,0)" stroke="rgb(255,140,0)" /><path d="M 922 830 Q 919 839 924 850 Q 928 861 938 858 Q 947 855 950 846 Q 953 837 949 826 Q 945 815 935 818 Q 925 821 922 830 Z" fill="rgb(41,41,41)" stroke="rgb(41,41,41)" /><path d="M 574 511 Q 569 520 573 526 Q 577 533 584 533 Q 591 533 601 524 Q 611 514 602 506 Q 594 497 586 500 Q 579 503 574 511 Z" fill="rgb(255,140,0)" stroke="rgb(255,140,0)" /><path d="M 540 680 Q 520 680 525 695 Q 530 710 540 720 Q 550 730 560 740 Q 570 750 585 755 Q 600 760 600 740 Q 600 720 585 715 Q 570 710 565 695 Q 560 680 540 680 Z" fill="rgb(0,255,0)" stroke="rgb(0,255,0)" /><path d="M 205 585 Q 200 600 215 595 Q 230 590 240 580 Q 250 570 260 560 Q 270 550 275 535 Q 280 520 265 525 Q 250 530 240 540 Q 230 550 220 560 Q 210 570 205 585 Z" fill="rgb(0,123,0)" stroke="rgb(0,123,0)" /><path d="M 609 609 Q 598 620 609 630 Q 620 640 630 630 Q 640 619 630 609 Q 619 598 609 609 Z" fill="rgb(255,140,0)" stroke="rgb(255,140,0)" /><path d="M 575 685 Q 560 680 565 695 Q 570 710 585 715 Q 600 720 595 705 Q 590 690 575 685 Z" fill="rgb(0,123,0)" stroke="rgb(0,123,0)" /><path d="M 1009 769 Q 999 780 1010 790 Q 1021 800 1031 790 Q 1040 779 1030 769 Q 1019 759 1009 769 Z" fill="rgb(0,189,0)" stroke="rgb(0,189,0)" /><path d="M 165 345 Q 160 360 175 355 Q 190 350 195 335 Q 200 320 185 325 Q 170 330 165 345 Z" fill="rgb(41,41,41)" stroke="rgb(41,41,41)" /><path d="M 495 125 Q 480 120 485 135 Q 490 150 505 155 Q 520 160 515 145 Q 510 130 495 125 Z" fill="rgb(0,189,0)" stroke="rgb(0,189,0)" /><path d="M 125 305 Q 120 320 135 315 Q 150 310 155 295 Q 160 280 145 285 Q 130 290 125 305 Z" fill="rgb(0,255,0)" stroke="rgb(0,255,0)" /><path d="M 535 605 Q 520 600 525 615 Q 530 630 545 635 Q 560 640 555 625 Q 550 610 535 605 Z" fill="rgb(0,123,0)" stroke="rgb(0,123,0)" /><path d="M 455 85 Q 440 80 445 95 Q 450 110 465 115 Q 480 120 475 105 Q 470 90 455 85 Z" fill="rgb(0,255,0)" stroke="rgb(0,255,0)" /><path d="M 50 387 Q 45 401 45 421 Q 45 440 44 459 Q 44 478 44 498 Q 44 517 49 532 Q 55 547 64 556 Q 74 566 84 575 Q 94 585 103 595 Q 113 604 123 614 Q 133 624 148 629 Q 162 633 180 639 Q 198 645 212 650 Q 227 655 239 659 Q 251 664 266 669 Q 281 674 300 674 Q 319 674 332 669 Q 346 664 357 660 Q 368 656 378 657 Q 388 658 396 666 Q 404 674 414 683 Q 424 693 429 707 Q 433 721 435 740 Q 437 758 439 778 Q 441 798 443 818 Q 445 838 450 852 Q 454 866 458 878 Q 462 889 462 899 Q 461 908 457 919 Q 454 930 449 945 Q 445 960 444 979 Q 444 998 449 1012 Q 455 1026 464 1035 Q 473 1044 483 1054 Q 493 1064 508 1068 Q 522 1073 539 1078 Q 556 1083 570 1089 Q 585 1094 591 1105 Q 597 1116 605 1131 Q 613 1145 627 1149 Q 641 1154 660 1154 Q 679 1154 700 1155 Q 720 1155 739 1155 Q 759 1156 779 1156 Q 799 1156 819 1156 Q 838 1156 857 1156 Q 877 1156 891 1150 Q 906 1144 913 1131 Q 920 1118 928 1105 Q 935 1092 943 1081 Q 952 1070 959 1060 Q 966 1050 975 1038 Q 984 1026 989 1012 Q 993 997 999 979 Q 1005 961 1010 946 Q 1015 932 1019 920 Q 1023 907 1028 892 Q 1033 877 1039 859 Q 1044 841 1050 827 Q 1055 812 1059 801 Q 1064 789 1069 775 Q 1074 760 1069 746 Q 1064 733 1051 726 Q 1038 720 1025 713 Q 1012 707 1000 701 Q 988 696 974 691 Q 959 686 946 690 Q 933 695 921 699 Q 909 703 900 701 Q 890 700 880 697 Q 870 694 854 690 Q 838 685 819 685 Q 800 684 780 684 Q 760 684 747 689 Q 733 694 722 699 Q 711 703 701 702 Q 691 701 683 694 Q 676 687 666 678 Q 657 669 658 660 Q 659 651 660 640 Q 662 630 661 620 Q 661 610 658 599 Q 654 589 650 573 Q 645 558 645 539 Q 644 520 645 500 Q 645 480 650 466 Q 655 451 659 440 Q 663 429 668 414 Q 673 399 669 386 Q 664 373 660 361 Q 657 350 658 340 Q 659 331 662 321 Q 665 311 669 296 Q 674 280 669 266 Q 664 252 655 243 Q 645 235 635 225 Q 625 215 614 208 Q 602 201 588 193 Q 575 185 567 172 Q 560 160 552 146 Q 544 133 535 123 Q 525 113 516 104 Q 506 94 496 84 Q 487 75 477 65 Q 467 55 453 50 Q 439 45 426 50 Q 412 55 404 64 Q 395 73 385 83 Q 375 93 370 107 Q 366 121 365 140 Q 365 159 364 178 Q 364 197 357 210 Q 350 224 340 223 Q 331 221 319 218 Q 308 214 293 210 Q 278 205 259 205 Q 240 204 226 210 Q 212 216 200 221 Q 188 227 175 233 Q 163 240 148 247 Q 133 254 124 264 Q 114 273 104 284 Q 94 294 87 307 Q 81 321 74 334 Q 68 347 62 359 Q 55 372 50 387 Z M 493 948 Q 496 935 510 930 Q 524 926 539 929 Q 554 932 563 933 Q 572 935 581 937 Q 590 939 602 932 Q 615 925 623 920 Q 632 915 642 910 Q 653 904 662 902 Q 671 900 680 910 Q 689 921 674 935 Q 660 949 652 956 Q 645 963 634 973 Q 624 983 613 992 Q 603 1002 594 1010 Q 584 1019 572 1024 Q 560 1029 547 1025 Q 534 1020 525 1011 Q 516 1001 508 992 Q 500 984 496 972 Q 491 960 493 948 Z M 645 1065 Q 650 1050 665 1045 Q 680 1040 685 1025 Q 690 1010 705 1005 Q 720 1000 740 1000 Q 760 1000 780 1000 Q 800 1000 820 1000 Q 840 1000 855 1005 Q 870 1010 875 1025 Q 880 1040 880 1060 Q 880 1080 875 1095 Q 870 1110 855 1115 Q 840 1120 820 1120 Q 800 1120 780 1120 Q 760 1120 740 1120 Q 720 1120 700 1120 Q 680 1120 665 1115 Q 650 1110 645 1095 Q 640 1080 645 1065 Z M 725 745 Q 730 730 745 725 Q 760 720 780 720 Q 800 720 820 720 Q 840 720 855 725 Q 870 730 875 745 Q 880 760 875 775 Q 870 790 855 795 Q 840 800 820 800 Q 800 800 780 800 Q 760 800 745 795 Q 730 790 725 775 Q 720 760 725 745 Z M 745 925 Q 760 920 780 920 Q 800 920 820 920 Q 840 920 855 925 Q 870 930 870 940 Q 870 950 855 955 Q 840 960 820 960 Q 800 960 780 960 Q 760 960 745 955 Q 730 950 730 940 Q 730 930 745 925 Z M 578 269 Q 581 261 590 257 Q 600 254 610 256 Q 620 258 623 269 Q 626 280 622 290 Q 619 299 609 302 Q 598 306 589 303 Q 579 301 577 289 Q 575 278 578 269 Z M 574 511 Q 579 503 586 500 Q 594 497 602 506 Q 611 514 601 524 Q 591 533 584 533 Q 577 533 573 526 Q 569 520 574 511 Z M 607 389 Q 612 380 622 380 Q 632 379 638 388 Q 643 397 637 406 Q 631 415 622 417 Q 613 418 607 408 Q 602 398 607 389 Z M 1009 769 Q 1019 759 1030 769 Q 1040 779 1031 790 Q 1021 800 1010 790 Q 999 780 1009 769 Z M 609 609 Q 619 598 630 609 Q 640 619 630 630 Q 620 640 609 630 Q 598 620 609 609 Z" fill="rgb(41,41,41)" stroke="rgb(41,41,41)" /><path d="M 85 385 Q 80 400 80 420 Q 80 440 80 459 Q 80 480 80 500 Q 80 520 95 525 Q 110 530 120 540 Q 130 550 145 555 Q 160 560 175 555 Q 190 550 199 540 Q 210 530 220 520 Q 230 510 235 495 Q 240 480 245 465 Q 250 450 260 440 Q 270 430 280 420 Q 290 410 299 410 Q 310 410 315 425 Q 320 440 335 445 Q 350 450 355 465 Q 360 480 365 495 Q 370 510 380 520 Q 390 530 400 540 Q 410 550 425 555 Q 440 560 460 560 Q 480 560 480 540 Q 480 520 480 500 Q 480 480 480 460 Q 480 440 475 425 Q 470 410 460 400 Q 450 390 445 375 Q 440 360 425 355 Q 410 350 400 340 Q 390 330 380 320 Q 370 310 365 295 Q 360 280 345 275 Q 330 270 320 260 Q 310 250 295 245 Q 280 240 260 240 Q 240 240 225 245 Q 210 250 205 265 Q 200 280 215 285 Q 230 290 230 299 Q 230 310 215 315 Q 200 320 195 335 Q 190 350 175 355 Q 160 360 139 360 Q 120 360 105 365 Q 90 370 85 385 Z" fill="rgb(0,255,0)" stroke="rgb(0,255,0)" /><path d="M 655 1075 Q 640 1080 645 1095 Q 650 1110 665 1115 Q 680 1120 700 1120 Q 720 1120 740 1120 Q 760 1120 780 1120 Q 800 1120 820 1120 Q 840 1120 855 1115 Q 870 1110 875 1095 Q 880 1080 880 1060 Q 880 1040 875 1025 Q 870 1010 855 1005 Q 840 1000 820 1000 Q 800 1000 780 1000 Q 760 1000 740 1000 Q 720 1000 705 1005 Q 690 1010 685 1025 Q 680 1040 675 1055 Q 670 1070 655 1075 Z" fill="rgb(189,41,0)" stroke="rgb(189,41,0)" /></svg>