<?xml version="1.0" encoding="utf-8" ?>
<svg baseProfile="full" height="100%" version="1.1" width="100%" xmlns="http://www.w3.org/2000/svg" xmlns:ev="http://www.w3.org/2001/xml-events" xmlns:xlink="http://www.w3.org/1999/xlink"><defs /><path d="M 92 267 Q 87 282 86 301 Q 86 320 86 339 Q 86 359 86 379 Q 85 398 86 418 Q 86 438 91 452 Q 97 467 103 479 Q 109 492 115 503 Q 121 515 129 530 Q 136 545 145 554 Q 154 563 165 573 Q 175 583 188 590 Q 202 597 214 603 Q 227 609 239 616 Q 252 622 267 627 Q 282 632 301 633 Q 320 633 339 633 Q 358 634 378 634 Q 399 634 412 628 Q 426 622 438 616 Q 449 611 464 604 Q 478 597 492 590 Q 506 583 518 577 Q 530 571 542 565 Q 554 560 569 552 Q 584 544 591 531 Q 597 519 603 506 Q 610 493 616 481 Q 622 468 627 454 Q 631 439 628 426 Q 625 413 621 401 Q 618 389 620 380 Q 621 371 623 361 Q 625 352 629 336 Q 633 320 627 306 Q 622 293 615 282 Q 607 271 600 259 Q 592 248 585 236 Q 577 225 569 213 Q 562 202 553 188 Q 543 174 534 165 Q 525 156 515 146 Q 504 136 491 129 Q 477 122 465 116 Q 452 110 440 104 Q 427 97 412 92 Q 397 86 378 86 Q 359 86 340 86 Q 321 85 301 85 Q 281 85 266 91 Q 252 97 240 103 Q 228 109 216 115 Q 204 121 189 128 Q 174 136 165 145 Q 156 154 146 165 Q 136 175 129 188 Q 123 200 116 213 Q 110 226 103 239 Q 97 252 92 267 Z M 149 405 Q 155 399 166 406 Q 178 413 186 414 Q 194 415 201 415 Q 209 416 219 416 Q 230 417 240 418 Q 250 418 260 419 Q 270 419 278 419 Q 287 420 296 420 Q 306 421 314 430 Q 322 440 328 447 Q 333 453 335 460 Q 336 467 330 474 Q 324 480 313 473 Q 301 466 293 465 Q 285 464 276 463 Q 267 463 259 462 Q 251 462 240 461 Q 229 461 218 460 Q 208 460 199 459 Q 191 459 182 459 Q 173 458 165 449 Q 157 439 152 433 Q 146 426 145 419 Q 144 412 149 405 Z M 364 265 Q 379 252 387 244 Q 396 236 405 228 Q 415 220 427 215 Q 439 210 452 214 Q 465 219 474 228 Q 484 238 492 246 Q 500 255 506 269 Q 512 283 512 302 Q 511 321 510 338 Q 509 356 505 368 Q 502 380 491 386 Q 480 392 475 373 Q 470 355 470 337 Q 469 319 469 301 Q 468 282 465 270 Q 462 258 450 253 Q 438 248 425 253 Q 413 258 404 270 Q 394 281 388 289 Q 382 297 373 301 Q 363 306 356 292 Q 349 279 364 265 Z M 256 231 Q 261 223 271 217 Q 280 210 287 225 Q 295 240 282 259 Q 270 278 264 287 Q 258 296 248 301 Q 239 307 232 293 Q 225 278 238 259 Q 251 239 256 231 Z M 176 231 Q 182 222 191 216 Q 200 210 207 225 Q 215 240 202 260 Q 189 279 183 287 Q 178 295 169 302 Q 159 308 152 293 Q 144 278 157 259 Q 170 239 176 231 Z" fill="rgb(192,192,192)" stroke="rgb(192,192,192)" /><path d="M 20 0 Q 0 0 0 20 Q 0 40 0 60 Q 0 80 0 99 Q 0 120 0 140 Q 0 160 0 179 Q 0 200 0 220 Q 0 240 0 260 Q 0 280 0 299 Q 0 320 0 340 Q 0 360 0 380 Q 0 400 0 419 Q 0 440 0 460 Q 0 480 0 499 Q 0 520 0 540 Q 0 560 0 580 Q 0 600 0 619 Q 0 640 0 660 Q 0 680 0 700 Q 0 720 19 720 Q 40 720 60 720 Q 80 720 100 720 Q 120 720 139 720 Q 160 720 180 720 Q 200 720 219 720 Q 240 720 260 720 Q 280 720 300 720 Q 320 720 339 720 Q 360 720 380 720 Q 400 720 420 720 Q 440 720 459 720 Q 480 720 500 720 Q 520 720 539 720 Q 560 720 580 720 Q 600 720 620 720 Q 640 720 660 720 Q 680 720 700 720 Q 720 720 720 700 Q 720 680 720 659 Q 720 640 720 620 Q 720 600 720 580 Q 720 560 720 540 Q 720 520 720 499 Q 720 480 720 460 Q 720 440 720 420 Q 720 400 720 379 Q 720 360 720 340 Q 720 320 720 300 Q 720 280 720 259 Q 720 240 720 220 Q 720 200 720 180 Q 720 160 720 139 Q 720 120 720 100 Q 720 80 720 60 Q 720 40 720 19 Q 720 0 700 0 Q 680 0 660 0 Q 640 0 620 0 Q 600 0 579 0 Q 560 0 540 0 Q 520 0 500 0 Q 480 0 459 0 Q 440 0 420 0 Q 400 0 380 0 Q 360 0 339 0 Q 320 0 300 0 Q 280 0 260 0 Q 240 0 219 0 Q 200 0 180 0 Q 160 0 140 0 Q 120 0 99 0 Q 80 0 60 0 Q 40 0 19 0 Z M 52 267 Q 57 252 63 241 Q 69 229 76 215 Q 83 200 89 188 Q 96 175 106 164 Q 116 154 125 144 Q 135 135 145 125 Q 154 115 164 105 Q 173 96 188 88 Q 203 81 216 74 Q 229 68 241 62 Q 252 57 266 51 Q 281 45 301 45 Q 321 45 340 45 Q 359 46 378 46 Q 397 46 412 52 Q 427 57 439 63 Q 452 69 465 76 Q 478 83 491 89 Q 504 96 515 106 Q 525 116 535 125 Q 544 134 554 144 Q 564 154 574 164 Q 584 174 593 188 Q 602 202 609 214 Q 617 226 625 237 Q 633 249 640 260 Q 648 271 655 282 Q 662 293 668 306 Q 673 320 669 336 Q 665 352 663 362 Q 661 372 660 380 Q 658 389 661 401 Q 664 413 668 426 Q 671 439 667 454 Q 662 468 656 480 Q 650 492 643 505 Q 637 518 630 531 Q 624 544 613 555 Q 603 565 594 574 Q 585 584 570 591 Q 555 599 543 605 Q 530 612 518 618 Q 506 624 492 631 Q 478 638 465 644 Q 452 650 439 656 Q 427 663 413 668 Q 398 674 378 674 Q 358 674 339 674 Q 319 673 301 673 Q 282 673 267 667 Q 252 662 239 656 Q 226 649 214 643 Q 201 637 188 630 Q 175 623 164 613 Q 154 603 144 594 Q 135 584 125 574 Q 114 564 105 555 Q 95 545 88 530 Q 80 515 75 503 Q 69 491 63 479 Q 57 467 51 452 Q 45 438 45 418 Q 45 398 45 379 Q 46 360 46 340 Q 46 320 46 301 Q 46 282 52 267 Z" fill="rgb(196,196,196)" stroke="rgb(196,196,196)" /><path d="M 52 267 Q 46 282 46 301 Q 46 320 46 340 Q 46 360 45 379 Q 45 398 45 418 Q 45 438 51 452 Q 57 467 63 479 Q 69 491 75 503 Q 80 515 88 530 Q 95 545 105 555 Q 114 564 125 574 Q 135 584 144 594 Q 154 603 164 613 Q 175 623 188 630 Q 201 637 214 643 Q 226 649 239 656 Q 252 662 267 667 Q 282 673 301 673 Q 319 673 339 674 Q 358 674 378 674 Q 398 674 413 668 Q 427 663 439 656 Q 452 650 465 644 Q 478 638 492 631 Q 506 624 518 618 Q 530 612 543 605 Q 555 599 570 591 Q 585 584 594 574 Q 603 565 613 555 Q 624 544 630 531 Q 637 518 643 505 Q 650 492 656 480 Q 662 468 667 454 Q 671 439 668 426 Q 664 413 661 401 Q 658 389 660 380 Q 661 372 663 362 Q 665 352 669 336 Q 673 320 668 306 Q 662 293 655 282 Q 648 271 640 260 Q 633 249 625 237 Q 617 226 609 214 Q 602 202 593 188 Q 584 174 574 164 Q 564 154 554 144 Q 544 134 535 125 Q 525 116 515 106 Q 504 96 491 89 Q 478 83 465 76 Q 452 69 439 63 Q 427 57 412 52 Q 397 46 378 46 Q 359 46 340 45 Q 321 45 301 45 Q 281 45 266 51 Q 252 57 241 62 Q 229 68 216 74 Q 203 81 188 88 Q 173 96 164 105 Q 154 115 145 125 Q 135 135 125 144 Q 116 154 106 164 Q 96 175 89 188 Q 83 200 76 215 Q 69 229 63 241 Q 57 252 52 267 Z M 92 267 Q 97 252 103 239 Q 110 226 116 213 Q 123 200 129 188 Q 136 175 146 165 Q 156 154 165 145 Q 174 136 189 128 Q 204 121 216 115 Q 228 109 240 103 Q 252 97 266 91 Q 281 85 301 85 Q 321 85 340 86 Q 359 86 378 86 Q 397 86 412 92 Q 427 97 440 104 Q 452 110 465 116 Q 477 122 491 129 Q 504 136 515 146 Q 525 156 534 165 Q 543 174 553 188 Q 562 202 569 213 Q 577 225 585 236 Q 592 248 600 259 Q 607 271 615 282 Q 622 293 627 306 Q 633 320 629 336 Q 625 352 623 361 Q 621 371 620 380 Q 618 389 621 401 Q 625 413 628 426 Q 631 439 627 454 Q 622 468 616 481 Q 610 493 603 506 Q 597 519 591 531 Q 584 544 569 552 Q 554 560 542 565 Q 530 571 518 577 Q 506 583 492 590 Q 478 597 464 604 Q 449 611 438 616 Q 426 622 412 628 Q 399 634 378 634 Q 358 634 339 633 Q 320 633 301 633 Q 282 632 267 627 Q 252 622 239 616 Q 227 609 214 603 Q 202 597 188 590 Q 175 583 165 573 Q 154 563 145 554 Q 136 545 129 530 Q 121 515 115 503 Q 109 492 103 479 Q 97 467 91 452 Q 86 438 86 418 Q 85 398 86 379 Q 86 359 86 339 Q 86 320 86 301 Q 87 282 92 267 Z" fill="rgb(0,0,0)" stroke="rgb(0,0,0)" /><path d="M 364 265 Q 349 279 356 292 Q 363 306 373 301 Q 382 297 388 289 Q 394 281 404 270 Q 413 258 425 253 Q 438 248 450 253 Q 462 258 465 270 Q 468 282 469 301 Q 469 319 470 337 Q 470 355 475 373 Q 480 392 491 386 Q 502 380 505 368 Q 509 356 510 338 Q 511 321 512 302 Q 512 283 506 269 Q 500 255 492 246 Q 484 238 474 228 Q 465 219 452 214 Q 439 210 427 215 Q 415 220 405 228 Q 396 236 387 244 Q 379 252 364 265 Z" fill="rgb(0,0,0)" stroke="rgb(0,0,0)" /><path d="M 149 405 Q 144 412 145 419 Q 146 426 152 433 Q 157 439 165 449 Q 173 458 182 459 Q 191 459 199 459 Q 208 460 218 460 Q 229 461 240 461 Q 251 462 259 462 Q 267 463 276 463 Q 285 464 293 465 Q 301 466 313 473 Q 324 480 330 474 Q 336 467 335 460 Q 333 453 328 447 Q 322 440 314 430 Q 306 421 296 420 Q 287 420 278 419 Q 270 419 260 419 Q 250 418 240 418 Q 230 417 219 416 Q 209 416 201 415 Q 194 415 186 414 Q 178 413 166 406 Q 155 399 149 405 Z" fill="rgb(248,16,88)" stroke="rgb(248,16,88)" /><path d="M 256 231 Q 251 239 238 259 Q 225 278 232 293 Q 239 307 248 301 Q 258 296 264 287 Q 270 278 282 259 Q 295 240 287 225 Q 280 210 271 217 Q 261 223 256 231 Z" fill="rgb(0,0,0)" stroke="rgb(0,0,0)" /><path d="M 176 231 Q 170 239 157 259 Q 144 278 152 293 Q 159 308 169 302 Q 178 295 183 287 Q 189 279 202 260 Q 215 240 207 225 Q 200 210 191 216 Q 182 222 176 231 Z" fill="rgb(0,0,0)" stroke="rgb(0,0,0)" /></svg>