<?xml version="1.0" encoding="utf-8" ?>
<svg baseProfile="full" height="100%" version="1.1" width="100%" xmlns="http://www.w3.org/2000/svg" xmlns:ev="http://www.w3.org/2001/xml-events" xmlns:xlink="http://www.w3.org/1999/xlink"><defs><radialGradient cx="359.672794118" cy="359.816176471" fx="359.672794118" fy="359.816176471" id="id1" r="100412.631975"><stop offset="0%" stop-color="rgb(214,206,214)" /><stop offset="70%" stop-color="white" /></radialGradient><radialGradient cx="100.0" cy="280.0" fx="100.0" fy="280.0" id="id2" r="339.41125497"><stop offset="0%" stop-color="rgb(0,120,0)" /><stop offset="70%" stop-color="white" /></radialGradient><radialGradient cx="497.46875" cy="239.9375" fx="497.46875" fy="239.9375" id="id3" r="7266.55099931"><stop offset="0%" stop-color="rgb(0,184,0)" /><stop offset="70%" stop-color="white" /></radialGradient><radialGradient cx="158.59375" cy="360.0" fx="158.59375" fy="360.0" id="id4" r="2482.66973107"><stop offset="0%" stop-color="rgb(248,248,248)" /><stop offset="70%" stop-color="white" /></radialGradient><radialGradient cx="360.04" cy="384.64" fx="360.04" fy="384.64" id="id5" r="81455.1574072"><stop offset="0%" stop-color="rgb(0,0,0)" /><stop offset="70%" stop-color="white" /></radialGradient><radialGradient cx="361.444444444" cy="554.5" fx="361.444444444" fy="554.5" id="id6" r="8755.55697166"><stop offset="0%" stop-color="rgb(248,248,248)" /><stop offset="70%" stop-color="white" /></radialGradient><radialGradient cx="140.0" cy="260.0" fx="140.0" fy="260.0" id="id7" r="160.0"><stop offset="0%" stop-color="rgb(0,184,0)" /><stop offset="70%" stop-color="white" /></radialGradient><radialGradient cx="546.666666667" cy="173.333333333" fx="546.666666667" fy="173.333333333" id="id8" r="1220.48676094"><stop offset="0%" stop-color="rgb(248,248,248)" /><stop offset="70%" stop-color="white" /></radialGradient><radialGradient cx="399.909090909" cy="301.795454545" fx="399.909090909" fy="301.795454545" id="id9" r="5081.0292676"><stop offset="0%" stop-color="rgb(248,248,248)" /><stop offset="70%" stop-color="white" /></radialGradient><radialGradient cx="399.0" cy="101.0" fx="399.0" fy="101.0" id="id10" r="1030.12084672"><stop offset="0%" stop-color="rgb(0,120,0)" /><stop offset="70%" stop-color="white" /></radialGradient><radialGradient cx="372.75" cy="246.921052632" fx="372.75" fy="246.921052632" id="id11" r="10201.2866484"><stop offset="0%" stop-color="rgb(0,248,0)" /><stop offset="70%" stop-color="white" /></radialGradient><radialGradient cx="605.833333333" cy="399.166666667" fx="605.833333333" fy="399.166666667" id="id12" r="1362.73230955"><stop offset="0%" stop-color="rgb(248,248,248)" /><stop offset="70%" stop-color="white" /></radialGradient><radialGradient cx="329.588235294" cy="433.823529412" fx="329.588235294" fy="433.823529412" id="id13" r="10298.4143977"><stop offset="0%" stop-color="rgb(0,120,0)" /><stop offset="70%" stop-color="white" /></radialGradient><radialGradient cx="618.333333333" cy="281.666666667" fx="618.333333333" fy="281.666666667" id="id14" r="362.899028142"><stop offset="0%" stop-color="rgb(0,120,0)" /><stop offset="70%" stop-color="white" /></radialGradient><radialGradient cx="222.722222222" cy="162.777777778" fx="222.722222222" fy="162.777777778" id="id15" r="2962.01333366"><stop offset="0%" stop-color="rgb(248,248,248)" /><stop offset="70%" stop-color="white" /></radialGradient><radialGradient cx="278.333333333" cy="381.666666667" fx="278.333333333" fy="381.666666667" id="id16" r="362.899028142"><stop offset="0%" stop-color="rgb(0,184,0)" /><stop offset="70%" stop-color="white" /></radialGradient></defs><path d="M 20 0 Q 0 0 0 20 Q 0 40 0 60 Q 0 80 0 99 Q 0 120 0 140 Q 0 160 0 179 Q 0 200 0 220 Q 0 240 0 260 Q 0 280 0 299 Q 0 320 0 340 Q 0 360 0 380 Q 0 400 0 419 Q 0 440 0 460 Q 0 480 0 499 Q 0 520 0 540 Q 0 560 0 580 Q 0 600 0 619 Q 0 640 0 660 Q 0 680 0 700 Q 0 720 19 720 Q 40 720 60 720 Q 80 720 100 720 Q 120 720 139 720 Q 160 720 180 720 Q 200 720 219 720 Q 240 720 260 720 Q 280 720 300 720 Q 320 720 339 720 Q 360 720 380 720 Q 400 720 420 720 Q 440 720 459 720 Q 480 720 500 720 Q 520 720 539 720 Q 560 720 580 720 Q 600 720 620 720 Q 640 720 660 720 Q 680 720 700 720 Q 720 720 720 700 Q 720 680 720 659 Q 720 640 720 620 Q 720 600 720 580 Q 720 560 720 540 Q 720 520 720 499 Q 720 480 720 460 Q 720 440 720 420 Q 720 400 720 379 Q 720 360 720 340 Q 720 320 720 300 Q 720 280 720 259 Q 720 240 720 220 Q 720 200 720 180 Q 720 160 720 139 Q 720 120 720 100 Q 720 80 720 60 Q 720 40 720 19 Q 720 0 700 0 Q 680 0 660 0 Q 640 0 620 0 Q 600 0 579 0 Q 560 0 540 0 Q 520 0 500 0 Q 480 0 459 0 Q 440 0 420 0 Q 400 0 380 0 Q 360 0 339 0 Q 320 0 300 0 Q 280 0 260 0 Q 240 0 219 0 Q 200 0 180 0 Q 160 0 140 0 Q 120 0 99 0 Q 80 0 60 0 Q 40 0 19 0 Z M 52 267 Q 57 252 63 239 Q 69 227 76 214 Q 82 201 89 188 Q 95 174 105 164 Q 115 154 125 144 Q 135 134 144 125 Q 154 115 164 105 Q 173 95 189 88 Q 204 80 217 74 Q 230 68 241 62 Q 252 57 266 51 Q 281 45 301 45 Q 321 45 340 45 Q 359 46 379 46 Q 399 46 418 46 Q 437 46 452 52 Q 467 57 480 63 Q 493 70 505 76 Q 518 82 531 89 Q 545 96 555 106 Q 565 116 575 125 Q 584 135 594 144 Q 604 154 614 164 Q 624 173 631 188 Q 639 204 645 216 Q 651 228 657 240 Q 662 252 668 266 Q 674 281 674 301 Q 674 321 674 340 Q 673 359 673 379 Q 673 399 673 418 Q 673 437 668 452 Q 663 466 654 479 Q 646 491 638 502 Q 631 512 624 523 Q 616 534 608 547 Q 599 560 591 572 Q 583 584 573 594 Q 563 604 554 614 Q 544 624 534 634 Q 524 644 515 654 Q 506 663 491 669 Q 477 674 457 675 Q 438 675 419 675 Q 399 675 379 674 Q 359 674 339 674 Q 320 674 300 674 Q 280 673 261 673 Q 242 673 228 668 Q 214 663 204 653 Q 194 643 184 634 Q 174 624 164 614 Q 155 604 145 595 Q 135 585 126 571 Q 117 557 110 546 Q 102 534 95 523 Q 87 512 79 500 Q 72 489 64 478 Q 57 466 51 452 Q 45 438 45 418 Q 45 398 45 379 Q 46 360 46 340 Q 46 320 46 301 Q 46 282 52 267 Z" fill="url(#id1) none" /><path d="M 85 265 Q 80 280 80 300 Q 80 320 95 315 Q 110 310 115 295 Q 120 280 120 260 Q 120 240 105 245 Q 90 250 85 265 Z" fill="url(#id2) none" /><path d="M 340 120 Q 320 120 320 140 Q 320 160 340 160 Q 360 160 380 160 Q 400 160 420 160 Q 440 160 455 165 Q 470 170 480 180 Q 490 190 500 200 Q 510 210 520 220 Q 530 230 540 240 Q 550 250 555 265 Q 560 280 560 300 Q 560 320 555 335 Q 550 350 535 355 Q 520 360 505 365 Q 490 370 485 385 Q 480 400 500 400 Q 520 400 540 400 Q 560 400 565 385 Q 570 370 580 360 Q 590 350 595 334 Q 600 320 600 300 Q 600 280 600 259 Q 600 240 585 235 Q 570 230 560 220 Q 550 210 540 200 Q 530 190 520 180 Q 510 170 500 160 Q 490 150 485 135 Q 480 120 459 120 Q 440 120 420 120 Q 400 120 380 120 Q 360 120 340 120 Z" fill="url(#id3) none" /><path d="M 95 315 Q 80 320 80 340 Q 80 360 80 380 Q 80 400 95 405 Q 110 410 120 420 Q 130 430 144 435 Q 160 440 175 435 Q 190 430 200 420 Q 210 410 225 405 Q 240 400 240 380 Q 240 360 235 345 Q 230 330 220 320 Q 210 310 200 300 Q 190 290 175 285 Q 160 280 139 280 Q 120 280 115 295 Q 110 310 94 315 Z" fill="url(#id4) none" /><path d="M 52 267 Q 46 282 46 301 Q 46 320 46 340 Q 46 360 45 379 Q 45 398 45 418 Q 45 438 51 452 Q 57 466 64 478 Q 72 489 79 500 Q 87 512 95 523 Q 102 534 110 546 Q 117 557 126 571 Q 135 585 145 595 Q 155 604 164 614 Q 174 624 184 634 Q 194 643 204 653 Q 214 663 228 668 Q 242 673 261 673 Q 280 673 300 674 Q 320 674 339 674 Q 359 674 379 674 Q 399 675 419 675 Q 438 675 457 675 Q 477 674 491 669 Q 506 663 515 654 Q 524 644 534 634 Q 544 624 554 614 Q 563 604 573 594 Q 583 584 591 572 Q 599 560 608 547 Q 616 534 624 523 Q 631 512 638 502 Q 646 491 654 479 Q 663 466 668 452 Q 673 437 673 418 Q 673 399 673 379 Q 673 359 674 340 Q 674 321 674 301 Q 674 281 668 266 Q 662 252 657 240 Q 651 228 645 216 Q 639 204 631 188 Q 624 173 614 164 Q 604 154 594 144 Q 584 135 575 125 Q 565 116 555 106 Q 545 96 531 89 Q 518 82 505 76 Q 493 70 480 63 Q 467 57 452 52 Q 437 46 418 46 Q 399 46 379 46 Q 359 46 340 45 Q 321 45 301 45 Q 281 45 266 51 Q 252 57 241 62 Q 230 68 217 74 Q 204 80 189 88 Q 173 95 164 105 Q 154 115 144 125 Q 135 134 125 144 Q 115 154 105 164 Q 95 174 89 188 Q 82 201 76 214 Q 69 227 63 239 Q 57 252 52 267 Z M 85 265 Q 90 250 105 245 Q 120 240 120 220 Q 120 200 125 185 Q 130 170 140 160 Q 150 150 160 140 Q 170 130 185 125 Q 200 120 215 115 Q 230 110 240 100 Q 250 90 265 85 Q 280 80 300 80 Q 320 80 340 80 Q 360 80 380 80 Q 400 80 420 80 Q 440 80 455 85 Q 470 90 475 105 Q 480 120 500 120 Q 520 120 535 125 Q 550 130 560 139 Q 570 150 580 160 Q 590 170 595 184 Q 600 200 600 220 Q 600 240 615 245 Q 630 250 635 265 Q 640 280 640 299 Q 640 320 640 340 Q 640 360 640 380 Q 640 400 640 420 Q 640 440 635 455 Q 630 470 615 475 Q 600 480 580 480 Q 560 480 545 475 Q 530 470 520 460 Q 510 450 495 445 Q 480 440 460 440 Q 440 440 419 440 Q 400 440 380 440 Q 360 440 340 440 Q 320 440 300 440 Q 280 440 259 440 Q 240 440 225 445 Q 210 450 200 460 Q 190 470 175 475 Q 160 480 139 480 Q 120 480 105 475 Q 90 470 85 455 Q 80 440 80 420 Q 80 400 80 380 Q 80 360 80 340 Q 80 320 80 300 Q 80 280 85 265 Z M 172 547 Q 177 533 187 524 Q 197 514 206 506 Q 214 498 227 493 Q 239 488 253 492 Q 266 496 275 509 Q 284 522 290 531 Q 297 539 307 543 Q 317 547 323 533 Q 329 518 334 507 Q 338 497 349 492 Q 361 487 374 492 Q 386 496 395 509 Q 404 522 410 531 Q 416 540 426 544 Q 436 548 443 532 Q 449 517 453 507 Q 458 497 469 492 Q 481 487 493 492 Q 506 497 515 507 Q 524 517 533 525 Q 541 534 546 546 Q 551 559 546 572 Q 542 586 532 595 Q 522 605 513 613 Q 505 622 491 628 Q 477 633 457 634 Q 438 634 419 634 Q 401 633 380 633 Q 359 633 339 633 Q 319 633 300 632 Q 280 632 261 631 Q 243 631 229 626 Q 215 622 205 612 Q 195 601 187 593 Q 178 585 173 572 Q 168 560 172 547 Z" fill="url(#id5) none" /><path d="M 172 547 Q 168 560 173 572 Q 178 585 187 593 Q 195 601 205 612 Q 215 622 229 626 Q 243 631 261 631 Q 280 632 300 632 Q 319 633 339 633 Q 359 633 380 633 Q 401 633 419 634 Q 438 634 457 634 Q 477 633 491 628 Q 505 622 513 613 Q 522 605 532 595 Q 542 586 546 572 Q 551 559 546 546 Q 541 534 533 525 Q 524 517 515 507 Q 506 497 493 492 Q 481 487 469 492 Q 458 497 453 507 Q 449 517 443 532 Q 436 548 426 544 Q 416 540 410 531 Q 404 522 395 509 Q 386 496 374 492 Q 361 487 349 492 Q 338 497 334 507 Q 329 518 323 533 Q 317 547 307 543 Q 297 539 290 531 Q 284 522 275 509 Q 266 496 253 492 Q 239 488 227 493 Q 214 498 206 506 Q 197 514 187 524 Q 177 533 172 547 Z" fill="url(#id6) none" /><path d="M 140 240 Q 120 240 120 260 Q 120 280 140 280 Q 160 280 160 260 Q 160 240 140 240 Z" fill="url(#id7) none" /><path d="M 500 120 Q 480 120 485 135 Q 490 150 500 160 Q 510 170 520 180 Q 530 190 540 200 Q 550 210 560 220 Q 570 230 585 235 Q 600 240 600 220 Q 600 200 595 185 Q 590 170 580 160 Q 570 150 560 140 Q 550 130 535 125 Q 520 120 500 120 Z" fill="url(#id8) none" /><path d="M 285 264 Q 280 280 280 300 Q 280 320 280 340 Q 280 360 295 365 Q 310 370 315 385 Q 320 400 340 400 Q 360 400 380 400 Q 400 400 420 400 Q 440 400 459 400 Q 480 400 485 385 Q 490 370 505 365 Q 520 360 520 340 Q 520 320 520 300 Q 520 280 515 265 Q 510 250 500 240 Q 490 230 480 220 Q 470 210 455 205 Q 440 200 419 200 Q 400 200 380 200 Q 360 200 345 205 Q 330 210 320 220 Q 310 230 300 240 Q 290 250 285 265 Z" fill="url(#id9) none" /><path d="M 340 80 Q 320 80 320 100 Q 320 120 340 120 Q 360 120 380 120 Q 400 120 420 120 Q 440 120 460 120 Q 480 120 475 105 Q 470 90 455 85 Q 440 80 420 80 Q 400 80 380 80 Q 360 80 340 80 Z" fill="url(#id10) none" /><path d="M 179 240 Q 160 240 160 259 Q 160 280 175 285 Q 190 290 200 300 Q 210 310 220 320 Q 230 330 234 344 Q 240 360 260 360 Q 280 360 280 340 Q 280 320 280 299 Q 280 280 285 265 Q 290 250 300 240 Q 310 230 320 220 Q 330 210 345 205 Q 360 200 379 200 Q 400 200 420 200 Q 440 200 455 205 Q 470 210 480 220 Q 490 230 499 239 Q 510 250 515 265 Q 520 280 520 300 Q 520 320 520 340 Q 520 360 535 355 Q 550 350 555 335 Q 560 320 560 300 Q 560 280 555 264 Q 550 250 540 240 Q 530 230 519 219 Q 510 210 500 200 Q 490 190 480 180 Q 470 170 455 165 Q 440 160 420 160 Q 400 160 380 160 Q 360 160 340 160 Q 320 160 305 165 Q 290 170 280 180 Q 270 190 260 199 Q 250 210 240 220 Q 230 230 214 235 Q 200 240 180 240 Z" fill="url(#id11) none" /><path d="M 565 385 Q 560 400 565 415 Q 570 430 580 440 Q 590 450 595 465 Q 600 480 615 475 Q 630 470 635 455 Q 640 440 640 420 Q 640 400 640 380 Q 640 360 640 340 Q 640 320 620 320 Q 600 320 595 335 Q 590 350 580 360 Q 570 370 565 385 Z" fill="url(#id12) none" /><path d="M 94 405 Q 80 400 80 420 Q 80 440 85 455 Q 90 470 104 475 Q 120 480 140 480 Q 160 480 175 475 Q 190 470 200 460 Q 210 450 225 445 Q 240 440 260 440 Q 280 440 300 440 Q 320 440 340 440 Q 360 440 380 440 Q 400 440 420 440 Q 440 440 460 440 Q 480 440 495 445 Q 510 450 520 460 Q 530 470 545 475 Q 560 480 580 480 Q 600 480 595 465 Q 590 450 580 440 Q 570 430 565 415 Q 560 400 540 400 Q 520 400 500 400 Q 480 400 459 400 Q 440 400 420 400 Q 400 400 380 400 Q 360 400 340 400 Q 320 400 300 400 Q 280 400 260 400 Q 240 400 225 405 Q 210 410 200 420 Q 190 430 174 435 Q 160 440 145 435 Q 130 430 120 420 Q 110 410 94 405 Z" fill="url(#id13) none" /><path d="M 615 245 Q 600 240 600 260 Q 600 280 600 300 Q 600 320 620 320 Q 640 320 640 300 Q 640 280 635 265 Q 630 250 615 245 Z" fill="url(#id14) none" /><path d="M 125 185 Q 120 200 120 220 Q 120 240 139 240 Q 160 240 180 240 Q 200 240 215 235 Q 230 230 240 220 Q 250 210 260 200 Q 270 190 280 180 Q 290 170 305 165 Q 320 160 320 140 Q 320 120 320 100 Q 320 80 300 80 Q 280 80 265 85 Q 250 90 240 100 Q 230 110 215 115 Q 200 120 185 125 Q 170 130 160 140 Q 150 150 140 160 Q 130 170 125 185 Z" fill="url(#id15) none" /><path d="M 260 360 Q 240 360 240 380 Q 240 400 260 400 Q 280 400 300 400 Q 320 400 315 385 Q 310 370 295 365 Q 280 360 260 360 Z" fill="url(#id16) none" /></svg>