<?xml version="1.0" encoding="utf-8" ?>
<svg baseProfile="full" height="100%" version="1.1" width="100%" xmlns="http://www.w3.org/2000/svg" xmlns:ev="http://www.w3.org/2001/xml-events" xmlns:xlink="http://www.w3.org/1999/xlink"><defs /><path d="M 1085 705 Q 1080 720 1100 720 Q 1120 720 1135 715 Q 1150 710 1160 700 Q 1170 690 1180 680 Q 1190 670 1195 655 Q 1200 640 1180 640 Q 1160 640 1145 645 Q 1130 650 1120 660 Q 1110 670 1100 680 Q 1090 690 1085 705 Z" fill="rgb(128,128,128)" stroke="rgb(128,128,128)" /><path d="M 405 985 Q 400 1000 400 1020 Q 400 1040 400 1060 Q 400 1080 400 1100 Q 400 1120 400 1140 Q 400 1160 400 1180 Q 400 1200 400 1220 Q 400 1240 415 1235 Q 430 1230 440 1220 Q 450 1210 460 1200 Q 470 1190 480 1180 Q 490 1170 500 1160 Q 510 1150 520 1140 Q 530 1130 540 1120 Q 550 1110 555 1095 Q 560 1080 560 1060 Q 560 1040 560 1020 Q 560 1000 560 980 Q 560 960 560 940 Q 560 920 560 900 Q 560 880 560 860 Q 560 840 545 845 Q 530 850 520 860 Q 510 870 500 880 Q 490 890 480 900 Q 470 910 460 920 Q 450 930 440 940 Q 430 950 420 960 Q 410 970 405 985 Z" fill="rgb(192,192,192)" stroke="rgb(192,192,192)" /><path d="M 85 625 Q 80 640 80 660 Q 80 680 95 675 Q 110 670 120 660 Q 130 650 140 640 Q 150 630 160 620 Q 170 610 180 600 Q 190 590 200 580 Q 210 570 220 570 Q 230 570 230 580 Q 230 590 220 600 Q 210 610 200 620 Q 190 630 180 640 Q 170 650 160 660 Q 150 670 140 680 Q 130 690 125 705 Q 120 720 134 715 Q 150 710 160 700 Q 170 690 185 685 Q 200 680 220 680 Q 240 680 255 675 Q 270 670 280 660 Q 290 650 300 640 Q 310 630 310 620 Q 310 610 300 600 Q 290 590 280 580 Q 270 570 260 560 Q 250 550 245 535 Q 240 520 235 505 Q 230 490 220 490 Q 210 490 200 500 Q 190 510 180 520 Q 170 530 160 540 Q 150 550 140 560 Q 130 570 120 580 Q 110 590 99 600 Q 90 610 85 625 Z" fill="rgb(192,192,192)" stroke="rgb(192,192,192)" /><path d="M 365 665 Q 360 680 365 695 Q 370 710 380 720 Q 390 730 400 740 Q 410 750 420 750 Q 430 750 440 740 Q 450 730 460 720 Q 470 710 480 700 Q 490 690 500 680 Q 510 670 515 655 Q 520 640 500 640 Q 480 640 460 640 Q 440 640 420 640 Q 400 640 385 645 Q 370 650 365 665 Z" fill="rgb(192,192,192)" stroke="rgb(192,192,192)" /><path d="M 620 800 Q 600 800 600 820 Q 600 840 600 860 Q 600 880 600 900 Q 600 920 600 940 Q 600 960 605 975 Q 610 990 620 990 Q 630 990 640 980 Q 650 970 660 960 Q 670 950 675 935 Q 680 920 680 900 Q 680 880 680 860 Q 680 840 675 825 Q 670 810 655 805 Q 640 800 620 800 Z" fill="rgb(128,128,128)" stroke="rgb(128,128,128)" /><path d="M 95 675 Q 80 680 85 695 Q 90 710 104 715 Q 120 720 125 705 Q 130 690 140 680 Q 150 670 160 660 Q 170 650 180 640 Q 190 630 200 620 Q 210 610 220 600 Q 230 590 230 580 Q 230 570 220 570 Q 210 570 200 580 Q 190 590 180 600 Q 170 610 160 620 Q 150 630 140 640 Q 130 650 120 660 Q 110 670 94 675 Z" fill="rgb(128,128,128)" stroke="rgb(128,128,128)" /><path d="M 860 960 Q 840 960 840 980 Q 840 1000 860 1000 Q 880 1000 880 980 Q 880 960 860 960 Z" fill="rgb(255,255,0)" stroke="rgb(255,255,0)" /><path d="M 940 960 Q 920 960 920 980 Q 920 1000 940 1000 Q 960 1000 960 980 Q 960 960 940 960 Z" fill="rgb(255,255,0)" stroke="rgb(255,255,0)" /><path d="M 605 745 Q 600 760 620 760 Q 640 760 655 755 Q 670 750 675 735 Q 680 720 660 720 Q 640 720 625 725 Q 610 730 605 745 Z" fill="rgb(128,128,128)" stroke="rgb(128,128,128)" /><path d="M 380 1000 Q 360 1000 360 1020 Q 360 1040 360 1060 Q 360 1080 360 1100 Q 360 1120 360 1140 Q 360 1160 360 1180 Q 360 1200 360 1220 Q 360 1240 360 1260 Q 360 1280 375 1275 Q 390 1270 395 1255 Q 400 1240 400 1220 Q 400 1200 400 1180 Q 400 1160 400 1140 Q 400 1120 400 1100 Q 400 1080 400 1060 Q 400 1040 400 1020 Q 400 1000 380 1000 Z" fill="rgb(128,128,128)" stroke="rgb(128,128,128)" /><path d="M 615 525 Q 600 520 605 535 Q 610 550 625 555 Q 640 560 635 545 Q 630 530 615 525 Z" fill="rgb(0,0,128)" stroke="rgb(0,0,128)" /><path d="M 619 760 Q 600 760 600 780 Q 600 800 620 800 Q 640 800 655 805 Q 670 810 675 825 Q 680 840 700 840 Q 720 840 740 840 Q 760 840 780 840 Q 800 840 819 840 Q 840 840 860 840 Q 880 840 900 840 Q 920 840 940 840 Q 960 840 980 840 Q 1000 840 1020 840 Q 1040 840 1055 845 Q 1070 850 1075 865 Q 1080 880 1085 895 Q 1090 910 1100 910 Q 1110 910 1115 895 Q 1120 880 1120 860 Q 1120 840 1120 819 Q 1120 800 1100 800 Q 1080 800 1060 800 Q 1040 800 1020 800 Q 1000 800 980 800 Q 960 800 940 800 Q 920 800 900 800 Q 880 800 860 800 Q 840 800 820 800 Q 800 800 780 800 Q 760 800 740 800 Q 720 800 705 795 Q 690 790 690 780 Q 690 770 705 765 Q 720 760 740 760 Q 760 760 780 760 Q 800 760 820 760 Q 840 760 860 760 Q 880 760 900 760 Q 920 760 940 760 Q 960 760 980 760 Q 1000 760 1020 760 Q 1040 760 1060 760 Q 1080 760 1100 760 Q 1120 760 1135 755 Q 1150 750 1160 740 Q 1170 730 1180 720 Q 1190 710 1200 700 Q 1210 690 1220 680 Q 1230 670 1235 655 Q 1240 640 1220 640 Q 1200 640 1195 655 Q 1190 670 1180 680 Q 1170 690 1160 700 Q 1150 710 1135 715 Q 1120 720 1100 720 Q 1080 720 1060 720 Q 1040 720 1020 720 Q 1000 720 980 720 Q 960 720 940 720 Q 920 720 900 720 Q 880 720 860 720 Q 840 720 820 720 Q 800 720 780 720 Q 760 720 740 720 Q 720 720 700 720 Q 680 720 675 735 Q 670 750 655 755 Q 640 760 620 760 Z" fill="rgb(192,192,192)" stroke="rgb(192,192,192)" /><path d="M 375 835 Q 360 840 360 860 Q 360 880 360 900 Q 360 920 360 940 Q 360 960 360 980 Q 360 1000 380 1000 Q 400 1000 405 985 Q 410 970 420 960 Q 430 950 440 940 Q 450 930 460 920 Q 470 910 480 900 Q 490 890 500 880 Q 510 870 520 860 Q 530 850 545 845 Q 560 840 560 820 Q 560 800 560 780 Q 560 760 560 740 Q 560 720 555 705 Q 550 690 540 690 Q 530 690 520 700 Q 510 710 500 720 Q 490 730 480 740 Q 470 750 460 760 Q 450 770 440 780 Q 430 790 420 800 Q 410 810 400 820 Q 390 830 375 835 Z" fill="rgb(0,0,128)" stroke="rgb(0,0,128)" /><path d="M 900 1160 Q 880 1160 880 1180 Q 880 1200 900 1200 Q 920 1200 920 1180 Q 920 1160 900 1160 Z" fill="rgb(255,255,0)" stroke="rgb(255,255,0)" /><path d="M 980 1160 Q 960 1160 960 1180 Q 960 1200 980 1200 Q 1000 1200 1000 1180 Q 1000 1160 980 1160 Z" fill="rgb(255,255,0)" stroke="rgb(255,255,0)" /><path d="M 705 965 Q 690 970 690 980 Q 690 990 705 995 Q 720 1000 720 980 Q 720 960 705 965 Z" fill="rgb(255,255,0)" stroke="rgb(255,255,0)" /><path d="M 620 640 Q 600 640 605 655 Q 610 670 625 675 Q 640 680 660 680 Q 680 680 675 665 Q 670 650 655 645 Q 640 640 620 640 Z" fill="rgb(128,128,128)" stroke="rgb(128,128,128)" /><path d="M 50 627 Q 45 641 45 660 Q 44 678 50 693 Q 55 707 63 717 Q 71 728 78 738 Q 86 749 95 760 Q 104 772 109 787 Q 114 801 115 821 Q 115 840 116 859 Q 116 879 117 899 Q 117 920 118 940 Q 118 960 118 979 Q 119 998 119 1018 Q 119 1037 120 1058 Q 120 1079 120 1100 Q 120 1121 120 1140 Q 121 1160 121 1179 Q 121 1199 121 1218 Q 121 1237 122 1257 Q 122 1276 128 1291 Q 134 1306 147 1310 Q 161 1314 180 1314 Q 200 1314 219 1315 Q 239 1315 259 1315 Q 279 1315 299 1315 Q 318 1315 338 1315 Q 358 1315 372 1310 Q 386 1304 396 1295 Q 406 1286 416 1276 Q 427 1266 436 1257 Q 446 1248 457 1237 Q 468 1226 478 1216 Q 487 1207 497 1197 Q 507 1187 517 1177 Q 527 1167 536 1156 Q 546 1146 555 1136 Q 565 1126 574 1116 Q 584 1106 591 1094 Q 597 1082 605 1068 Q 613 1054 627 1049 Q 641 1045 661 1045 Q 680 1044 700 1043 Q 720 1043 740 1042 Q 761 1042 781 1041 Q 800 1041 820 1041 Q 839 1040 860 1040 Q 881 1040 900 1039 Q 919 1039 939 1039 Q 958 1038 979 1038 Q 1000 1038 1020 1037 Q 1041 1037 1059 1037 Q 1078 1036 1098 1036 Q 1118 1035 1132 1030 Q 1147 1024 1156 1015 Q 1166 1005 1176 996 Q 1186 986 1197 976 Q 1207 966 1216 957 Q 1226 947 1236 937 Q 1247 926 1257 916 Q 1266 906 1276 897 Q 1285 887 1295 877 Q 1304 866 1309 852 Q 1314 838 1314 819 Q 1315 800 1315 779 Q 1315 759 1315 740 Q 1315 721 1315 701 Q 1316 682 1310 667 Q 1304 652 1295 644 Q 1286 635 1276 625 Q 1266 615 1252 611 Q 1238 607 1221 602 Q 1204 597 1189 591 Q 1173 586 1169 572 Q 1165 558 1165 539 Q 1164 520 1163 499 Q 1163 479 1162 459 Q 1162 440 1161 419 Q 1161 399 1160 379 Q 1160 360 1160 339 Q 1159 319 1159 299 Q 1159 279 1158 259 Q 1158 240 1158 220 Q 1157 200 1157 181 Q 1156 161 1156 141 Q 1156 122 1150 107 Q 1144 92 1135 83 Q 1126 75 1116 65 Q 1106 55 1092 50 Q 1078 45 1058 45 Q 1039 44 1019 44 Q 1000 43 980 43 Q 959 42 939 42 Q 919 42 900 41 Q 881 41 861 41 Q 840 41 820 40 Q 799 40 779 40 Q 758 40 738 41 Q 718 41 698 41 Q 678 41 659 41 Q 640 41 620 42 Q 599 42 580 42 Q 561 43 541 43 Q 522 44 507 49 Q 492 55 483 64 Q 473 73 463 83 Q 453 93 443 103 Q 433 113 423 123 Q 414 133 404 143 Q 395 152 385 162 Q 375 173 370 187 Q 365 201 364 221 Q 364 240 363 260 Q 362 280 361 300 Q 361 320 360 340 Q 359 360 359 379 Q 358 398 358 418 Q 357 438 356 458 Q 356 478 350 492 Q 344 506 338 515 Q 331 524 323 537 Q 314 550 303 546 Q 292 543 289 531 Q 286 518 281 501 Q 277 484 272 468 Q 267 453 253 449 Q 239 445 226 450 Q 212 455 203 464 Q 193 473 183 483 Q 173 493 163 503 Q 153 512 143 522 Q 133 532 123 542 Q 113 552 103 562 Q 93 572 84 582 Q 74 592 64 602 Q 54 613 50 627 Z M 85 625 Q 90 610 100 600 Q 110 590 120 580 Q 130 570 140 560 Q 150 550 160 540 Q 170 530 180 520 Q 190 510 200 500 Q 210 490 220 490 Q 230 490 235 505 Q 240 520 245 535 Q 250 550 260 560 Q 270 570 280 580 Q 290 590 300 600 Q 310 610 310 620 Q 310 630 300 640 Q 290 650 280 660 Q 270 670 254 675 Q 240 680 220 680 Q 200 680 185 685 Q 170 690 160 700 Q 150 710 135 715 Q 120 720 105 715 Q 90 710 85 695 Q 80 680 80 660 Q 80 640 85 625 Z M 174 745 Q 177 733 192 728 Q 207 723 225 725 Q 243 726 261 727 Q 279 729 297 730 Q 316 732 327 735 Q 339 738 344 750 Q 349 761 345 773 Q 342 785 327 790 Q 312 794 294 793 Q 277 792 258 791 Q 240 790 222 789 Q 203 787 192 784 Q 180 781 175 769 Q 170 758 174 745 Z M 165 865 Q 170 850 185 845 Q 200 840 220 840 Q 240 840 260 840 Q 280 840 300 840 Q 320 840 340 840 Q 360 840 375 835 Q 390 830 400 820 Q 410 810 420 800 Q 430 790 440 780 Q 450 770 460 760 Q 470 750 480 740 Q 490 730 500 720 Q 510 710 520 700 Q 530 690 540 690 Q 550 690 555 705 Q 560 720 560 740 Q 560 760 560 780 Q 560 800 560 820 Q 560 840 560 860 Q 560 880 560 900 Q 560 920 560 940 Q 560 960 560 980 Q 560 1000 560 1020 Q 560 1040 560 1060 Q 560 1080 555 1095 Q 550 1110 540 1120 Q 530 1130 520 1140 Q 510 1150 500 1160 Q 490 1170 480 1180 Q 470 1190 460 1200 Q 450 1210 440 1220 Q 430 1230 415 1235 Q 400 1240 395 1255 Q 390 1270 375 1275 Q 360 1280 339 1280 Q 320 1280 300 1280 Q 280 1280 260 1280 Q 240 1280 220 1280 Q 200 1280 184 1275 Q 170 1270 165 1255 Q 160 1240 160 1220 Q 160 1200 160 1180 Q 160 1160 160 1140 Q 160 1120 160 1100 Q 160 1080 160 1060 Q 160 1040 160 1020 Q 160 1000 160 980 Q 160 960 160 940 Q 160 920 160 900 Q 160 880 165 865 Z M 340 640 Q 350 630 355 615 Q 360 600 360 580 Q 360 560 365 545 Q 370 530 385 525 Q 400 520 420 520 Q 440 520 460 520 Q 480 520 500 520 Q 520 520 535 525 Q 550 530 555 545 Q 560 560 560 580 Q 560 600 555 615 Q 550 630 535 635 Q 520 640 515 655 Q 510 670 500 680 Q 490 690 480 700 Q 470 710 460 720 Q 450 730 440 740 Q 430 750 420 750 Q 410 750 400 740 Q 390 730 380 720 Q 370 710 365 695 Q 360 680 345 675 Q 330 670 330 660 Q 330 650 340 640 Z M 405 185 Q 410 170 425 165 Q 440 160 445 145 Q 450 130 465 125 Q 480 120 485 105 Q 490 90 505 85 Q 520 80 540 80 Q 560 80 580 80 Q 600 80 620 80 Q 640 80 660 80 Q 680 80 700 80 Q 720 80 740 80 Q 760 80 780 80 Q 800 80 820 80 Q 840 80 860 80 Q 880 80 900 80 Q 920 80 940 80 Q 960 80 980 80 Q 1000 80 1020 80 Q 1040 80 1060 80 Q 1080 80 1095 85 Q 1110 90 1115 105 Q 1120 120 1120 139 Q 1120 160 1120 180 Q 1120 200 1120 220 Q 1120 240 1120 260 Q 1120 280 1120 300 Q 1120 320 1120 339 Q 1120 360 1120 380 Q 1120 400 1120 420 Q 1120 440 1120 460 Q 1120 480 1120 500 Q 1120 520 1120 540 Q 1120 560 1120 579 Q 1120 600 1115 615 Q 1110 630 1100 640 Q 1090 650 1080 660 Q 1070 670 1055 675 Q 1040 680 1020 680 Q 1000 680 980 680 Q 960 680 940 680 Q 920 680 900 680 Q 880 680 860 680 Q 840 680 820 680 Q 800 680 780 680 Q 760 680 740 680 Q 720 680 700 680 Q 680 680 660 680 Q 640 680 625 675 Q 610 670 605 655 Q 600 640 605 625 Q 610 610 625 605 Q 640 600 660 600 Q 680 600 700 600 Q 720 600 740 600 Q 760 600 780 600 Q 800 600 820 600 Q 840 600 860 600 Q 880 600 900 600 Q 920 600 935 595 Q 950 590 955 575 Q 960 560 960 540 Q 960 520 960 500 Q 960 480 960 460 Q 960 440 960 420 Q 960 400 960 380 Q 960 360 960 339 Q 960 320 960 300 Q 960 280 960 260 Q 960 240 940 240 Q 920 240 900 240 Q 880 240 860 240 Q 840 240 820 240 Q 800 240 780 240 Q 760 240 740 240 Q 720 240 700 240 Q 680 240 660 240 Q 640 240 620 240 Q 600 240 580 240 Q 560 240 539 240 Q 520 240 505 245 Q 490 250 485 265 Q 480 280 480 300 Q 480 320 480 340 Q 480 360 480 380 Q 480 400 480 420 Q 480 440 475 455 Q 470 470 455 475 Q 440 480 425 475 Q 410 470 405 455 Q 400 440 400 420 Q 400 400 400 379 Q 400 360 400 340 Q 400 320 400 300 Q 400 280 400 260 Q 400 240 400 220 Q 400 200 405 185 Z M 525 305 Q 530 290 545 285 Q 560 280 580 280 Q 600 280 620 280 Q 640 280 660 280 Q 680 280 700 280 Q 720 280 740 280 Q 760 280 780 280 Q 800 280 820 280 Q 840 280 860 280 Q 880 280 895 285 Q 910 290 915 305 Q 920 320 920 340 Q 920 360 920 380 Q 920 400 920 420 Q 920 440 920 460 Q 920 480 920 500 Q 920 520 915 535 Q 910 550 895 555 Q 880 560 860 560 Q 840 560 820 560 Q 800 560 780 560 Q 760 560 740 560 Q 720 560 700 560 Q 680 560 660 560 Q 640 560 625 555 Q 610 550 605 535 Q 600 520 585 515 Q 570 510 560 500 Q 550 490 540 480 Q 530 470 525 455 Q 520 440 520 420 Q 520 400 520 380 Q 520 360 520 340 Q 520 320 525 305 Z M 605 745 Q 610 730 625 725 Q 640 720 660 720 Q 680 720 700 720 Q 720 720 740 720 Q 760 720 780 720 Q 800 720 820 720 Q 840 720 860 720 Q 880 720 900 720 Q 920 720 940 720 Q 960 720 980 720 Q 1000 720 1019 720 Q 1040 720 1060 720 Q 1080 720 1085 705 Q 1090 690 1100 680 Q 1110 670 1120 660 Q 1130 650 1145 645 Q 1160 640 1180 640 Q 1200 640 1220 640 Q 1240 640 1255 645 Q 1270 650 1275 665 Q 1280 680 1280 700 Q 1280 720 1280 740 Q 1280 760 1280 780 Q 1280 800 1280 820 Q 1280 840 1275 855 Q 1270 870 1260 880 Q 1250 890 1240 900 Q 1230 910 1220 920 Q 1210 930 1200 940 Q 1190 950 1180 960 Q 1170 970 1160 980 Q 1150 990 1135 995 Q 1120 1000 1100 1000 Q 1080 1000 1060 1000 Q 1040 1000 1020 1000 Q 1000 1000 980 1000 Q 960 1000 940 1000 Q 920 1000 900 1000 Q 880 1000 860 1000 Q 840 1000 820 1000 Q 800 1000 800 980 Q 800 960 780 960 Q 760 960 740 960 Q 720 960 720 980 Q 720 1000 740 1000 Q 760 1000 680 880 Q 600 760 605 745 Z M 849 889 Q 859 879 870 889 Q 881 899 870 910 Q 860 920 849 910 Q 839 900 849 889 Z" fill="rgb(0,0,0)" stroke="rgb(0,0,0)" /><path d="M 1060 1160 Q 1040 1160 1040 1180 Q 1040 1200 1060 1200 Q 1080 1200 1080 1180 Q 1080 1160 1060 1160 Z" fill="rgb(255,255,0)" stroke="rgb(255,255,0)" /><path d="M 165 865 Q 160 880 160 900 Q 160 920 160 940 Q 160 960 160 980 Q 160 1000 180 1000 Q 200 1000 220 1000 Q 240 1000 260 1000 Q 280 1000 300 1000 Q 320 1000 340 1000 Q 360 1000 360 980 Q 360 960 360 940 Q 360 920 360 900 Q 360 880 360 860 Q 360 840 340 840 Q 320 840 300 840 Q 280 840 260 840 Q 240 840 220 840 Q 200 840 185 845 Q 170 850 165 865 Z" fill="rgb(0,0,255)" stroke="rgb(0,0,255)" /><path d="M 561 356 Q 553 365 560 373 Q 567 381 574 379 Q 582 376 589 368 Q 596 359 591 352 Q 585 345 578 345 Q 570 346 561 356 Z" fill="rgb(0,255,255)" stroke="rgb(0,255,255)" /><path d="M 1135 1165 Q 1120 1160 1120 1180 Q 1120 1200 1135 1195 Q 1150 1190 1150 1180 Q 1150 1170 1135 1165 Z" fill="rgb(255,255,0)" stroke="rgb(255,255,0)" /><path d="M 975 955 Q 960 960 960 980 Q 960 1000 980 1000 Q 1000 1000 1020 1000 Q 1040 1000 1060 1000 Q 1080 1000 1100 1000 Q 1120 1000 1135 995 Q 1150 990 1160 980 Q 1170 970 1180 960 Q 1190 950 1200 940 Q 1210 930 1220 920 Q 1230 910 1240 900 Q 1250 890 1260 880 Q 1270 870 1275 855 Q 1280 840 1280 820 Q 1280 800 1280 780 Q 1280 760 1280 740 Q 1280 720 1280 700 Q 1280 680 1275 665 Q 1270 650 1255 645 Q 1240 640 1235 655 Q 1230 670 1220 680 Q 1210 690 1200 700 Q 1190 710 1180 720 Q 1170 730 1160 740 Q 1150 750 1135 755 Q 1120 760 1120 780 Q 1120 800 1120 820 Q 1120 840 1120 860 Q 1120 880 1115 895 Q 1110 910 1100 910 Q 1090 910 1085 895 Q 1080 880 1065 885 Q 1050 890 1040 900 Q 1030 910 1020 920 Q 1010 930 1000 940 Q 990 950 975 955 Z" fill="rgb(128,128,128)" stroke="rgb(128,128,128)" /><path d="M 1045 145 Q 1040 160 1040 180 Q 1040 200 1040 220 Q 1040 240 1040 259 Q 1040 280 1040 300 Q 1040 320 1040 340 Q 1040 360 1040 380 Q 1040 400 1040 420 Q 1040 440 1040 460 Q 1040 480 1040 500 Q 1040 520 1040 540 Q 1040 560 1040 580 Q 1040 600 1040 620 Q 1040 640 1040 660 Q 1040 680 1055 675 Q 1070 670 1080 660 Q 1090 650 1100 640 Q 1110 630 1115 615 Q 1120 600 1120 579 Q 1120 560 1120 540 Q 1120 520 1120 500 Q 1120 480 1120 460 Q 1120 440 1120 420 Q 1120 400 1120 380 Q 1120 360 1120 340 Q 1120 320 1120 300 Q 1120 280 1120 259 Q 1120 240 1120 220 Q 1120 200 1120 180 Q 1120 160 1120 140 Q 1120 120 1115 105 Q 1110 90 1095 85 Q 1080 80 1075 95 Q 1070 110 1060 120 Q 1050 130 1045 145 Z" fill="rgb(128,128,128)" stroke="rgb(128,128,128)" /><path d="M 695 885 Q 680 880 680 900 Q 680 920 695 915 Q 710 910 710 900 Q 710 890 695 885 Z" fill="rgb(192,192,192)" stroke="rgb(192,192,192)" /><path d="M 445 264 Q 440 280 440 300 Q 440 320 440 340 Q 440 360 440 380 Q 440 400 440 420 Q 440 440 440 460 Q 440 480 455 475 Q 470 470 475 455 Q 480 440 480 420 Q 480 400 480 380 Q 480 360 480 340 Q 480 320 480 300 Q 480 280 485 264 Q 490 250 505 245 Q 520 240 540 240 Q 560 240 580 240 Q 600 240 620 240 Q 640 240 660 240 Q 680 240 700 240 Q 720 240 740 240 Q 760 240 780 240 Q 800 240 820 240 Q 840 240 860 240 Q 880 240 900 240 Q 920 240 940 240 Q 960 240 955 224 Q 950 210 935 205 Q 920 200 900 200 Q 880 200 860 200 Q 840 200 820 200 Q 800 200 780 200 Q 760 200 740 200 Q 720 200 700 200 Q 680 200 660 200 Q 640 200 620 200 Q 600 200 579 200 Q 560 200 540 200 Q 520 200 505 205 Q 490 210 480 219 Q 470 230 460 240 Q 450 250 445 265 Z" fill="rgb(128,128,128)" stroke="rgb(128,128,128)" /><path d="M 702 1273 Q 690 1283 695 1294 Q 699 1304 710 1307 Q 722 1310 741 1311 Q 760 1312 780 1312 Q 800 1313 819 1313 Q 839 1313 859 1314 Q 880 1314 900 1314 Q 920 1314 940 1314 Q 959 1314 978 1314 Q 997 1314 1017 1314 Q 1037 1313 1051 1308 Q 1065 1302 1075 1293 Q 1086 1284 1096 1275 Q 1105 1266 1117 1257 Q 1128 1247 1137 1238 Q 1147 1230 1160 1218 Q 1172 1207 1181 1199 Q 1189 1191 1198 1183 Q 1206 1175 1217 1166 Q 1227 1156 1224 1145 Q 1220 1135 1208 1132 Q 1197 1129 1178 1128 Q 1159 1127 1139 1127 Q 1119 1126 1099 1126 Q 1079 1126 1059 1125 Q 1039 1125 1020 1125 Q 1000 1125 980 1125 Q 960 1125 940 1125 Q 921 1125 902 1125 Q 882 1126 868 1131 Q 853 1137 844 1146 Q 834 1154 824 1163 Q 814 1172 803 1181 Q 793 1190 782 1200 Q 771 1210 761 1219 Q 750 1229 739 1238 Q 729 1248 721 1255 Q 713 1263 702 1273 Z M 865 1165 Q 880 1160 880 1180 Q 880 1200 900 1200 Q 920 1200 940 1200 Q 960 1200 960 1180 Q 960 1160 980 1160 Q 1000 1160 1020 1160 Q 1040 1160 1040 1180 Q 1040 1200 1020 1200 Q 1000 1200 925 1185 Q 850 1170 865 1165 Z M 929 1249 Q 940 1238 950 1249 Q 961 1260 950 1270 Q 939 1281 929 1270 Q 918 1259 929 1249 Z" fill="rgb(0,0,0)" stroke="rgb(0,0,0)" /><path d="M 525 305 Q 520 320 520 340 Q 520 360 520 380 Q 520 400 520 420 Q 520 440 525 455 Q 530 470 540 480 Q 550 490 560 500 Q 570 510 585 515 Q 600 520 615 525 Q 630 530 635 545 Q 640 560 660 560 Q 680 560 700 560 Q 720 560 740 560 Q 760 560 780 560 Q 800 560 820 560 Q 840 560 860 560 Q 880 560 895 555 Q 910 550 915 535 Q 920 520 920 499 Q 920 480 920 460 Q 920 440 920 420 Q 920 400 920 380 Q 920 360 920 340 Q 920 320 915 304 Q 910 290 895 285 Q 880 280 860 280 Q 840 280 820 280 Q 800 280 780 280 Q 760 280 740 280 Q 720 280 700 280 Q 680 280 660 280 Q 640 280 620 280 Q 600 280 580 280 Q 560 280 545 285 Q 530 290 525 305 Z M 561 356 Q 570 346 578 345 Q 585 345 591 352 Q 596 359 589 368 Q 582 376 574 379 Q 567 381 560 373 Q 553 365 561 356 Z" fill="rgb(0,0,255)" stroke="rgb(0,0,255)" /><path d="M 340 640 Q 330 650 330 660 Q 330 670 345 675 Q 360 680 365 665 Q 370 650 385 645 Q 400 640 420 640 Q 440 640 460 640 Q 480 640 500 640 Q 520 640 535 635 Q 550 630 555 615 Q 560 600 540 600 Q 520 600 500 600 Q 480 600 460 600 Q 440 600 420 600 Q 400 600 380 600 Q 360 600 355 615 Q 350 630 340 640 Z" fill="rgb(128,128,128)" stroke="rgb(128,128,128)" /><path d="M 485 105 Q 480 120 500 120 Q 520 120 540 120 Q 560 120 580 120 Q 600 120 620 120 Q 640 120 660 120 Q 680 120 700 120 Q 720 120 740 120 Q 760 120 780 120 Q 800 120 820 120 Q 840 120 860 120 Q 880 120 900 120 Q 920 120 940 120 Q 960 120 980 120 Q 1000 120 1015 115 Q 1030 110 1035 95 Q 1040 80 1020 80 Q 1000 80 980 80 Q 960 80 940 80 Q 920 80 900 80 Q 880 80 860 80 Q 840 80 820 80 Q 800 80 780 80 Q 760 80 740 80 Q 720 80 700 80 Q 680 80 660 80 Q 640 80 620 80 Q 600 80 580 80 Q 560 80 540 80 Q 520 80 505 85 Q 490 90 485 105 Z" fill="rgb(192,192,192)" stroke="rgb(192,192,192)" /><path d="M 405 185 Q 400 200 400 220 Q 400 240 400 260 Q 400 280 400 299 Q 400 320 400 340 Q 400 360 400 380 Q 400 400 400 420 Q 400 440 405 455 Q 410 470 425 475 Q 440 480 440 460 Q 440 440 440 420 Q 440 400 440 380 Q 440 360 440 339 Q 440 320 440 300 Q 440 280 445 265 Q 450 250 460 240 Q 470 230 480 220 Q 490 210 505 205 Q 520 200 540 200 Q 560 200 580 200 Q 600 200 620 200 Q 640 200 660 200 Q 680 200 700 200 Q 720 200 739 200 Q 760 200 780 200 Q 800 200 820 200 Q 840 200 860 200 Q 880 200 900 200 Q 920 200 935 205 Q 950 210 955 225 Q 960 240 975 245 Q 990 250 995 265 Q 1000 280 1000 300 Q 1000 320 1000 339 Q 1000 360 1000 380 Q 1000 400 1000 420 Q 1000 440 1000 460 Q 1000 480 1000 500 Q 1000 520 1000 540 Q 1000 560 995 575 Q 990 590 980 600 Q 970 610 960 620 Q 950 630 935 635 Q 920 640 900 640 Q 880 640 860 640 Q 840 640 820 640 Q 800 640 780 640 Q 760 640 740 640 Q 720 640 705 635 Q 690 630 685 614 Q 680 600 660 600 Q 640 600 624 605 Q 610 610 605 624 Q 600 640 620 640 Q 640 640 654 645 Q 670 650 675 665 Q 680 680 700 680 Q 720 680 740 680 Q 760 680 780 680 Q 800 680 820 680 Q 840 680 860 680 Q 880 680 899 680 Q 920 680 940 680 Q 960 680 979 680 Q 1000 680 1020 680 Q 1040 680 1040 660 Q 1040 640 1040 620 Q 1040 600 1040 580 Q 1040 560 1040 540 Q 1040 520 1040 499 Q 1040 480 1040 460 Q 1040 440 1040 419 Q 1040 400 1040 380 Q 1040 360 1040 340 Q 1040 320 1040 300 Q 1040 280 1040 260 Q 1040 240 1040 220 Q 1040 200 1040 180 Q 1040 160 1020 160 Q 1000 160 980 160 Q 960 160 939 160 Q 920 160 900 160 Q 880 160 859 160 Q 840 160 820 160 Q 800 160 780 160 Q 760 160 740 160 Q 720 160 700 160 Q 680 160 660 160 Q 640 160 620 160 Q 600 160 580 160 Q 560 160 540 160 Q 520 160 499 160 Q 480 160 460 160 Q 440 160 425 165 Q 410 170 405 185 Z" fill="rgb(192,192,192)" stroke="rgb(192,192,192)" /><path d="M 780 960 Q 760 960 760 980 Q 760 1000 780 1000 Q 800 1000 800 980 Q 800 960 780 960 Z" fill="rgb(255,255,0)" stroke="rgb(255,255,0)" /></svg>